M48
; DRILL file {KiCad (5.1.10)-1} date 08/26/21 19:54:59
; FORMAT={-:-/ absolute / metric / decimal}
; #@! TF.CreationDate,2021-08-26T19:54:59+02:00
; #@! TF.GenerationSoftware,Kicad,Pcbnew,(5.1.10)-1
; #@! TF.FileFunction,Plated,1,2,PTH
FMAT,2
METRIC
T1C0.400
T2C0.600
T3C0.760
T4C0.800
T5C1.000
T6C1.300
T7C3.000
%
G90
G05
T1
X49.925Y-92.325
X54.45Y-91.15
X56.2Y-89.9
X74.7Y-71.4
X74.7Y-75.65
X74.7Y-79.65
X74.95Y-77.65
X75.2Y-69.4
X75.2Y-73.65
X82.7Y-79.4
X83.6Y-94.7
X83.7Y-92.3
X83.9Y-90.0
X85.95Y-75.15
X87.7Y-90.42
X87.7Y-91.42
X87.95Y-94.4
X88.013Y-93.202
X88.334Y-92.255
X88.725Y-81.425
X88.864Y-93.925
X88.884Y-91.42
X88.95Y-82.9
X89.45Y-79.4
X89.7Y-102.8
X90.588Y-85.288
X90.7Y-107.65
X90.95Y-84.15
X90.95Y-95.9
X91.535Y-87.815
X91.7Y-86.65
X92.635Y-90.965
X92.7Y-92.4
X92.7Y-107.65
X93.7Y-81.1
X93.95Y-102.9
X94.405Y-86.4
X94.5Y-79.2
X94.95Y-107.65
X95.7Y-95.4
X95.8Y-81.1
X96.63Y-92.22
X97.355Y-91.513
X97.5Y-95.1
X97.7Y-75.0
X98.052Y-90.795
X98.7Y-86.15
X99.3Y-96.8
X99.45Y-85.4
X100.7Y-89.15
X101.1Y-79.5
X101.2Y-89.9
X101.2Y-91.92
X105.4Y-91.6
X106.1Y-79.3
X106.7Y-88.7
X109.4Y-74.8
X112.8Y-79.1
X116.7Y-78.7
X117.7Y-94.4
X120.45Y-93.4
X121.7Y-81.1
X123.0Y-92.7
X123.2Y-80.4
T2
X71.125Y-88.6
X71.125Y-96.4
X71.125Y-104.2
X71.125Y-112.0
X72.925Y-83.6
X72.925Y-91.4
X72.925Y-99.2
X72.925Y-107.0
T3
X104.2Y-118.6
X104.2Y-126.2
T4
X76.2Y-118.6
X76.2Y-133.8
X116.95Y-116.05
X116.95Y-123.67
X119.49Y-116.05
X119.49Y-123.67
X122.03Y-116.05
X122.03Y-123.67
X124.57Y-116.05
X124.57Y-123.67
X127.11Y-116.05
X127.11Y-123.67
X129.65Y-116.05
X129.65Y-123.67
T5
X66.125Y-98.78
X66.125Y-101.32
X66.125Y-103.86
X66.125Y-106.4
X69.2Y-118.4
X69.2Y-128.4
X112.87Y-86.975
X112.87Y-109.835
X114.1Y-129.3
X114.1Y-134.3
X115.41Y-86.975
X115.41Y-109.835
X117.95Y-86.975
X117.95Y-109.835
X120.185Y-64.005
X120.185Y-66.545
X120.185Y-69.085
X120.185Y-71.625
X120.185Y-74.165
X120.185Y-76.705
X120.49Y-86.975
X120.49Y-109.835
X122.725Y-64.005
X122.725Y-66.545
X122.725Y-69.085
X122.725Y-71.625
X122.725Y-74.165
X122.725Y-76.705
X123.03Y-86.975
X123.03Y-109.835
X125.57Y-86.975
X125.57Y-109.835
X128.11Y-86.975
X128.11Y-109.835
X130.65Y-86.975
X130.65Y-109.835
T6
X49.925Y-98.6
X49.925Y-103.6
X49.925Y-108.6
X49.925Y-113.6
X56.2Y-124.4
X61.2Y-124.4
T7
X48.2Y-59.4
X48.2Y-135.4
X135.2Y-59.4
X135.2Y-135.4
T0
M30
