G04 #@! TF.GenerationSoftware,KiCad,Pcbnew,(5.1.10)-1*
G04 #@! TF.CreationDate,2021-08-26T19:54:54+02:00*
G04 #@! TF.ProjectId,CT_Sensor_Mains,43545f53-656e-4736-9f72-5f4d61696e73,rev?*
G04 #@! TF.SameCoordinates,Original*
G04 #@! TF.FileFunction,Soldermask,Top*
G04 #@! TF.FilePolarity,Negative*
%FSLAX46Y46*%
G04 Gerber Fmt 4.6, Leading zero omitted, Abs format (unit mm)*
G04 Created by KiCad (PCBNEW (5.1.10)-1) date 2021-08-26 19:54:54*
%MOMM*%
%LPD*%
G01*
G04 APERTURE LIST*
%ADD10O,1.600000X2.000000*%
%ADD11R,2.000000X2.000000*%
%ADD12C,2.600000*%
%ADD13R,2.600000X2.600000*%
%ADD14O,1.600000X1.600000*%
%ADD15R,1.600000X1.600000*%
%ADD16C,1.600000*%
%ADD17O,1.700000X1.700000*%
%ADD18R,1.700000X1.700000*%
%ADD19R,0.900000X0.800000*%
%ADD20R,0.250000X1.300000*%
%ADD21R,1.300000X0.250000*%
%ADD22C,2.300000*%
%ADD23R,2.300000X2.000000*%
%ADD24C,1.700000*%
%ADD25R,2.800000X2.800000*%
%ADD26R,2.800000X2.200000*%
%ADD27C,2.000000*%
G04 APERTURE END LIST*
D10*
X130650000Y-109835000D03*
X128110000Y-109835000D03*
X125570000Y-109835000D03*
X123030000Y-109835000D03*
X120490000Y-109835000D03*
X117950000Y-109835000D03*
X115410000Y-109835000D03*
X112870000Y-109835000D03*
X112870000Y-86975000D03*
X115410000Y-86975000D03*
X117950000Y-86975000D03*
X120490000Y-86975000D03*
X123030000Y-86975000D03*
X125570000Y-86975000D03*
D11*
X130650000Y-86975000D03*
D10*
X128110000Y-86975000D03*
D12*
X49925000Y-98600000D03*
X49925000Y-103600000D03*
X49925000Y-108600000D03*
D13*
X49925000Y-113600000D03*
D14*
X129650000Y-123670000D03*
X116950000Y-116050000D03*
X127110000Y-123670000D03*
X119490000Y-116050000D03*
X124570000Y-123670000D03*
X122030000Y-116050000D03*
X122030000Y-123670000D03*
X124570000Y-116050000D03*
X119490000Y-123670000D03*
X127110000Y-116050000D03*
X116950000Y-123670000D03*
D15*
X129650000Y-116050000D03*
D16*
X72925000Y-107000000D03*
X71125000Y-112000000D03*
D17*
X122725000Y-76705000D03*
X120185000Y-76705000D03*
X122725000Y-74165000D03*
X120185000Y-74165000D03*
X122725000Y-71625000D03*
X120185000Y-71625000D03*
X122725000Y-69085000D03*
X120185000Y-69085000D03*
X122725000Y-66545000D03*
X120185000Y-66545000D03*
X122725000Y-64005000D03*
D18*
X120185000Y-64005000D03*
D17*
X66125000Y-98780000D03*
X66125000Y-101320000D03*
X66125000Y-103860000D03*
D18*
X66125000Y-106400000D03*
D19*
X97175000Y-101475000D03*
X98825000Y-102725000D03*
X98825000Y-101475000D03*
X97175000Y-102725000D03*
D20*
X92630000Y-88095000D03*
X93130000Y-88095000D03*
X93630000Y-88095000D03*
X94130000Y-88095000D03*
X94630000Y-88095000D03*
X95130000Y-88095000D03*
X95630000Y-88095000D03*
X96130000Y-88095000D03*
X96630000Y-88095000D03*
X97130000Y-88095000D03*
X97630000Y-88095000D03*
X98130000Y-88095000D03*
D21*
X99730000Y-89695000D03*
X99730000Y-90195000D03*
X99730000Y-90695000D03*
X99730000Y-91195000D03*
X99730000Y-91695000D03*
X99730000Y-92195000D03*
X99730000Y-92695000D03*
X99730000Y-93195000D03*
X99730000Y-93695000D03*
X99730000Y-94195000D03*
X99730000Y-94695000D03*
X99730000Y-95195000D03*
D20*
X98130000Y-96795000D03*
X97630000Y-96795000D03*
X97130000Y-96795000D03*
X96630000Y-96795000D03*
X96130000Y-96795000D03*
X95630000Y-96795000D03*
X95130000Y-96795000D03*
X94630000Y-96795000D03*
X94130000Y-96795000D03*
X93630000Y-96795000D03*
X93130000Y-96795000D03*
X92630000Y-96795000D03*
D21*
X91030000Y-95195000D03*
X91030000Y-94695000D03*
X91030000Y-94195000D03*
X91030000Y-93695000D03*
X91030000Y-93195000D03*
X91030000Y-92695000D03*
X91030000Y-92195000D03*
X91030000Y-91695000D03*
X91030000Y-91195000D03*
X91030000Y-90695000D03*
X91030000Y-90195000D03*
X91030000Y-89695000D03*
D16*
X72925000Y-83600000D03*
X71125000Y-88600000D03*
X72925000Y-91400000D03*
X71125000Y-96400000D03*
X72925000Y-99200000D03*
X71125000Y-104200000D03*
G36*
G01*
X91150001Y-105100000D02*
X90249999Y-105100000D01*
G75*
G02*
X90000000Y-104850001I0J249999D01*
G01*
X90000000Y-104149999D01*
G75*
G02*
X90249999Y-103900000I249999J0D01*
G01*
X91150001Y-103900000D01*
G75*
G02*
X91400000Y-104149999I0J-249999D01*
G01*
X91400000Y-104850001D01*
G75*
G02*
X91150001Y-105100000I-249999J0D01*
G01*
G37*
G36*
G01*
X91150001Y-107100000D02*
X90249999Y-107100000D01*
G75*
G02*
X90000000Y-106850001I0J249999D01*
G01*
X90000000Y-106149999D01*
G75*
G02*
X90249999Y-105900000I249999J0D01*
G01*
X91150001Y-105900000D01*
G75*
G02*
X91400000Y-106149999I0J-249999D01*
G01*
X91400000Y-106850001D01*
G75*
G02*
X91150001Y-107100000I-249999J0D01*
G01*
G37*
G36*
G01*
X93250001Y-105100000D02*
X92349999Y-105100000D01*
G75*
G02*
X92100000Y-104850001I0J249999D01*
G01*
X92100000Y-104149999D01*
G75*
G02*
X92349999Y-103900000I249999J0D01*
G01*
X93250001Y-103900000D01*
G75*
G02*
X93500000Y-104149999I0J-249999D01*
G01*
X93500000Y-104850001D01*
G75*
G02*
X93250001Y-105100000I-249999J0D01*
G01*
G37*
G36*
G01*
X93250001Y-107100000D02*
X92349999Y-107100000D01*
G75*
G02*
X92100000Y-106850001I0J249999D01*
G01*
X92100000Y-106149999D01*
G75*
G02*
X92349999Y-105900000I249999J0D01*
G01*
X93250001Y-105900000D01*
G75*
G02*
X93500000Y-106149999I0J-249999D01*
G01*
X93500000Y-106850001D01*
G75*
G02*
X93250001Y-107100000I-249999J0D01*
G01*
G37*
G36*
G01*
X95350001Y-105100000D02*
X94449999Y-105100000D01*
G75*
G02*
X94200000Y-104850001I0J249999D01*
G01*
X94200000Y-104149999D01*
G75*
G02*
X94449999Y-103900000I249999J0D01*
G01*
X95350001Y-103900000D01*
G75*
G02*
X95600000Y-104149999I0J-249999D01*
G01*
X95600000Y-104850001D01*
G75*
G02*
X95350001Y-105100000I-249999J0D01*
G01*
G37*
G36*
G01*
X95350001Y-107100000D02*
X94449999Y-107100000D01*
G75*
G02*
X94200000Y-106850001I0J249999D01*
G01*
X94200000Y-106149999D01*
G75*
G02*
X94449999Y-105900000I249999J0D01*
G01*
X95350001Y-105900000D01*
G75*
G02*
X95600000Y-106149999I0J-249999D01*
G01*
X95600000Y-106850001D01*
G75*
G02*
X95350001Y-107100000I-249999J0D01*
G01*
G37*
G36*
G01*
X73250000Y-78100001D02*
X73250000Y-77199999D01*
G75*
G02*
X73499999Y-76950000I249999J0D01*
G01*
X74200001Y-76950000D01*
G75*
G02*
X74450000Y-77199999I0J-249999D01*
G01*
X74450000Y-78100001D01*
G75*
G02*
X74200001Y-78350000I-249999J0D01*
G01*
X73499999Y-78350000D01*
G75*
G02*
X73250000Y-78100001I0J249999D01*
G01*
G37*
G36*
G01*
X71250000Y-78100001D02*
X71250000Y-77199999D01*
G75*
G02*
X71499999Y-76950000I249999J0D01*
G01*
X72200001Y-76950000D01*
G75*
G02*
X72450000Y-77199999I0J-249999D01*
G01*
X72450000Y-78100001D01*
G75*
G02*
X72200001Y-78350000I-249999J0D01*
G01*
X71499999Y-78350000D01*
G75*
G02*
X71250000Y-78100001I0J249999D01*
G01*
G37*
G36*
G01*
X73250000Y-74100001D02*
X73250000Y-73199999D01*
G75*
G02*
X73499999Y-72950000I249999J0D01*
G01*
X74200001Y-72950000D01*
G75*
G02*
X74450000Y-73199999I0J-249999D01*
G01*
X74450000Y-74100001D01*
G75*
G02*
X74200001Y-74350000I-249999J0D01*
G01*
X73499999Y-74350000D01*
G75*
G02*
X73250000Y-74100001I0J249999D01*
G01*
G37*
G36*
G01*
X71250000Y-74100001D02*
X71250000Y-73199999D01*
G75*
G02*
X71499999Y-72950000I249999J0D01*
G01*
X72200001Y-72950000D01*
G75*
G02*
X72450000Y-73199999I0J-249999D01*
G01*
X72450000Y-74100001D01*
G75*
G02*
X72200001Y-74350000I-249999J0D01*
G01*
X71499999Y-74350000D01*
G75*
G02*
X71250000Y-74100001I0J249999D01*
G01*
G37*
G36*
G01*
X73250000Y-69900001D02*
X73250000Y-68999999D01*
G75*
G02*
X73499999Y-68750000I249999J0D01*
G01*
X74200001Y-68750000D01*
G75*
G02*
X74450000Y-68999999I0J-249999D01*
G01*
X74450000Y-69900001D01*
G75*
G02*
X74200001Y-70150000I-249999J0D01*
G01*
X73499999Y-70150000D01*
G75*
G02*
X73250000Y-69900001I0J249999D01*
G01*
G37*
G36*
G01*
X71250000Y-69900001D02*
X71250000Y-68999999D01*
G75*
G02*
X71499999Y-68750000I249999J0D01*
G01*
X72200001Y-68750000D01*
G75*
G02*
X72450000Y-68999999I0J-249999D01*
G01*
X72450000Y-69900001D01*
G75*
G02*
X72200001Y-70150000I-249999J0D01*
G01*
X71499999Y-70150000D01*
G75*
G02*
X71250000Y-69900001I0J249999D01*
G01*
G37*
G36*
G01*
X69050000Y-78100001D02*
X69050000Y-77199999D01*
G75*
G02*
X69299999Y-76950000I249999J0D01*
G01*
X70000001Y-76950000D01*
G75*
G02*
X70250000Y-77199999I0J-249999D01*
G01*
X70250000Y-78100001D01*
G75*
G02*
X70000001Y-78350000I-249999J0D01*
G01*
X69299999Y-78350000D01*
G75*
G02*
X69050000Y-78100001I0J249999D01*
G01*
G37*
G36*
G01*
X67050000Y-78100001D02*
X67050000Y-77199999D01*
G75*
G02*
X67299999Y-76950000I249999J0D01*
G01*
X68000001Y-76950000D01*
G75*
G02*
X68250000Y-77199999I0J-249999D01*
G01*
X68250000Y-78100001D01*
G75*
G02*
X68000001Y-78350000I-249999J0D01*
G01*
X67299999Y-78350000D01*
G75*
G02*
X67050000Y-78100001I0J249999D01*
G01*
G37*
G36*
G01*
X69050000Y-74100001D02*
X69050000Y-73199999D01*
G75*
G02*
X69299999Y-72950000I249999J0D01*
G01*
X70000001Y-72950000D01*
G75*
G02*
X70250000Y-73199999I0J-249999D01*
G01*
X70250000Y-74100001D01*
G75*
G02*
X70000001Y-74350000I-249999J0D01*
G01*
X69299999Y-74350000D01*
G75*
G02*
X69050000Y-74100001I0J249999D01*
G01*
G37*
G36*
G01*
X67050000Y-74100001D02*
X67050000Y-73199999D01*
G75*
G02*
X67299999Y-72950000I249999J0D01*
G01*
X68000001Y-72950000D01*
G75*
G02*
X68250000Y-73199999I0J-249999D01*
G01*
X68250000Y-74100001D01*
G75*
G02*
X68000001Y-74350000I-249999J0D01*
G01*
X67299999Y-74350000D01*
G75*
G02*
X67050000Y-74100001I0J249999D01*
G01*
G37*
G36*
G01*
X69050000Y-69900001D02*
X69050000Y-68999999D01*
G75*
G02*
X69299999Y-68750000I249999J0D01*
G01*
X70000001Y-68750000D01*
G75*
G02*
X70250000Y-68999999I0J-249999D01*
G01*
X70250000Y-69900001D01*
G75*
G02*
X70000001Y-70150000I-249999J0D01*
G01*
X69299999Y-70150000D01*
G75*
G02*
X69050000Y-69900001I0J249999D01*
G01*
G37*
G36*
G01*
X67050000Y-69900001D02*
X67050000Y-68999999D01*
G75*
G02*
X67299999Y-68750000I249999J0D01*
G01*
X68000001Y-68750000D01*
G75*
G02*
X68250000Y-68999999I0J-249999D01*
G01*
X68250000Y-69900001D01*
G75*
G02*
X68000001Y-70150000I-249999J0D01*
G01*
X67299999Y-70150000D01*
G75*
G02*
X67050000Y-69900001I0J249999D01*
G01*
G37*
G36*
G01*
X64850000Y-78100001D02*
X64850000Y-77199999D01*
G75*
G02*
X65099999Y-76950000I249999J0D01*
G01*
X65800001Y-76950000D01*
G75*
G02*
X66050000Y-77199999I0J-249999D01*
G01*
X66050000Y-78100001D01*
G75*
G02*
X65800001Y-78350000I-249999J0D01*
G01*
X65099999Y-78350000D01*
G75*
G02*
X64850000Y-78100001I0J249999D01*
G01*
G37*
G36*
G01*
X62850000Y-78100001D02*
X62850000Y-77199999D01*
G75*
G02*
X63099999Y-76950000I249999J0D01*
G01*
X63800001Y-76950000D01*
G75*
G02*
X64050000Y-77199999I0J-249999D01*
G01*
X64050000Y-78100001D01*
G75*
G02*
X63800001Y-78350000I-249999J0D01*
G01*
X63099999Y-78350000D01*
G75*
G02*
X62850000Y-78100001I0J249999D01*
G01*
G37*
G36*
G01*
X64850000Y-74100001D02*
X64850000Y-73199999D01*
G75*
G02*
X65099999Y-72950000I249999J0D01*
G01*
X65800001Y-72950000D01*
G75*
G02*
X66050000Y-73199999I0J-249999D01*
G01*
X66050000Y-74100001D01*
G75*
G02*
X65800001Y-74350000I-249999J0D01*
G01*
X65099999Y-74350000D01*
G75*
G02*
X64850000Y-74100001I0J249999D01*
G01*
G37*
G36*
G01*
X62850000Y-74100001D02*
X62850000Y-73199999D01*
G75*
G02*
X63099999Y-72950000I249999J0D01*
G01*
X63800001Y-72950000D01*
G75*
G02*
X64050000Y-73199999I0J-249999D01*
G01*
X64050000Y-74100001D01*
G75*
G02*
X63800001Y-74350000I-249999J0D01*
G01*
X63099999Y-74350000D01*
G75*
G02*
X62850000Y-74100001I0J249999D01*
G01*
G37*
G36*
G01*
X64850000Y-69900001D02*
X64850000Y-68999999D01*
G75*
G02*
X65099999Y-68750000I249999J0D01*
G01*
X65800001Y-68750000D01*
G75*
G02*
X66050000Y-68999999I0J-249999D01*
G01*
X66050000Y-69900001D01*
G75*
G02*
X65800001Y-70150000I-249999J0D01*
G01*
X65099999Y-70150000D01*
G75*
G02*
X64850000Y-69900001I0J249999D01*
G01*
G37*
G36*
G01*
X62850000Y-69900001D02*
X62850000Y-68999999D01*
G75*
G02*
X63099999Y-68750000I249999J0D01*
G01*
X63800001Y-68750000D01*
G75*
G02*
X64050000Y-68999999I0J-249999D01*
G01*
X64050000Y-69900001D01*
G75*
G02*
X63800001Y-70150000I-249999J0D01*
G01*
X63099999Y-70150000D01*
G75*
G02*
X62850000Y-69900001I0J249999D01*
G01*
G37*
G36*
G01*
X60650000Y-78100001D02*
X60650000Y-77199999D01*
G75*
G02*
X60899999Y-76950000I249999J0D01*
G01*
X61600001Y-76950000D01*
G75*
G02*
X61850000Y-77199999I0J-249999D01*
G01*
X61850000Y-78100001D01*
G75*
G02*
X61600001Y-78350000I-249999J0D01*
G01*
X60899999Y-78350000D01*
G75*
G02*
X60650000Y-78100001I0J249999D01*
G01*
G37*
G36*
G01*
X58650000Y-78100001D02*
X58650000Y-77199999D01*
G75*
G02*
X58899999Y-76950000I249999J0D01*
G01*
X59600001Y-76950000D01*
G75*
G02*
X59850000Y-77199999I0J-249999D01*
G01*
X59850000Y-78100001D01*
G75*
G02*
X59600001Y-78350000I-249999J0D01*
G01*
X58899999Y-78350000D01*
G75*
G02*
X58650000Y-78100001I0J249999D01*
G01*
G37*
G36*
G01*
X60650000Y-74100001D02*
X60650000Y-73199999D01*
G75*
G02*
X60899999Y-72950000I249999J0D01*
G01*
X61600001Y-72950000D01*
G75*
G02*
X61850000Y-73199999I0J-249999D01*
G01*
X61850000Y-74100001D01*
G75*
G02*
X61600001Y-74350000I-249999J0D01*
G01*
X60899999Y-74350000D01*
G75*
G02*
X60650000Y-74100001I0J249999D01*
G01*
G37*
G36*
G01*
X58650000Y-74100001D02*
X58650000Y-73199999D01*
G75*
G02*
X58899999Y-72950000I249999J0D01*
G01*
X59600001Y-72950000D01*
G75*
G02*
X59850000Y-73199999I0J-249999D01*
G01*
X59850000Y-74100001D01*
G75*
G02*
X59600001Y-74350000I-249999J0D01*
G01*
X58899999Y-74350000D01*
G75*
G02*
X58650000Y-74100001I0J249999D01*
G01*
G37*
G36*
G01*
X60650000Y-69900001D02*
X60650000Y-68999999D01*
G75*
G02*
X60899999Y-68750000I249999J0D01*
G01*
X61600001Y-68750000D01*
G75*
G02*
X61850000Y-68999999I0J-249999D01*
G01*
X61850000Y-69900001D01*
G75*
G02*
X61600001Y-70150000I-249999J0D01*
G01*
X60899999Y-70150000D01*
G75*
G02*
X60650000Y-69900001I0J249999D01*
G01*
G37*
G36*
G01*
X58650000Y-69900001D02*
X58650000Y-68999999D01*
G75*
G02*
X58899999Y-68750000I249999J0D01*
G01*
X59600001Y-68750000D01*
G75*
G02*
X59850000Y-68999999I0J-249999D01*
G01*
X59850000Y-69900001D01*
G75*
G02*
X59600001Y-70150000I-249999J0D01*
G01*
X58899999Y-70150000D01*
G75*
G02*
X58650000Y-69900001I0J249999D01*
G01*
G37*
G36*
G01*
X56450000Y-78100001D02*
X56450000Y-77199999D01*
G75*
G02*
X56699999Y-76950000I249999J0D01*
G01*
X57400001Y-76950000D01*
G75*
G02*
X57650000Y-77199999I0J-249999D01*
G01*
X57650000Y-78100001D01*
G75*
G02*
X57400001Y-78350000I-249999J0D01*
G01*
X56699999Y-78350000D01*
G75*
G02*
X56450000Y-78100001I0J249999D01*
G01*
G37*
G36*
G01*
X54450000Y-78100001D02*
X54450000Y-77199999D01*
G75*
G02*
X54699999Y-76950000I249999J0D01*
G01*
X55400001Y-76950000D01*
G75*
G02*
X55650000Y-77199999I0J-249999D01*
G01*
X55650000Y-78100001D01*
G75*
G02*
X55400001Y-78350000I-249999J0D01*
G01*
X54699999Y-78350000D01*
G75*
G02*
X54450000Y-78100001I0J249999D01*
G01*
G37*
G36*
G01*
X56450000Y-74100001D02*
X56450000Y-73199999D01*
G75*
G02*
X56699999Y-72950000I249999J0D01*
G01*
X57400001Y-72950000D01*
G75*
G02*
X57650000Y-73199999I0J-249999D01*
G01*
X57650000Y-74100001D01*
G75*
G02*
X57400001Y-74350000I-249999J0D01*
G01*
X56699999Y-74350000D01*
G75*
G02*
X56450000Y-74100001I0J249999D01*
G01*
G37*
G36*
G01*
X54450000Y-74100001D02*
X54450000Y-73199999D01*
G75*
G02*
X54699999Y-72950000I249999J0D01*
G01*
X55400001Y-72950000D01*
G75*
G02*
X55650000Y-73199999I0J-249999D01*
G01*
X55650000Y-74100001D01*
G75*
G02*
X55400001Y-74350000I-249999J0D01*
G01*
X54699999Y-74350000D01*
G75*
G02*
X54450000Y-74100001I0J249999D01*
G01*
G37*
G36*
G01*
X56450000Y-69900001D02*
X56450000Y-68999999D01*
G75*
G02*
X56699999Y-68750000I249999J0D01*
G01*
X57400001Y-68750000D01*
G75*
G02*
X57650000Y-68999999I0J-249999D01*
G01*
X57650000Y-69900001D01*
G75*
G02*
X57400001Y-70150000I-249999J0D01*
G01*
X56699999Y-70150000D01*
G75*
G02*
X56450000Y-69900001I0J249999D01*
G01*
G37*
G36*
G01*
X54450000Y-69900001D02*
X54450000Y-68999999D01*
G75*
G02*
X54699999Y-68750000I249999J0D01*
G01*
X55400001Y-68750000D01*
G75*
G02*
X55650000Y-68999999I0J-249999D01*
G01*
X55650000Y-69900001D01*
G75*
G02*
X55400001Y-70150000I-249999J0D01*
G01*
X54699999Y-70150000D01*
G75*
G02*
X54450000Y-69900001I0J249999D01*
G01*
G37*
G36*
G01*
X52250000Y-78100001D02*
X52250000Y-77199999D01*
G75*
G02*
X52499999Y-76950000I249999J0D01*
G01*
X53200001Y-76950000D01*
G75*
G02*
X53450000Y-77199999I0J-249999D01*
G01*
X53450000Y-78100001D01*
G75*
G02*
X53200001Y-78350000I-249999J0D01*
G01*
X52499999Y-78350000D01*
G75*
G02*
X52250000Y-78100001I0J249999D01*
G01*
G37*
G36*
G01*
X50250000Y-78100001D02*
X50250000Y-77199999D01*
G75*
G02*
X50499999Y-76950000I249999J0D01*
G01*
X51200001Y-76950000D01*
G75*
G02*
X51450000Y-77199999I0J-249999D01*
G01*
X51450000Y-78100001D01*
G75*
G02*
X51200001Y-78350000I-249999J0D01*
G01*
X50499999Y-78350000D01*
G75*
G02*
X50250000Y-78100001I0J249999D01*
G01*
G37*
G36*
G01*
X52250000Y-74100001D02*
X52250000Y-73199999D01*
G75*
G02*
X52499999Y-72950000I249999J0D01*
G01*
X53200001Y-72950000D01*
G75*
G02*
X53450000Y-73199999I0J-249999D01*
G01*
X53450000Y-74100001D01*
G75*
G02*
X53200001Y-74350000I-249999J0D01*
G01*
X52499999Y-74350000D01*
G75*
G02*
X52250000Y-74100001I0J249999D01*
G01*
G37*
G36*
G01*
X50250000Y-74100001D02*
X50250000Y-73199999D01*
G75*
G02*
X50499999Y-72950000I249999J0D01*
G01*
X51200001Y-72950000D01*
G75*
G02*
X51450000Y-73199999I0J-249999D01*
G01*
X51450000Y-74100001D01*
G75*
G02*
X51200001Y-74350000I-249999J0D01*
G01*
X50499999Y-74350000D01*
G75*
G02*
X50250000Y-74100001I0J249999D01*
G01*
G37*
G36*
G01*
X52250000Y-69900001D02*
X52250000Y-68999999D01*
G75*
G02*
X52499999Y-68750000I249999J0D01*
G01*
X53200001Y-68750000D01*
G75*
G02*
X53450000Y-68999999I0J-249999D01*
G01*
X53450000Y-69900001D01*
G75*
G02*
X53200001Y-70150000I-249999J0D01*
G01*
X52499999Y-70150000D01*
G75*
G02*
X52250000Y-69900001I0J249999D01*
G01*
G37*
G36*
G01*
X50250000Y-69900001D02*
X50250000Y-68999999D01*
G75*
G02*
X50499999Y-68750000I249999J0D01*
G01*
X51200001Y-68750000D01*
G75*
G02*
X51450000Y-68999999I0J-249999D01*
G01*
X51450000Y-69900001D01*
G75*
G02*
X51200001Y-70150000I-249999J0D01*
G01*
X50499999Y-70150000D01*
G75*
G02*
X50250000Y-69900001I0J249999D01*
G01*
G37*
G36*
G01*
X105649999Y-74200000D02*
X106550001Y-74200000D01*
G75*
G02*
X106800000Y-74449999I0J-249999D01*
G01*
X106800000Y-75150001D01*
G75*
G02*
X106550001Y-75400000I-249999J0D01*
G01*
X105649999Y-75400000D01*
G75*
G02*
X105400000Y-75150001I0J249999D01*
G01*
X105400000Y-74449999D01*
G75*
G02*
X105649999Y-74200000I249999J0D01*
G01*
G37*
G36*
G01*
X105649999Y-72200000D02*
X106550001Y-72200000D01*
G75*
G02*
X106800000Y-72449999I0J-249999D01*
G01*
X106800000Y-73150001D01*
G75*
G02*
X106550001Y-73400000I-249999J0D01*
G01*
X105649999Y-73400000D01*
G75*
G02*
X105400000Y-73150001I0J249999D01*
G01*
X105400000Y-72449999D01*
G75*
G02*
X105649999Y-72200000I249999J0D01*
G01*
G37*
G36*
G01*
X113175001Y-73400000D02*
X112274999Y-73400000D01*
G75*
G02*
X112025000Y-73150001I0J249999D01*
G01*
X112025000Y-72449999D01*
G75*
G02*
X112274999Y-72200000I249999J0D01*
G01*
X113175001Y-72200000D01*
G75*
G02*
X113425000Y-72449999I0J-249999D01*
G01*
X113425000Y-73150001D01*
G75*
G02*
X113175001Y-73400000I-249999J0D01*
G01*
G37*
G36*
G01*
X113175001Y-75400000D02*
X112274999Y-75400000D01*
G75*
G02*
X112025000Y-75150001I0J249999D01*
G01*
X112025000Y-74449999D01*
G75*
G02*
X112274999Y-74200000I249999J0D01*
G01*
X113175001Y-74200000D01*
G75*
G02*
X113425000Y-74449999I0J-249999D01*
G01*
X113425000Y-75150001D01*
G75*
G02*
X113175001Y-75400000I-249999J0D01*
G01*
G37*
G36*
G01*
X93974999Y-74400000D02*
X94875001Y-74400000D01*
G75*
G02*
X95125000Y-74649999I0J-249999D01*
G01*
X95125000Y-75350001D01*
G75*
G02*
X94875001Y-75600000I-249999J0D01*
G01*
X93974999Y-75600000D01*
G75*
G02*
X93725000Y-75350001I0J249999D01*
G01*
X93725000Y-74649999D01*
G75*
G02*
X93974999Y-74400000I249999J0D01*
G01*
G37*
G36*
G01*
X93974999Y-72400000D02*
X94875001Y-72400000D01*
G75*
G02*
X95125000Y-72649999I0J-249999D01*
G01*
X95125000Y-73350001D01*
G75*
G02*
X94875001Y-73600000I-249999J0D01*
G01*
X93974999Y-73600000D01*
G75*
G02*
X93725000Y-73350001I0J249999D01*
G01*
X93725000Y-72649999D01*
G75*
G02*
X93974999Y-72400000I249999J0D01*
G01*
G37*
G36*
G01*
X101575001Y-73600000D02*
X100674999Y-73600000D01*
G75*
G02*
X100425000Y-73350001I0J249999D01*
G01*
X100425000Y-72649999D01*
G75*
G02*
X100674999Y-72400000I249999J0D01*
G01*
X101575001Y-72400000D01*
G75*
G02*
X101825000Y-72649999I0J-249999D01*
G01*
X101825000Y-73350001D01*
G75*
G02*
X101575001Y-73600000I-249999J0D01*
G01*
G37*
G36*
G01*
X101575001Y-75600000D02*
X100674999Y-75600000D01*
G75*
G02*
X100425000Y-75350001I0J249999D01*
G01*
X100425000Y-74649999D01*
G75*
G02*
X100674999Y-74400000I249999J0D01*
G01*
X101575001Y-74400000D01*
G75*
G02*
X101825000Y-74649999I0J-249999D01*
G01*
X101825000Y-75350001D01*
G75*
G02*
X101575001Y-75600000I-249999J0D01*
G01*
G37*
G36*
G01*
X82074999Y-74400000D02*
X82975001Y-74400000D01*
G75*
G02*
X83225000Y-74649999I0J-249999D01*
G01*
X83225000Y-75350001D01*
G75*
G02*
X82975001Y-75600000I-249999J0D01*
G01*
X82074999Y-75600000D01*
G75*
G02*
X81825000Y-75350001I0J249999D01*
G01*
X81825000Y-74649999D01*
G75*
G02*
X82074999Y-74400000I249999J0D01*
G01*
G37*
G36*
G01*
X82074999Y-72400000D02*
X82975001Y-72400000D01*
G75*
G02*
X83225000Y-72649999I0J-249999D01*
G01*
X83225000Y-73350001D01*
G75*
G02*
X82975001Y-73600000I-249999J0D01*
G01*
X82074999Y-73600000D01*
G75*
G02*
X81825000Y-73350001I0J249999D01*
G01*
X81825000Y-72649999D01*
G75*
G02*
X82074999Y-72400000I249999J0D01*
G01*
G37*
G36*
G01*
X89975001Y-73600000D02*
X89074999Y-73600000D01*
G75*
G02*
X88825000Y-73350001I0J249999D01*
G01*
X88825000Y-72649999D01*
G75*
G02*
X89074999Y-72400000I249999J0D01*
G01*
X89975001Y-72400000D01*
G75*
G02*
X90225000Y-72649999I0J-249999D01*
G01*
X90225000Y-73350001D01*
G75*
G02*
X89975001Y-73600000I-249999J0D01*
G01*
G37*
G36*
G01*
X89975001Y-75600000D02*
X89074999Y-75600000D01*
G75*
G02*
X88825000Y-75350001I0J249999D01*
G01*
X88825000Y-74649999D01*
G75*
G02*
X89074999Y-74400000I249999J0D01*
G01*
X89975001Y-74400000D01*
G75*
G02*
X90225000Y-74649999I0J-249999D01*
G01*
X90225000Y-75350001D01*
G75*
G02*
X89975001Y-75600000I-249999J0D01*
G01*
G37*
G36*
G01*
X108675001Y-73400000D02*
X107774999Y-73400000D01*
G75*
G02*
X107525000Y-73150001I0J249999D01*
G01*
X107525000Y-72449999D01*
G75*
G02*
X107774999Y-72200000I249999J0D01*
G01*
X108675001Y-72200000D01*
G75*
G02*
X108925000Y-72449999I0J-249999D01*
G01*
X108925000Y-73150001D01*
G75*
G02*
X108675001Y-73400000I-249999J0D01*
G01*
G37*
G36*
G01*
X108675001Y-75400000D02*
X107774999Y-75400000D01*
G75*
G02*
X107525000Y-75150001I0J249999D01*
G01*
X107525000Y-74449999D01*
G75*
G02*
X107774999Y-74200000I249999J0D01*
G01*
X108675001Y-74200000D01*
G75*
G02*
X108925000Y-74449999I0J-249999D01*
G01*
X108925000Y-75150001D01*
G75*
G02*
X108675001Y-75400000I-249999J0D01*
G01*
G37*
G36*
G01*
X110074999Y-74200000D02*
X110975001Y-74200000D01*
G75*
G02*
X111225000Y-74449999I0J-249999D01*
G01*
X111225000Y-75150001D01*
G75*
G02*
X110975001Y-75400000I-249999J0D01*
G01*
X110074999Y-75400000D01*
G75*
G02*
X109825000Y-75150001I0J249999D01*
G01*
X109825000Y-74449999D01*
G75*
G02*
X110074999Y-74200000I249999J0D01*
G01*
G37*
G36*
G01*
X110074999Y-72200000D02*
X110975001Y-72200000D01*
G75*
G02*
X111225000Y-72449999I0J-249999D01*
G01*
X111225000Y-73150001D01*
G75*
G02*
X110975001Y-73400000I-249999J0D01*
G01*
X110074999Y-73400000D01*
G75*
G02*
X109825000Y-73150001I0J249999D01*
G01*
X109825000Y-72449999D01*
G75*
G02*
X110074999Y-72200000I249999J0D01*
G01*
G37*
G36*
G01*
X97075001Y-73600000D02*
X96174999Y-73600000D01*
G75*
G02*
X95925000Y-73350001I0J249999D01*
G01*
X95925000Y-72649999D01*
G75*
G02*
X96174999Y-72400000I249999J0D01*
G01*
X97075001Y-72400000D01*
G75*
G02*
X97325000Y-72649999I0J-249999D01*
G01*
X97325000Y-73350001D01*
G75*
G02*
X97075001Y-73600000I-249999J0D01*
G01*
G37*
G36*
G01*
X97075001Y-75600000D02*
X96174999Y-75600000D01*
G75*
G02*
X95925000Y-75350001I0J249999D01*
G01*
X95925000Y-74649999D01*
G75*
G02*
X96174999Y-74400000I249999J0D01*
G01*
X97075001Y-74400000D01*
G75*
G02*
X97325000Y-74649999I0J-249999D01*
G01*
X97325000Y-75350001D01*
G75*
G02*
X97075001Y-75600000I-249999J0D01*
G01*
G37*
G36*
G01*
X98474999Y-74400000D02*
X99375001Y-74400000D01*
G75*
G02*
X99625000Y-74649999I0J-249999D01*
G01*
X99625000Y-75350001D01*
G75*
G02*
X99375001Y-75600000I-249999J0D01*
G01*
X98474999Y-75600000D01*
G75*
G02*
X98225000Y-75350001I0J249999D01*
G01*
X98225000Y-74649999D01*
G75*
G02*
X98474999Y-74400000I249999J0D01*
G01*
G37*
G36*
G01*
X98474999Y-72400000D02*
X99375001Y-72400000D01*
G75*
G02*
X99625000Y-72649999I0J-249999D01*
G01*
X99625000Y-73350001D01*
G75*
G02*
X99375001Y-73600000I-249999J0D01*
G01*
X98474999Y-73600000D01*
G75*
G02*
X98225000Y-73350001I0J249999D01*
G01*
X98225000Y-72649999D01*
G75*
G02*
X98474999Y-72400000I249999J0D01*
G01*
G37*
G36*
G01*
X85175001Y-73600000D02*
X84274999Y-73600000D01*
G75*
G02*
X84025000Y-73350001I0J249999D01*
G01*
X84025000Y-72649999D01*
G75*
G02*
X84274999Y-72400000I249999J0D01*
G01*
X85175001Y-72400000D01*
G75*
G02*
X85425000Y-72649999I0J-249999D01*
G01*
X85425000Y-73350001D01*
G75*
G02*
X85175001Y-73600000I-249999J0D01*
G01*
G37*
G36*
G01*
X85175001Y-75600000D02*
X84274999Y-75600000D01*
G75*
G02*
X84025000Y-75350001I0J249999D01*
G01*
X84025000Y-74649999D01*
G75*
G02*
X84274999Y-74400000I249999J0D01*
G01*
X85175001Y-74400000D01*
G75*
G02*
X85425000Y-74649999I0J-249999D01*
G01*
X85425000Y-75350001D01*
G75*
G02*
X85175001Y-75600000I-249999J0D01*
G01*
G37*
G36*
G01*
X86674999Y-74400000D02*
X87575001Y-74400000D01*
G75*
G02*
X87825000Y-74649999I0J-249999D01*
G01*
X87825000Y-75350001D01*
G75*
G02*
X87575001Y-75600000I-249999J0D01*
G01*
X86674999Y-75600000D01*
G75*
G02*
X86425000Y-75350001I0J249999D01*
G01*
X86425000Y-74649999D01*
G75*
G02*
X86674999Y-74400000I249999J0D01*
G01*
G37*
G36*
G01*
X86674999Y-72400000D02*
X87575001Y-72400000D01*
G75*
G02*
X87825000Y-72649999I0J-249999D01*
G01*
X87825000Y-73350001D01*
G75*
G02*
X87575001Y-73600000I-249999J0D01*
G01*
X86674999Y-73600000D01*
G75*
G02*
X86425000Y-73350001I0J249999D01*
G01*
X86425000Y-72649999D01*
G75*
G02*
X86674999Y-72400000I249999J0D01*
G01*
G37*
D22*
X104200000Y-126200000D03*
X76200000Y-133800000D03*
D23*
X76200000Y-118600000D03*
D22*
X104200000Y-118600000D03*
D12*
X61200000Y-124400000D03*
X56200000Y-124400000D03*
D24*
X109525000Y-65500000D03*
X109525000Y-58500000D03*
D25*
X105825000Y-66800000D03*
D26*
X105825000Y-57400000D03*
X113225000Y-59400000D03*
D24*
X97955000Y-65520000D03*
X97955000Y-58520000D03*
D25*
X94255000Y-66820000D03*
D26*
X94255000Y-57420000D03*
X101655000Y-59420000D03*
D24*
X86405000Y-65520000D03*
X86405000Y-58520000D03*
D25*
X82705000Y-66820000D03*
D26*
X82705000Y-57420000D03*
X90105000Y-59420000D03*
G36*
G01*
X59550000Y-96775000D02*
X59550000Y-98025000D01*
G75*
G02*
X59300000Y-98275000I-250000J0D01*
G01*
X58375000Y-98275000D01*
G75*
G02*
X58125000Y-98025000I0J250000D01*
G01*
X58125000Y-96775000D01*
G75*
G02*
X58375000Y-96525000I250000J0D01*
G01*
X59300000Y-96525000D01*
G75*
G02*
X59550000Y-96775000I0J-250000D01*
G01*
G37*
G36*
G01*
X62525000Y-96775000D02*
X62525000Y-98025000D01*
G75*
G02*
X62275000Y-98275000I-250000J0D01*
G01*
X61350000Y-98275000D01*
G75*
G02*
X61100000Y-98025000I0J250000D01*
G01*
X61100000Y-96775000D01*
G75*
G02*
X61350000Y-96525000I250000J0D01*
G01*
X62275000Y-96525000D01*
G75*
G02*
X62525000Y-96775000I0J-250000D01*
G01*
G37*
G36*
G01*
X59662500Y-101575000D02*
X59662500Y-102825000D01*
G75*
G02*
X59412500Y-103075000I-250000J0D01*
G01*
X58487500Y-103075000D01*
G75*
G02*
X58237500Y-102825000I0J250000D01*
G01*
X58237500Y-101575000D01*
G75*
G02*
X58487500Y-101325000I250000J0D01*
G01*
X59412500Y-101325000D01*
G75*
G02*
X59662500Y-101575000I0J-250000D01*
G01*
G37*
G36*
G01*
X62637500Y-101575000D02*
X62637500Y-102825000D01*
G75*
G02*
X62387500Y-103075000I-250000J0D01*
G01*
X61462500Y-103075000D01*
G75*
G02*
X61212500Y-102825000I0J250000D01*
G01*
X61212500Y-101575000D01*
G75*
G02*
X61462500Y-101325000I250000J0D01*
G01*
X62387500Y-101325000D01*
G75*
G02*
X62637500Y-101575000I0J-250000D01*
G01*
G37*
G36*
G01*
X59750000Y-106375000D02*
X59750000Y-107625000D01*
G75*
G02*
X59500000Y-107875000I-250000J0D01*
G01*
X58575000Y-107875000D01*
G75*
G02*
X58325000Y-107625000I0J250000D01*
G01*
X58325000Y-106375000D01*
G75*
G02*
X58575000Y-106125000I250000J0D01*
G01*
X59500000Y-106125000D01*
G75*
G02*
X59750000Y-106375000I0J-250000D01*
G01*
G37*
G36*
G01*
X62725000Y-106375000D02*
X62725000Y-107625000D01*
G75*
G02*
X62475000Y-107875000I-250000J0D01*
G01*
X61550000Y-107875000D01*
G75*
G02*
X61300000Y-107625000I0J250000D01*
G01*
X61300000Y-106375000D01*
G75*
G02*
X61550000Y-106125000I250000J0D01*
G01*
X62475000Y-106125000D01*
G75*
G02*
X62725000Y-106375000I0J-250000D01*
G01*
G37*
G36*
G01*
X59750000Y-111175000D02*
X59750000Y-112425000D01*
G75*
G02*
X59500000Y-112675000I-250000J0D01*
G01*
X58575000Y-112675000D01*
G75*
G02*
X58325000Y-112425000I0J250000D01*
G01*
X58325000Y-111175000D01*
G75*
G02*
X58575000Y-110925000I250000J0D01*
G01*
X59500000Y-110925000D01*
G75*
G02*
X59750000Y-111175000I0J-250000D01*
G01*
G37*
G36*
G01*
X62725000Y-111175000D02*
X62725000Y-112425000D01*
G75*
G02*
X62475000Y-112675000I-250000J0D01*
G01*
X61550000Y-112675000D01*
G75*
G02*
X61300000Y-112425000I0J250000D01*
G01*
X61300000Y-111175000D01*
G75*
G02*
X61550000Y-110925000I250000J0D01*
G01*
X62475000Y-110925000D01*
G75*
G02*
X62725000Y-111175000I0J-250000D01*
G01*
G37*
G36*
G01*
X85200000Y-91825000D02*
X85200000Y-92775000D01*
G75*
G02*
X84950000Y-93025000I-250000J0D01*
G01*
X84450000Y-93025000D01*
G75*
G02*
X84200000Y-92775000I0J250000D01*
G01*
X84200000Y-91825000D01*
G75*
G02*
X84450000Y-91575000I250000J0D01*
G01*
X84950000Y-91575000D01*
G75*
G02*
X85200000Y-91825000I0J-250000D01*
G01*
G37*
G36*
G01*
X87100000Y-91825000D02*
X87100000Y-92775000D01*
G75*
G02*
X86850000Y-93025000I-250000J0D01*
G01*
X86350000Y-93025000D01*
G75*
G02*
X86100000Y-92775000I0J250000D01*
G01*
X86100000Y-91825000D01*
G75*
G02*
X86350000Y-91575000I250000J0D01*
G01*
X86850000Y-91575000D01*
G75*
G02*
X87100000Y-91825000I0J-250000D01*
G01*
G37*
G36*
G01*
X105300000Y-89050000D02*
X105300000Y-88100000D01*
G75*
G02*
X105550000Y-87850000I250000J0D01*
G01*
X106050000Y-87850000D01*
G75*
G02*
X106300000Y-88100000I0J-250000D01*
G01*
X106300000Y-89050000D01*
G75*
G02*
X106050000Y-89300000I-250000J0D01*
G01*
X105550000Y-89300000D01*
G75*
G02*
X105300000Y-89050000I0J250000D01*
G01*
G37*
G36*
G01*
X103400000Y-89050000D02*
X103400000Y-88100000D01*
G75*
G02*
X103650000Y-87850000I250000J0D01*
G01*
X104150000Y-87850000D01*
G75*
G02*
X104400000Y-88100000I0J-250000D01*
G01*
X104400000Y-89050000D01*
G75*
G02*
X104150000Y-89300000I-250000J0D01*
G01*
X103650000Y-89300000D01*
G75*
G02*
X103400000Y-89050000I0J250000D01*
G01*
G37*
G36*
G01*
X85525000Y-89725000D02*
X85525000Y-90225000D01*
G75*
G02*
X85300000Y-90450000I-225000J0D01*
G01*
X84850000Y-90450000D01*
G75*
G02*
X84625000Y-90225000I0J225000D01*
G01*
X84625000Y-89725000D01*
G75*
G02*
X84850000Y-89500000I225000J0D01*
G01*
X85300000Y-89500000D01*
G75*
G02*
X85525000Y-89725000I0J-225000D01*
G01*
G37*
G36*
G01*
X87075000Y-89725000D02*
X87075000Y-90225000D01*
G75*
G02*
X86850000Y-90450000I-225000J0D01*
G01*
X86400000Y-90450000D01*
G75*
G02*
X86175000Y-90225000I0J225000D01*
G01*
X86175000Y-89725000D01*
G75*
G02*
X86400000Y-89500000I225000J0D01*
G01*
X86850000Y-89500000D01*
G75*
G02*
X87075000Y-89725000I0J-225000D01*
G01*
G37*
G36*
G01*
X104975000Y-90825000D02*
X104975000Y-90325000D01*
G75*
G02*
X105200000Y-90100000I225000J0D01*
G01*
X105650000Y-90100000D01*
G75*
G02*
X105875000Y-90325000I0J-225000D01*
G01*
X105875000Y-90825000D01*
G75*
G02*
X105650000Y-91050000I-225000J0D01*
G01*
X105200000Y-91050000D01*
G75*
G02*
X104975000Y-90825000I0J225000D01*
G01*
G37*
G36*
G01*
X103425000Y-90825000D02*
X103425000Y-90325000D01*
G75*
G02*
X103650000Y-90100000I225000J0D01*
G01*
X104100000Y-90100000D01*
G75*
G02*
X104325000Y-90325000I0J-225000D01*
G01*
X104325000Y-90825000D01*
G75*
G02*
X104100000Y-91050000I-225000J0D01*
G01*
X103650000Y-91050000D01*
G75*
G02*
X103425000Y-90825000I0J225000D01*
G01*
G37*
G36*
G01*
X96325000Y-82525000D02*
X95375000Y-82525000D01*
G75*
G02*
X95125000Y-82275000I0J250000D01*
G01*
X95125000Y-81775000D01*
G75*
G02*
X95375000Y-81525000I250000J0D01*
G01*
X96325000Y-81525000D01*
G75*
G02*
X96575000Y-81775000I0J-250000D01*
G01*
X96575000Y-82275000D01*
G75*
G02*
X96325000Y-82525000I-250000J0D01*
G01*
G37*
G36*
G01*
X96325000Y-84425000D02*
X95375000Y-84425000D01*
G75*
G02*
X95125000Y-84175000I0J250000D01*
G01*
X95125000Y-83675000D01*
G75*
G02*
X95375000Y-83425000I250000J0D01*
G01*
X96325000Y-83425000D01*
G75*
G02*
X96575000Y-83675000I0J-250000D01*
G01*
X96575000Y-84175000D01*
G75*
G02*
X96325000Y-84425000I-250000J0D01*
G01*
G37*
G36*
G01*
X94125000Y-82525000D02*
X93175000Y-82525000D01*
G75*
G02*
X92925000Y-82275000I0J250000D01*
G01*
X92925000Y-81775000D01*
G75*
G02*
X93175000Y-81525000I250000J0D01*
G01*
X94125000Y-81525000D01*
G75*
G02*
X94375000Y-81775000I0J-250000D01*
G01*
X94375000Y-82275000D01*
G75*
G02*
X94125000Y-82525000I-250000J0D01*
G01*
G37*
G36*
G01*
X94125000Y-84425000D02*
X93175000Y-84425000D01*
G75*
G02*
X92925000Y-84175000I0J250000D01*
G01*
X92925000Y-83675000D01*
G75*
G02*
X93175000Y-83425000I250000J0D01*
G01*
X94125000Y-83425000D01*
G75*
G02*
X94375000Y-83675000I0J-250000D01*
G01*
X94375000Y-84175000D01*
G75*
G02*
X94125000Y-84425000I-250000J0D01*
G01*
G37*
G36*
G01*
X85200000Y-94300000D02*
X85200000Y-95250000D01*
G75*
G02*
X84950000Y-95500000I-250000J0D01*
G01*
X84450000Y-95500000D01*
G75*
G02*
X84200000Y-95250000I0J250000D01*
G01*
X84200000Y-94300000D01*
G75*
G02*
X84450000Y-94050000I250000J0D01*
G01*
X84950000Y-94050000D01*
G75*
G02*
X85200000Y-94300000I0J-250000D01*
G01*
G37*
G36*
G01*
X87100000Y-94300000D02*
X87100000Y-95250000D01*
G75*
G02*
X86850000Y-95500000I-250000J0D01*
G01*
X86350000Y-95500000D01*
G75*
G02*
X86100000Y-95250000I0J250000D01*
G01*
X86100000Y-94300000D01*
G75*
G02*
X86350000Y-94050000I250000J0D01*
G01*
X86850000Y-94050000D01*
G75*
G02*
X87100000Y-94300000I0J-250000D01*
G01*
G37*
G36*
G01*
X90950000Y-101675000D02*
X90450000Y-101675000D01*
G75*
G02*
X90225000Y-101450000I0J225000D01*
G01*
X90225000Y-101000000D01*
G75*
G02*
X90450000Y-100775000I225000J0D01*
G01*
X90950000Y-100775000D01*
G75*
G02*
X91175000Y-101000000I0J-225000D01*
G01*
X91175000Y-101450000D01*
G75*
G02*
X90950000Y-101675000I-225000J0D01*
G01*
G37*
G36*
G01*
X90950000Y-103225000D02*
X90450000Y-103225000D01*
G75*
G02*
X90225000Y-103000000I0J225000D01*
G01*
X90225000Y-102550000D01*
G75*
G02*
X90450000Y-102325000I225000J0D01*
G01*
X90950000Y-102325000D01*
G75*
G02*
X91175000Y-102550000I0J-225000D01*
G01*
X91175000Y-103000000D01*
G75*
G02*
X90950000Y-103225000I-225000J0D01*
G01*
G37*
G36*
G01*
X93100000Y-101675000D02*
X92600000Y-101675000D01*
G75*
G02*
X92375000Y-101450000I0J225000D01*
G01*
X92375000Y-101000000D01*
G75*
G02*
X92600000Y-100775000I225000J0D01*
G01*
X93100000Y-100775000D01*
G75*
G02*
X93325000Y-101000000I0J-225000D01*
G01*
X93325000Y-101450000D01*
G75*
G02*
X93100000Y-101675000I-225000J0D01*
G01*
G37*
G36*
G01*
X93100000Y-103225000D02*
X92600000Y-103225000D01*
G75*
G02*
X92375000Y-103000000I0J225000D01*
G01*
X92375000Y-102550000D01*
G75*
G02*
X92600000Y-102325000I225000J0D01*
G01*
X93100000Y-102325000D01*
G75*
G02*
X93325000Y-102550000I0J-225000D01*
G01*
X93325000Y-103000000D01*
G75*
G02*
X93100000Y-103225000I-225000J0D01*
G01*
G37*
G36*
G01*
X72475000Y-79350000D02*
X72475000Y-79850000D01*
G75*
G02*
X72250000Y-80075000I-225000J0D01*
G01*
X71800000Y-80075000D01*
G75*
G02*
X71575000Y-79850000I0J225000D01*
G01*
X71575000Y-79350000D01*
G75*
G02*
X71800000Y-79125000I225000J0D01*
G01*
X72250000Y-79125000D01*
G75*
G02*
X72475000Y-79350000I0J-225000D01*
G01*
G37*
G36*
G01*
X74025000Y-79350000D02*
X74025000Y-79850000D01*
G75*
G02*
X73800000Y-80075000I-225000J0D01*
G01*
X73350000Y-80075000D01*
G75*
G02*
X73125000Y-79850000I0J225000D01*
G01*
X73125000Y-79350000D01*
G75*
G02*
X73350000Y-79125000I225000J0D01*
G01*
X73800000Y-79125000D01*
G75*
G02*
X74025000Y-79350000I0J-225000D01*
G01*
G37*
G36*
G01*
X72475000Y-75400000D02*
X72475000Y-75900000D01*
G75*
G02*
X72250000Y-76125000I-225000J0D01*
G01*
X71800000Y-76125000D01*
G75*
G02*
X71575000Y-75900000I0J225000D01*
G01*
X71575000Y-75400000D01*
G75*
G02*
X71800000Y-75175000I225000J0D01*
G01*
X72250000Y-75175000D01*
G75*
G02*
X72475000Y-75400000I0J-225000D01*
G01*
G37*
G36*
G01*
X74025000Y-75400000D02*
X74025000Y-75900000D01*
G75*
G02*
X73800000Y-76125000I-225000J0D01*
G01*
X73350000Y-76125000D01*
G75*
G02*
X73125000Y-75900000I0J225000D01*
G01*
X73125000Y-75400000D01*
G75*
G02*
X73350000Y-75175000I225000J0D01*
G01*
X73800000Y-75175000D01*
G75*
G02*
X74025000Y-75400000I0J-225000D01*
G01*
G37*
D27*
X114100000Y-129300000D03*
D11*
X114100000Y-134300000D03*
G36*
G01*
X95150000Y-101650000D02*
X94650000Y-101650000D01*
G75*
G02*
X94425000Y-101425000I0J225000D01*
G01*
X94425000Y-100975000D01*
G75*
G02*
X94650000Y-100750000I225000J0D01*
G01*
X95150000Y-100750000D01*
G75*
G02*
X95375000Y-100975000I0J-225000D01*
G01*
X95375000Y-101425000D01*
G75*
G02*
X95150000Y-101650000I-225000J0D01*
G01*
G37*
G36*
G01*
X95150000Y-103200000D02*
X94650000Y-103200000D01*
G75*
G02*
X94425000Y-102975000I0J225000D01*
G01*
X94425000Y-102525000D01*
G75*
G02*
X94650000Y-102300000I225000J0D01*
G01*
X95150000Y-102300000D01*
G75*
G02*
X95375000Y-102525000I0J-225000D01*
G01*
X95375000Y-102975000D01*
G75*
G02*
X95150000Y-103200000I-225000J0D01*
G01*
G37*
G36*
G01*
X72525000Y-71200000D02*
X72525000Y-71700000D01*
G75*
G02*
X72300000Y-71925000I-225000J0D01*
G01*
X71850000Y-71925000D01*
G75*
G02*
X71625000Y-71700000I0J225000D01*
G01*
X71625000Y-71200000D01*
G75*
G02*
X71850000Y-70975000I225000J0D01*
G01*
X72300000Y-70975000D01*
G75*
G02*
X72525000Y-71200000I0J-225000D01*
G01*
G37*
G36*
G01*
X74075000Y-71200000D02*
X74075000Y-71700000D01*
G75*
G02*
X73850000Y-71925000I-225000J0D01*
G01*
X73400000Y-71925000D01*
G75*
G02*
X73175000Y-71700000I0J225000D01*
G01*
X73175000Y-71200000D01*
G75*
G02*
X73400000Y-70975000I225000J0D01*
G01*
X73850000Y-70975000D01*
G75*
G02*
X74075000Y-71200000I0J-225000D01*
G01*
G37*
D27*
X69200000Y-118400000D03*
X69200000Y-128400000D03*
G36*
G01*
X105775000Y-77725000D02*
X106275000Y-77725000D01*
G75*
G02*
X106500000Y-77950000I0J-225000D01*
G01*
X106500000Y-78400000D01*
G75*
G02*
X106275000Y-78625000I-225000J0D01*
G01*
X105775000Y-78625000D01*
G75*
G02*
X105550000Y-78400000I0J225000D01*
G01*
X105550000Y-77950000D01*
G75*
G02*
X105775000Y-77725000I225000J0D01*
G01*
G37*
G36*
G01*
X105775000Y-76175000D02*
X106275000Y-76175000D01*
G75*
G02*
X106500000Y-76400000I0J-225000D01*
G01*
X106500000Y-76850000D01*
G75*
G02*
X106275000Y-77075000I-225000J0D01*
G01*
X105775000Y-77075000D01*
G75*
G02*
X105550000Y-76850000I0J225000D01*
G01*
X105550000Y-76400000D01*
G75*
G02*
X105775000Y-76175000I225000J0D01*
G01*
G37*
G36*
G01*
X112975000Y-77075000D02*
X112475000Y-77075000D01*
G75*
G02*
X112250000Y-76850000I0J225000D01*
G01*
X112250000Y-76400000D01*
G75*
G02*
X112475000Y-76175000I225000J0D01*
G01*
X112975000Y-76175000D01*
G75*
G02*
X113200000Y-76400000I0J-225000D01*
G01*
X113200000Y-76850000D01*
G75*
G02*
X112975000Y-77075000I-225000J0D01*
G01*
G37*
G36*
G01*
X112975000Y-78625000D02*
X112475000Y-78625000D01*
G75*
G02*
X112250000Y-78400000I0J225000D01*
G01*
X112250000Y-77950000D01*
G75*
G02*
X112475000Y-77725000I225000J0D01*
G01*
X112975000Y-77725000D01*
G75*
G02*
X113200000Y-77950000I0J-225000D01*
G01*
X113200000Y-78400000D01*
G75*
G02*
X112975000Y-78625000I-225000J0D01*
G01*
G37*
G36*
G01*
X94175000Y-77925000D02*
X94675000Y-77925000D01*
G75*
G02*
X94900000Y-78150000I0J-225000D01*
G01*
X94900000Y-78600000D01*
G75*
G02*
X94675000Y-78825000I-225000J0D01*
G01*
X94175000Y-78825000D01*
G75*
G02*
X93950000Y-78600000I0J225000D01*
G01*
X93950000Y-78150000D01*
G75*
G02*
X94175000Y-77925000I225000J0D01*
G01*
G37*
G36*
G01*
X94175000Y-76375000D02*
X94675000Y-76375000D01*
G75*
G02*
X94900000Y-76600000I0J-225000D01*
G01*
X94900000Y-77050000D01*
G75*
G02*
X94675000Y-77275000I-225000J0D01*
G01*
X94175000Y-77275000D01*
G75*
G02*
X93950000Y-77050000I0J225000D01*
G01*
X93950000Y-76600000D01*
G75*
G02*
X94175000Y-76375000I225000J0D01*
G01*
G37*
G36*
G01*
X101375000Y-77275000D02*
X100875000Y-77275000D01*
G75*
G02*
X100650000Y-77050000I0J225000D01*
G01*
X100650000Y-76600000D01*
G75*
G02*
X100875000Y-76375000I225000J0D01*
G01*
X101375000Y-76375000D01*
G75*
G02*
X101600000Y-76600000I0J-225000D01*
G01*
X101600000Y-77050000D01*
G75*
G02*
X101375000Y-77275000I-225000J0D01*
G01*
G37*
G36*
G01*
X101375000Y-78825000D02*
X100875000Y-78825000D01*
G75*
G02*
X100650000Y-78600000I0J225000D01*
G01*
X100650000Y-78150000D01*
G75*
G02*
X100875000Y-77925000I225000J0D01*
G01*
X101375000Y-77925000D01*
G75*
G02*
X101600000Y-78150000I0J-225000D01*
G01*
X101600000Y-78600000D01*
G75*
G02*
X101375000Y-78825000I-225000J0D01*
G01*
G37*
G36*
G01*
X82275000Y-77925000D02*
X82775000Y-77925000D01*
G75*
G02*
X83000000Y-78150000I0J-225000D01*
G01*
X83000000Y-78600000D01*
G75*
G02*
X82775000Y-78825000I-225000J0D01*
G01*
X82275000Y-78825000D01*
G75*
G02*
X82050000Y-78600000I0J225000D01*
G01*
X82050000Y-78150000D01*
G75*
G02*
X82275000Y-77925000I225000J0D01*
G01*
G37*
G36*
G01*
X82275000Y-76375000D02*
X82775000Y-76375000D01*
G75*
G02*
X83000000Y-76600000I0J-225000D01*
G01*
X83000000Y-77050000D01*
G75*
G02*
X82775000Y-77275000I-225000J0D01*
G01*
X82275000Y-77275000D01*
G75*
G02*
X82050000Y-77050000I0J225000D01*
G01*
X82050000Y-76600000D01*
G75*
G02*
X82275000Y-76375000I225000J0D01*
G01*
G37*
G36*
G01*
X89775000Y-77275000D02*
X89275000Y-77275000D01*
G75*
G02*
X89050000Y-77050000I0J225000D01*
G01*
X89050000Y-76600000D01*
G75*
G02*
X89275000Y-76375000I225000J0D01*
G01*
X89775000Y-76375000D01*
G75*
G02*
X90000000Y-76600000I0J-225000D01*
G01*
X90000000Y-77050000D01*
G75*
G02*
X89775000Y-77275000I-225000J0D01*
G01*
G37*
G36*
G01*
X89775000Y-78825000D02*
X89275000Y-78825000D01*
G75*
G02*
X89050000Y-78600000I0J225000D01*
G01*
X89050000Y-78150000D01*
G75*
G02*
X89275000Y-77925000I225000J0D01*
G01*
X89775000Y-77925000D01*
G75*
G02*
X90000000Y-78150000I0J-225000D01*
G01*
X90000000Y-78600000D01*
G75*
G02*
X89775000Y-78825000I-225000J0D01*
G01*
G37*
M02*
