G04 #@! TF.GenerationSoftware,KiCad,Pcbnew,(5.1.10)-1*
G04 #@! TF.CreationDate,2021-08-26T19:54:54+02:00*
G04 #@! TF.ProjectId,CT_Sensor_Mains,43545f53-656e-4736-9f72-5f4d61696e73,rev?*
G04 #@! TF.SameCoordinates,Original*
G04 #@! TF.FileFunction,Copper,L1,Top*
G04 #@! TF.FilePolarity,Positive*
%FSLAX46Y46*%
G04 Gerber Fmt 4.6, Leading zero omitted, Abs format (unit mm)*
G04 Created by KiCad (PCBNEW (5.1.10)-1) date 2021-08-26 19:54:54*
%MOMM*%
%LPD*%
G01*
G04 APERTURE LIST*
G04 #@! TA.AperFunction,ComponentPad*
%ADD10O,1.600000X2.000000*%
G04 #@! TD*
G04 #@! TA.AperFunction,ComponentPad*
%ADD11R,2.000000X2.000000*%
G04 #@! TD*
G04 #@! TA.AperFunction,ComponentPad*
%ADD12C,2.600000*%
G04 #@! TD*
G04 #@! TA.AperFunction,ComponentPad*
%ADD13R,2.600000X2.600000*%
G04 #@! TD*
G04 #@! TA.AperFunction,ComponentPad*
%ADD14O,1.600000X1.600000*%
G04 #@! TD*
G04 #@! TA.AperFunction,ComponentPad*
%ADD15R,1.600000X1.600000*%
G04 #@! TD*
G04 #@! TA.AperFunction,ComponentPad*
%ADD16C,1.600000*%
G04 #@! TD*
G04 #@! TA.AperFunction,ComponentPad*
%ADD17O,1.700000X1.700000*%
G04 #@! TD*
G04 #@! TA.AperFunction,ComponentPad*
%ADD18R,1.700000X1.700000*%
G04 #@! TD*
G04 #@! TA.AperFunction,SMDPad,CuDef*
%ADD19R,0.900000X0.800000*%
G04 #@! TD*
G04 #@! TA.AperFunction,SMDPad,CuDef*
%ADD20R,0.250000X1.300000*%
G04 #@! TD*
G04 #@! TA.AperFunction,SMDPad,CuDef*
%ADD21R,1.300000X0.250000*%
G04 #@! TD*
G04 #@! TA.AperFunction,ComponentPad*
%ADD22C,2.300000*%
G04 #@! TD*
G04 #@! TA.AperFunction,ComponentPad*
%ADD23R,2.300000X2.000000*%
G04 #@! TD*
G04 #@! TA.AperFunction,SMDPad,CuDef*
%ADD24R,2.800000X2.800000*%
G04 #@! TD*
G04 #@! TA.AperFunction,SMDPad,CuDef*
%ADD25R,2.800000X2.200000*%
G04 #@! TD*
G04 #@! TA.AperFunction,ComponentPad*
%ADD26C,2.000000*%
G04 #@! TD*
G04 #@! TA.AperFunction,ViaPad*
%ADD27C,0.800000*%
G04 #@! TD*
G04 #@! TA.AperFunction,ViaPad*
%ADD28C,3.500000*%
G04 #@! TD*
G04 #@! TA.AperFunction,Conductor*
%ADD29C,0.250000*%
G04 #@! TD*
G04 #@! TA.AperFunction,Conductor*
%ADD30C,1.000000*%
G04 #@! TD*
G04 #@! TA.AperFunction,Conductor*
%ADD31C,0.200000*%
G04 #@! TD*
G04 #@! TA.AperFunction,Conductor*
%ADD32C,0.100000*%
G04 #@! TD*
G04 APERTURE END LIST*
D10*
X130650000Y-109835000D03*
X128110000Y-109835000D03*
X125570000Y-109835000D03*
X123030000Y-109835000D03*
X120490000Y-109835000D03*
X117950000Y-109835000D03*
X115410000Y-109835000D03*
X112870000Y-109835000D03*
X112870000Y-86975000D03*
X115410000Y-86975000D03*
X117950000Y-86975000D03*
X120490000Y-86975000D03*
X123030000Y-86975000D03*
X125570000Y-86975000D03*
D11*
X130650000Y-86975000D03*
D10*
X128110000Y-86975000D03*
D12*
X49925000Y-98600000D03*
X49925000Y-103600000D03*
X49925000Y-108600000D03*
D13*
X49925000Y-113600000D03*
D14*
X129650000Y-123670000D03*
X116950000Y-116050000D03*
X127110000Y-123670000D03*
X119490000Y-116050000D03*
X124570000Y-123670000D03*
X122030000Y-116050000D03*
X122030000Y-123670000D03*
X124570000Y-116050000D03*
X119490000Y-123670000D03*
X127110000Y-116050000D03*
X116950000Y-123670000D03*
D15*
X129650000Y-116050000D03*
D16*
X72925000Y-107000000D03*
X71125000Y-112000000D03*
D17*
X122725000Y-76705000D03*
X120185000Y-76705000D03*
X122725000Y-74165000D03*
X120185000Y-74165000D03*
X122725000Y-71625000D03*
X120185000Y-71625000D03*
X122725000Y-69085000D03*
X120185000Y-69085000D03*
X122725000Y-66545000D03*
X120185000Y-66545000D03*
X122725000Y-64005000D03*
D18*
X120185000Y-64005000D03*
D17*
X66125000Y-98780000D03*
X66125000Y-101320000D03*
X66125000Y-103860000D03*
D18*
X66125000Y-106400000D03*
D19*
X97175000Y-101475000D03*
X98825000Y-102725000D03*
X98825000Y-101475000D03*
X97175000Y-102725000D03*
D20*
X92630000Y-88095000D03*
X93130000Y-88095000D03*
X93630000Y-88095000D03*
X94130000Y-88095000D03*
X94630000Y-88095000D03*
X95130000Y-88095000D03*
X95630000Y-88095000D03*
X96130000Y-88095000D03*
X96630000Y-88095000D03*
X97130000Y-88095000D03*
X97630000Y-88095000D03*
X98130000Y-88095000D03*
D21*
X99730000Y-89695000D03*
X99730000Y-90195000D03*
X99730000Y-90695000D03*
X99730000Y-91195000D03*
X99730000Y-91695000D03*
X99730000Y-92195000D03*
X99730000Y-92695000D03*
X99730000Y-93195000D03*
X99730000Y-93695000D03*
X99730000Y-94195000D03*
X99730000Y-94695000D03*
X99730000Y-95195000D03*
D20*
X98130000Y-96795000D03*
X97630000Y-96795000D03*
X97130000Y-96795000D03*
X96630000Y-96795000D03*
X96130000Y-96795000D03*
X95630000Y-96795000D03*
X95130000Y-96795000D03*
X94630000Y-96795000D03*
X94130000Y-96795000D03*
X93630000Y-96795000D03*
X93130000Y-96795000D03*
X92630000Y-96795000D03*
D21*
X91030000Y-95195000D03*
X91030000Y-94695000D03*
X91030000Y-94195000D03*
X91030000Y-93695000D03*
X91030000Y-93195000D03*
X91030000Y-92695000D03*
X91030000Y-92195000D03*
X91030000Y-91695000D03*
X91030000Y-91195000D03*
X91030000Y-90695000D03*
X91030000Y-90195000D03*
X91030000Y-89695000D03*
D16*
X72925000Y-83600000D03*
X71125000Y-88600000D03*
X72925000Y-91400000D03*
X71125000Y-96400000D03*
X72925000Y-99200000D03*
X71125000Y-104200000D03*
G04 #@! TA.AperFunction,SMDPad,CuDef*
G36*
G01*
X91150001Y-105100000D02*
X90249999Y-105100000D01*
G75*
G02*
X90000000Y-104850001I0J249999D01*
G01*
X90000000Y-104149999D01*
G75*
G02*
X90249999Y-103900000I249999J0D01*
G01*
X91150001Y-103900000D01*
G75*
G02*
X91400000Y-104149999I0J-249999D01*
G01*
X91400000Y-104850001D01*
G75*
G02*
X91150001Y-105100000I-249999J0D01*
G01*
G37*
G04 #@! TD.AperFunction*
G04 #@! TA.AperFunction,SMDPad,CuDef*
G36*
G01*
X91150001Y-107100000D02*
X90249999Y-107100000D01*
G75*
G02*
X90000000Y-106850001I0J249999D01*
G01*
X90000000Y-106149999D01*
G75*
G02*
X90249999Y-105900000I249999J0D01*
G01*
X91150001Y-105900000D01*
G75*
G02*
X91400000Y-106149999I0J-249999D01*
G01*
X91400000Y-106850001D01*
G75*
G02*
X91150001Y-107100000I-249999J0D01*
G01*
G37*
G04 #@! TD.AperFunction*
G04 #@! TA.AperFunction,SMDPad,CuDef*
G36*
G01*
X93250001Y-105100000D02*
X92349999Y-105100000D01*
G75*
G02*
X92100000Y-104850001I0J249999D01*
G01*
X92100000Y-104149999D01*
G75*
G02*
X92349999Y-103900000I249999J0D01*
G01*
X93250001Y-103900000D01*
G75*
G02*
X93500000Y-104149999I0J-249999D01*
G01*
X93500000Y-104850001D01*
G75*
G02*
X93250001Y-105100000I-249999J0D01*
G01*
G37*
G04 #@! TD.AperFunction*
G04 #@! TA.AperFunction,SMDPad,CuDef*
G36*
G01*
X93250001Y-107100000D02*
X92349999Y-107100000D01*
G75*
G02*
X92100000Y-106850001I0J249999D01*
G01*
X92100000Y-106149999D01*
G75*
G02*
X92349999Y-105900000I249999J0D01*
G01*
X93250001Y-105900000D01*
G75*
G02*
X93500000Y-106149999I0J-249999D01*
G01*
X93500000Y-106850001D01*
G75*
G02*
X93250001Y-107100000I-249999J0D01*
G01*
G37*
G04 #@! TD.AperFunction*
G04 #@! TA.AperFunction,SMDPad,CuDef*
G36*
G01*
X95350001Y-105100000D02*
X94449999Y-105100000D01*
G75*
G02*
X94200000Y-104850001I0J249999D01*
G01*
X94200000Y-104149999D01*
G75*
G02*
X94449999Y-103900000I249999J0D01*
G01*
X95350001Y-103900000D01*
G75*
G02*
X95600000Y-104149999I0J-249999D01*
G01*
X95600000Y-104850001D01*
G75*
G02*
X95350001Y-105100000I-249999J0D01*
G01*
G37*
G04 #@! TD.AperFunction*
G04 #@! TA.AperFunction,SMDPad,CuDef*
G36*
G01*
X95350001Y-107100000D02*
X94449999Y-107100000D01*
G75*
G02*
X94200000Y-106850001I0J249999D01*
G01*
X94200000Y-106149999D01*
G75*
G02*
X94449999Y-105900000I249999J0D01*
G01*
X95350001Y-105900000D01*
G75*
G02*
X95600000Y-106149999I0J-249999D01*
G01*
X95600000Y-106850001D01*
G75*
G02*
X95350001Y-107100000I-249999J0D01*
G01*
G37*
G04 #@! TD.AperFunction*
G04 #@! TA.AperFunction,SMDPad,CuDef*
G36*
G01*
X73250000Y-78100001D02*
X73250000Y-77199999D01*
G75*
G02*
X73499999Y-76950000I249999J0D01*
G01*
X74200001Y-76950000D01*
G75*
G02*
X74450000Y-77199999I0J-249999D01*
G01*
X74450000Y-78100001D01*
G75*
G02*
X74200001Y-78350000I-249999J0D01*
G01*
X73499999Y-78350000D01*
G75*
G02*
X73250000Y-78100001I0J249999D01*
G01*
G37*
G04 #@! TD.AperFunction*
G04 #@! TA.AperFunction,SMDPad,CuDef*
G36*
G01*
X71250000Y-78100001D02*
X71250000Y-77199999D01*
G75*
G02*
X71499999Y-76950000I249999J0D01*
G01*
X72200001Y-76950000D01*
G75*
G02*
X72450000Y-77199999I0J-249999D01*
G01*
X72450000Y-78100001D01*
G75*
G02*
X72200001Y-78350000I-249999J0D01*
G01*
X71499999Y-78350000D01*
G75*
G02*
X71250000Y-78100001I0J249999D01*
G01*
G37*
G04 #@! TD.AperFunction*
G04 #@! TA.AperFunction,SMDPad,CuDef*
G36*
G01*
X73250000Y-74100001D02*
X73250000Y-73199999D01*
G75*
G02*
X73499999Y-72950000I249999J0D01*
G01*
X74200001Y-72950000D01*
G75*
G02*
X74450000Y-73199999I0J-249999D01*
G01*
X74450000Y-74100001D01*
G75*
G02*
X74200001Y-74350000I-249999J0D01*
G01*
X73499999Y-74350000D01*
G75*
G02*
X73250000Y-74100001I0J249999D01*
G01*
G37*
G04 #@! TD.AperFunction*
G04 #@! TA.AperFunction,SMDPad,CuDef*
G36*
G01*
X71250000Y-74100001D02*
X71250000Y-73199999D01*
G75*
G02*
X71499999Y-72950000I249999J0D01*
G01*
X72200001Y-72950000D01*
G75*
G02*
X72450000Y-73199999I0J-249999D01*
G01*
X72450000Y-74100001D01*
G75*
G02*
X72200001Y-74350000I-249999J0D01*
G01*
X71499999Y-74350000D01*
G75*
G02*
X71250000Y-74100001I0J249999D01*
G01*
G37*
G04 #@! TD.AperFunction*
G04 #@! TA.AperFunction,SMDPad,CuDef*
G36*
G01*
X73250000Y-69900001D02*
X73250000Y-68999999D01*
G75*
G02*
X73499999Y-68750000I249999J0D01*
G01*
X74200001Y-68750000D01*
G75*
G02*
X74450000Y-68999999I0J-249999D01*
G01*
X74450000Y-69900001D01*
G75*
G02*
X74200001Y-70150000I-249999J0D01*
G01*
X73499999Y-70150000D01*
G75*
G02*
X73250000Y-69900001I0J249999D01*
G01*
G37*
G04 #@! TD.AperFunction*
G04 #@! TA.AperFunction,SMDPad,CuDef*
G36*
G01*
X71250000Y-69900001D02*
X71250000Y-68999999D01*
G75*
G02*
X71499999Y-68750000I249999J0D01*
G01*
X72200001Y-68750000D01*
G75*
G02*
X72450000Y-68999999I0J-249999D01*
G01*
X72450000Y-69900001D01*
G75*
G02*
X72200001Y-70150000I-249999J0D01*
G01*
X71499999Y-70150000D01*
G75*
G02*
X71250000Y-69900001I0J249999D01*
G01*
G37*
G04 #@! TD.AperFunction*
G04 #@! TA.AperFunction,SMDPad,CuDef*
G36*
G01*
X69050000Y-78100001D02*
X69050000Y-77199999D01*
G75*
G02*
X69299999Y-76950000I249999J0D01*
G01*
X70000001Y-76950000D01*
G75*
G02*
X70250000Y-77199999I0J-249999D01*
G01*
X70250000Y-78100001D01*
G75*
G02*
X70000001Y-78350000I-249999J0D01*
G01*
X69299999Y-78350000D01*
G75*
G02*
X69050000Y-78100001I0J249999D01*
G01*
G37*
G04 #@! TD.AperFunction*
G04 #@! TA.AperFunction,SMDPad,CuDef*
G36*
G01*
X67050000Y-78100001D02*
X67050000Y-77199999D01*
G75*
G02*
X67299999Y-76950000I249999J0D01*
G01*
X68000001Y-76950000D01*
G75*
G02*
X68250000Y-77199999I0J-249999D01*
G01*
X68250000Y-78100001D01*
G75*
G02*
X68000001Y-78350000I-249999J0D01*
G01*
X67299999Y-78350000D01*
G75*
G02*
X67050000Y-78100001I0J249999D01*
G01*
G37*
G04 #@! TD.AperFunction*
G04 #@! TA.AperFunction,SMDPad,CuDef*
G36*
G01*
X69050000Y-74100001D02*
X69050000Y-73199999D01*
G75*
G02*
X69299999Y-72950000I249999J0D01*
G01*
X70000001Y-72950000D01*
G75*
G02*
X70250000Y-73199999I0J-249999D01*
G01*
X70250000Y-74100001D01*
G75*
G02*
X70000001Y-74350000I-249999J0D01*
G01*
X69299999Y-74350000D01*
G75*
G02*
X69050000Y-74100001I0J249999D01*
G01*
G37*
G04 #@! TD.AperFunction*
G04 #@! TA.AperFunction,SMDPad,CuDef*
G36*
G01*
X67050000Y-74100001D02*
X67050000Y-73199999D01*
G75*
G02*
X67299999Y-72950000I249999J0D01*
G01*
X68000001Y-72950000D01*
G75*
G02*
X68250000Y-73199999I0J-249999D01*
G01*
X68250000Y-74100001D01*
G75*
G02*
X68000001Y-74350000I-249999J0D01*
G01*
X67299999Y-74350000D01*
G75*
G02*
X67050000Y-74100001I0J249999D01*
G01*
G37*
G04 #@! TD.AperFunction*
G04 #@! TA.AperFunction,SMDPad,CuDef*
G36*
G01*
X69050000Y-69900001D02*
X69050000Y-68999999D01*
G75*
G02*
X69299999Y-68750000I249999J0D01*
G01*
X70000001Y-68750000D01*
G75*
G02*
X70250000Y-68999999I0J-249999D01*
G01*
X70250000Y-69900001D01*
G75*
G02*
X70000001Y-70150000I-249999J0D01*
G01*
X69299999Y-70150000D01*
G75*
G02*
X69050000Y-69900001I0J249999D01*
G01*
G37*
G04 #@! TD.AperFunction*
G04 #@! TA.AperFunction,SMDPad,CuDef*
G36*
G01*
X67050000Y-69900001D02*
X67050000Y-68999999D01*
G75*
G02*
X67299999Y-68750000I249999J0D01*
G01*
X68000001Y-68750000D01*
G75*
G02*
X68250000Y-68999999I0J-249999D01*
G01*
X68250000Y-69900001D01*
G75*
G02*
X68000001Y-70150000I-249999J0D01*
G01*
X67299999Y-70150000D01*
G75*
G02*
X67050000Y-69900001I0J249999D01*
G01*
G37*
G04 #@! TD.AperFunction*
G04 #@! TA.AperFunction,SMDPad,CuDef*
G36*
G01*
X64850000Y-78100001D02*
X64850000Y-77199999D01*
G75*
G02*
X65099999Y-76950000I249999J0D01*
G01*
X65800001Y-76950000D01*
G75*
G02*
X66050000Y-77199999I0J-249999D01*
G01*
X66050000Y-78100001D01*
G75*
G02*
X65800001Y-78350000I-249999J0D01*
G01*
X65099999Y-78350000D01*
G75*
G02*
X64850000Y-78100001I0J249999D01*
G01*
G37*
G04 #@! TD.AperFunction*
G04 #@! TA.AperFunction,SMDPad,CuDef*
G36*
G01*
X62850000Y-78100001D02*
X62850000Y-77199999D01*
G75*
G02*
X63099999Y-76950000I249999J0D01*
G01*
X63800001Y-76950000D01*
G75*
G02*
X64050000Y-77199999I0J-249999D01*
G01*
X64050000Y-78100001D01*
G75*
G02*
X63800001Y-78350000I-249999J0D01*
G01*
X63099999Y-78350000D01*
G75*
G02*
X62850000Y-78100001I0J249999D01*
G01*
G37*
G04 #@! TD.AperFunction*
G04 #@! TA.AperFunction,SMDPad,CuDef*
G36*
G01*
X64850000Y-74100001D02*
X64850000Y-73199999D01*
G75*
G02*
X65099999Y-72950000I249999J0D01*
G01*
X65800001Y-72950000D01*
G75*
G02*
X66050000Y-73199999I0J-249999D01*
G01*
X66050000Y-74100001D01*
G75*
G02*
X65800001Y-74350000I-249999J0D01*
G01*
X65099999Y-74350000D01*
G75*
G02*
X64850000Y-74100001I0J249999D01*
G01*
G37*
G04 #@! TD.AperFunction*
G04 #@! TA.AperFunction,SMDPad,CuDef*
G36*
G01*
X62850000Y-74100001D02*
X62850000Y-73199999D01*
G75*
G02*
X63099999Y-72950000I249999J0D01*
G01*
X63800001Y-72950000D01*
G75*
G02*
X64050000Y-73199999I0J-249999D01*
G01*
X64050000Y-74100001D01*
G75*
G02*
X63800001Y-74350000I-249999J0D01*
G01*
X63099999Y-74350000D01*
G75*
G02*
X62850000Y-74100001I0J249999D01*
G01*
G37*
G04 #@! TD.AperFunction*
G04 #@! TA.AperFunction,SMDPad,CuDef*
G36*
G01*
X64850000Y-69900001D02*
X64850000Y-68999999D01*
G75*
G02*
X65099999Y-68750000I249999J0D01*
G01*
X65800001Y-68750000D01*
G75*
G02*
X66050000Y-68999999I0J-249999D01*
G01*
X66050000Y-69900001D01*
G75*
G02*
X65800001Y-70150000I-249999J0D01*
G01*
X65099999Y-70150000D01*
G75*
G02*
X64850000Y-69900001I0J249999D01*
G01*
G37*
G04 #@! TD.AperFunction*
G04 #@! TA.AperFunction,SMDPad,CuDef*
G36*
G01*
X62850000Y-69900001D02*
X62850000Y-68999999D01*
G75*
G02*
X63099999Y-68750000I249999J0D01*
G01*
X63800001Y-68750000D01*
G75*
G02*
X64050000Y-68999999I0J-249999D01*
G01*
X64050000Y-69900001D01*
G75*
G02*
X63800001Y-70150000I-249999J0D01*
G01*
X63099999Y-70150000D01*
G75*
G02*
X62850000Y-69900001I0J249999D01*
G01*
G37*
G04 #@! TD.AperFunction*
G04 #@! TA.AperFunction,SMDPad,CuDef*
G36*
G01*
X60650000Y-78100001D02*
X60650000Y-77199999D01*
G75*
G02*
X60899999Y-76950000I249999J0D01*
G01*
X61600001Y-76950000D01*
G75*
G02*
X61850000Y-77199999I0J-249999D01*
G01*
X61850000Y-78100001D01*
G75*
G02*
X61600001Y-78350000I-249999J0D01*
G01*
X60899999Y-78350000D01*
G75*
G02*
X60650000Y-78100001I0J249999D01*
G01*
G37*
G04 #@! TD.AperFunction*
G04 #@! TA.AperFunction,SMDPad,CuDef*
G36*
G01*
X58650000Y-78100001D02*
X58650000Y-77199999D01*
G75*
G02*
X58899999Y-76950000I249999J0D01*
G01*
X59600001Y-76950000D01*
G75*
G02*
X59850000Y-77199999I0J-249999D01*
G01*
X59850000Y-78100001D01*
G75*
G02*
X59600001Y-78350000I-249999J0D01*
G01*
X58899999Y-78350000D01*
G75*
G02*
X58650000Y-78100001I0J249999D01*
G01*
G37*
G04 #@! TD.AperFunction*
G04 #@! TA.AperFunction,SMDPad,CuDef*
G36*
G01*
X60650000Y-74100001D02*
X60650000Y-73199999D01*
G75*
G02*
X60899999Y-72950000I249999J0D01*
G01*
X61600001Y-72950000D01*
G75*
G02*
X61850000Y-73199999I0J-249999D01*
G01*
X61850000Y-74100001D01*
G75*
G02*
X61600001Y-74350000I-249999J0D01*
G01*
X60899999Y-74350000D01*
G75*
G02*
X60650000Y-74100001I0J249999D01*
G01*
G37*
G04 #@! TD.AperFunction*
G04 #@! TA.AperFunction,SMDPad,CuDef*
G36*
G01*
X58650000Y-74100001D02*
X58650000Y-73199999D01*
G75*
G02*
X58899999Y-72950000I249999J0D01*
G01*
X59600001Y-72950000D01*
G75*
G02*
X59850000Y-73199999I0J-249999D01*
G01*
X59850000Y-74100001D01*
G75*
G02*
X59600001Y-74350000I-249999J0D01*
G01*
X58899999Y-74350000D01*
G75*
G02*
X58650000Y-74100001I0J249999D01*
G01*
G37*
G04 #@! TD.AperFunction*
G04 #@! TA.AperFunction,SMDPad,CuDef*
G36*
G01*
X60650000Y-69900001D02*
X60650000Y-68999999D01*
G75*
G02*
X60899999Y-68750000I249999J0D01*
G01*
X61600001Y-68750000D01*
G75*
G02*
X61850000Y-68999999I0J-249999D01*
G01*
X61850000Y-69900001D01*
G75*
G02*
X61600001Y-70150000I-249999J0D01*
G01*
X60899999Y-70150000D01*
G75*
G02*
X60650000Y-69900001I0J249999D01*
G01*
G37*
G04 #@! TD.AperFunction*
G04 #@! TA.AperFunction,SMDPad,CuDef*
G36*
G01*
X58650000Y-69900001D02*
X58650000Y-68999999D01*
G75*
G02*
X58899999Y-68750000I249999J0D01*
G01*
X59600001Y-68750000D01*
G75*
G02*
X59850000Y-68999999I0J-249999D01*
G01*
X59850000Y-69900001D01*
G75*
G02*
X59600001Y-70150000I-249999J0D01*
G01*
X58899999Y-70150000D01*
G75*
G02*
X58650000Y-69900001I0J249999D01*
G01*
G37*
G04 #@! TD.AperFunction*
G04 #@! TA.AperFunction,SMDPad,CuDef*
G36*
G01*
X56450000Y-78100001D02*
X56450000Y-77199999D01*
G75*
G02*
X56699999Y-76950000I249999J0D01*
G01*
X57400001Y-76950000D01*
G75*
G02*
X57650000Y-77199999I0J-249999D01*
G01*
X57650000Y-78100001D01*
G75*
G02*
X57400001Y-78350000I-249999J0D01*
G01*
X56699999Y-78350000D01*
G75*
G02*
X56450000Y-78100001I0J249999D01*
G01*
G37*
G04 #@! TD.AperFunction*
G04 #@! TA.AperFunction,SMDPad,CuDef*
G36*
G01*
X54450000Y-78100001D02*
X54450000Y-77199999D01*
G75*
G02*
X54699999Y-76950000I249999J0D01*
G01*
X55400001Y-76950000D01*
G75*
G02*
X55650000Y-77199999I0J-249999D01*
G01*
X55650000Y-78100001D01*
G75*
G02*
X55400001Y-78350000I-249999J0D01*
G01*
X54699999Y-78350000D01*
G75*
G02*
X54450000Y-78100001I0J249999D01*
G01*
G37*
G04 #@! TD.AperFunction*
G04 #@! TA.AperFunction,SMDPad,CuDef*
G36*
G01*
X56450000Y-74100001D02*
X56450000Y-73199999D01*
G75*
G02*
X56699999Y-72950000I249999J0D01*
G01*
X57400001Y-72950000D01*
G75*
G02*
X57650000Y-73199999I0J-249999D01*
G01*
X57650000Y-74100001D01*
G75*
G02*
X57400001Y-74350000I-249999J0D01*
G01*
X56699999Y-74350000D01*
G75*
G02*
X56450000Y-74100001I0J249999D01*
G01*
G37*
G04 #@! TD.AperFunction*
G04 #@! TA.AperFunction,SMDPad,CuDef*
G36*
G01*
X54450000Y-74100001D02*
X54450000Y-73199999D01*
G75*
G02*
X54699999Y-72950000I249999J0D01*
G01*
X55400001Y-72950000D01*
G75*
G02*
X55650000Y-73199999I0J-249999D01*
G01*
X55650000Y-74100001D01*
G75*
G02*
X55400001Y-74350000I-249999J0D01*
G01*
X54699999Y-74350000D01*
G75*
G02*
X54450000Y-74100001I0J249999D01*
G01*
G37*
G04 #@! TD.AperFunction*
G04 #@! TA.AperFunction,SMDPad,CuDef*
G36*
G01*
X56450000Y-69900001D02*
X56450000Y-68999999D01*
G75*
G02*
X56699999Y-68750000I249999J0D01*
G01*
X57400001Y-68750000D01*
G75*
G02*
X57650000Y-68999999I0J-249999D01*
G01*
X57650000Y-69900001D01*
G75*
G02*
X57400001Y-70150000I-249999J0D01*
G01*
X56699999Y-70150000D01*
G75*
G02*
X56450000Y-69900001I0J249999D01*
G01*
G37*
G04 #@! TD.AperFunction*
G04 #@! TA.AperFunction,SMDPad,CuDef*
G36*
G01*
X54450000Y-69900001D02*
X54450000Y-68999999D01*
G75*
G02*
X54699999Y-68750000I249999J0D01*
G01*
X55400001Y-68750000D01*
G75*
G02*
X55650000Y-68999999I0J-249999D01*
G01*
X55650000Y-69900001D01*
G75*
G02*
X55400001Y-70150000I-249999J0D01*
G01*
X54699999Y-70150000D01*
G75*
G02*
X54450000Y-69900001I0J249999D01*
G01*
G37*
G04 #@! TD.AperFunction*
G04 #@! TA.AperFunction,SMDPad,CuDef*
G36*
G01*
X52250000Y-78100001D02*
X52250000Y-77199999D01*
G75*
G02*
X52499999Y-76950000I249999J0D01*
G01*
X53200001Y-76950000D01*
G75*
G02*
X53450000Y-77199999I0J-249999D01*
G01*
X53450000Y-78100001D01*
G75*
G02*
X53200001Y-78350000I-249999J0D01*
G01*
X52499999Y-78350000D01*
G75*
G02*
X52250000Y-78100001I0J249999D01*
G01*
G37*
G04 #@! TD.AperFunction*
G04 #@! TA.AperFunction,SMDPad,CuDef*
G36*
G01*
X50250000Y-78100001D02*
X50250000Y-77199999D01*
G75*
G02*
X50499999Y-76950000I249999J0D01*
G01*
X51200001Y-76950000D01*
G75*
G02*
X51450000Y-77199999I0J-249999D01*
G01*
X51450000Y-78100001D01*
G75*
G02*
X51200001Y-78350000I-249999J0D01*
G01*
X50499999Y-78350000D01*
G75*
G02*
X50250000Y-78100001I0J249999D01*
G01*
G37*
G04 #@! TD.AperFunction*
G04 #@! TA.AperFunction,SMDPad,CuDef*
G36*
G01*
X52250000Y-74100001D02*
X52250000Y-73199999D01*
G75*
G02*
X52499999Y-72950000I249999J0D01*
G01*
X53200001Y-72950000D01*
G75*
G02*
X53450000Y-73199999I0J-249999D01*
G01*
X53450000Y-74100001D01*
G75*
G02*
X53200001Y-74350000I-249999J0D01*
G01*
X52499999Y-74350000D01*
G75*
G02*
X52250000Y-74100001I0J249999D01*
G01*
G37*
G04 #@! TD.AperFunction*
G04 #@! TA.AperFunction,SMDPad,CuDef*
G36*
G01*
X50250000Y-74100001D02*
X50250000Y-73199999D01*
G75*
G02*
X50499999Y-72950000I249999J0D01*
G01*
X51200001Y-72950000D01*
G75*
G02*
X51450000Y-73199999I0J-249999D01*
G01*
X51450000Y-74100001D01*
G75*
G02*
X51200001Y-74350000I-249999J0D01*
G01*
X50499999Y-74350000D01*
G75*
G02*
X50250000Y-74100001I0J249999D01*
G01*
G37*
G04 #@! TD.AperFunction*
G04 #@! TA.AperFunction,SMDPad,CuDef*
G36*
G01*
X52250000Y-69900001D02*
X52250000Y-68999999D01*
G75*
G02*
X52499999Y-68750000I249999J0D01*
G01*
X53200001Y-68750000D01*
G75*
G02*
X53450000Y-68999999I0J-249999D01*
G01*
X53450000Y-69900001D01*
G75*
G02*
X53200001Y-70150000I-249999J0D01*
G01*
X52499999Y-70150000D01*
G75*
G02*
X52250000Y-69900001I0J249999D01*
G01*
G37*
G04 #@! TD.AperFunction*
G04 #@! TA.AperFunction,SMDPad,CuDef*
G36*
G01*
X50250000Y-69900001D02*
X50250000Y-68999999D01*
G75*
G02*
X50499999Y-68750000I249999J0D01*
G01*
X51200001Y-68750000D01*
G75*
G02*
X51450000Y-68999999I0J-249999D01*
G01*
X51450000Y-69900001D01*
G75*
G02*
X51200001Y-70150000I-249999J0D01*
G01*
X50499999Y-70150000D01*
G75*
G02*
X50250000Y-69900001I0J249999D01*
G01*
G37*
G04 #@! TD.AperFunction*
G04 #@! TA.AperFunction,SMDPad,CuDef*
G36*
G01*
X105649999Y-74200000D02*
X106550001Y-74200000D01*
G75*
G02*
X106800000Y-74449999I0J-249999D01*
G01*
X106800000Y-75150001D01*
G75*
G02*
X106550001Y-75400000I-249999J0D01*
G01*
X105649999Y-75400000D01*
G75*
G02*
X105400000Y-75150001I0J249999D01*
G01*
X105400000Y-74449999D01*
G75*
G02*
X105649999Y-74200000I249999J0D01*
G01*
G37*
G04 #@! TD.AperFunction*
G04 #@! TA.AperFunction,SMDPad,CuDef*
G36*
G01*
X105649999Y-72200000D02*
X106550001Y-72200000D01*
G75*
G02*
X106800000Y-72449999I0J-249999D01*
G01*
X106800000Y-73150001D01*
G75*
G02*
X106550001Y-73400000I-249999J0D01*
G01*
X105649999Y-73400000D01*
G75*
G02*
X105400000Y-73150001I0J249999D01*
G01*
X105400000Y-72449999D01*
G75*
G02*
X105649999Y-72200000I249999J0D01*
G01*
G37*
G04 #@! TD.AperFunction*
G04 #@! TA.AperFunction,SMDPad,CuDef*
G36*
G01*
X113175001Y-73400000D02*
X112274999Y-73400000D01*
G75*
G02*
X112025000Y-73150001I0J249999D01*
G01*
X112025000Y-72449999D01*
G75*
G02*
X112274999Y-72200000I249999J0D01*
G01*
X113175001Y-72200000D01*
G75*
G02*
X113425000Y-72449999I0J-249999D01*
G01*
X113425000Y-73150001D01*
G75*
G02*
X113175001Y-73400000I-249999J0D01*
G01*
G37*
G04 #@! TD.AperFunction*
G04 #@! TA.AperFunction,SMDPad,CuDef*
G36*
G01*
X113175001Y-75400000D02*
X112274999Y-75400000D01*
G75*
G02*
X112025000Y-75150001I0J249999D01*
G01*
X112025000Y-74449999D01*
G75*
G02*
X112274999Y-74200000I249999J0D01*
G01*
X113175001Y-74200000D01*
G75*
G02*
X113425000Y-74449999I0J-249999D01*
G01*
X113425000Y-75150001D01*
G75*
G02*
X113175001Y-75400000I-249999J0D01*
G01*
G37*
G04 #@! TD.AperFunction*
G04 #@! TA.AperFunction,SMDPad,CuDef*
G36*
G01*
X93974999Y-74400000D02*
X94875001Y-74400000D01*
G75*
G02*
X95125000Y-74649999I0J-249999D01*
G01*
X95125000Y-75350001D01*
G75*
G02*
X94875001Y-75600000I-249999J0D01*
G01*
X93974999Y-75600000D01*
G75*
G02*
X93725000Y-75350001I0J249999D01*
G01*
X93725000Y-74649999D01*
G75*
G02*
X93974999Y-74400000I249999J0D01*
G01*
G37*
G04 #@! TD.AperFunction*
G04 #@! TA.AperFunction,SMDPad,CuDef*
G36*
G01*
X93974999Y-72400000D02*
X94875001Y-72400000D01*
G75*
G02*
X95125000Y-72649999I0J-249999D01*
G01*
X95125000Y-73350001D01*
G75*
G02*
X94875001Y-73600000I-249999J0D01*
G01*
X93974999Y-73600000D01*
G75*
G02*
X93725000Y-73350001I0J249999D01*
G01*
X93725000Y-72649999D01*
G75*
G02*
X93974999Y-72400000I249999J0D01*
G01*
G37*
G04 #@! TD.AperFunction*
G04 #@! TA.AperFunction,SMDPad,CuDef*
G36*
G01*
X101575001Y-73600000D02*
X100674999Y-73600000D01*
G75*
G02*
X100425000Y-73350001I0J249999D01*
G01*
X100425000Y-72649999D01*
G75*
G02*
X100674999Y-72400000I249999J0D01*
G01*
X101575001Y-72400000D01*
G75*
G02*
X101825000Y-72649999I0J-249999D01*
G01*
X101825000Y-73350001D01*
G75*
G02*
X101575001Y-73600000I-249999J0D01*
G01*
G37*
G04 #@! TD.AperFunction*
G04 #@! TA.AperFunction,SMDPad,CuDef*
G36*
G01*
X101575001Y-75600000D02*
X100674999Y-75600000D01*
G75*
G02*
X100425000Y-75350001I0J249999D01*
G01*
X100425000Y-74649999D01*
G75*
G02*
X100674999Y-74400000I249999J0D01*
G01*
X101575001Y-74400000D01*
G75*
G02*
X101825000Y-74649999I0J-249999D01*
G01*
X101825000Y-75350001D01*
G75*
G02*
X101575001Y-75600000I-249999J0D01*
G01*
G37*
G04 #@! TD.AperFunction*
G04 #@! TA.AperFunction,SMDPad,CuDef*
G36*
G01*
X82074999Y-74400000D02*
X82975001Y-74400000D01*
G75*
G02*
X83225000Y-74649999I0J-249999D01*
G01*
X83225000Y-75350001D01*
G75*
G02*
X82975001Y-75600000I-249999J0D01*
G01*
X82074999Y-75600000D01*
G75*
G02*
X81825000Y-75350001I0J249999D01*
G01*
X81825000Y-74649999D01*
G75*
G02*
X82074999Y-74400000I249999J0D01*
G01*
G37*
G04 #@! TD.AperFunction*
G04 #@! TA.AperFunction,SMDPad,CuDef*
G36*
G01*
X82074999Y-72400000D02*
X82975001Y-72400000D01*
G75*
G02*
X83225000Y-72649999I0J-249999D01*
G01*
X83225000Y-73350001D01*
G75*
G02*
X82975001Y-73600000I-249999J0D01*
G01*
X82074999Y-73600000D01*
G75*
G02*
X81825000Y-73350001I0J249999D01*
G01*
X81825000Y-72649999D01*
G75*
G02*
X82074999Y-72400000I249999J0D01*
G01*
G37*
G04 #@! TD.AperFunction*
G04 #@! TA.AperFunction,SMDPad,CuDef*
G36*
G01*
X89975001Y-73600000D02*
X89074999Y-73600000D01*
G75*
G02*
X88825000Y-73350001I0J249999D01*
G01*
X88825000Y-72649999D01*
G75*
G02*
X89074999Y-72400000I249999J0D01*
G01*
X89975001Y-72400000D01*
G75*
G02*
X90225000Y-72649999I0J-249999D01*
G01*
X90225000Y-73350001D01*
G75*
G02*
X89975001Y-73600000I-249999J0D01*
G01*
G37*
G04 #@! TD.AperFunction*
G04 #@! TA.AperFunction,SMDPad,CuDef*
G36*
G01*
X89975001Y-75600000D02*
X89074999Y-75600000D01*
G75*
G02*
X88825000Y-75350001I0J249999D01*
G01*
X88825000Y-74649999D01*
G75*
G02*
X89074999Y-74400000I249999J0D01*
G01*
X89975001Y-74400000D01*
G75*
G02*
X90225000Y-74649999I0J-249999D01*
G01*
X90225000Y-75350001D01*
G75*
G02*
X89975001Y-75600000I-249999J0D01*
G01*
G37*
G04 #@! TD.AperFunction*
G04 #@! TA.AperFunction,SMDPad,CuDef*
G36*
G01*
X108675001Y-73400000D02*
X107774999Y-73400000D01*
G75*
G02*
X107525000Y-73150001I0J249999D01*
G01*
X107525000Y-72449999D01*
G75*
G02*
X107774999Y-72200000I249999J0D01*
G01*
X108675001Y-72200000D01*
G75*
G02*
X108925000Y-72449999I0J-249999D01*
G01*
X108925000Y-73150001D01*
G75*
G02*
X108675001Y-73400000I-249999J0D01*
G01*
G37*
G04 #@! TD.AperFunction*
G04 #@! TA.AperFunction,SMDPad,CuDef*
G36*
G01*
X108675001Y-75400000D02*
X107774999Y-75400000D01*
G75*
G02*
X107525000Y-75150001I0J249999D01*
G01*
X107525000Y-74449999D01*
G75*
G02*
X107774999Y-74200000I249999J0D01*
G01*
X108675001Y-74200000D01*
G75*
G02*
X108925000Y-74449999I0J-249999D01*
G01*
X108925000Y-75150001D01*
G75*
G02*
X108675001Y-75400000I-249999J0D01*
G01*
G37*
G04 #@! TD.AperFunction*
G04 #@! TA.AperFunction,SMDPad,CuDef*
G36*
G01*
X110074999Y-74200000D02*
X110975001Y-74200000D01*
G75*
G02*
X111225000Y-74449999I0J-249999D01*
G01*
X111225000Y-75150001D01*
G75*
G02*
X110975001Y-75400000I-249999J0D01*
G01*
X110074999Y-75400000D01*
G75*
G02*
X109825000Y-75150001I0J249999D01*
G01*
X109825000Y-74449999D01*
G75*
G02*
X110074999Y-74200000I249999J0D01*
G01*
G37*
G04 #@! TD.AperFunction*
G04 #@! TA.AperFunction,SMDPad,CuDef*
G36*
G01*
X110074999Y-72200000D02*
X110975001Y-72200000D01*
G75*
G02*
X111225000Y-72449999I0J-249999D01*
G01*
X111225000Y-73150001D01*
G75*
G02*
X110975001Y-73400000I-249999J0D01*
G01*
X110074999Y-73400000D01*
G75*
G02*
X109825000Y-73150001I0J249999D01*
G01*
X109825000Y-72449999D01*
G75*
G02*
X110074999Y-72200000I249999J0D01*
G01*
G37*
G04 #@! TD.AperFunction*
G04 #@! TA.AperFunction,SMDPad,CuDef*
G36*
G01*
X97075001Y-73600000D02*
X96174999Y-73600000D01*
G75*
G02*
X95925000Y-73350001I0J249999D01*
G01*
X95925000Y-72649999D01*
G75*
G02*
X96174999Y-72400000I249999J0D01*
G01*
X97075001Y-72400000D01*
G75*
G02*
X97325000Y-72649999I0J-249999D01*
G01*
X97325000Y-73350001D01*
G75*
G02*
X97075001Y-73600000I-249999J0D01*
G01*
G37*
G04 #@! TD.AperFunction*
G04 #@! TA.AperFunction,SMDPad,CuDef*
G36*
G01*
X97075001Y-75600000D02*
X96174999Y-75600000D01*
G75*
G02*
X95925000Y-75350001I0J249999D01*
G01*
X95925000Y-74649999D01*
G75*
G02*
X96174999Y-74400000I249999J0D01*
G01*
X97075001Y-74400000D01*
G75*
G02*
X97325000Y-74649999I0J-249999D01*
G01*
X97325000Y-75350001D01*
G75*
G02*
X97075001Y-75600000I-249999J0D01*
G01*
G37*
G04 #@! TD.AperFunction*
G04 #@! TA.AperFunction,SMDPad,CuDef*
G36*
G01*
X98474999Y-74400000D02*
X99375001Y-74400000D01*
G75*
G02*
X99625000Y-74649999I0J-249999D01*
G01*
X99625000Y-75350001D01*
G75*
G02*
X99375001Y-75600000I-249999J0D01*
G01*
X98474999Y-75600000D01*
G75*
G02*
X98225000Y-75350001I0J249999D01*
G01*
X98225000Y-74649999D01*
G75*
G02*
X98474999Y-74400000I249999J0D01*
G01*
G37*
G04 #@! TD.AperFunction*
G04 #@! TA.AperFunction,SMDPad,CuDef*
G36*
G01*
X98474999Y-72400000D02*
X99375001Y-72400000D01*
G75*
G02*
X99625000Y-72649999I0J-249999D01*
G01*
X99625000Y-73350001D01*
G75*
G02*
X99375001Y-73600000I-249999J0D01*
G01*
X98474999Y-73600000D01*
G75*
G02*
X98225000Y-73350001I0J249999D01*
G01*
X98225000Y-72649999D01*
G75*
G02*
X98474999Y-72400000I249999J0D01*
G01*
G37*
G04 #@! TD.AperFunction*
G04 #@! TA.AperFunction,SMDPad,CuDef*
G36*
G01*
X85175001Y-73600000D02*
X84274999Y-73600000D01*
G75*
G02*
X84025000Y-73350001I0J249999D01*
G01*
X84025000Y-72649999D01*
G75*
G02*
X84274999Y-72400000I249999J0D01*
G01*
X85175001Y-72400000D01*
G75*
G02*
X85425000Y-72649999I0J-249999D01*
G01*
X85425000Y-73350001D01*
G75*
G02*
X85175001Y-73600000I-249999J0D01*
G01*
G37*
G04 #@! TD.AperFunction*
G04 #@! TA.AperFunction,SMDPad,CuDef*
G36*
G01*
X85175001Y-75600000D02*
X84274999Y-75600000D01*
G75*
G02*
X84025000Y-75350001I0J249999D01*
G01*
X84025000Y-74649999D01*
G75*
G02*
X84274999Y-74400000I249999J0D01*
G01*
X85175001Y-74400000D01*
G75*
G02*
X85425000Y-74649999I0J-249999D01*
G01*
X85425000Y-75350001D01*
G75*
G02*
X85175001Y-75600000I-249999J0D01*
G01*
G37*
G04 #@! TD.AperFunction*
G04 #@! TA.AperFunction,SMDPad,CuDef*
G36*
G01*
X86674999Y-74400000D02*
X87575001Y-74400000D01*
G75*
G02*
X87825000Y-74649999I0J-249999D01*
G01*
X87825000Y-75350001D01*
G75*
G02*
X87575001Y-75600000I-249999J0D01*
G01*
X86674999Y-75600000D01*
G75*
G02*
X86425000Y-75350001I0J249999D01*
G01*
X86425000Y-74649999D01*
G75*
G02*
X86674999Y-74400000I249999J0D01*
G01*
G37*
G04 #@! TD.AperFunction*
G04 #@! TA.AperFunction,SMDPad,CuDef*
G36*
G01*
X86674999Y-72400000D02*
X87575001Y-72400000D01*
G75*
G02*
X87825000Y-72649999I0J-249999D01*
G01*
X87825000Y-73350001D01*
G75*
G02*
X87575001Y-73600000I-249999J0D01*
G01*
X86674999Y-73600000D01*
G75*
G02*
X86425000Y-73350001I0J249999D01*
G01*
X86425000Y-72649999D01*
G75*
G02*
X86674999Y-72400000I249999J0D01*
G01*
G37*
G04 #@! TD.AperFunction*
D22*
X104200000Y-126200000D03*
X76200000Y-133800000D03*
D23*
X76200000Y-118600000D03*
D22*
X104200000Y-118600000D03*
D12*
X61200000Y-124400000D03*
X56200000Y-124400000D03*
D24*
X105825000Y-66800000D03*
D25*
X105825000Y-57400000D03*
X113225000Y-59400000D03*
D24*
X94255000Y-66820000D03*
D25*
X94255000Y-57420000D03*
X101655000Y-59420000D03*
D24*
X82705000Y-66820000D03*
D25*
X82705000Y-57420000D03*
X90105000Y-59420000D03*
G04 #@! TA.AperFunction,SMDPad,CuDef*
G36*
G01*
X59550000Y-96775000D02*
X59550000Y-98025000D01*
G75*
G02*
X59300000Y-98275000I-250000J0D01*
G01*
X58375000Y-98275000D01*
G75*
G02*
X58125000Y-98025000I0J250000D01*
G01*
X58125000Y-96775000D01*
G75*
G02*
X58375000Y-96525000I250000J0D01*
G01*
X59300000Y-96525000D01*
G75*
G02*
X59550000Y-96775000I0J-250000D01*
G01*
G37*
G04 #@! TD.AperFunction*
G04 #@! TA.AperFunction,SMDPad,CuDef*
G36*
G01*
X62525000Y-96775000D02*
X62525000Y-98025000D01*
G75*
G02*
X62275000Y-98275000I-250000J0D01*
G01*
X61350000Y-98275000D01*
G75*
G02*
X61100000Y-98025000I0J250000D01*
G01*
X61100000Y-96775000D01*
G75*
G02*
X61350000Y-96525000I250000J0D01*
G01*
X62275000Y-96525000D01*
G75*
G02*
X62525000Y-96775000I0J-250000D01*
G01*
G37*
G04 #@! TD.AperFunction*
G04 #@! TA.AperFunction,SMDPad,CuDef*
G36*
G01*
X59662500Y-101575000D02*
X59662500Y-102825000D01*
G75*
G02*
X59412500Y-103075000I-250000J0D01*
G01*
X58487500Y-103075000D01*
G75*
G02*
X58237500Y-102825000I0J250000D01*
G01*
X58237500Y-101575000D01*
G75*
G02*
X58487500Y-101325000I250000J0D01*
G01*
X59412500Y-101325000D01*
G75*
G02*
X59662500Y-101575000I0J-250000D01*
G01*
G37*
G04 #@! TD.AperFunction*
G04 #@! TA.AperFunction,SMDPad,CuDef*
G36*
G01*
X62637500Y-101575000D02*
X62637500Y-102825000D01*
G75*
G02*
X62387500Y-103075000I-250000J0D01*
G01*
X61462500Y-103075000D01*
G75*
G02*
X61212500Y-102825000I0J250000D01*
G01*
X61212500Y-101575000D01*
G75*
G02*
X61462500Y-101325000I250000J0D01*
G01*
X62387500Y-101325000D01*
G75*
G02*
X62637500Y-101575000I0J-250000D01*
G01*
G37*
G04 #@! TD.AperFunction*
G04 #@! TA.AperFunction,SMDPad,CuDef*
G36*
G01*
X59750000Y-106375000D02*
X59750000Y-107625000D01*
G75*
G02*
X59500000Y-107875000I-250000J0D01*
G01*
X58575000Y-107875000D01*
G75*
G02*
X58325000Y-107625000I0J250000D01*
G01*
X58325000Y-106375000D01*
G75*
G02*
X58575000Y-106125000I250000J0D01*
G01*
X59500000Y-106125000D01*
G75*
G02*
X59750000Y-106375000I0J-250000D01*
G01*
G37*
G04 #@! TD.AperFunction*
G04 #@! TA.AperFunction,SMDPad,CuDef*
G36*
G01*
X62725000Y-106375000D02*
X62725000Y-107625000D01*
G75*
G02*
X62475000Y-107875000I-250000J0D01*
G01*
X61550000Y-107875000D01*
G75*
G02*
X61300000Y-107625000I0J250000D01*
G01*
X61300000Y-106375000D01*
G75*
G02*
X61550000Y-106125000I250000J0D01*
G01*
X62475000Y-106125000D01*
G75*
G02*
X62725000Y-106375000I0J-250000D01*
G01*
G37*
G04 #@! TD.AperFunction*
G04 #@! TA.AperFunction,SMDPad,CuDef*
G36*
G01*
X59750000Y-111175000D02*
X59750000Y-112425000D01*
G75*
G02*
X59500000Y-112675000I-250000J0D01*
G01*
X58575000Y-112675000D01*
G75*
G02*
X58325000Y-112425000I0J250000D01*
G01*
X58325000Y-111175000D01*
G75*
G02*
X58575000Y-110925000I250000J0D01*
G01*
X59500000Y-110925000D01*
G75*
G02*
X59750000Y-111175000I0J-250000D01*
G01*
G37*
G04 #@! TD.AperFunction*
G04 #@! TA.AperFunction,SMDPad,CuDef*
G36*
G01*
X62725000Y-111175000D02*
X62725000Y-112425000D01*
G75*
G02*
X62475000Y-112675000I-250000J0D01*
G01*
X61550000Y-112675000D01*
G75*
G02*
X61300000Y-112425000I0J250000D01*
G01*
X61300000Y-111175000D01*
G75*
G02*
X61550000Y-110925000I250000J0D01*
G01*
X62475000Y-110925000D01*
G75*
G02*
X62725000Y-111175000I0J-250000D01*
G01*
G37*
G04 #@! TD.AperFunction*
G04 #@! TA.AperFunction,SMDPad,CuDef*
G36*
G01*
X85200000Y-91825000D02*
X85200000Y-92775000D01*
G75*
G02*
X84950000Y-93025000I-250000J0D01*
G01*
X84450000Y-93025000D01*
G75*
G02*
X84200000Y-92775000I0J250000D01*
G01*
X84200000Y-91825000D01*
G75*
G02*
X84450000Y-91575000I250000J0D01*
G01*
X84950000Y-91575000D01*
G75*
G02*
X85200000Y-91825000I0J-250000D01*
G01*
G37*
G04 #@! TD.AperFunction*
G04 #@! TA.AperFunction,SMDPad,CuDef*
G36*
G01*
X87100000Y-91825000D02*
X87100000Y-92775000D01*
G75*
G02*
X86850000Y-93025000I-250000J0D01*
G01*
X86350000Y-93025000D01*
G75*
G02*
X86100000Y-92775000I0J250000D01*
G01*
X86100000Y-91825000D01*
G75*
G02*
X86350000Y-91575000I250000J0D01*
G01*
X86850000Y-91575000D01*
G75*
G02*
X87100000Y-91825000I0J-250000D01*
G01*
G37*
G04 #@! TD.AperFunction*
G04 #@! TA.AperFunction,SMDPad,CuDef*
G36*
G01*
X105300000Y-89050000D02*
X105300000Y-88100000D01*
G75*
G02*
X105550000Y-87850000I250000J0D01*
G01*
X106050000Y-87850000D01*
G75*
G02*
X106300000Y-88100000I0J-250000D01*
G01*
X106300000Y-89050000D01*
G75*
G02*
X106050000Y-89300000I-250000J0D01*
G01*
X105550000Y-89300000D01*
G75*
G02*
X105300000Y-89050000I0J250000D01*
G01*
G37*
G04 #@! TD.AperFunction*
G04 #@! TA.AperFunction,SMDPad,CuDef*
G36*
G01*
X103400000Y-89050000D02*
X103400000Y-88100000D01*
G75*
G02*
X103650000Y-87850000I250000J0D01*
G01*
X104150000Y-87850000D01*
G75*
G02*
X104400000Y-88100000I0J-250000D01*
G01*
X104400000Y-89050000D01*
G75*
G02*
X104150000Y-89300000I-250000J0D01*
G01*
X103650000Y-89300000D01*
G75*
G02*
X103400000Y-89050000I0J250000D01*
G01*
G37*
G04 #@! TD.AperFunction*
G04 #@! TA.AperFunction,SMDPad,CuDef*
G36*
G01*
X85525000Y-89725000D02*
X85525000Y-90225000D01*
G75*
G02*
X85300000Y-90450000I-225000J0D01*
G01*
X84850000Y-90450000D01*
G75*
G02*
X84625000Y-90225000I0J225000D01*
G01*
X84625000Y-89725000D01*
G75*
G02*
X84850000Y-89500000I225000J0D01*
G01*
X85300000Y-89500000D01*
G75*
G02*
X85525000Y-89725000I0J-225000D01*
G01*
G37*
G04 #@! TD.AperFunction*
G04 #@! TA.AperFunction,SMDPad,CuDef*
G36*
G01*
X87075000Y-89725000D02*
X87075000Y-90225000D01*
G75*
G02*
X86850000Y-90450000I-225000J0D01*
G01*
X86400000Y-90450000D01*
G75*
G02*
X86175000Y-90225000I0J225000D01*
G01*
X86175000Y-89725000D01*
G75*
G02*
X86400000Y-89500000I225000J0D01*
G01*
X86850000Y-89500000D01*
G75*
G02*
X87075000Y-89725000I0J-225000D01*
G01*
G37*
G04 #@! TD.AperFunction*
G04 #@! TA.AperFunction,SMDPad,CuDef*
G36*
G01*
X104975000Y-90825000D02*
X104975000Y-90325000D01*
G75*
G02*
X105200000Y-90100000I225000J0D01*
G01*
X105650000Y-90100000D01*
G75*
G02*
X105875000Y-90325000I0J-225000D01*
G01*
X105875000Y-90825000D01*
G75*
G02*
X105650000Y-91050000I-225000J0D01*
G01*
X105200000Y-91050000D01*
G75*
G02*
X104975000Y-90825000I0J225000D01*
G01*
G37*
G04 #@! TD.AperFunction*
G04 #@! TA.AperFunction,SMDPad,CuDef*
G36*
G01*
X103425000Y-90825000D02*
X103425000Y-90325000D01*
G75*
G02*
X103650000Y-90100000I225000J0D01*
G01*
X104100000Y-90100000D01*
G75*
G02*
X104325000Y-90325000I0J-225000D01*
G01*
X104325000Y-90825000D01*
G75*
G02*
X104100000Y-91050000I-225000J0D01*
G01*
X103650000Y-91050000D01*
G75*
G02*
X103425000Y-90825000I0J225000D01*
G01*
G37*
G04 #@! TD.AperFunction*
G04 #@! TA.AperFunction,SMDPad,CuDef*
G36*
G01*
X96325000Y-82525000D02*
X95375000Y-82525000D01*
G75*
G02*
X95125000Y-82275000I0J250000D01*
G01*
X95125000Y-81775000D01*
G75*
G02*
X95375000Y-81525000I250000J0D01*
G01*
X96325000Y-81525000D01*
G75*
G02*
X96575000Y-81775000I0J-250000D01*
G01*
X96575000Y-82275000D01*
G75*
G02*
X96325000Y-82525000I-250000J0D01*
G01*
G37*
G04 #@! TD.AperFunction*
G04 #@! TA.AperFunction,SMDPad,CuDef*
G36*
G01*
X96325000Y-84425000D02*
X95375000Y-84425000D01*
G75*
G02*
X95125000Y-84175000I0J250000D01*
G01*
X95125000Y-83675000D01*
G75*
G02*
X95375000Y-83425000I250000J0D01*
G01*
X96325000Y-83425000D01*
G75*
G02*
X96575000Y-83675000I0J-250000D01*
G01*
X96575000Y-84175000D01*
G75*
G02*
X96325000Y-84425000I-250000J0D01*
G01*
G37*
G04 #@! TD.AperFunction*
G04 #@! TA.AperFunction,SMDPad,CuDef*
G36*
G01*
X94125000Y-82525000D02*
X93175000Y-82525000D01*
G75*
G02*
X92925000Y-82275000I0J250000D01*
G01*
X92925000Y-81775000D01*
G75*
G02*
X93175000Y-81525000I250000J0D01*
G01*
X94125000Y-81525000D01*
G75*
G02*
X94375000Y-81775000I0J-250000D01*
G01*
X94375000Y-82275000D01*
G75*
G02*
X94125000Y-82525000I-250000J0D01*
G01*
G37*
G04 #@! TD.AperFunction*
G04 #@! TA.AperFunction,SMDPad,CuDef*
G36*
G01*
X94125000Y-84425000D02*
X93175000Y-84425000D01*
G75*
G02*
X92925000Y-84175000I0J250000D01*
G01*
X92925000Y-83675000D01*
G75*
G02*
X93175000Y-83425000I250000J0D01*
G01*
X94125000Y-83425000D01*
G75*
G02*
X94375000Y-83675000I0J-250000D01*
G01*
X94375000Y-84175000D01*
G75*
G02*
X94125000Y-84425000I-250000J0D01*
G01*
G37*
G04 #@! TD.AperFunction*
G04 #@! TA.AperFunction,SMDPad,CuDef*
G36*
G01*
X85200000Y-94300000D02*
X85200000Y-95250000D01*
G75*
G02*
X84950000Y-95500000I-250000J0D01*
G01*
X84450000Y-95500000D01*
G75*
G02*
X84200000Y-95250000I0J250000D01*
G01*
X84200000Y-94300000D01*
G75*
G02*
X84450000Y-94050000I250000J0D01*
G01*
X84950000Y-94050000D01*
G75*
G02*
X85200000Y-94300000I0J-250000D01*
G01*
G37*
G04 #@! TD.AperFunction*
G04 #@! TA.AperFunction,SMDPad,CuDef*
G36*
G01*
X87100000Y-94300000D02*
X87100000Y-95250000D01*
G75*
G02*
X86850000Y-95500000I-250000J0D01*
G01*
X86350000Y-95500000D01*
G75*
G02*
X86100000Y-95250000I0J250000D01*
G01*
X86100000Y-94300000D01*
G75*
G02*
X86350000Y-94050000I250000J0D01*
G01*
X86850000Y-94050000D01*
G75*
G02*
X87100000Y-94300000I0J-250000D01*
G01*
G37*
G04 #@! TD.AperFunction*
G04 #@! TA.AperFunction,SMDPad,CuDef*
G36*
G01*
X90950000Y-101675000D02*
X90450000Y-101675000D01*
G75*
G02*
X90225000Y-101450000I0J225000D01*
G01*
X90225000Y-101000000D01*
G75*
G02*
X90450000Y-100775000I225000J0D01*
G01*
X90950000Y-100775000D01*
G75*
G02*
X91175000Y-101000000I0J-225000D01*
G01*
X91175000Y-101450000D01*
G75*
G02*
X90950000Y-101675000I-225000J0D01*
G01*
G37*
G04 #@! TD.AperFunction*
G04 #@! TA.AperFunction,SMDPad,CuDef*
G36*
G01*
X90950000Y-103225000D02*
X90450000Y-103225000D01*
G75*
G02*
X90225000Y-103000000I0J225000D01*
G01*
X90225000Y-102550000D01*
G75*
G02*
X90450000Y-102325000I225000J0D01*
G01*
X90950000Y-102325000D01*
G75*
G02*
X91175000Y-102550000I0J-225000D01*
G01*
X91175000Y-103000000D01*
G75*
G02*
X90950000Y-103225000I-225000J0D01*
G01*
G37*
G04 #@! TD.AperFunction*
G04 #@! TA.AperFunction,SMDPad,CuDef*
G36*
G01*
X93100000Y-101675000D02*
X92600000Y-101675000D01*
G75*
G02*
X92375000Y-101450000I0J225000D01*
G01*
X92375000Y-101000000D01*
G75*
G02*
X92600000Y-100775000I225000J0D01*
G01*
X93100000Y-100775000D01*
G75*
G02*
X93325000Y-101000000I0J-225000D01*
G01*
X93325000Y-101450000D01*
G75*
G02*
X93100000Y-101675000I-225000J0D01*
G01*
G37*
G04 #@! TD.AperFunction*
G04 #@! TA.AperFunction,SMDPad,CuDef*
G36*
G01*
X93100000Y-103225000D02*
X92600000Y-103225000D01*
G75*
G02*
X92375000Y-103000000I0J225000D01*
G01*
X92375000Y-102550000D01*
G75*
G02*
X92600000Y-102325000I225000J0D01*
G01*
X93100000Y-102325000D01*
G75*
G02*
X93325000Y-102550000I0J-225000D01*
G01*
X93325000Y-103000000D01*
G75*
G02*
X93100000Y-103225000I-225000J0D01*
G01*
G37*
G04 #@! TD.AperFunction*
G04 #@! TA.AperFunction,SMDPad,CuDef*
G36*
G01*
X72475000Y-79350000D02*
X72475000Y-79850000D01*
G75*
G02*
X72250000Y-80075000I-225000J0D01*
G01*
X71800000Y-80075000D01*
G75*
G02*
X71575000Y-79850000I0J225000D01*
G01*
X71575000Y-79350000D01*
G75*
G02*
X71800000Y-79125000I225000J0D01*
G01*
X72250000Y-79125000D01*
G75*
G02*
X72475000Y-79350000I0J-225000D01*
G01*
G37*
G04 #@! TD.AperFunction*
G04 #@! TA.AperFunction,SMDPad,CuDef*
G36*
G01*
X74025000Y-79350000D02*
X74025000Y-79850000D01*
G75*
G02*
X73800000Y-80075000I-225000J0D01*
G01*
X73350000Y-80075000D01*
G75*
G02*
X73125000Y-79850000I0J225000D01*
G01*
X73125000Y-79350000D01*
G75*
G02*
X73350000Y-79125000I225000J0D01*
G01*
X73800000Y-79125000D01*
G75*
G02*
X74025000Y-79350000I0J-225000D01*
G01*
G37*
G04 #@! TD.AperFunction*
G04 #@! TA.AperFunction,SMDPad,CuDef*
G36*
G01*
X72475000Y-75400000D02*
X72475000Y-75900000D01*
G75*
G02*
X72250000Y-76125000I-225000J0D01*
G01*
X71800000Y-76125000D01*
G75*
G02*
X71575000Y-75900000I0J225000D01*
G01*
X71575000Y-75400000D01*
G75*
G02*
X71800000Y-75175000I225000J0D01*
G01*
X72250000Y-75175000D01*
G75*
G02*
X72475000Y-75400000I0J-225000D01*
G01*
G37*
G04 #@! TD.AperFunction*
G04 #@! TA.AperFunction,SMDPad,CuDef*
G36*
G01*
X74025000Y-75400000D02*
X74025000Y-75900000D01*
G75*
G02*
X73800000Y-76125000I-225000J0D01*
G01*
X73350000Y-76125000D01*
G75*
G02*
X73125000Y-75900000I0J225000D01*
G01*
X73125000Y-75400000D01*
G75*
G02*
X73350000Y-75175000I225000J0D01*
G01*
X73800000Y-75175000D01*
G75*
G02*
X74025000Y-75400000I0J-225000D01*
G01*
G37*
G04 #@! TD.AperFunction*
D26*
X114100000Y-129300000D03*
D11*
X114100000Y-134300000D03*
G04 #@! TA.AperFunction,SMDPad,CuDef*
G36*
G01*
X95150000Y-101650000D02*
X94650000Y-101650000D01*
G75*
G02*
X94425000Y-101425000I0J225000D01*
G01*
X94425000Y-100975000D01*
G75*
G02*
X94650000Y-100750000I225000J0D01*
G01*
X95150000Y-100750000D01*
G75*
G02*
X95375000Y-100975000I0J-225000D01*
G01*
X95375000Y-101425000D01*
G75*
G02*
X95150000Y-101650000I-225000J0D01*
G01*
G37*
G04 #@! TD.AperFunction*
G04 #@! TA.AperFunction,SMDPad,CuDef*
G36*
G01*
X95150000Y-103200000D02*
X94650000Y-103200000D01*
G75*
G02*
X94425000Y-102975000I0J225000D01*
G01*
X94425000Y-102525000D01*
G75*
G02*
X94650000Y-102300000I225000J0D01*
G01*
X95150000Y-102300000D01*
G75*
G02*
X95375000Y-102525000I0J-225000D01*
G01*
X95375000Y-102975000D01*
G75*
G02*
X95150000Y-103200000I-225000J0D01*
G01*
G37*
G04 #@! TD.AperFunction*
G04 #@! TA.AperFunction,SMDPad,CuDef*
G36*
G01*
X72525000Y-71200000D02*
X72525000Y-71700000D01*
G75*
G02*
X72300000Y-71925000I-225000J0D01*
G01*
X71850000Y-71925000D01*
G75*
G02*
X71625000Y-71700000I0J225000D01*
G01*
X71625000Y-71200000D01*
G75*
G02*
X71850000Y-70975000I225000J0D01*
G01*
X72300000Y-70975000D01*
G75*
G02*
X72525000Y-71200000I0J-225000D01*
G01*
G37*
G04 #@! TD.AperFunction*
G04 #@! TA.AperFunction,SMDPad,CuDef*
G36*
G01*
X74075000Y-71200000D02*
X74075000Y-71700000D01*
G75*
G02*
X73850000Y-71925000I-225000J0D01*
G01*
X73400000Y-71925000D01*
G75*
G02*
X73175000Y-71700000I0J225000D01*
G01*
X73175000Y-71200000D01*
G75*
G02*
X73400000Y-70975000I225000J0D01*
G01*
X73850000Y-70975000D01*
G75*
G02*
X74075000Y-71200000I0J-225000D01*
G01*
G37*
G04 #@! TD.AperFunction*
D26*
X69200000Y-118400000D03*
X69200000Y-128400000D03*
G04 #@! TA.AperFunction,SMDPad,CuDef*
G36*
G01*
X105775000Y-77725000D02*
X106275000Y-77725000D01*
G75*
G02*
X106500000Y-77950000I0J-225000D01*
G01*
X106500000Y-78400000D01*
G75*
G02*
X106275000Y-78625000I-225000J0D01*
G01*
X105775000Y-78625000D01*
G75*
G02*
X105550000Y-78400000I0J225000D01*
G01*
X105550000Y-77950000D01*
G75*
G02*
X105775000Y-77725000I225000J0D01*
G01*
G37*
G04 #@! TD.AperFunction*
G04 #@! TA.AperFunction,SMDPad,CuDef*
G36*
G01*
X105775000Y-76175000D02*
X106275000Y-76175000D01*
G75*
G02*
X106500000Y-76400000I0J-225000D01*
G01*
X106500000Y-76850000D01*
G75*
G02*
X106275000Y-77075000I-225000J0D01*
G01*
X105775000Y-77075000D01*
G75*
G02*
X105550000Y-76850000I0J225000D01*
G01*
X105550000Y-76400000D01*
G75*
G02*
X105775000Y-76175000I225000J0D01*
G01*
G37*
G04 #@! TD.AperFunction*
G04 #@! TA.AperFunction,SMDPad,CuDef*
G36*
G01*
X112975000Y-77075000D02*
X112475000Y-77075000D01*
G75*
G02*
X112250000Y-76850000I0J225000D01*
G01*
X112250000Y-76400000D01*
G75*
G02*
X112475000Y-76175000I225000J0D01*
G01*
X112975000Y-76175000D01*
G75*
G02*
X113200000Y-76400000I0J-225000D01*
G01*
X113200000Y-76850000D01*
G75*
G02*
X112975000Y-77075000I-225000J0D01*
G01*
G37*
G04 #@! TD.AperFunction*
G04 #@! TA.AperFunction,SMDPad,CuDef*
G36*
G01*
X112975000Y-78625000D02*
X112475000Y-78625000D01*
G75*
G02*
X112250000Y-78400000I0J225000D01*
G01*
X112250000Y-77950000D01*
G75*
G02*
X112475000Y-77725000I225000J0D01*
G01*
X112975000Y-77725000D01*
G75*
G02*
X113200000Y-77950000I0J-225000D01*
G01*
X113200000Y-78400000D01*
G75*
G02*
X112975000Y-78625000I-225000J0D01*
G01*
G37*
G04 #@! TD.AperFunction*
G04 #@! TA.AperFunction,SMDPad,CuDef*
G36*
G01*
X94175000Y-77925000D02*
X94675000Y-77925000D01*
G75*
G02*
X94900000Y-78150000I0J-225000D01*
G01*
X94900000Y-78600000D01*
G75*
G02*
X94675000Y-78825000I-225000J0D01*
G01*
X94175000Y-78825000D01*
G75*
G02*
X93950000Y-78600000I0J225000D01*
G01*
X93950000Y-78150000D01*
G75*
G02*
X94175000Y-77925000I225000J0D01*
G01*
G37*
G04 #@! TD.AperFunction*
G04 #@! TA.AperFunction,SMDPad,CuDef*
G36*
G01*
X94175000Y-76375000D02*
X94675000Y-76375000D01*
G75*
G02*
X94900000Y-76600000I0J-225000D01*
G01*
X94900000Y-77050000D01*
G75*
G02*
X94675000Y-77275000I-225000J0D01*
G01*
X94175000Y-77275000D01*
G75*
G02*
X93950000Y-77050000I0J225000D01*
G01*
X93950000Y-76600000D01*
G75*
G02*
X94175000Y-76375000I225000J0D01*
G01*
G37*
G04 #@! TD.AperFunction*
G04 #@! TA.AperFunction,SMDPad,CuDef*
G36*
G01*
X101375000Y-77275000D02*
X100875000Y-77275000D01*
G75*
G02*
X100650000Y-77050000I0J225000D01*
G01*
X100650000Y-76600000D01*
G75*
G02*
X100875000Y-76375000I225000J0D01*
G01*
X101375000Y-76375000D01*
G75*
G02*
X101600000Y-76600000I0J-225000D01*
G01*
X101600000Y-77050000D01*
G75*
G02*
X101375000Y-77275000I-225000J0D01*
G01*
G37*
G04 #@! TD.AperFunction*
G04 #@! TA.AperFunction,SMDPad,CuDef*
G36*
G01*
X101375000Y-78825000D02*
X100875000Y-78825000D01*
G75*
G02*
X100650000Y-78600000I0J225000D01*
G01*
X100650000Y-78150000D01*
G75*
G02*
X100875000Y-77925000I225000J0D01*
G01*
X101375000Y-77925000D01*
G75*
G02*
X101600000Y-78150000I0J-225000D01*
G01*
X101600000Y-78600000D01*
G75*
G02*
X101375000Y-78825000I-225000J0D01*
G01*
G37*
G04 #@! TD.AperFunction*
G04 #@! TA.AperFunction,SMDPad,CuDef*
G36*
G01*
X82275000Y-77925000D02*
X82775000Y-77925000D01*
G75*
G02*
X83000000Y-78150000I0J-225000D01*
G01*
X83000000Y-78600000D01*
G75*
G02*
X82775000Y-78825000I-225000J0D01*
G01*
X82275000Y-78825000D01*
G75*
G02*
X82050000Y-78600000I0J225000D01*
G01*
X82050000Y-78150000D01*
G75*
G02*
X82275000Y-77925000I225000J0D01*
G01*
G37*
G04 #@! TD.AperFunction*
G04 #@! TA.AperFunction,SMDPad,CuDef*
G36*
G01*
X82275000Y-76375000D02*
X82775000Y-76375000D01*
G75*
G02*
X83000000Y-76600000I0J-225000D01*
G01*
X83000000Y-77050000D01*
G75*
G02*
X82775000Y-77275000I-225000J0D01*
G01*
X82275000Y-77275000D01*
G75*
G02*
X82050000Y-77050000I0J225000D01*
G01*
X82050000Y-76600000D01*
G75*
G02*
X82275000Y-76375000I225000J0D01*
G01*
G37*
G04 #@! TD.AperFunction*
G04 #@! TA.AperFunction,SMDPad,CuDef*
G36*
G01*
X89775000Y-77275000D02*
X89275000Y-77275000D01*
G75*
G02*
X89050000Y-77050000I0J225000D01*
G01*
X89050000Y-76600000D01*
G75*
G02*
X89275000Y-76375000I225000J0D01*
G01*
X89775000Y-76375000D01*
G75*
G02*
X90000000Y-76600000I0J-225000D01*
G01*
X90000000Y-77050000D01*
G75*
G02*
X89775000Y-77275000I-225000J0D01*
G01*
G37*
G04 #@! TD.AperFunction*
G04 #@! TA.AperFunction,SMDPad,CuDef*
G36*
G01*
X89775000Y-78825000D02*
X89275000Y-78825000D01*
G75*
G02*
X89050000Y-78600000I0J225000D01*
G01*
X89050000Y-78150000D01*
G75*
G02*
X89275000Y-77925000I225000J0D01*
G01*
X89775000Y-77925000D01*
G75*
G02*
X90000000Y-78150000I0J-225000D01*
G01*
X90000000Y-78600000D01*
G75*
G02*
X89775000Y-78825000I-225000J0D01*
G01*
G37*
G04 #@! TD.AperFunction*
D27*
X87700000Y-91420003D03*
X88724999Y-81424999D03*
X75200000Y-69400000D03*
X74700000Y-71400000D03*
X75200000Y-73650000D03*
X74700000Y-75650000D03*
X74950000Y-77650000D03*
X74700000Y-79650000D03*
X85950000Y-75150000D03*
X89450000Y-79400000D03*
X82700000Y-79400000D03*
X93950000Y-102900000D03*
X94950000Y-107650000D03*
X92700000Y-107650000D03*
X90700000Y-107650000D03*
X87700000Y-90420000D03*
X101200000Y-91920000D03*
X101200000Y-89900000D03*
X100700000Y-89150000D03*
X95700000Y-95400000D03*
X90950000Y-95900000D03*
X94405000Y-86400000D03*
X93700000Y-81100000D03*
X95800000Y-81100000D03*
X94500000Y-79200000D03*
X101100000Y-79500000D03*
X106100000Y-79300000D03*
X109400000Y-74800000D03*
X97700000Y-75000000D03*
X112800000Y-79100000D03*
X105400000Y-91600000D03*
X106700000Y-88700000D03*
X89700000Y-102800000D03*
X83900000Y-90000000D03*
X83700000Y-92300000D03*
X83600000Y-94700000D03*
D28*
X48200000Y-59400000D03*
X48200000Y-135400000D03*
D27*
X88884154Y-91420000D03*
X88950000Y-82900000D03*
X88333530Y-92254756D03*
X90950000Y-84150000D03*
X88013460Y-93202152D03*
X90587653Y-85287653D03*
X88863824Y-93925256D03*
X98700000Y-86150000D03*
X87950000Y-94400000D03*
X99450000Y-85400000D03*
X92700000Y-92400000D03*
X91700000Y-86650000D03*
D28*
X135200000Y-59400000D03*
X135200000Y-135400000D03*
D27*
X49925000Y-92325000D03*
X97500000Y-95100000D03*
X99300000Y-96800000D03*
X91535154Y-87814846D03*
X92634848Y-90965152D03*
X116700000Y-78700000D03*
X96630000Y-92220000D03*
X117700000Y-94400000D03*
X97355000Y-91512892D03*
X120450000Y-93400000D03*
X98051557Y-90795389D03*
X123200000Y-80400000D03*
X123000000Y-92700000D03*
X54450000Y-91150000D03*
X56200000Y-89900000D03*
X121700000Y-81100000D03*
D29*
X89525000Y-75000000D02*
X89525000Y-76825000D01*
X87772999Y-91420003D02*
X87700000Y-91420003D01*
X88498002Y-90695000D02*
X87772999Y-91420003D01*
X91030000Y-90695000D02*
X88498002Y-90695000D01*
X89525000Y-76825000D02*
X88724999Y-77625001D01*
X88724999Y-81424999D02*
X88700000Y-81400000D01*
X88724999Y-77625001D02*
X88724999Y-81424999D01*
X75150000Y-69450000D02*
X75200000Y-69400000D01*
X73850000Y-69450000D02*
X75150000Y-69450000D01*
X74650000Y-71450000D02*
X74700000Y-71400000D01*
X73625000Y-71450000D02*
X74650000Y-71450000D01*
X73850000Y-73650000D02*
X75200000Y-73650000D01*
X73575000Y-75650000D02*
X74700000Y-75650000D01*
X73850000Y-77650000D02*
X74950000Y-77650000D01*
X74650000Y-79600000D02*
X74700000Y-79650000D01*
X73575000Y-79600000D02*
X74650000Y-79600000D01*
X86100000Y-75000000D02*
X85950000Y-75150000D01*
X87125000Y-75000000D02*
X86100000Y-75000000D01*
X85800000Y-75000000D02*
X85950000Y-75150000D01*
X84725000Y-75000000D02*
X85800000Y-75000000D01*
X89525000Y-79325000D02*
X89450000Y-79400000D01*
X89525000Y-78375000D02*
X89525000Y-79325000D01*
X82525000Y-79225000D02*
X82700000Y-79400000D01*
X82525000Y-78375000D02*
X82525000Y-79225000D01*
X94875000Y-102775000D02*
X94900000Y-102750000D01*
X93825000Y-102775000D02*
X93950000Y-102900000D01*
X92850000Y-102775000D02*
X93825000Y-102775000D01*
X93825000Y-102775000D02*
X94875000Y-102775000D01*
X94900000Y-107600000D02*
X94950000Y-107650000D01*
X94900000Y-106500000D02*
X94900000Y-107600000D01*
X92800000Y-107550000D02*
X92700000Y-107650000D01*
X92800000Y-106500000D02*
X92800000Y-107550000D01*
X90700000Y-106500000D02*
X90700000Y-107650000D01*
X87925000Y-90195000D02*
X87700000Y-90420000D01*
X91030000Y-90195000D02*
X87925000Y-90195000D01*
X100975000Y-91695000D02*
X101200000Y-91920000D01*
X99730000Y-91695000D02*
X100975000Y-91695000D01*
X100905000Y-90195000D02*
X101200000Y-89900000D01*
X99730000Y-90195000D02*
X100905000Y-90195000D01*
X100155000Y-89695000D02*
X100700000Y-89150000D01*
X99730000Y-89695000D02*
X100155000Y-89695000D01*
X95630000Y-95470000D02*
X95700000Y-95400000D01*
X95630000Y-96795000D02*
X95630000Y-95470000D01*
X91890002Y-95195000D02*
X91030000Y-95195000D01*
X92179990Y-94905012D02*
X91890002Y-95195000D01*
X92179990Y-94444990D02*
X92179990Y-94905012D01*
X91930000Y-94195000D02*
X92179990Y-94444990D01*
X91030000Y-94195000D02*
X91930000Y-94195000D01*
X91030000Y-95820000D02*
X90950000Y-95900000D01*
X91030000Y-95195000D02*
X91030000Y-95820000D01*
X94630000Y-86625000D02*
X94405000Y-86400000D01*
X94630000Y-88095000D02*
X94630000Y-86625000D01*
X93650000Y-81150000D02*
X93700000Y-81100000D01*
X93650000Y-82025000D02*
X93650000Y-81150000D01*
X95850000Y-81150000D02*
X95800000Y-81100000D01*
X95850000Y-82025000D02*
X95850000Y-81150000D01*
X94425000Y-79125000D02*
X94500000Y-79200000D01*
X94425000Y-78375000D02*
X94425000Y-79125000D01*
X101125000Y-79475000D02*
X101100000Y-79500000D01*
X101125000Y-78375000D02*
X101125000Y-79475000D01*
X106025000Y-79225000D02*
X106100000Y-79300000D01*
X106025000Y-78175000D02*
X106025000Y-79225000D01*
X108225000Y-74800000D02*
X109400000Y-74800000D01*
X109400000Y-74800000D02*
X110525000Y-74800000D01*
X96725000Y-75000000D02*
X97700000Y-75000000D01*
X97700000Y-75000000D02*
X98925000Y-75000000D01*
X112725000Y-79025000D02*
X112800000Y-79100000D01*
X112725000Y-78175000D02*
X112725000Y-79025000D01*
X105425000Y-91575000D02*
X105400000Y-91600000D01*
X105425000Y-90575000D02*
X105425000Y-91575000D01*
X106575000Y-88575000D02*
X106700000Y-88700000D01*
X105800000Y-88575000D02*
X106575000Y-88575000D01*
X89725000Y-102775000D02*
X89700000Y-102800000D01*
X90700000Y-102775000D02*
X89725000Y-102775000D01*
X83925000Y-89975000D02*
X83900000Y-90000000D01*
X85075000Y-89975000D02*
X83925000Y-89975000D01*
X84700000Y-92300000D02*
X83700000Y-92300000D01*
X83675000Y-94775000D02*
X83600000Y-94700000D01*
X84700000Y-94775000D02*
X83675000Y-94775000D01*
X82525000Y-75000000D02*
X82525000Y-76825000D01*
X89109154Y-91195000D02*
X88884154Y-91420000D01*
X91030000Y-91195000D02*
X89109154Y-91195000D01*
X82875000Y-76825000D02*
X82525000Y-76825000D01*
X88950000Y-82900000D02*
X82875000Y-76825000D01*
X101125000Y-75000000D02*
X101125000Y-76825000D01*
X89122400Y-92254756D02*
X88333530Y-92254756D01*
X89682156Y-91695000D02*
X89122400Y-92254756D01*
X91030000Y-91695000D02*
X89682156Y-91695000D01*
X90950000Y-84150000D02*
X90950000Y-81400000D01*
X90950000Y-81400000D02*
X92200000Y-80150000D01*
X92200000Y-80150000D02*
X97700000Y-80150000D01*
X101025000Y-76825000D02*
X101125000Y-76825000D01*
X97700000Y-80150000D02*
X101025000Y-76825000D01*
X94425000Y-75000000D02*
X94425000Y-76825000D01*
X88811414Y-93202152D02*
X88013460Y-93202152D01*
X89818566Y-92195000D02*
X88811414Y-93202152D01*
X91030000Y-92195000D02*
X89818566Y-92195000D01*
X90587653Y-85287653D02*
X90200000Y-84900000D01*
X90200000Y-84900000D02*
X90200000Y-81150000D01*
X94425000Y-76925000D02*
X94425000Y-76825000D01*
X90200000Y-81150000D02*
X94425000Y-76925000D01*
X112725000Y-74800000D02*
X112725000Y-76625000D01*
X88863824Y-93786152D02*
X88863824Y-93925256D01*
X89954976Y-92695000D02*
X88863824Y-93786152D01*
X91030000Y-92695000D02*
X89954976Y-92695000D01*
X98700000Y-86150000D02*
X102700000Y-86150000D01*
X112225000Y-76625000D02*
X112725000Y-76625000D01*
X102700000Y-86150000D02*
X112225000Y-76625000D01*
X106100000Y-76550000D02*
X106025000Y-76625000D01*
X106100000Y-74800000D02*
X106100000Y-76550000D01*
X89211825Y-94650257D02*
X88200257Y-94650257D01*
X89588825Y-94273257D02*
X89211825Y-94650257D01*
X89588825Y-93736175D02*
X89588825Y-94273257D01*
X90130000Y-93195000D02*
X89588825Y-93736175D01*
X91030000Y-93195000D02*
X90130000Y-93195000D01*
X88200257Y-94650257D02*
X87950000Y-94400000D01*
X106025000Y-76625000D02*
X108175000Y-76625000D01*
X108700000Y-77150000D02*
X108700000Y-79513590D01*
X108175000Y-76625000D02*
X108700000Y-77150000D01*
X108700000Y-79513590D02*
X102563590Y-85650000D01*
X99700000Y-85650000D02*
X99450000Y-85400000D01*
X100450000Y-85650000D02*
X99700000Y-85650000D01*
X102563590Y-85650000D02*
X100450000Y-85650000D01*
X100450000Y-85650000D02*
X99273002Y-85650000D01*
X61200000Y-124400000D02*
X61200000Y-126400000D01*
X63200000Y-128400000D02*
X69200000Y-128400000D01*
X61200000Y-126400000D02*
X63200000Y-128400000D01*
X69200000Y-128400000D02*
X69200000Y-131400000D01*
X71600000Y-133800000D02*
X76200000Y-133800000D01*
X69200000Y-131400000D02*
X71600000Y-133800000D01*
D30*
X61200000Y-121925000D02*
X71125000Y-112000000D01*
X61200000Y-124400000D02*
X61200000Y-121925000D01*
D29*
X69850000Y-69450000D02*
X71850000Y-69450000D01*
X71850000Y-71225000D02*
X72075000Y-71450000D01*
X71850000Y-69450000D02*
X71850000Y-71225000D01*
X92630000Y-92470000D02*
X92700000Y-92400000D01*
X92630000Y-96795000D02*
X92630000Y-92470000D01*
X91200000Y-86650000D02*
X91700000Y-86650000D01*
X77352479Y-80302479D02*
X84270301Y-80302479D01*
X76700000Y-79650000D02*
X77352479Y-80302479D01*
X84270301Y-80302479D02*
X90617822Y-86650000D01*
X76200000Y-72400000D02*
X76700000Y-72900000D01*
X90617822Y-86650000D02*
X91200000Y-86650000D01*
X76700000Y-72900000D02*
X76700000Y-79650000D01*
X73025000Y-72400000D02*
X76200000Y-72400000D01*
X72075000Y-71450000D02*
X73025000Y-72400000D01*
X95130000Y-100970000D02*
X94900000Y-101200000D01*
X95130000Y-96795000D02*
X95130000Y-100970000D01*
X95700010Y-102000010D02*
X94900000Y-101200000D01*
X95700010Y-103549990D02*
X95700010Y-102000010D01*
X94900000Y-104350000D02*
X95700010Y-103549990D01*
X94900000Y-104500000D02*
X94900000Y-104350000D01*
X86905000Y-89695000D02*
X86625000Y-89975000D01*
X91030000Y-89695000D02*
X86905000Y-89695000D01*
X86600000Y-90000000D02*
X86625000Y-89975000D01*
X86600000Y-92300000D02*
X86600000Y-90000000D01*
X103755000Y-90695000D02*
X103875000Y-90575000D01*
X99730000Y-90695000D02*
X103755000Y-90695000D01*
X103900000Y-90550000D02*
X103875000Y-90575000D01*
X103900000Y-88575000D02*
X103900000Y-90550000D01*
X103255000Y-91195000D02*
X103875000Y-90575000D01*
X99730000Y-91195000D02*
X103255000Y-91195000D01*
X92630000Y-88995000D02*
X93035000Y-89400000D01*
X95685002Y-89400000D02*
X96130000Y-88955002D01*
X93035000Y-89400000D02*
X95685002Y-89400000D01*
X98830000Y-91195000D02*
X96825000Y-93200000D01*
X99730000Y-91195000D02*
X98830000Y-91195000D01*
X96536998Y-93200000D02*
X95800000Y-92463002D01*
X96825000Y-93200000D02*
X96536998Y-93200000D01*
X96130000Y-88955002D02*
X96130000Y-88095000D01*
X95800000Y-89285002D02*
X96130000Y-88955002D01*
X95800000Y-92463002D02*
X95800000Y-89285002D01*
X92920002Y-89285002D02*
X95800000Y-89285002D01*
X92630000Y-88995000D02*
X92920002Y-89285002D01*
X92630000Y-88095000D02*
X92630000Y-88995000D01*
X123900001Y-70260001D02*
X122725000Y-69085000D01*
X123900001Y-75529999D02*
X123900001Y-70260001D01*
X122725000Y-76705000D02*
X123900001Y-75529999D01*
X93700000Y-86400000D02*
X93130000Y-86970000D01*
X94405000Y-86400000D02*
X93700000Y-86400000D01*
X93130000Y-88095000D02*
X93130000Y-86970000D01*
X91030000Y-93695000D02*
X91030000Y-94195000D01*
D30*
X104200000Y-126200000D02*
X100100000Y-122100000D01*
D29*
X92630000Y-88995000D02*
X95600000Y-91965000D01*
X95600000Y-91965000D02*
X95600000Y-93400000D01*
X97300000Y-95100000D02*
X97500000Y-95100000D01*
X95600000Y-93400000D02*
X97300000Y-95100000D01*
X71850000Y-75475000D02*
X72025000Y-75650000D01*
X71850000Y-73650000D02*
X71850000Y-75475000D01*
X71850000Y-73650000D02*
X69850000Y-73650000D01*
X93630000Y-91960304D02*
X93630000Y-96795000D01*
X92634848Y-90965152D02*
X93630000Y-91960304D01*
X72999990Y-76624990D02*
X72025000Y-75650000D01*
X74997992Y-76624990D02*
X72999990Y-76624990D01*
X75950000Y-77576998D02*
X74997992Y-76624990D01*
X75950000Y-79650000D02*
X75950000Y-77576998D01*
X77052489Y-80752489D02*
X75950000Y-79650000D01*
X84083901Y-80752489D02*
X77052489Y-80752489D01*
X91146258Y-87814846D02*
X84083901Y-80752489D01*
X91535154Y-87814846D02*
X91146258Y-87814846D01*
X71850000Y-79425000D02*
X72025000Y-79600000D01*
X71850000Y-77650000D02*
X71850000Y-79425000D01*
X69850000Y-77650000D02*
X71850000Y-77650000D01*
X94630000Y-91934998D02*
X94630000Y-96795000D01*
X83897501Y-81202499D02*
X72502499Y-81202499D01*
X83897501Y-81202499D02*
X94630000Y-91934998D01*
X72025000Y-80725000D02*
X72025000Y-79600000D01*
X72502499Y-81202499D02*
X72025000Y-80725000D01*
X94130000Y-96795000D02*
X94130000Y-98470000D01*
X92850000Y-99750000D02*
X92850000Y-101225000D01*
X94130000Y-98470000D02*
X92850000Y-99750000D01*
X92049990Y-102025010D02*
X92850000Y-101225000D01*
X92049990Y-103749990D02*
X92049990Y-102025010D01*
X92800000Y-104500000D02*
X92049990Y-103749990D01*
X93130000Y-96795000D02*
X93130000Y-98220000D01*
X90700000Y-100650000D02*
X90700000Y-101225000D01*
X93130000Y-98220000D02*
X90700000Y-100650000D01*
X91599980Y-102124980D02*
X90700000Y-101225000D01*
X91599980Y-103600020D02*
X91599980Y-102124980D01*
X90700000Y-104500000D02*
X91599980Y-103600020D01*
X90130000Y-94695000D02*
X89675000Y-95150000D01*
X91030000Y-94695000D02*
X90130000Y-94695000D01*
X86975000Y-95150000D02*
X86600000Y-94775000D01*
X89675000Y-95150000D02*
X86975000Y-95150000D01*
X93650000Y-83925000D02*
X95850000Y-83925000D01*
X95630000Y-84145000D02*
X95850000Y-83925000D01*
X95630000Y-88095000D02*
X95630000Y-84145000D01*
X95130000Y-84645000D02*
X95850000Y-83925000D01*
X95130000Y-88095000D02*
X95130000Y-84645000D01*
X59037500Y-107000000D02*
X59037500Y-111800000D01*
D30*
X57237500Y-113600000D02*
X59037500Y-111800000D01*
X49925000Y-113600000D02*
X57237500Y-113600000D01*
D29*
X56200000Y-124400000D02*
X56200000Y-122400000D01*
X62012500Y-116587500D02*
X62012500Y-111800000D01*
X56200000Y-122400000D02*
X62012500Y-116587500D01*
D30*
X52550000Y-108600000D02*
X58950000Y-102200000D01*
X49925000Y-108600000D02*
X52550000Y-108600000D01*
X52637500Y-103600000D02*
X58837500Y-97400000D01*
X49925000Y-103600000D02*
X52637500Y-103600000D01*
D29*
X82525000Y-73000000D02*
X84725000Y-73000000D01*
X82705000Y-72820000D02*
X82525000Y-73000000D01*
X82705000Y-66820000D02*
X82705000Y-72820000D01*
X87125000Y-73000000D02*
X89525000Y-73000000D01*
X82705000Y-57420000D02*
X82705000Y-57705000D01*
X89525000Y-64525000D02*
X89525000Y-73000000D01*
X82705000Y-57705000D02*
X89525000Y-64525000D01*
X94525000Y-67090000D02*
X94255000Y-66820000D01*
X94525000Y-73000000D02*
X94525000Y-67090000D01*
X94425000Y-73000000D02*
X96625000Y-73000000D01*
X94255000Y-57420000D02*
X94255000Y-57755000D01*
X101125000Y-64625000D02*
X101125000Y-73000000D01*
X94255000Y-57755000D02*
X101125000Y-64625000D01*
X98925000Y-73000000D02*
X101125000Y-73000000D01*
X106200000Y-67175000D02*
X105825000Y-66800000D01*
X106200000Y-72800000D02*
X106200000Y-67175000D01*
X108225000Y-72800000D02*
X106100000Y-72800000D01*
X112725000Y-72800000D02*
X110525000Y-72800000D01*
X105825000Y-57400000D02*
X105825000Y-58225000D01*
X112725000Y-65125000D02*
X112725000Y-72800000D01*
X105825000Y-58225000D02*
X112725000Y-65125000D01*
X129650000Y-123670000D02*
X116950000Y-123670000D01*
X116950000Y-123670000D02*
X113720000Y-123670000D01*
X113720000Y-123670000D02*
X108450000Y-118400000D01*
X108450000Y-118400000D02*
X108450000Y-87650000D01*
X108450000Y-87650000D02*
X107700000Y-86900000D01*
X99325000Y-86900000D02*
X98130000Y-88095000D01*
X107700000Y-86900000D02*
X99325000Y-86900000D01*
X108500000Y-86900000D02*
X116700000Y-78700000D01*
X107700000Y-86900000D02*
X108500000Y-86900000D01*
X117950000Y-76400000D02*
X120185000Y-74165000D01*
X117950000Y-86975000D02*
X117950000Y-76400000D01*
X96630000Y-88095000D02*
X96630000Y-92220000D01*
X117700000Y-87225000D02*
X117950000Y-86975000D01*
X117700000Y-94400000D02*
X117700000Y-87225000D01*
X120490000Y-86975000D02*
X120490000Y-84910000D01*
X121549999Y-72800001D02*
X121549999Y-79350001D01*
X122725000Y-71625000D02*
X121549999Y-72800001D01*
X120490000Y-80410000D02*
X120490000Y-86975000D01*
X121549999Y-79350001D02*
X120490000Y-80410000D01*
X97130000Y-91287892D02*
X97355000Y-91512892D01*
X97130000Y-88095000D02*
X97130000Y-91287892D01*
X120490000Y-93360000D02*
X120450000Y-93400000D01*
X120490000Y-86975000D02*
X120490000Y-93360000D01*
X97630000Y-90373832D02*
X97630000Y-88095000D01*
X98051557Y-90795389D02*
X97630000Y-90373832D01*
X123030000Y-80570000D02*
X123200000Y-80400000D01*
X123030000Y-86975000D02*
X123030000Y-80570000D01*
X123030000Y-92670000D02*
X123000000Y-92700000D01*
X123030000Y-86975000D02*
X123030000Y-90530000D01*
X123030000Y-90530000D02*
X123030000Y-92670000D01*
X52850000Y-69450000D02*
X55050000Y-69450000D01*
X52850000Y-73650000D02*
X55050000Y-73650000D01*
X52850000Y-77650000D02*
X55050000Y-77650000D01*
X57050000Y-69450000D02*
X59250000Y-69450000D01*
X57050000Y-73650000D02*
X59250000Y-73650000D01*
X57050000Y-77650000D02*
X59250000Y-77650000D01*
X61450000Y-69450000D02*
X63450000Y-69450000D01*
X61450000Y-73650000D02*
X63450000Y-73650000D01*
X61450000Y-77650000D02*
X63450000Y-77650000D01*
X65650000Y-69450000D02*
X67650000Y-69450000D01*
X67650000Y-73650000D02*
X65650000Y-73650000D01*
X65650000Y-77650000D02*
X67650000Y-77650000D01*
X99700000Y-102550000D02*
X99525000Y-102725000D01*
X99700000Y-100914998D02*
X99700000Y-102550000D01*
X98450000Y-100650000D02*
X99435002Y-100650000D01*
X99525000Y-102725000D02*
X98825000Y-102725000D01*
X99435002Y-100650000D02*
X99700000Y-100914998D01*
X96630000Y-98830000D02*
X98450000Y-100650000D01*
X96630000Y-96795000D02*
X96630000Y-98830000D01*
X97950001Y-102649999D02*
X97950001Y-100900001D01*
X97875000Y-102725000D02*
X97950001Y-102649999D01*
X97175000Y-102725000D02*
X97875000Y-102725000D01*
X96130000Y-99080000D02*
X96130000Y-96795000D01*
X97950001Y-100900001D02*
X96130000Y-99080000D01*
D30*
X68925000Y-106400000D02*
X71125000Y-104200000D01*
X66125000Y-106400000D02*
X68925000Y-106400000D01*
X65525000Y-107000000D02*
X66125000Y-106400000D01*
X62012500Y-107000000D02*
X65525000Y-107000000D01*
D29*
X47700000Y-84400000D02*
X47700000Y-70900000D01*
X49150000Y-69450000D02*
X50850000Y-69450000D01*
X47700000Y-70900000D02*
X49150000Y-69450000D01*
X54450000Y-91150000D02*
X47700000Y-84400000D01*
D30*
X61925000Y-102200000D02*
X62000000Y-102200000D01*
X63660000Y-103860000D02*
X66125000Y-103860000D01*
X62000000Y-102200000D02*
X63660000Y-103860000D01*
X66125000Y-103860000D02*
X67240000Y-103860000D01*
X67240000Y-103860000D02*
X69700000Y-101400000D01*
X69700000Y-97825000D02*
X71125000Y-96400000D01*
X69700000Y-101400000D02*
X69700000Y-97825000D01*
D29*
X50850000Y-73650000D02*
X49950000Y-73650000D01*
X49950000Y-73650000D02*
X49924990Y-73675010D01*
X49924990Y-73675010D02*
X49200000Y-74400000D01*
X49200000Y-74400000D02*
X49200000Y-82900000D01*
X49200000Y-82900000D02*
X56200000Y-89900000D01*
X61812500Y-97400000D02*
X61812500Y-98012500D01*
X65120000Y-101320000D02*
X66125000Y-101320000D01*
X61812500Y-98012500D02*
X65120000Y-101320000D01*
D30*
X62325000Y-97400000D02*
X71125000Y-88600000D01*
X61812500Y-97400000D02*
X62325000Y-97400000D01*
D29*
X50850000Y-77650000D02*
X50850000Y-82050000D01*
X61812500Y-93012500D02*
X61812500Y-97400000D01*
X50850000Y-82050000D02*
X61812500Y-93012500D01*
X119490000Y-111375000D02*
X117950000Y-109835000D01*
X119490000Y-116050000D02*
X119490000Y-111375000D01*
X119075010Y-77814990D02*
X120185000Y-76705000D01*
X119075010Y-108709990D02*
X119075010Y-77814990D01*
X117950000Y-109835000D02*
X119075010Y-108709990D01*
X122030000Y-111375000D02*
X120490000Y-109835000D01*
X122030000Y-116050000D02*
X122030000Y-111375000D01*
X121615010Y-81184990D02*
X121700000Y-81100000D01*
X121615010Y-108709990D02*
X121615010Y-81184990D01*
X120490000Y-109835000D02*
X121615010Y-108709990D01*
X124570000Y-111375000D02*
X123030000Y-109835000D01*
X124570000Y-116050000D02*
X124570000Y-111375000D01*
X124155010Y-84355010D02*
X124155010Y-108709990D01*
X124600000Y-83910020D02*
X124155010Y-84355010D01*
X124155010Y-108709990D02*
X123030000Y-109835000D01*
X124600000Y-66900000D02*
X124600000Y-83910020D01*
X124245000Y-66545000D02*
X124600000Y-66900000D01*
X122725000Y-66545000D02*
X124245000Y-66545000D01*
X126695010Y-66236008D02*
X123059002Y-62600000D01*
X126695010Y-87644990D02*
X126695010Y-66236008D01*
X125570000Y-88770000D02*
X126695010Y-87644990D01*
X125570000Y-109835000D02*
X125570000Y-88770000D01*
X121360001Y-65369999D02*
X120185000Y-66545000D01*
X121360001Y-63639999D02*
X121360001Y-65369999D01*
X122400000Y-62600000D02*
X121360001Y-63639999D01*
X123059002Y-62600000D02*
X122400000Y-62600000D01*
X127110000Y-111375000D02*
X125570000Y-109835000D01*
X127110000Y-116050000D02*
X127110000Y-111375000D01*
X125570000Y-66850000D02*
X122725000Y-64005000D01*
X125570000Y-86975000D02*
X125570000Y-66850000D01*
X125570000Y-88133590D02*
X125570000Y-86975000D01*
X125104006Y-88599584D02*
X125570000Y-88133590D01*
X125984999Y-112041003D02*
X124444990Y-110500994D01*
X125984999Y-117584999D02*
X125984999Y-112041003D01*
X126600000Y-118200000D02*
X125984999Y-117584999D01*
X125104006Y-108509990D02*
X125104006Y-88599584D01*
X124444990Y-110500994D02*
X124444990Y-109169006D01*
X129100000Y-118200000D02*
X126600000Y-118200000D01*
X124444990Y-109169006D02*
X125104006Y-108509990D01*
X129650000Y-117650000D02*
X129100000Y-118200000D01*
X129650000Y-116050000D02*
X129650000Y-117650000D01*
X116535010Y-88100010D02*
X115410000Y-86975000D01*
X116535010Y-115635010D02*
X116535010Y-88100010D01*
X116950000Y-116050000D02*
X116535010Y-115635010D01*
D31*
X132100000Y-85564931D02*
X132082001Y-85542999D01*
X131989421Y-85467021D01*
X131883797Y-85410564D01*
X131769189Y-85375798D01*
X131650000Y-85364059D01*
X129650000Y-85364059D01*
X129530811Y-85375798D01*
X129416203Y-85410564D01*
X129310579Y-85467021D01*
X129217999Y-85542999D01*
X129142021Y-85635579D01*
X129085564Y-85741203D01*
X129080058Y-85759355D01*
X128976294Y-85660911D01*
X128742300Y-85513312D01*
X128481042Y-85416769D01*
X128264000Y-85528477D01*
X128264000Y-86821000D01*
X128284000Y-86821000D01*
X128284000Y-87129000D01*
X128264000Y-87129000D01*
X128264000Y-88421523D01*
X128481042Y-88533231D01*
X128742300Y-88436688D01*
X128976294Y-88289089D01*
X129080058Y-88190645D01*
X129085564Y-88208797D01*
X129142021Y-88314421D01*
X129217999Y-88407001D01*
X129310579Y-88482979D01*
X129416203Y-88539436D01*
X129530811Y-88574202D01*
X129650000Y-88585941D01*
X131650000Y-88585941D01*
X131769189Y-88574202D01*
X131883797Y-88539436D01*
X131989421Y-88482979D01*
X132082001Y-88407001D01*
X132100000Y-88385069D01*
X132100000Y-138767000D01*
X89300000Y-138767000D01*
X89300000Y-135300000D01*
X112489058Y-135300000D01*
X112500797Y-135419189D01*
X112535563Y-135533797D01*
X112592020Y-135639421D01*
X112667999Y-135732001D01*
X112760579Y-135807980D01*
X112866203Y-135864437D01*
X112980811Y-135899203D01*
X113100000Y-135910942D01*
X113794000Y-135908000D01*
X113946000Y-135756000D01*
X113946000Y-134454000D01*
X114254000Y-134454000D01*
X114254000Y-135756000D01*
X114406000Y-135908000D01*
X115100000Y-135910942D01*
X115219189Y-135899203D01*
X115333797Y-135864437D01*
X115439421Y-135807980D01*
X115532001Y-135732001D01*
X115607980Y-135639421D01*
X115664437Y-135533797D01*
X115699203Y-135419189D01*
X115710942Y-135300000D01*
X115708000Y-134606000D01*
X115556000Y-134454000D01*
X114254000Y-134454000D01*
X113946000Y-134454000D01*
X112644000Y-134454000D01*
X112492000Y-134606000D01*
X112489058Y-135300000D01*
X89300000Y-135300000D01*
X89300000Y-133300000D01*
X112489058Y-133300000D01*
X112492000Y-133994000D01*
X112644000Y-134146000D01*
X113946000Y-134146000D01*
X113946000Y-132844000D01*
X114254000Y-132844000D01*
X114254000Y-134146000D01*
X115556000Y-134146000D01*
X115708000Y-133994000D01*
X115710942Y-133300000D01*
X115699203Y-133180811D01*
X115664437Y-133066203D01*
X115607980Y-132960579D01*
X115532001Y-132867999D01*
X115439421Y-132792020D01*
X115333797Y-132735563D01*
X115219189Y-132700797D01*
X115100000Y-132689058D01*
X114406000Y-132692000D01*
X114254000Y-132844000D01*
X113946000Y-132844000D01*
X113794000Y-132692000D01*
X113100000Y-132689058D01*
X112980811Y-132700797D01*
X112866203Y-132735563D01*
X112760579Y-132792020D01*
X112667999Y-132867999D01*
X112592020Y-132960579D01*
X112535563Y-133066203D01*
X112500797Y-133180811D01*
X112489058Y-133300000D01*
X89300000Y-133300000D01*
X89300000Y-129141626D01*
X112492000Y-129141626D01*
X112492000Y-129458374D01*
X112553795Y-129769036D01*
X112675009Y-130061673D01*
X112850985Y-130325040D01*
X113074960Y-130549015D01*
X113338327Y-130724991D01*
X113630964Y-130846205D01*
X113941626Y-130908000D01*
X114258374Y-130908000D01*
X114569036Y-130846205D01*
X114861673Y-130724991D01*
X115125040Y-130549015D01*
X115349015Y-130325040D01*
X115524991Y-130061673D01*
X115646205Y-129769036D01*
X115708000Y-129458374D01*
X115708000Y-129141626D01*
X115646205Y-128830964D01*
X115524991Y-128538327D01*
X115349015Y-128274960D01*
X115125040Y-128050985D01*
X114861673Y-127875009D01*
X114569036Y-127753795D01*
X114258374Y-127692000D01*
X113941626Y-127692000D01*
X113630964Y-127753795D01*
X113338327Y-127875009D01*
X113074960Y-128050985D01*
X112850985Y-128274960D01*
X112675009Y-128538327D01*
X112553795Y-128830964D01*
X112492000Y-129141626D01*
X89300000Y-129141626D01*
X89300000Y-127445318D01*
X103172471Y-127445318D01*
X103290215Y-127714211D01*
X103603104Y-127862606D01*
X103938932Y-127947108D01*
X104284793Y-127964470D01*
X104627394Y-127914023D01*
X104953571Y-127797708D01*
X105109785Y-127714211D01*
X105227529Y-127445318D01*
X104200000Y-126417789D01*
X103172471Y-127445318D01*
X89300000Y-127445318D01*
X89300000Y-126284793D01*
X102435530Y-126284793D01*
X102485977Y-126627394D01*
X102602292Y-126953571D01*
X102685789Y-127109785D01*
X102954682Y-127227529D01*
X103982211Y-126200000D01*
X104417789Y-126200000D01*
X105445318Y-127227529D01*
X105714211Y-127109785D01*
X105862606Y-126796896D01*
X105947108Y-126461068D01*
X105964470Y-126115207D01*
X105914023Y-125772606D01*
X105797708Y-125446429D01*
X105714211Y-125290215D01*
X105445318Y-125172471D01*
X104417789Y-126200000D01*
X103982211Y-126200000D01*
X102954682Y-125172471D01*
X102685789Y-125290215D01*
X102537394Y-125603104D01*
X102452892Y-125938932D01*
X102435530Y-126284793D01*
X89300000Y-126284793D01*
X89300000Y-124954682D01*
X103172471Y-124954682D01*
X104200000Y-125982211D01*
X105227529Y-124954682D01*
X105109785Y-124685789D01*
X104796896Y-124537394D01*
X104461068Y-124452892D01*
X104115207Y-124435530D01*
X103772606Y-124485977D01*
X103446429Y-124602292D01*
X103290215Y-124685789D01*
X103172471Y-124954682D01*
X89300000Y-124954682D01*
X89300000Y-118426852D01*
X102442000Y-118426852D01*
X102442000Y-118773148D01*
X102509559Y-119112790D01*
X102642081Y-119432725D01*
X102834472Y-119720660D01*
X103079340Y-119965528D01*
X103367275Y-120157919D01*
X103687210Y-120290441D01*
X104026852Y-120358000D01*
X104373148Y-120358000D01*
X104712790Y-120290441D01*
X105032725Y-120157919D01*
X105320660Y-119965528D01*
X105565528Y-119720660D01*
X105757919Y-119432725D01*
X105890441Y-119112790D01*
X105958000Y-118773148D01*
X105958000Y-118426852D01*
X105890441Y-118087210D01*
X105757919Y-117767275D01*
X105565528Y-117479340D01*
X105320660Y-117234472D01*
X105032725Y-117042081D01*
X104712790Y-116909559D01*
X104373148Y-116842000D01*
X104026852Y-116842000D01*
X103687210Y-116909559D01*
X103367275Y-117042081D01*
X103079340Y-117234472D01*
X102834472Y-117479340D01*
X102642081Y-117767275D01*
X102509559Y-118087210D01*
X102442000Y-118426852D01*
X89300000Y-118426852D01*
X89300000Y-111400000D01*
X89298079Y-111380491D01*
X89292388Y-111361732D01*
X89283147Y-111344443D01*
X89270711Y-111329289D01*
X89255557Y-111316853D01*
X89238268Y-111307612D01*
X89219509Y-111301921D01*
X89200000Y-111300000D01*
X81300000Y-111300000D01*
X81300000Y-81935499D01*
X83593883Y-81935499D01*
X90619517Y-88961133D01*
X90396644Y-88959285D01*
X90277180Y-88967772D01*
X90161667Y-88999403D01*
X90054544Y-89052962D01*
X89959928Y-89126390D01*
X89881456Y-89216866D01*
X89822142Y-89320912D01*
X89784267Y-89434531D01*
X89780230Y-89462000D01*
X88021214Y-89462000D01*
X87994023Y-89450737D01*
X87799279Y-89412000D01*
X87677275Y-89412000D01*
X87674203Y-89380811D01*
X87639437Y-89266203D01*
X87582980Y-89160579D01*
X87507001Y-89067999D01*
X87414421Y-88992020D01*
X87308797Y-88935563D01*
X87194189Y-88900797D01*
X87075000Y-88889058D01*
X86931000Y-88892000D01*
X86779000Y-89044000D01*
X86779000Y-89821000D01*
X86799000Y-89821000D01*
X86799000Y-89961176D01*
X86730737Y-90125977D01*
X86692000Y-90320721D01*
X86692000Y-90519279D01*
X86730737Y-90714023D01*
X86779000Y-90830540D01*
X86779000Y-90906000D01*
X86810252Y-90937252D01*
X86806722Y-90942536D01*
X86730737Y-91125980D01*
X86692000Y-91320724D01*
X86692000Y-91519282D01*
X86730737Y-91714026D01*
X86754000Y-91770188D01*
X86754000Y-92146000D01*
X86774000Y-92146000D01*
X86774000Y-92454000D01*
X86754000Y-92454000D01*
X86754000Y-92474000D01*
X86446000Y-92474000D01*
X86446000Y-92454000D01*
X86426000Y-92454000D01*
X86426000Y-92146000D01*
X86446000Y-92146000D01*
X86446000Y-91119000D01*
X86352000Y-91025000D01*
X86471000Y-90906000D01*
X86471000Y-90129000D01*
X86451000Y-90129000D01*
X86451000Y-89821000D01*
X86471000Y-89821000D01*
X86471000Y-89044000D01*
X86319000Y-88892000D01*
X86175000Y-88889058D01*
X86055811Y-88900797D01*
X85941203Y-88935563D01*
X85835579Y-88992020D01*
X85776899Y-89040178D01*
X85764424Y-89029940D01*
X85619901Y-88952691D01*
X85463084Y-88905121D01*
X85300000Y-88889059D01*
X84850000Y-88889059D01*
X84686916Y-88905121D01*
X84530099Y-88952691D01*
X84385576Y-89029940D01*
X84320679Y-89083200D01*
X84194023Y-89030737D01*
X83999279Y-88992000D01*
X83800721Y-88992000D01*
X83605977Y-89030737D01*
X83422533Y-89106722D01*
X83257438Y-89217035D01*
X83117035Y-89357438D01*
X83006722Y-89522533D01*
X82930737Y-89705977D01*
X82892000Y-89900721D01*
X82892000Y-90099279D01*
X82930737Y-90294023D01*
X83006722Y-90477467D01*
X83117035Y-90642562D01*
X83257438Y-90782965D01*
X83422533Y-90893278D01*
X83605977Y-90969263D01*
X83800721Y-91008000D01*
X83999279Y-91008000D01*
X84194023Y-90969263D01*
X84361168Y-90900029D01*
X84385576Y-90920060D01*
X84467893Y-90964059D01*
X84450000Y-90964059D01*
X84282039Y-90980602D01*
X84120532Y-91029594D01*
X83971687Y-91109154D01*
X83841223Y-91216223D01*
X83779034Y-91292000D01*
X83600721Y-91292000D01*
X83405977Y-91330737D01*
X83222533Y-91406722D01*
X83057438Y-91517035D01*
X82917035Y-91657438D01*
X82806722Y-91822533D01*
X82730737Y-92005977D01*
X82692000Y-92200721D01*
X82692000Y-92399279D01*
X82730737Y-92594023D01*
X82806722Y-92777467D01*
X82917035Y-92942562D01*
X83057438Y-93082965D01*
X83222533Y-93193278D01*
X83405977Y-93269263D01*
X83600721Y-93308000D01*
X83779034Y-93308000D01*
X83841223Y-93383777D01*
X83971687Y-93490846D01*
X84058970Y-93537500D01*
X83971687Y-93584154D01*
X83841223Y-93691223D01*
X83820755Y-93716163D01*
X83699279Y-93692000D01*
X83500721Y-93692000D01*
X83305977Y-93730737D01*
X83122533Y-93806722D01*
X82957438Y-93917035D01*
X82817035Y-94057438D01*
X82706722Y-94222533D01*
X82630737Y-94405977D01*
X82592000Y-94600721D01*
X82592000Y-94799279D01*
X82630737Y-94994023D01*
X82706722Y-95177467D01*
X82817035Y-95342562D01*
X82957438Y-95482965D01*
X83122533Y-95593278D01*
X83305977Y-95669263D01*
X83500721Y-95708000D01*
X83699279Y-95708000D01*
X83720988Y-95703682D01*
X83734154Y-95728313D01*
X83841223Y-95858777D01*
X83971687Y-95965846D01*
X84120532Y-96045406D01*
X84282039Y-96094398D01*
X84450000Y-96110941D01*
X84950000Y-96110941D01*
X85117961Y-96094398D01*
X85279468Y-96045406D01*
X85428313Y-95965846D01*
X85558777Y-95858777D01*
X85650000Y-95747621D01*
X85741223Y-95858777D01*
X85871687Y-95965846D01*
X86020532Y-96045406D01*
X86182039Y-96094398D01*
X86350000Y-96110941D01*
X86850000Y-96110941D01*
X87017961Y-96094398D01*
X87179468Y-96045406D01*
X87328313Y-95965846D01*
X87429261Y-95883000D01*
X89638998Y-95883000D01*
X89675000Y-95886546D01*
X89818693Y-95872393D01*
X89942000Y-95834989D01*
X89942000Y-95999279D01*
X89980737Y-96194023D01*
X90056722Y-96377467D01*
X90167035Y-96542562D01*
X90307438Y-96682965D01*
X90472533Y-96793278D01*
X90655977Y-96869263D01*
X90850721Y-96908000D01*
X91049279Y-96908000D01*
X91244023Y-96869263D01*
X91427467Y-96793278D01*
X91592562Y-96682965D01*
X91732965Y-96542562D01*
X91843278Y-96377467D01*
X91894059Y-96254871D01*
X91894059Y-97445000D01*
X91905798Y-97564189D01*
X91940564Y-97678797D01*
X91997021Y-97784421D01*
X92072999Y-97877001D01*
X92165579Y-97952979D01*
X92271203Y-98009436D01*
X92296325Y-98017057D01*
X90207151Y-100106231D01*
X90179183Y-100129184D01*
X90087584Y-100240798D01*
X90080387Y-100254263D01*
X89985576Y-100304940D01*
X89858900Y-100408900D01*
X89754940Y-100535576D01*
X89677691Y-100680099D01*
X89630121Y-100836916D01*
X89614059Y-101000000D01*
X89614059Y-101450000D01*
X89630121Y-101613084D01*
X89677691Y-101769901D01*
X89689503Y-101792000D01*
X89600721Y-101792000D01*
X89405977Y-101830737D01*
X89222533Y-101906722D01*
X89057438Y-102017035D01*
X88917035Y-102157438D01*
X88806722Y-102322533D01*
X88730737Y-102505977D01*
X88692000Y-102700721D01*
X88692000Y-102899279D01*
X88730737Y-103094023D01*
X88806722Y-103277467D01*
X88917035Y-103442562D01*
X89057438Y-103582965D01*
X89222533Y-103693278D01*
X89405977Y-103769263D01*
X89474692Y-103782931D01*
X89454594Y-103820532D01*
X89405602Y-103982038D01*
X89389059Y-104149999D01*
X89389059Y-104850001D01*
X89405602Y-105017962D01*
X89454594Y-105179468D01*
X89534154Y-105328314D01*
X89641222Y-105458778D01*
X89691452Y-105500000D01*
X89641222Y-105541222D01*
X89534154Y-105671686D01*
X89454594Y-105820532D01*
X89405602Y-105982038D01*
X89389059Y-106149999D01*
X89389059Y-106850001D01*
X89405602Y-107017962D01*
X89454594Y-107179468D01*
X89534154Y-107328314D01*
X89641222Y-107458778D01*
X89700596Y-107507505D01*
X89692000Y-107550721D01*
X89692000Y-107749279D01*
X89730737Y-107944023D01*
X89806722Y-108127467D01*
X89917035Y-108292562D01*
X90057438Y-108432965D01*
X90222533Y-108543278D01*
X90405977Y-108619263D01*
X90600721Y-108658000D01*
X90799279Y-108658000D01*
X90994023Y-108619263D01*
X91177467Y-108543278D01*
X91342562Y-108432965D01*
X91482965Y-108292562D01*
X91593278Y-108127467D01*
X91669263Y-107944023D01*
X91700000Y-107789498D01*
X91730737Y-107944023D01*
X91806722Y-108127467D01*
X91917035Y-108292562D01*
X92057438Y-108432965D01*
X92222533Y-108543278D01*
X92405977Y-108619263D01*
X92600721Y-108658000D01*
X92799279Y-108658000D01*
X92994023Y-108619263D01*
X93177467Y-108543278D01*
X93342562Y-108432965D01*
X93482965Y-108292562D01*
X93593278Y-108127467D01*
X93669263Y-107944023D01*
X93708000Y-107749279D01*
X93708000Y-107576704D01*
X93728314Y-107565846D01*
X93850000Y-107465982D01*
X93943580Y-107542780D01*
X93942000Y-107550721D01*
X93942000Y-107749279D01*
X93980737Y-107944023D01*
X94056722Y-108127467D01*
X94167035Y-108292562D01*
X94307438Y-108432965D01*
X94472533Y-108543278D01*
X94655977Y-108619263D01*
X94850721Y-108658000D01*
X95049279Y-108658000D01*
X95244023Y-108619263D01*
X95427467Y-108543278D01*
X95592562Y-108432965D01*
X95732965Y-108292562D01*
X95843278Y-108127467D01*
X95919263Y-107944023D01*
X95958000Y-107749279D01*
X95958000Y-107550721D01*
X95942387Y-107472230D01*
X95958778Y-107458778D01*
X96065846Y-107328314D01*
X96145406Y-107179468D01*
X96194398Y-107017962D01*
X96210941Y-106850001D01*
X96210941Y-106149999D01*
X96194398Y-105982038D01*
X96145406Y-105820532D01*
X96065846Y-105671686D01*
X95958778Y-105541222D01*
X95908548Y-105500000D01*
X95958778Y-105458778D01*
X96065846Y-105328314D01*
X96145406Y-105179468D01*
X96194398Y-105017962D01*
X96210941Y-104850001D01*
X96210941Y-104149999D01*
X96204464Y-104084235D01*
X96220826Y-104070807D01*
X96312426Y-103959193D01*
X96380490Y-103831854D01*
X96413145Y-103724202D01*
X96422403Y-103693684D01*
X96426241Y-103654713D01*
X96491203Y-103689436D01*
X96605811Y-103724202D01*
X96725000Y-103735941D01*
X97625000Y-103735941D01*
X97744189Y-103724202D01*
X97858797Y-103689436D01*
X97964421Y-103632979D01*
X98000000Y-103603780D01*
X98035579Y-103632979D01*
X98141203Y-103689436D01*
X98255811Y-103724202D01*
X98375000Y-103735941D01*
X99275000Y-103735941D01*
X99394189Y-103724202D01*
X99508797Y-103689436D01*
X99614421Y-103632979D01*
X99707001Y-103557001D01*
X99782979Y-103464421D01*
X99817531Y-103399778D01*
X99934203Y-103337416D01*
X100045817Y-103245817D01*
X100068773Y-103217845D01*
X100192845Y-103093773D01*
X100220817Y-103070817D01*
X100312416Y-102959203D01*
X100380480Y-102831864D01*
X100422393Y-102693693D01*
X100430398Y-102612425D01*
X100436546Y-102550001D01*
X100433000Y-102513999D01*
X100433000Y-100951000D01*
X100436546Y-100914998D01*
X100422393Y-100771304D01*
X100380480Y-100633135D01*
X100380480Y-100633134D01*
X100312416Y-100505795D01*
X100220816Y-100394181D01*
X100192845Y-100371226D01*
X99978776Y-100157156D01*
X99955819Y-100129183D01*
X99844205Y-100037584D01*
X99716866Y-99969520D01*
X99578695Y-99927607D01*
X99471004Y-99917000D01*
X99435002Y-99913454D01*
X99399000Y-99917000D01*
X98753618Y-99917000D01*
X97363000Y-98526382D01*
X97363000Y-98045304D01*
X97374189Y-98044202D01*
X97380000Y-98042439D01*
X97385811Y-98044202D01*
X97505000Y-98055941D01*
X97755000Y-98055941D01*
X97874189Y-98044202D01*
X97880000Y-98042439D01*
X97885811Y-98044202D01*
X98005000Y-98055941D01*
X98255000Y-98055941D01*
X98374189Y-98044202D01*
X98488797Y-98009436D01*
X98594421Y-97952979D01*
X98687001Y-97877001D01*
X98762979Y-97784421D01*
X98819436Y-97678797D01*
X98854202Y-97564189D01*
X98865941Y-97445000D01*
X98865941Y-96145000D01*
X98854202Y-96025811D01*
X98819436Y-95911203D01*
X98788700Y-95853700D01*
X98846203Y-95884436D01*
X98960811Y-95919202D01*
X99080000Y-95930941D01*
X100380000Y-95930941D01*
X100499189Y-95919202D01*
X100613797Y-95884436D01*
X100719421Y-95827979D01*
X100812001Y-95752001D01*
X100887979Y-95659421D01*
X100944436Y-95553797D01*
X100979202Y-95439189D01*
X100990941Y-95320000D01*
X100990941Y-95070000D01*
X100979202Y-94950811D01*
X100977439Y-94945000D01*
X100979202Y-94939189D01*
X100990941Y-94820000D01*
X100990941Y-94570000D01*
X100979202Y-94450811D01*
X100977439Y-94445000D01*
X100979202Y-94439189D01*
X100990941Y-94320000D01*
X100990941Y-94070000D01*
X100979202Y-93950811D01*
X100977439Y-93945000D01*
X100979202Y-93939189D01*
X100990941Y-93820000D01*
X100990941Y-93570000D01*
X100979202Y-93450811D01*
X100977439Y-93445000D01*
X100979202Y-93439189D01*
X100990941Y-93320000D01*
X100990941Y-93070000D01*
X100979202Y-92950811D01*
X100977439Y-92945000D01*
X100979202Y-92939189D01*
X100982618Y-92904508D01*
X101100721Y-92928000D01*
X101299279Y-92928000D01*
X101494023Y-92889263D01*
X101677467Y-92813278D01*
X101842562Y-92702965D01*
X101982965Y-92562562D01*
X102093278Y-92397467D01*
X102169263Y-92214023D01*
X102208000Y-92019279D01*
X102208000Y-91820721D01*
X102169263Y-91625977D01*
X102093278Y-91442533D01*
X101982965Y-91277438D01*
X101842562Y-91137035D01*
X101712305Y-91050000D01*
X102814058Y-91050000D01*
X102825797Y-91169189D01*
X102860563Y-91283797D01*
X102917020Y-91389421D01*
X102992999Y-91482001D01*
X103085579Y-91557980D01*
X103191203Y-91614437D01*
X103305811Y-91649203D01*
X103425000Y-91660942D01*
X103569000Y-91658000D01*
X103721000Y-91506000D01*
X103721000Y-90729000D01*
X102969000Y-90729000D01*
X102817000Y-90881000D01*
X102814058Y-91050000D01*
X101712305Y-91050000D01*
X101677467Y-91026722D01*
X101494023Y-90950737D01*
X101299279Y-90912000D01*
X101100721Y-90912000D01*
X100978550Y-90936301D01*
X100980339Y-90924125D01*
X101048693Y-90917393D01*
X101088000Y-90905470D01*
X101100721Y-90908000D01*
X101299279Y-90908000D01*
X101494023Y-90869263D01*
X101677467Y-90793278D01*
X101842562Y-90682965D01*
X101982965Y-90542562D01*
X102093278Y-90377467D01*
X102169263Y-90194023D01*
X102208000Y-89999279D01*
X102208000Y-89800721D01*
X102169263Y-89605977D01*
X102093278Y-89422533D01*
X102011405Y-89300000D01*
X102789058Y-89300000D01*
X102800797Y-89419189D01*
X102835563Y-89533797D01*
X102892020Y-89639421D01*
X102954236Y-89715231D01*
X102917020Y-89760579D01*
X102860563Y-89866203D01*
X102825797Y-89980811D01*
X102814058Y-90100000D01*
X102817000Y-90269000D01*
X102969000Y-90421000D01*
X103721000Y-90421000D01*
X103721000Y-89781000D01*
X103746000Y-89756000D01*
X103746000Y-88729000D01*
X102944000Y-88729000D01*
X102792000Y-88881000D01*
X102789058Y-89300000D01*
X102011405Y-89300000D01*
X101982965Y-89257438D01*
X101842562Y-89117035D01*
X101702587Y-89023506D01*
X101669263Y-88855977D01*
X101593278Y-88672533D01*
X101482965Y-88507438D01*
X101342562Y-88367035D01*
X101177467Y-88256722D01*
X100994023Y-88180737D01*
X100799279Y-88142000D01*
X100600721Y-88142000D01*
X100405977Y-88180737D01*
X100222533Y-88256722D01*
X100057438Y-88367035D01*
X99917035Y-88507438D01*
X99806722Y-88672533D01*
X99730737Y-88855977D01*
X99710233Y-88959059D01*
X99080000Y-88959059D01*
X98960811Y-88970798D01*
X98846203Y-89005564D01*
X98788700Y-89036300D01*
X98819436Y-88978797D01*
X98854202Y-88864189D01*
X98865941Y-88745000D01*
X98865941Y-88395677D01*
X99628619Y-87633000D01*
X102830468Y-87633000D01*
X102800797Y-87730811D01*
X102789058Y-87850000D01*
X102792000Y-88269000D01*
X102944000Y-88421000D01*
X103746000Y-88421000D01*
X103746000Y-88401000D01*
X104054000Y-88401000D01*
X104054000Y-88421000D01*
X104074000Y-88421000D01*
X104074000Y-88729000D01*
X104054000Y-88729000D01*
X104054000Y-89619000D01*
X104029000Y-89644000D01*
X104029000Y-90421000D01*
X104049000Y-90421000D01*
X104049000Y-90729000D01*
X104029000Y-90729000D01*
X104029000Y-91506000D01*
X104181000Y-91658000D01*
X104325000Y-91660942D01*
X104392000Y-91654343D01*
X104392000Y-91699279D01*
X104430737Y-91894023D01*
X104506722Y-92077467D01*
X104617035Y-92242562D01*
X104757438Y-92382965D01*
X104922533Y-92493278D01*
X105105977Y-92569263D01*
X105300721Y-92608000D01*
X105499279Y-92608000D01*
X105694023Y-92569263D01*
X105877467Y-92493278D01*
X106042562Y-92382965D01*
X106182965Y-92242562D01*
X106293278Y-92077467D01*
X106369263Y-91894023D01*
X106408000Y-91699279D01*
X106408000Y-91500721D01*
X106369263Y-91305977D01*
X106354833Y-91271140D01*
X106422309Y-91144901D01*
X106469879Y-90988084D01*
X106485941Y-90825000D01*
X106485941Y-90325000D01*
X106469879Y-90161916D01*
X106422309Y-90005099D01*
X106345060Y-89860576D01*
X106341950Y-89856787D01*
X106379468Y-89845406D01*
X106528313Y-89765846D01*
X106599174Y-89707692D01*
X106600721Y-89708000D01*
X106799279Y-89708000D01*
X106994023Y-89669263D01*
X107177467Y-89593278D01*
X107342562Y-89482965D01*
X107482965Y-89342562D01*
X107593278Y-89177467D01*
X107669263Y-88994023D01*
X107708000Y-88799279D01*
X107708000Y-88600721D01*
X107669263Y-88405977D01*
X107593278Y-88222533D01*
X107482965Y-88057438D01*
X107342562Y-87917035D01*
X107177467Y-87806722D01*
X106994023Y-87730737D01*
X106803923Y-87692924D01*
X106771893Y-87633000D01*
X107396382Y-87633000D01*
X107717001Y-87953620D01*
X107717000Y-118363998D01*
X107713454Y-118400000D01*
X107717000Y-118436001D01*
X107727607Y-118543692D01*
X107769520Y-118681863D01*
X107837584Y-118809202D01*
X107929183Y-118920816D01*
X107957151Y-118943769D01*
X113176232Y-124162851D01*
X113199183Y-124190817D01*
X113310797Y-124282416D01*
X113438136Y-124350480D01*
X113534393Y-124379679D01*
X113576306Y-124392393D01*
X113719999Y-124406546D01*
X113756001Y-124403000D01*
X115746387Y-124403000D01*
X115856335Y-124567548D01*
X116052452Y-124763665D01*
X116283062Y-124917754D01*
X116539301Y-125023892D01*
X116811324Y-125078000D01*
X117088676Y-125078000D01*
X117360699Y-125023892D01*
X117616938Y-124917754D01*
X117847548Y-124763665D01*
X118043665Y-124567548D01*
X118153613Y-124403000D01*
X118286387Y-124403000D01*
X118396335Y-124567548D01*
X118592452Y-124763665D01*
X118823062Y-124917754D01*
X119079301Y-125023892D01*
X119351324Y-125078000D01*
X119628676Y-125078000D01*
X119900699Y-125023892D01*
X120156938Y-124917754D01*
X120387548Y-124763665D01*
X120583665Y-124567548D01*
X120693613Y-124403000D01*
X120826387Y-124403000D01*
X120936335Y-124567548D01*
X121132452Y-124763665D01*
X121363062Y-124917754D01*
X121619301Y-125023892D01*
X121891324Y-125078000D01*
X122168676Y-125078000D01*
X122440699Y-125023892D01*
X122696938Y-124917754D01*
X122927548Y-124763665D01*
X123123665Y-124567548D01*
X123233613Y-124403000D01*
X123366387Y-124403000D01*
X123476335Y-124567548D01*
X123672452Y-124763665D01*
X123903062Y-124917754D01*
X124159301Y-125023892D01*
X124431324Y-125078000D01*
X124708676Y-125078000D01*
X124980699Y-125023892D01*
X125236938Y-124917754D01*
X125467548Y-124763665D01*
X125663665Y-124567548D01*
X125773613Y-124403000D01*
X125906387Y-124403000D01*
X126016335Y-124567548D01*
X126212452Y-124763665D01*
X126443062Y-124917754D01*
X126699301Y-125023892D01*
X126971324Y-125078000D01*
X127248676Y-125078000D01*
X127520699Y-125023892D01*
X127776938Y-124917754D01*
X128007548Y-124763665D01*
X128203665Y-124567548D01*
X128313613Y-124403000D01*
X128446387Y-124403000D01*
X128556335Y-124567548D01*
X128752452Y-124763665D01*
X128983062Y-124917754D01*
X129239301Y-125023892D01*
X129511324Y-125078000D01*
X129788676Y-125078000D01*
X130060699Y-125023892D01*
X130316938Y-124917754D01*
X130547548Y-124763665D01*
X130743665Y-124567548D01*
X130897754Y-124336938D01*
X131003892Y-124080699D01*
X131058000Y-123808676D01*
X131058000Y-123531324D01*
X131003892Y-123259301D01*
X130897754Y-123003062D01*
X130743665Y-122772452D01*
X130547548Y-122576335D01*
X130316938Y-122422246D01*
X130060699Y-122316108D01*
X129788676Y-122262000D01*
X129511324Y-122262000D01*
X129239301Y-122316108D01*
X128983062Y-122422246D01*
X128752452Y-122576335D01*
X128556335Y-122772452D01*
X128446387Y-122937000D01*
X128313613Y-122937000D01*
X128203665Y-122772452D01*
X128007548Y-122576335D01*
X127776938Y-122422246D01*
X127520699Y-122316108D01*
X127248676Y-122262000D01*
X126971324Y-122262000D01*
X126699301Y-122316108D01*
X126443062Y-122422246D01*
X126212452Y-122576335D01*
X126016335Y-122772452D01*
X125906387Y-122937000D01*
X125773613Y-122937000D01*
X125663665Y-122772452D01*
X125467548Y-122576335D01*
X125236938Y-122422246D01*
X124980699Y-122316108D01*
X124708676Y-122262000D01*
X124431324Y-122262000D01*
X124159301Y-122316108D01*
X123903062Y-122422246D01*
X123672452Y-122576335D01*
X123476335Y-122772452D01*
X123366387Y-122937000D01*
X123233613Y-122937000D01*
X123123665Y-122772452D01*
X122927548Y-122576335D01*
X122696938Y-122422246D01*
X122440699Y-122316108D01*
X122168676Y-122262000D01*
X121891324Y-122262000D01*
X121619301Y-122316108D01*
X121363062Y-122422246D01*
X121132452Y-122576335D01*
X120936335Y-122772452D01*
X120826387Y-122937000D01*
X120693613Y-122937000D01*
X120583665Y-122772452D01*
X120387548Y-122576335D01*
X120156938Y-122422246D01*
X119900699Y-122316108D01*
X119628676Y-122262000D01*
X119351324Y-122262000D01*
X119079301Y-122316108D01*
X118823062Y-122422246D01*
X118592452Y-122576335D01*
X118396335Y-122772452D01*
X118286387Y-122937000D01*
X118153613Y-122937000D01*
X118043665Y-122772452D01*
X117847548Y-122576335D01*
X117616938Y-122422246D01*
X117360699Y-122316108D01*
X117088676Y-122262000D01*
X116811324Y-122262000D01*
X116539301Y-122316108D01*
X116283062Y-122422246D01*
X116052452Y-122576335D01*
X115856335Y-122772452D01*
X115746387Y-122937000D01*
X114023619Y-122937000D01*
X109183000Y-118096382D01*
X109183000Y-87686001D01*
X109186546Y-87649999D01*
X109172393Y-87506306D01*
X109146070Y-87419530D01*
X109130480Y-87368136D01*
X109120903Y-87350219D01*
X111469658Y-87350219D01*
X111530749Y-87620045D01*
X111643306Y-87872768D01*
X111803004Y-88098677D01*
X112003706Y-88289089D01*
X112237700Y-88436688D01*
X112498958Y-88533231D01*
X112716000Y-88421523D01*
X112716000Y-87129000D01*
X111611488Y-87129000D01*
X111469658Y-87350219D01*
X109120903Y-87350219D01*
X109108884Y-87327734D01*
X109836837Y-86599781D01*
X111469658Y-86599781D01*
X111611488Y-86821000D01*
X112716000Y-86821000D01*
X112716000Y-85528477D01*
X112498958Y-85416769D01*
X112237700Y-85513312D01*
X112003706Y-85660911D01*
X111803004Y-85851323D01*
X111643306Y-86077232D01*
X111530749Y-86329955D01*
X111469658Y-86599781D01*
X109836837Y-86599781D01*
X116728619Y-79708000D01*
X116799279Y-79708000D01*
X116994023Y-79669263D01*
X117177467Y-79593278D01*
X117217001Y-79566862D01*
X117217000Y-85570284D01*
X117163974Y-85598627D01*
X116949578Y-85774577D01*
X116773627Y-85988973D01*
X116680000Y-86164136D01*
X116586373Y-85988973D01*
X116410423Y-85774577D01*
X116196027Y-85598627D01*
X115951425Y-85467884D01*
X115686016Y-85387373D01*
X115410000Y-85360188D01*
X115133985Y-85387373D01*
X114868576Y-85467884D01*
X114623974Y-85598627D01*
X114409578Y-85774577D01*
X114233627Y-85988973D01*
X114137490Y-86168831D01*
X114096694Y-86077232D01*
X113936996Y-85851323D01*
X113736294Y-85660911D01*
X113502300Y-85513312D01*
X113241042Y-85416769D01*
X113024000Y-85528477D01*
X113024000Y-86821000D01*
X113044000Y-86821000D01*
X113044000Y-87129000D01*
X113024000Y-87129000D01*
X113024000Y-88421523D01*
X113241042Y-88533231D01*
X113502300Y-88436688D01*
X113736294Y-88289089D01*
X113936996Y-88098677D01*
X114096694Y-87872768D01*
X114137491Y-87781168D01*
X114233627Y-87961026D01*
X114409577Y-88175422D01*
X114623973Y-88351373D01*
X114868575Y-88482116D01*
X115133984Y-88562627D01*
X115410000Y-88589812D01*
X115686015Y-88562627D01*
X115802011Y-88527440D01*
X115802010Y-108282560D01*
X115686016Y-108247373D01*
X115410000Y-108220188D01*
X115133985Y-108247373D01*
X114868576Y-108327884D01*
X114623974Y-108458627D01*
X114409578Y-108634577D01*
X114233627Y-108848973D01*
X114140000Y-109024136D01*
X114046373Y-108848973D01*
X113870423Y-108634577D01*
X113656027Y-108458627D01*
X113411425Y-108327884D01*
X113146016Y-108247373D01*
X112870000Y-108220188D01*
X112593985Y-108247373D01*
X112328576Y-108327884D01*
X112083974Y-108458627D01*
X111869578Y-108634577D01*
X111693627Y-108848973D01*
X111562884Y-109093575D01*
X111482373Y-109358984D01*
X111462000Y-109565836D01*
X111462000Y-110104163D01*
X111482373Y-110311015D01*
X111562884Y-110576424D01*
X111693627Y-110821026D01*
X111869577Y-111035422D01*
X112083973Y-111211373D01*
X112328575Y-111342116D01*
X112593984Y-111422627D01*
X112870000Y-111449812D01*
X113146015Y-111422627D01*
X113411424Y-111342116D01*
X113656026Y-111211373D01*
X113870422Y-111035423D01*
X114046373Y-110821027D01*
X114140000Y-110645863D01*
X114233627Y-110821026D01*
X114409577Y-111035422D01*
X114623973Y-111211373D01*
X114868575Y-111342116D01*
X115133984Y-111422627D01*
X115410000Y-111449812D01*
X115686015Y-111422627D01*
X115802010Y-111387440D01*
X115802010Y-115233755D01*
X115702246Y-115383062D01*
X115596108Y-115639301D01*
X115542000Y-115911324D01*
X115542000Y-116188676D01*
X115596108Y-116460699D01*
X115702246Y-116716938D01*
X115856335Y-116947548D01*
X116052452Y-117143665D01*
X116283062Y-117297754D01*
X116539301Y-117403892D01*
X116811324Y-117458000D01*
X117088676Y-117458000D01*
X117360699Y-117403892D01*
X117616938Y-117297754D01*
X117847548Y-117143665D01*
X118043665Y-116947548D01*
X118197754Y-116716938D01*
X118220000Y-116663232D01*
X118242246Y-116716938D01*
X118396335Y-116947548D01*
X118592452Y-117143665D01*
X118823062Y-117297754D01*
X119079301Y-117403892D01*
X119351324Y-117458000D01*
X119628676Y-117458000D01*
X119900699Y-117403892D01*
X120156938Y-117297754D01*
X120387548Y-117143665D01*
X120583665Y-116947548D01*
X120737754Y-116716938D01*
X120760000Y-116663232D01*
X120782246Y-116716938D01*
X120936335Y-116947548D01*
X121132452Y-117143665D01*
X121363062Y-117297754D01*
X121619301Y-117403892D01*
X121891324Y-117458000D01*
X122168676Y-117458000D01*
X122440699Y-117403892D01*
X122696938Y-117297754D01*
X122927548Y-117143665D01*
X123123665Y-116947548D01*
X123277754Y-116716938D01*
X123300000Y-116663232D01*
X123322246Y-116716938D01*
X123476335Y-116947548D01*
X123672452Y-117143665D01*
X123903062Y-117297754D01*
X124159301Y-117403892D01*
X124431324Y-117458000D01*
X124708676Y-117458000D01*
X124980699Y-117403892D01*
X125236938Y-117297754D01*
X125251999Y-117287691D01*
X125251999Y-117548997D01*
X125248453Y-117584999D01*
X125251999Y-117621000D01*
X125262606Y-117728691D01*
X125304519Y-117866862D01*
X125372583Y-117994201D01*
X125464182Y-118105815D01*
X125492150Y-118128768D01*
X126056227Y-118692845D01*
X126079183Y-118720817D01*
X126190797Y-118812416D01*
X126318134Y-118880479D01*
X126318136Y-118880480D01*
X126456306Y-118922393D01*
X126600000Y-118936546D01*
X126636002Y-118933000D01*
X129063998Y-118933000D01*
X129100000Y-118936546D01*
X129243693Y-118922393D01*
X129248892Y-118920816D01*
X129381864Y-118880480D01*
X129509203Y-118812416D01*
X129620817Y-118720817D01*
X129643772Y-118692846D01*
X130142850Y-118193769D01*
X130170817Y-118170817D01*
X130262416Y-118059203D01*
X130330480Y-117931864D01*
X130372393Y-117793693D01*
X130383000Y-117686002D01*
X130386546Y-117650001D01*
X130383000Y-117613999D01*
X130383000Y-117460941D01*
X130450000Y-117460941D01*
X130569189Y-117449202D01*
X130683797Y-117414436D01*
X130789421Y-117357979D01*
X130882001Y-117282001D01*
X130957979Y-117189421D01*
X131014436Y-117083797D01*
X131049202Y-116969189D01*
X131060941Y-116850000D01*
X131060941Y-115250000D01*
X131049202Y-115130811D01*
X131014436Y-115016203D01*
X130957979Y-114910579D01*
X130882001Y-114817999D01*
X130789421Y-114742021D01*
X130683797Y-114685564D01*
X130569189Y-114650798D01*
X130450000Y-114639059D01*
X128850000Y-114639059D01*
X128730811Y-114650798D01*
X128616203Y-114685564D01*
X128510579Y-114742021D01*
X128417999Y-114817999D01*
X128342021Y-114910579D01*
X128285564Y-115016203D01*
X128250798Y-115130811D01*
X128242885Y-115211149D01*
X128203665Y-115152452D01*
X128007548Y-114956335D01*
X127843000Y-114846387D01*
X127843000Y-111423515D01*
X128110000Y-111449812D01*
X128386015Y-111422627D01*
X128651424Y-111342116D01*
X128896026Y-111211373D01*
X129110422Y-111035423D01*
X129286373Y-110821027D01*
X129380000Y-110645863D01*
X129473627Y-110821026D01*
X129649577Y-111035422D01*
X129863973Y-111211373D01*
X130108575Y-111342116D01*
X130373984Y-111422627D01*
X130650000Y-111449812D01*
X130926015Y-111422627D01*
X131191424Y-111342116D01*
X131436026Y-111211373D01*
X131650422Y-111035423D01*
X131826373Y-110821027D01*
X131957116Y-110576425D01*
X132037627Y-110311016D01*
X132058000Y-110104164D01*
X132058000Y-109565837D01*
X132037627Y-109358985D01*
X131957116Y-109093576D01*
X131826373Y-108848973D01*
X131650423Y-108634577D01*
X131436027Y-108458627D01*
X131191425Y-108327884D01*
X130926016Y-108247373D01*
X130650000Y-108220188D01*
X130373985Y-108247373D01*
X130108576Y-108327884D01*
X129863974Y-108458627D01*
X129649578Y-108634577D01*
X129473627Y-108848973D01*
X129380000Y-109024136D01*
X129286373Y-108848973D01*
X129110423Y-108634577D01*
X128896027Y-108458627D01*
X128651425Y-108327884D01*
X128386016Y-108247373D01*
X128110000Y-108220188D01*
X127833985Y-108247373D01*
X127568576Y-108327884D01*
X127323974Y-108458627D01*
X127109578Y-108634577D01*
X126933627Y-108848973D01*
X126840000Y-109024136D01*
X126746373Y-108848973D01*
X126570423Y-108634577D01*
X126356027Y-108458627D01*
X126303000Y-108430283D01*
X126303000Y-89073618D01*
X127163564Y-88213055D01*
X127243706Y-88289089D01*
X127477700Y-88436688D01*
X127738958Y-88533231D01*
X127956000Y-88421523D01*
X127956000Y-87129000D01*
X127936000Y-87129000D01*
X127936000Y-86821000D01*
X127956000Y-86821000D01*
X127956000Y-85528477D01*
X127738958Y-85416769D01*
X127477700Y-85513312D01*
X127428010Y-85544656D01*
X127428010Y-66272010D01*
X127431556Y-66236008D01*
X127417403Y-66092314D01*
X127375490Y-65954144D01*
X127360063Y-65925283D01*
X127307426Y-65826805D01*
X127215827Y-65715191D01*
X127187855Y-65692235D01*
X123602775Y-62107155D01*
X123579819Y-62079183D01*
X123468205Y-61987584D01*
X123340866Y-61919520D01*
X123202695Y-61877607D01*
X123095004Y-61867000D01*
X123059002Y-61863454D01*
X123023000Y-61867000D01*
X122436002Y-61867000D01*
X122400000Y-61863454D01*
X122256306Y-61877607D01*
X122118136Y-61919520D01*
X121990797Y-61987584D01*
X121879183Y-62079183D01*
X121856227Y-62107155D01*
X121336585Y-62626797D01*
X121268797Y-62590563D01*
X121154189Y-62555797D01*
X121035000Y-62544058D01*
X120491000Y-62547000D01*
X120339000Y-62699000D01*
X120339000Y-63851000D01*
X120359000Y-63851000D01*
X120359000Y-64159000D01*
X120339000Y-64159000D01*
X120339000Y-64179000D01*
X120031000Y-64179000D01*
X120031000Y-64159000D01*
X118879000Y-64159000D01*
X118727000Y-64311000D01*
X118724058Y-64855000D01*
X118735797Y-64974189D01*
X118770563Y-65088797D01*
X118827020Y-65194421D01*
X118902999Y-65287001D01*
X118995579Y-65362980D01*
X119101203Y-65419437D01*
X119214324Y-65453752D01*
X119052497Y-65615579D01*
X118892937Y-65854378D01*
X118783030Y-66119717D01*
X118727000Y-66401399D01*
X118727000Y-66688601D01*
X118783030Y-66970283D01*
X118892937Y-67235622D01*
X119052497Y-67474421D01*
X119255579Y-67677503D01*
X119461358Y-67815000D01*
X119255579Y-67952497D01*
X119052497Y-68155579D01*
X118892937Y-68394378D01*
X118783030Y-68659717D01*
X118727000Y-68941399D01*
X118727000Y-69228601D01*
X118783030Y-69510283D01*
X118892937Y-69775622D01*
X119052497Y-70014421D01*
X119255579Y-70217503D01*
X119461358Y-70355000D01*
X119255579Y-70492497D01*
X119052497Y-70695579D01*
X118892937Y-70934378D01*
X118783030Y-71199717D01*
X118727000Y-71481399D01*
X118727000Y-71768601D01*
X118783030Y-72050283D01*
X118892937Y-72315622D01*
X119052497Y-72554421D01*
X119255579Y-72757503D01*
X119461358Y-72895000D01*
X119255579Y-73032497D01*
X119052497Y-73235579D01*
X118892937Y-73474378D01*
X118783030Y-73739717D01*
X118727000Y-74021399D01*
X118727000Y-74308601D01*
X118773087Y-74540295D01*
X117457150Y-75856232D01*
X117429184Y-75879183D01*
X117337585Y-75990797D01*
X117269521Y-76118136D01*
X117227607Y-76256307D01*
X117213454Y-76400000D01*
X117217001Y-76436012D01*
X117217001Y-77833138D01*
X117177467Y-77806722D01*
X116994023Y-77730737D01*
X116799279Y-77692000D01*
X116600721Y-77692000D01*
X116405977Y-77730737D01*
X116222533Y-77806722D01*
X116057438Y-77917035D01*
X115917035Y-78057438D01*
X115806722Y-78222533D01*
X115730737Y-78405977D01*
X115692000Y-78600721D01*
X115692000Y-78671381D01*
X108196382Y-86167000D01*
X107736002Y-86167000D01*
X107700000Y-86163454D01*
X107663998Y-86167000D01*
X103719618Y-86167000D01*
X111639059Y-78247560D01*
X111639059Y-78400000D01*
X111655121Y-78563084D01*
X111702691Y-78719901D01*
X111779940Y-78864424D01*
X111811469Y-78902843D01*
X111792000Y-79000721D01*
X111792000Y-79199279D01*
X111830737Y-79394023D01*
X111906722Y-79577467D01*
X112017035Y-79742562D01*
X112157438Y-79882965D01*
X112322533Y-79993278D01*
X112505977Y-80069263D01*
X112700721Y-80108000D01*
X112899279Y-80108000D01*
X113094023Y-80069263D01*
X113277467Y-79993278D01*
X113442562Y-79882965D01*
X113582965Y-79742562D01*
X113693278Y-79577467D01*
X113769263Y-79394023D01*
X113808000Y-79199279D01*
X113808000Y-79000721D01*
X113769263Y-78805977D01*
X113739591Y-78734341D01*
X113747309Y-78719901D01*
X113794879Y-78563084D01*
X113810941Y-78400000D01*
X113810941Y-77950000D01*
X113794879Y-77786916D01*
X113747309Y-77630099D01*
X113670060Y-77485576D01*
X113599830Y-77400000D01*
X113670060Y-77314424D01*
X113747309Y-77169901D01*
X113794879Y-77013084D01*
X113810941Y-76850000D01*
X113810941Y-76400000D01*
X113794879Y-76236916D01*
X113747309Y-76080099D01*
X113670060Y-75935576D01*
X113625177Y-75880886D01*
X113653314Y-75865846D01*
X113783778Y-75758778D01*
X113890846Y-75628314D01*
X113970406Y-75479468D01*
X114019398Y-75317962D01*
X114035941Y-75150001D01*
X114035941Y-74449999D01*
X114019398Y-74282038D01*
X113970406Y-74120532D01*
X113890846Y-73971686D01*
X113783778Y-73841222D01*
X113733548Y-73800000D01*
X113783778Y-73758778D01*
X113890846Y-73628314D01*
X113970406Y-73479468D01*
X114019398Y-73317962D01*
X114035941Y-73150001D01*
X114035941Y-72449999D01*
X114019398Y-72282038D01*
X113970406Y-72120532D01*
X113890846Y-71971686D01*
X113783778Y-71841222D01*
X113653314Y-71734154D01*
X113504468Y-71654594D01*
X113458000Y-71640498D01*
X113458000Y-65161004D01*
X113461546Y-65125000D01*
X113447394Y-64981307D01*
X113405480Y-64843136D01*
X113387265Y-64809059D01*
X113337416Y-64715797D01*
X113245816Y-64604183D01*
X113217850Y-64581232D01*
X111791618Y-63155000D01*
X118724058Y-63155000D01*
X118727000Y-63699000D01*
X118879000Y-63851000D01*
X120031000Y-63851000D01*
X120031000Y-62699000D01*
X119879000Y-62547000D01*
X119335000Y-62544058D01*
X119215811Y-62555797D01*
X119101203Y-62590563D01*
X118995579Y-62647020D01*
X118902999Y-62722999D01*
X118827020Y-62815579D01*
X118770563Y-62921203D01*
X118735797Y-63035811D01*
X118724058Y-63155000D01*
X111791618Y-63155000D01*
X107608457Y-58971839D01*
X107657001Y-58932001D01*
X107732979Y-58839421D01*
X107789436Y-58733797D01*
X107824202Y-58619189D01*
X107835941Y-58500000D01*
X107835941Y-58356399D01*
X108067000Y-58356399D01*
X108067000Y-58643601D01*
X108123030Y-58925283D01*
X108232937Y-59190622D01*
X108392497Y-59429421D01*
X108595579Y-59632503D01*
X108834378Y-59792063D01*
X109099717Y-59901970D01*
X109381399Y-59958000D01*
X109668601Y-59958000D01*
X109950283Y-59901970D01*
X110215622Y-59792063D01*
X110454421Y-59632503D01*
X110657503Y-59429421D01*
X110817063Y-59190622D01*
X110926970Y-58925283D01*
X110983000Y-58643601D01*
X110983000Y-58356399D01*
X110971782Y-58300000D01*
X111214059Y-58300000D01*
X111214059Y-60500000D01*
X111225798Y-60619189D01*
X111260564Y-60733797D01*
X111317021Y-60839421D01*
X111392999Y-60932001D01*
X111485579Y-61007979D01*
X111591203Y-61064436D01*
X111705811Y-61099202D01*
X111825000Y-61110941D01*
X114625000Y-61110941D01*
X114744189Y-61099202D01*
X114858797Y-61064436D01*
X114964421Y-61007979D01*
X115057001Y-60932001D01*
X115132979Y-60839421D01*
X115189436Y-60733797D01*
X115224202Y-60619189D01*
X115235941Y-60500000D01*
X115235941Y-58300000D01*
X115224202Y-58180811D01*
X115189436Y-58066203D01*
X115132979Y-57960579D01*
X115057001Y-57867999D01*
X114964421Y-57792021D01*
X114858797Y-57735564D01*
X114744189Y-57700798D01*
X114625000Y-57689059D01*
X111825000Y-57689059D01*
X111705811Y-57700798D01*
X111591203Y-57735564D01*
X111485579Y-57792021D01*
X111392999Y-57867999D01*
X111317021Y-57960579D01*
X111260564Y-58066203D01*
X111225798Y-58180811D01*
X111214059Y-58300000D01*
X110971782Y-58300000D01*
X110926970Y-58074717D01*
X110817063Y-57809378D01*
X110657503Y-57570579D01*
X110454421Y-57367497D01*
X110215622Y-57207937D01*
X109950283Y-57098030D01*
X109668601Y-57042000D01*
X109381399Y-57042000D01*
X109099717Y-57098030D01*
X108834378Y-57207937D01*
X108595579Y-57367497D01*
X108392497Y-57570579D01*
X108232937Y-57809378D01*
X108123030Y-58074717D01*
X108067000Y-58356399D01*
X107835941Y-58356399D01*
X107835941Y-56300000D01*
X107824202Y-56180811D01*
X107789436Y-56066203D01*
X107771689Y-56033000D01*
X132100000Y-56033000D01*
X132100000Y-85564931D01*
G04 #@! TA.AperFunction,Conductor*
D32*
G36*
X132100000Y-85564931D02*
G01*
X132082001Y-85542999D01*
X131989421Y-85467021D01*
X131883797Y-85410564D01*
X131769189Y-85375798D01*
X131650000Y-85364059D01*
X129650000Y-85364059D01*
X129530811Y-85375798D01*
X129416203Y-85410564D01*
X129310579Y-85467021D01*
X129217999Y-85542999D01*
X129142021Y-85635579D01*
X129085564Y-85741203D01*
X129080058Y-85759355D01*
X128976294Y-85660911D01*
X128742300Y-85513312D01*
X128481042Y-85416769D01*
X128264000Y-85528477D01*
X128264000Y-86821000D01*
X128284000Y-86821000D01*
X128284000Y-87129000D01*
X128264000Y-87129000D01*
X128264000Y-88421523D01*
X128481042Y-88533231D01*
X128742300Y-88436688D01*
X128976294Y-88289089D01*
X129080058Y-88190645D01*
X129085564Y-88208797D01*
X129142021Y-88314421D01*
X129217999Y-88407001D01*
X129310579Y-88482979D01*
X129416203Y-88539436D01*
X129530811Y-88574202D01*
X129650000Y-88585941D01*
X131650000Y-88585941D01*
X131769189Y-88574202D01*
X131883797Y-88539436D01*
X131989421Y-88482979D01*
X132082001Y-88407001D01*
X132100000Y-88385069D01*
X132100000Y-138767000D01*
X89300000Y-138767000D01*
X89300000Y-135300000D01*
X112489058Y-135300000D01*
X112500797Y-135419189D01*
X112535563Y-135533797D01*
X112592020Y-135639421D01*
X112667999Y-135732001D01*
X112760579Y-135807980D01*
X112866203Y-135864437D01*
X112980811Y-135899203D01*
X113100000Y-135910942D01*
X113794000Y-135908000D01*
X113946000Y-135756000D01*
X113946000Y-134454000D01*
X114254000Y-134454000D01*
X114254000Y-135756000D01*
X114406000Y-135908000D01*
X115100000Y-135910942D01*
X115219189Y-135899203D01*
X115333797Y-135864437D01*
X115439421Y-135807980D01*
X115532001Y-135732001D01*
X115607980Y-135639421D01*
X115664437Y-135533797D01*
X115699203Y-135419189D01*
X115710942Y-135300000D01*
X115708000Y-134606000D01*
X115556000Y-134454000D01*
X114254000Y-134454000D01*
X113946000Y-134454000D01*
X112644000Y-134454000D01*
X112492000Y-134606000D01*
X112489058Y-135300000D01*
X89300000Y-135300000D01*
X89300000Y-133300000D01*
X112489058Y-133300000D01*
X112492000Y-133994000D01*
X112644000Y-134146000D01*
X113946000Y-134146000D01*
X113946000Y-132844000D01*
X114254000Y-132844000D01*
X114254000Y-134146000D01*
X115556000Y-134146000D01*
X115708000Y-133994000D01*
X115710942Y-133300000D01*
X115699203Y-133180811D01*
X115664437Y-133066203D01*
X115607980Y-132960579D01*
X115532001Y-132867999D01*
X115439421Y-132792020D01*
X115333797Y-132735563D01*
X115219189Y-132700797D01*
X115100000Y-132689058D01*
X114406000Y-132692000D01*
X114254000Y-132844000D01*
X113946000Y-132844000D01*
X113794000Y-132692000D01*
X113100000Y-132689058D01*
X112980811Y-132700797D01*
X112866203Y-132735563D01*
X112760579Y-132792020D01*
X112667999Y-132867999D01*
X112592020Y-132960579D01*
X112535563Y-133066203D01*
X112500797Y-133180811D01*
X112489058Y-133300000D01*
X89300000Y-133300000D01*
X89300000Y-129141626D01*
X112492000Y-129141626D01*
X112492000Y-129458374D01*
X112553795Y-129769036D01*
X112675009Y-130061673D01*
X112850985Y-130325040D01*
X113074960Y-130549015D01*
X113338327Y-130724991D01*
X113630964Y-130846205D01*
X113941626Y-130908000D01*
X114258374Y-130908000D01*
X114569036Y-130846205D01*
X114861673Y-130724991D01*
X115125040Y-130549015D01*
X115349015Y-130325040D01*
X115524991Y-130061673D01*
X115646205Y-129769036D01*
X115708000Y-129458374D01*
X115708000Y-129141626D01*
X115646205Y-128830964D01*
X115524991Y-128538327D01*
X115349015Y-128274960D01*
X115125040Y-128050985D01*
X114861673Y-127875009D01*
X114569036Y-127753795D01*
X114258374Y-127692000D01*
X113941626Y-127692000D01*
X113630964Y-127753795D01*
X113338327Y-127875009D01*
X113074960Y-128050985D01*
X112850985Y-128274960D01*
X112675009Y-128538327D01*
X112553795Y-128830964D01*
X112492000Y-129141626D01*
X89300000Y-129141626D01*
X89300000Y-127445318D01*
X103172471Y-127445318D01*
X103290215Y-127714211D01*
X103603104Y-127862606D01*
X103938932Y-127947108D01*
X104284793Y-127964470D01*
X104627394Y-127914023D01*
X104953571Y-127797708D01*
X105109785Y-127714211D01*
X105227529Y-127445318D01*
X104200000Y-126417789D01*
X103172471Y-127445318D01*
X89300000Y-127445318D01*
X89300000Y-126284793D01*
X102435530Y-126284793D01*
X102485977Y-126627394D01*
X102602292Y-126953571D01*
X102685789Y-127109785D01*
X102954682Y-127227529D01*
X103982211Y-126200000D01*
X104417789Y-126200000D01*
X105445318Y-127227529D01*
X105714211Y-127109785D01*
X105862606Y-126796896D01*
X105947108Y-126461068D01*
X105964470Y-126115207D01*
X105914023Y-125772606D01*
X105797708Y-125446429D01*
X105714211Y-125290215D01*
X105445318Y-125172471D01*
X104417789Y-126200000D01*
X103982211Y-126200000D01*
X102954682Y-125172471D01*
X102685789Y-125290215D01*
X102537394Y-125603104D01*
X102452892Y-125938932D01*
X102435530Y-126284793D01*
X89300000Y-126284793D01*
X89300000Y-124954682D01*
X103172471Y-124954682D01*
X104200000Y-125982211D01*
X105227529Y-124954682D01*
X105109785Y-124685789D01*
X104796896Y-124537394D01*
X104461068Y-124452892D01*
X104115207Y-124435530D01*
X103772606Y-124485977D01*
X103446429Y-124602292D01*
X103290215Y-124685789D01*
X103172471Y-124954682D01*
X89300000Y-124954682D01*
X89300000Y-118426852D01*
X102442000Y-118426852D01*
X102442000Y-118773148D01*
X102509559Y-119112790D01*
X102642081Y-119432725D01*
X102834472Y-119720660D01*
X103079340Y-119965528D01*
X103367275Y-120157919D01*
X103687210Y-120290441D01*
X104026852Y-120358000D01*
X104373148Y-120358000D01*
X104712790Y-120290441D01*
X105032725Y-120157919D01*
X105320660Y-119965528D01*
X105565528Y-119720660D01*
X105757919Y-119432725D01*
X105890441Y-119112790D01*
X105958000Y-118773148D01*
X105958000Y-118426852D01*
X105890441Y-118087210D01*
X105757919Y-117767275D01*
X105565528Y-117479340D01*
X105320660Y-117234472D01*
X105032725Y-117042081D01*
X104712790Y-116909559D01*
X104373148Y-116842000D01*
X104026852Y-116842000D01*
X103687210Y-116909559D01*
X103367275Y-117042081D01*
X103079340Y-117234472D01*
X102834472Y-117479340D01*
X102642081Y-117767275D01*
X102509559Y-118087210D01*
X102442000Y-118426852D01*
X89300000Y-118426852D01*
X89300000Y-111400000D01*
X89298079Y-111380491D01*
X89292388Y-111361732D01*
X89283147Y-111344443D01*
X89270711Y-111329289D01*
X89255557Y-111316853D01*
X89238268Y-111307612D01*
X89219509Y-111301921D01*
X89200000Y-111300000D01*
X81300000Y-111300000D01*
X81300000Y-81935499D01*
X83593883Y-81935499D01*
X90619517Y-88961133D01*
X90396644Y-88959285D01*
X90277180Y-88967772D01*
X90161667Y-88999403D01*
X90054544Y-89052962D01*
X89959928Y-89126390D01*
X89881456Y-89216866D01*
X89822142Y-89320912D01*
X89784267Y-89434531D01*
X89780230Y-89462000D01*
X88021214Y-89462000D01*
X87994023Y-89450737D01*
X87799279Y-89412000D01*
X87677275Y-89412000D01*
X87674203Y-89380811D01*
X87639437Y-89266203D01*
X87582980Y-89160579D01*
X87507001Y-89067999D01*
X87414421Y-88992020D01*
X87308797Y-88935563D01*
X87194189Y-88900797D01*
X87075000Y-88889058D01*
X86931000Y-88892000D01*
X86779000Y-89044000D01*
X86779000Y-89821000D01*
X86799000Y-89821000D01*
X86799000Y-89961176D01*
X86730737Y-90125977D01*
X86692000Y-90320721D01*
X86692000Y-90519279D01*
X86730737Y-90714023D01*
X86779000Y-90830540D01*
X86779000Y-90906000D01*
X86810252Y-90937252D01*
X86806722Y-90942536D01*
X86730737Y-91125980D01*
X86692000Y-91320724D01*
X86692000Y-91519282D01*
X86730737Y-91714026D01*
X86754000Y-91770188D01*
X86754000Y-92146000D01*
X86774000Y-92146000D01*
X86774000Y-92454000D01*
X86754000Y-92454000D01*
X86754000Y-92474000D01*
X86446000Y-92474000D01*
X86446000Y-92454000D01*
X86426000Y-92454000D01*
X86426000Y-92146000D01*
X86446000Y-92146000D01*
X86446000Y-91119000D01*
X86352000Y-91025000D01*
X86471000Y-90906000D01*
X86471000Y-90129000D01*
X86451000Y-90129000D01*
X86451000Y-89821000D01*
X86471000Y-89821000D01*
X86471000Y-89044000D01*
X86319000Y-88892000D01*
X86175000Y-88889058D01*
X86055811Y-88900797D01*
X85941203Y-88935563D01*
X85835579Y-88992020D01*
X85776899Y-89040178D01*
X85764424Y-89029940D01*
X85619901Y-88952691D01*
X85463084Y-88905121D01*
X85300000Y-88889059D01*
X84850000Y-88889059D01*
X84686916Y-88905121D01*
X84530099Y-88952691D01*
X84385576Y-89029940D01*
X84320679Y-89083200D01*
X84194023Y-89030737D01*
X83999279Y-88992000D01*
X83800721Y-88992000D01*
X83605977Y-89030737D01*
X83422533Y-89106722D01*
X83257438Y-89217035D01*
X83117035Y-89357438D01*
X83006722Y-89522533D01*
X82930737Y-89705977D01*
X82892000Y-89900721D01*
X82892000Y-90099279D01*
X82930737Y-90294023D01*
X83006722Y-90477467D01*
X83117035Y-90642562D01*
X83257438Y-90782965D01*
X83422533Y-90893278D01*
X83605977Y-90969263D01*
X83800721Y-91008000D01*
X83999279Y-91008000D01*
X84194023Y-90969263D01*
X84361168Y-90900029D01*
X84385576Y-90920060D01*
X84467893Y-90964059D01*
X84450000Y-90964059D01*
X84282039Y-90980602D01*
X84120532Y-91029594D01*
X83971687Y-91109154D01*
X83841223Y-91216223D01*
X83779034Y-91292000D01*
X83600721Y-91292000D01*
X83405977Y-91330737D01*
X83222533Y-91406722D01*
X83057438Y-91517035D01*
X82917035Y-91657438D01*
X82806722Y-91822533D01*
X82730737Y-92005977D01*
X82692000Y-92200721D01*
X82692000Y-92399279D01*
X82730737Y-92594023D01*
X82806722Y-92777467D01*
X82917035Y-92942562D01*
X83057438Y-93082965D01*
X83222533Y-93193278D01*
X83405977Y-93269263D01*
X83600721Y-93308000D01*
X83779034Y-93308000D01*
X83841223Y-93383777D01*
X83971687Y-93490846D01*
X84058970Y-93537500D01*
X83971687Y-93584154D01*
X83841223Y-93691223D01*
X83820755Y-93716163D01*
X83699279Y-93692000D01*
X83500721Y-93692000D01*
X83305977Y-93730737D01*
X83122533Y-93806722D01*
X82957438Y-93917035D01*
X82817035Y-94057438D01*
X82706722Y-94222533D01*
X82630737Y-94405977D01*
X82592000Y-94600721D01*
X82592000Y-94799279D01*
X82630737Y-94994023D01*
X82706722Y-95177467D01*
X82817035Y-95342562D01*
X82957438Y-95482965D01*
X83122533Y-95593278D01*
X83305977Y-95669263D01*
X83500721Y-95708000D01*
X83699279Y-95708000D01*
X83720988Y-95703682D01*
X83734154Y-95728313D01*
X83841223Y-95858777D01*
X83971687Y-95965846D01*
X84120532Y-96045406D01*
X84282039Y-96094398D01*
X84450000Y-96110941D01*
X84950000Y-96110941D01*
X85117961Y-96094398D01*
X85279468Y-96045406D01*
X85428313Y-95965846D01*
X85558777Y-95858777D01*
X85650000Y-95747621D01*
X85741223Y-95858777D01*
X85871687Y-95965846D01*
X86020532Y-96045406D01*
X86182039Y-96094398D01*
X86350000Y-96110941D01*
X86850000Y-96110941D01*
X87017961Y-96094398D01*
X87179468Y-96045406D01*
X87328313Y-95965846D01*
X87429261Y-95883000D01*
X89638998Y-95883000D01*
X89675000Y-95886546D01*
X89818693Y-95872393D01*
X89942000Y-95834989D01*
X89942000Y-95999279D01*
X89980737Y-96194023D01*
X90056722Y-96377467D01*
X90167035Y-96542562D01*
X90307438Y-96682965D01*
X90472533Y-96793278D01*
X90655977Y-96869263D01*
X90850721Y-96908000D01*
X91049279Y-96908000D01*
X91244023Y-96869263D01*
X91427467Y-96793278D01*
X91592562Y-96682965D01*
X91732965Y-96542562D01*
X91843278Y-96377467D01*
X91894059Y-96254871D01*
X91894059Y-97445000D01*
X91905798Y-97564189D01*
X91940564Y-97678797D01*
X91997021Y-97784421D01*
X92072999Y-97877001D01*
X92165579Y-97952979D01*
X92271203Y-98009436D01*
X92296325Y-98017057D01*
X90207151Y-100106231D01*
X90179183Y-100129184D01*
X90087584Y-100240798D01*
X90080387Y-100254263D01*
X89985576Y-100304940D01*
X89858900Y-100408900D01*
X89754940Y-100535576D01*
X89677691Y-100680099D01*
X89630121Y-100836916D01*
X89614059Y-101000000D01*
X89614059Y-101450000D01*
X89630121Y-101613084D01*
X89677691Y-101769901D01*
X89689503Y-101792000D01*
X89600721Y-101792000D01*
X89405977Y-101830737D01*
X89222533Y-101906722D01*
X89057438Y-102017035D01*
X88917035Y-102157438D01*
X88806722Y-102322533D01*
X88730737Y-102505977D01*
X88692000Y-102700721D01*
X88692000Y-102899279D01*
X88730737Y-103094023D01*
X88806722Y-103277467D01*
X88917035Y-103442562D01*
X89057438Y-103582965D01*
X89222533Y-103693278D01*
X89405977Y-103769263D01*
X89474692Y-103782931D01*
X89454594Y-103820532D01*
X89405602Y-103982038D01*
X89389059Y-104149999D01*
X89389059Y-104850001D01*
X89405602Y-105017962D01*
X89454594Y-105179468D01*
X89534154Y-105328314D01*
X89641222Y-105458778D01*
X89691452Y-105500000D01*
X89641222Y-105541222D01*
X89534154Y-105671686D01*
X89454594Y-105820532D01*
X89405602Y-105982038D01*
X89389059Y-106149999D01*
X89389059Y-106850001D01*
X89405602Y-107017962D01*
X89454594Y-107179468D01*
X89534154Y-107328314D01*
X89641222Y-107458778D01*
X89700596Y-107507505D01*
X89692000Y-107550721D01*
X89692000Y-107749279D01*
X89730737Y-107944023D01*
X89806722Y-108127467D01*
X89917035Y-108292562D01*
X90057438Y-108432965D01*
X90222533Y-108543278D01*
X90405977Y-108619263D01*
X90600721Y-108658000D01*
X90799279Y-108658000D01*
X90994023Y-108619263D01*
X91177467Y-108543278D01*
X91342562Y-108432965D01*
X91482965Y-108292562D01*
X91593278Y-108127467D01*
X91669263Y-107944023D01*
X91700000Y-107789498D01*
X91730737Y-107944023D01*
X91806722Y-108127467D01*
X91917035Y-108292562D01*
X92057438Y-108432965D01*
X92222533Y-108543278D01*
X92405977Y-108619263D01*
X92600721Y-108658000D01*
X92799279Y-108658000D01*
X92994023Y-108619263D01*
X93177467Y-108543278D01*
X93342562Y-108432965D01*
X93482965Y-108292562D01*
X93593278Y-108127467D01*
X93669263Y-107944023D01*
X93708000Y-107749279D01*
X93708000Y-107576704D01*
X93728314Y-107565846D01*
X93850000Y-107465982D01*
X93943580Y-107542780D01*
X93942000Y-107550721D01*
X93942000Y-107749279D01*
X93980737Y-107944023D01*
X94056722Y-108127467D01*
X94167035Y-108292562D01*
X94307438Y-108432965D01*
X94472533Y-108543278D01*
X94655977Y-108619263D01*
X94850721Y-108658000D01*
X95049279Y-108658000D01*
X95244023Y-108619263D01*
X95427467Y-108543278D01*
X95592562Y-108432965D01*
X95732965Y-108292562D01*
X95843278Y-108127467D01*
X95919263Y-107944023D01*
X95958000Y-107749279D01*
X95958000Y-107550721D01*
X95942387Y-107472230D01*
X95958778Y-107458778D01*
X96065846Y-107328314D01*
X96145406Y-107179468D01*
X96194398Y-107017962D01*
X96210941Y-106850001D01*
X96210941Y-106149999D01*
X96194398Y-105982038D01*
X96145406Y-105820532D01*
X96065846Y-105671686D01*
X95958778Y-105541222D01*
X95908548Y-105500000D01*
X95958778Y-105458778D01*
X96065846Y-105328314D01*
X96145406Y-105179468D01*
X96194398Y-105017962D01*
X96210941Y-104850001D01*
X96210941Y-104149999D01*
X96204464Y-104084235D01*
X96220826Y-104070807D01*
X96312426Y-103959193D01*
X96380490Y-103831854D01*
X96413145Y-103724202D01*
X96422403Y-103693684D01*
X96426241Y-103654713D01*
X96491203Y-103689436D01*
X96605811Y-103724202D01*
X96725000Y-103735941D01*
X97625000Y-103735941D01*
X97744189Y-103724202D01*
X97858797Y-103689436D01*
X97964421Y-103632979D01*
X98000000Y-103603780D01*
X98035579Y-103632979D01*
X98141203Y-103689436D01*
X98255811Y-103724202D01*
X98375000Y-103735941D01*
X99275000Y-103735941D01*
X99394189Y-103724202D01*
X99508797Y-103689436D01*
X99614421Y-103632979D01*
X99707001Y-103557001D01*
X99782979Y-103464421D01*
X99817531Y-103399778D01*
X99934203Y-103337416D01*
X100045817Y-103245817D01*
X100068773Y-103217845D01*
X100192845Y-103093773D01*
X100220817Y-103070817D01*
X100312416Y-102959203D01*
X100380480Y-102831864D01*
X100422393Y-102693693D01*
X100430398Y-102612425D01*
X100436546Y-102550001D01*
X100433000Y-102513999D01*
X100433000Y-100951000D01*
X100436546Y-100914998D01*
X100422393Y-100771304D01*
X100380480Y-100633135D01*
X100380480Y-100633134D01*
X100312416Y-100505795D01*
X100220816Y-100394181D01*
X100192845Y-100371226D01*
X99978776Y-100157156D01*
X99955819Y-100129183D01*
X99844205Y-100037584D01*
X99716866Y-99969520D01*
X99578695Y-99927607D01*
X99471004Y-99917000D01*
X99435002Y-99913454D01*
X99399000Y-99917000D01*
X98753618Y-99917000D01*
X97363000Y-98526382D01*
X97363000Y-98045304D01*
X97374189Y-98044202D01*
X97380000Y-98042439D01*
X97385811Y-98044202D01*
X97505000Y-98055941D01*
X97755000Y-98055941D01*
X97874189Y-98044202D01*
X97880000Y-98042439D01*
X97885811Y-98044202D01*
X98005000Y-98055941D01*
X98255000Y-98055941D01*
X98374189Y-98044202D01*
X98488797Y-98009436D01*
X98594421Y-97952979D01*
X98687001Y-97877001D01*
X98762979Y-97784421D01*
X98819436Y-97678797D01*
X98854202Y-97564189D01*
X98865941Y-97445000D01*
X98865941Y-96145000D01*
X98854202Y-96025811D01*
X98819436Y-95911203D01*
X98788700Y-95853700D01*
X98846203Y-95884436D01*
X98960811Y-95919202D01*
X99080000Y-95930941D01*
X100380000Y-95930941D01*
X100499189Y-95919202D01*
X100613797Y-95884436D01*
X100719421Y-95827979D01*
X100812001Y-95752001D01*
X100887979Y-95659421D01*
X100944436Y-95553797D01*
X100979202Y-95439189D01*
X100990941Y-95320000D01*
X100990941Y-95070000D01*
X100979202Y-94950811D01*
X100977439Y-94945000D01*
X100979202Y-94939189D01*
X100990941Y-94820000D01*
X100990941Y-94570000D01*
X100979202Y-94450811D01*
X100977439Y-94445000D01*
X100979202Y-94439189D01*
X100990941Y-94320000D01*
X100990941Y-94070000D01*
X100979202Y-93950811D01*
X100977439Y-93945000D01*
X100979202Y-93939189D01*
X100990941Y-93820000D01*
X100990941Y-93570000D01*
X100979202Y-93450811D01*
X100977439Y-93445000D01*
X100979202Y-93439189D01*
X100990941Y-93320000D01*
X100990941Y-93070000D01*
X100979202Y-92950811D01*
X100977439Y-92945000D01*
X100979202Y-92939189D01*
X100982618Y-92904508D01*
X101100721Y-92928000D01*
X101299279Y-92928000D01*
X101494023Y-92889263D01*
X101677467Y-92813278D01*
X101842562Y-92702965D01*
X101982965Y-92562562D01*
X102093278Y-92397467D01*
X102169263Y-92214023D01*
X102208000Y-92019279D01*
X102208000Y-91820721D01*
X102169263Y-91625977D01*
X102093278Y-91442533D01*
X101982965Y-91277438D01*
X101842562Y-91137035D01*
X101712305Y-91050000D01*
X102814058Y-91050000D01*
X102825797Y-91169189D01*
X102860563Y-91283797D01*
X102917020Y-91389421D01*
X102992999Y-91482001D01*
X103085579Y-91557980D01*
X103191203Y-91614437D01*
X103305811Y-91649203D01*
X103425000Y-91660942D01*
X103569000Y-91658000D01*
X103721000Y-91506000D01*
X103721000Y-90729000D01*
X102969000Y-90729000D01*
X102817000Y-90881000D01*
X102814058Y-91050000D01*
X101712305Y-91050000D01*
X101677467Y-91026722D01*
X101494023Y-90950737D01*
X101299279Y-90912000D01*
X101100721Y-90912000D01*
X100978550Y-90936301D01*
X100980339Y-90924125D01*
X101048693Y-90917393D01*
X101088000Y-90905470D01*
X101100721Y-90908000D01*
X101299279Y-90908000D01*
X101494023Y-90869263D01*
X101677467Y-90793278D01*
X101842562Y-90682965D01*
X101982965Y-90542562D01*
X102093278Y-90377467D01*
X102169263Y-90194023D01*
X102208000Y-89999279D01*
X102208000Y-89800721D01*
X102169263Y-89605977D01*
X102093278Y-89422533D01*
X102011405Y-89300000D01*
X102789058Y-89300000D01*
X102800797Y-89419189D01*
X102835563Y-89533797D01*
X102892020Y-89639421D01*
X102954236Y-89715231D01*
X102917020Y-89760579D01*
X102860563Y-89866203D01*
X102825797Y-89980811D01*
X102814058Y-90100000D01*
X102817000Y-90269000D01*
X102969000Y-90421000D01*
X103721000Y-90421000D01*
X103721000Y-89781000D01*
X103746000Y-89756000D01*
X103746000Y-88729000D01*
X102944000Y-88729000D01*
X102792000Y-88881000D01*
X102789058Y-89300000D01*
X102011405Y-89300000D01*
X101982965Y-89257438D01*
X101842562Y-89117035D01*
X101702587Y-89023506D01*
X101669263Y-88855977D01*
X101593278Y-88672533D01*
X101482965Y-88507438D01*
X101342562Y-88367035D01*
X101177467Y-88256722D01*
X100994023Y-88180737D01*
X100799279Y-88142000D01*
X100600721Y-88142000D01*
X100405977Y-88180737D01*
X100222533Y-88256722D01*
X100057438Y-88367035D01*
X99917035Y-88507438D01*
X99806722Y-88672533D01*
X99730737Y-88855977D01*
X99710233Y-88959059D01*
X99080000Y-88959059D01*
X98960811Y-88970798D01*
X98846203Y-89005564D01*
X98788700Y-89036300D01*
X98819436Y-88978797D01*
X98854202Y-88864189D01*
X98865941Y-88745000D01*
X98865941Y-88395677D01*
X99628619Y-87633000D01*
X102830468Y-87633000D01*
X102800797Y-87730811D01*
X102789058Y-87850000D01*
X102792000Y-88269000D01*
X102944000Y-88421000D01*
X103746000Y-88421000D01*
X103746000Y-88401000D01*
X104054000Y-88401000D01*
X104054000Y-88421000D01*
X104074000Y-88421000D01*
X104074000Y-88729000D01*
X104054000Y-88729000D01*
X104054000Y-89619000D01*
X104029000Y-89644000D01*
X104029000Y-90421000D01*
X104049000Y-90421000D01*
X104049000Y-90729000D01*
X104029000Y-90729000D01*
X104029000Y-91506000D01*
X104181000Y-91658000D01*
X104325000Y-91660942D01*
X104392000Y-91654343D01*
X104392000Y-91699279D01*
X104430737Y-91894023D01*
X104506722Y-92077467D01*
X104617035Y-92242562D01*
X104757438Y-92382965D01*
X104922533Y-92493278D01*
X105105977Y-92569263D01*
X105300721Y-92608000D01*
X105499279Y-92608000D01*
X105694023Y-92569263D01*
X105877467Y-92493278D01*
X106042562Y-92382965D01*
X106182965Y-92242562D01*
X106293278Y-92077467D01*
X106369263Y-91894023D01*
X106408000Y-91699279D01*
X106408000Y-91500721D01*
X106369263Y-91305977D01*
X106354833Y-91271140D01*
X106422309Y-91144901D01*
X106469879Y-90988084D01*
X106485941Y-90825000D01*
X106485941Y-90325000D01*
X106469879Y-90161916D01*
X106422309Y-90005099D01*
X106345060Y-89860576D01*
X106341950Y-89856787D01*
X106379468Y-89845406D01*
X106528313Y-89765846D01*
X106599174Y-89707692D01*
X106600721Y-89708000D01*
X106799279Y-89708000D01*
X106994023Y-89669263D01*
X107177467Y-89593278D01*
X107342562Y-89482965D01*
X107482965Y-89342562D01*
X107593278Y-89177467D01*
X107669263Y-88994023D01*
X107708000Y-88799279D01*
X107708000Y-88600721D01*
X107669263Y-88405977D01*
X107593278Y-88222533D01*
X107482965Y-88057438D01*
X107342562Y-87917035D01*
X107177467Y-87806722D01*
X106994023Y-87730737D01*
X106803923Y-87692924D01*
X106771893Y-87633000D01*
X107396382Y-87633000D01*
X107717001Y-87953620D01*
X107717000Y-118363998D01*
X107713454Y-118400000D01*
X107717000Y-118436001D01*
X107727607Y-118543692D01*
X107769520Y-118681863D01*
X107837584Y-118809202D01*
X107929183Y-118920816D01*
X107957151Y-118943769D01*
X113176232Y-124162851D01*
X113199183Y-124190817D01*
X113310797Y-124282416D01*
X113438136Y-124350480D01*
X113534393Y-124379679D01*
X113576306Y-124392393D01*
X113719999Y-124406546D01*
X113756001Y-124403000D01*
X115746387Y-124403000D01*
X115856335Y-124567548D01*
X116052452Y-124763665D01*
X116283062Y-124917754D01*
X116539301Y-125023892D01*
X116811324Y-125078000D01*
X117088676Y-125078000D01*
X117360699Y-125023892D01*
X117616938Y-124917754D01*
X117847548Y-124763665D01*
X118043665Y-124567548D01*
X118153613Y-124403000D01*
X118286387Y-124403000D01*
X118396335Y-124567548D01*
X118592452Y-124763665D01*
X118823062Y-124917754D01*
X119079301Y-125023892D01*
X119351324Y-125078000D01*
X119628676Y-125078000D01*
X119900699Y-125023892D01*
X120156938Y-124917754D01*
X120387548Y-124763665D01*
X120583665Y-124567548D01*
X120693613Y-124403000D01*
X120826387Y-124403000D01*
X120936335Y-124567548D01*
X121132452Y-124763665D01*
X121363062Y-124917754D01*
X121619301Y-125023892D01*
X121891324Y-125078000D01*
X122168676Y-125078000D01*
X122440699Y-125023892D01*
X122696938Y-124917754D01*
X122927548Y-124763665D01*
X123123665Y-124567548D01*
X123233613Y-124403000D01*
X123366387Y-124403000D01*
X123476335Y-124567548D01*
X123672452Y-124763665D01*
X123903062Y-124917754D01*
X124159301Y-125023892D01*
X124431324Y-125078000D01*
X124708676Y-125078000D01*
X124980699Y-125023892D01*
X125236938Y-124917754D01*
X125467548Y-124763665D01*
X125663665Y-124567548D01*
X125773613Y-124403000D01*
X125906387Y-124403000D01*
X126016335Y-124567548D01*
X126212452Y-124763665D01*
X126443062Y-124917754D01*
X126699301Y-125023892D01*
X126971324Y-125078000D01*
X127248676Y-125078000D01*
X127520699Y-125023892D01*
X127776938Y-124917754D01*
X128007548Y-124763665D01*
X128203665Y-124567548D01*
X128313613Y-124403000D01*
X128446387Y-124403000D01*
X128556335Y-124567548D01*
X128752452Y-124763665D01*
X128983062Y-124917754D01*
X129239301Y-125023892D01*
X129511324Y-125078000D01*
X129788676Y-125078000D01*
X130060699Y-125023892D01*
X130316938Y-124917754D01*
X130547548Y-124763665D01*
X130743665Y-124567548D01*
X130897754Y-124336938D01*
X131003892Y-124080699D01*
X131058000Y-123808676D01*
X131058000Y-123531324D01*
X131003892Y-123259301D01*
X130897754Y-123003062D01*
X130743665Y-122772452D01*
X130547548Y-122576335D01*
X130316938Y-122422246D01*
X130060699Y-122316108D01*
X129788676Y-122262000D01*
X129511324Y-122262000D01*
X129239301Y-122316108D01*
X128983062Y-122422246D01*
X128752452Y-122576335D01*
X128556335Y-122772452D01*
X128446387Y-122937000D01*
X128313613Y-122937000D01*
X128203665Y-122772452D01*
X128007548Y-122576335D01*
X127776938Y-122422246D01*
X127520699Y-122316108D01*
X127248676Y-122262000D01*
X126971324Y-122262000D01*
X126699301Y-122316108D01*
X126443062Y-122422246D01*
X126212452Y-122576335D01*
X126016335Y-122772452D01*
X125906387Y-122937000D01*
X125773613Y-122937000D01*
X125663665Y-122772452D01*
X125467548Y-122576335D01*
X125236938Y-122422246D01*
X124980699Y-122316108D01*
X124708676Y-122262000D01*
X124431324Y-122262000D01*
X124159301Y-122316108D01*
X123903062Y-122422246D01*
X123672452Y-122576335D01*
X123476335Y-122772452D01*
X123366387Y-122937000D01*
X123233613Y-122937000D01*
X123123665Y-122772452D01*
X122927548Y-122576335D01*
X122696938Y-122422246D01*
X122440699Y-122316108D01*
X122168676Y-122262000D01*
X121891324Y-122262000D01*
X121619301Y-122316108D01*
X121363062Y-122422246D01*
X121132452Y-122576335D01*
X120936335Y-122772452D01*
X120826387Y-122937000D01*
X120693613Y-122937000D01*
X120583665Y-122772452D01*
X120387548Y-122576335D01*
X120156938Y-122422246D01*
X119900699Y-122316108D01*
X119628676Y-122262000D01*
X119351324Y-122262000D01*
X119079301Y-122316108D01*
X118823062Y-122422246D01*
X118592452Y-122576335D01*
X118396335Y-122772452D01*
X118286387Y-122937000D01*
X118153613Y-122937000D01*
X118043665Y-122772452D01*
X117847548Y-122576335D01*
X117616938Y-122422246D01*
X117360699Y-122316108D01*
X117088676Y-122262000D01*
X116811324Y-122262000D01*
X116539301Y-122316108D01*
X116283062Y-122422246D01*
X116052452Y-122576335D01*
X115856335Y-122772452D01*
X115746387Y-122937000D01*
X114023619Y-122937000D01*
X109183000Y-118096382D01*
X109183000Y-87686001D01*
X109186546Y-87649999D01*
X109172393Y-87506306D01*
X109146070Y-87419530D01*
X109130480Y-87368136D01*
X109120903Y-87350219D01*
X111469658Y-87350219D01*
X111530749Y-87620045D01*
X111643306Y-87872768D01*
X111803004Y-88098677D01*
X112003706Y-88289089D01*
X112237700Y-88436688D01*
X112498958Y-88533231D01*
X112716000Y-88421523D01*
X112716000Y-87129000D01*
X111611488Y-87129000D01*
X111469658Y-87350219D01*
X109120903Y-87350219D01*
X109108884Y-87327734D01*
X109836837Y-86599781D01*
X111469658Y-86599781D01*
X111611488Y-86821000D01*
X112716000Y-86821000D01*
X112716000Y-85528477D01*
X112498958Y-85416769D01*
X112237700Y-85513312D01*
X112003706Y-85660911D01*
X111803004Y-85851323D01*
X111643306Y-86077232D01*
X111530749Y-86329955D01*
X111469658Y-86599781D01*
X109836837Y-86599781D01*
X116728619Y-79708000D01*
X116799279Y-79708000D01*
X116994023Y-79669263D01*
X117177467Y-79593278D01*
X117217001Y-79566862D01*
X117217000Y-85570284D01*
X117163974Y-85598627D01*
X116949578Y-85774577D01*
X116773627Y-85988973D01*
X116680000Y-86164136D01*
X116586373Y-85988973D01*
X116410423Y-85774577D01*
X116196027Y-85598627D01*
X115951425Y-85467884D01*
X115686016Y-85387373D01*
X115410000Y-85360188D01*
X115133985Y-85387373D01*
X114868576Y-85467884D01*
X114623974Y-85598627D01*
X114409578Y-85774577D01*
X114233627Y-85988973D01*
X114137490Y-86168831D01*
X114096694Y-86077232D01*
X113936996Y-85851323D01*
X113736294Y-85660911D01*
X113502300Y-85513312D01*
X113241042Y-85416769D01*
X113024000Y-85528477D01*
X113024000Y-86821000D01*
X113044000Y-86821000D01*
X113044000Y-87129000D01*
X113024000Y-87129000D01*
X113024000Y-88421523D01*
X113241042Y-88533231D01*
X113502300Y-88436688D01*
X113736294Y-88289089D01*
X113936996Y-88098677D01*
X114096694Y-87872768D01*
X114137491Y-87781168D01*
X114233627Y-87961026D01*
X114409577Y-88175422D01*
X114623973Y-88351373D01*
X114868575Y-88482116D01*
X115133984Y-88562627D01*
X115410000Y-88589812D01*
X115686015Y-88562627D01*
X115802011Y-88527440D01*
X115802010Y-108282560D01*
X115686016Y-108247373D01*
X115410000Y-108220188D01*
X115133985Y-108247373D01*
X114868576Y-108327884D01*
X114623974Y-108458627D01*
X114409578Y-108634577D01*
X114233627Y-108848973D01*
X114140000Y-109024136D01*
X114046373Y-108848973D01*
X113870423Y-108634577D01*
X113656027Y-108458627D01*
X113411425Y-108327884D01*
X113146016Y-108247373D01*
X112870000Y-108220188D01*
X112593985Y-108247373D01*
X112328576Y-108327884D01*
X112083974Y-108458627D01*
X111869578Y-108634577D01*
X111693627Y-108848973D01*
X111562884Y-109093575D01*
X111482373Y-109358984D01*
X111462000Y-109565836D01*
X111462000Y-110104163D01*
X111482373Y-110311015D01*
X111562884Y-110576424D01*
X111693627Y-110821026D01*
X111869577Y-111035422D01*
X112083973Y-111211373D01*
X112328575Y-111342116D01*
X112593984Y-111422627D01*
X112870000Y-111449812D01*
X113146015Y-111422627D01*
X113411424Y-111342116D01*
X113656026Y-111211373D01*
X113870422Y-111035423D01*
X114046373Y-110821027D01*
X114140000Y-110645863D01*
X114233627Y-110821026D01*
X114409577Y-111035422D01*
X114623973Y-111211373D01*
X114868575Y-111342116D01*
X115133984Y-111422627D01*
X115410000Y-111449812D01*
X115686015Y-111422627D01*
X115802010Y-111387440D01*
X115802010Y-115233755D01*
X115702246Y-115383062D01*
X115596108Y-115639301D01*
X115542000Y-115911324D01*
X115542000Y-116188676D01*
X115596108Y-116460699D01*
X115702246Y-116716938D01*
X115856335Y-116947548D01*
X116052452Y-117143665D01*
X116283062Y-117297754D01*
X116539301Y-117403892D01*
X116811324Y-117458000D01*
X117088676Y-117458000D01*
X117360699Y-117403892D01*
X117616938Y-117297754D01*
X117847548Y-117143665D01*
X118043665Y-116947548D01*
X118197754Y-116716938D01*
X118220000Y-116663232D01*
X118242246Y-116716938D01*
X118396335Y-116947548D01*
X118592452Y-117143665D01*
X118823062Y-117297754D01*
X119079301Y-117403892D01*
X119351324Y-117458000D01*
X119628676Y-117458000D01*
X119900699Y-117403892D01*
X120156938Y-117297754D01*
X120387548Y-117143665D01*
X120583665Y-116947548D01*
X120737754Y-116716938D01*
X120760000Y-116663232D01*
X120782246Y-116716938D01*
X120936335Y-116947548D01*
X121132452Y-117143665D01*
X121363062Y-117297754D01*
X121619301Y-117403892D01*
X121891324Y-117458000D01*
X122168676Y-117458000D01*
X122440699Y-117403892D01*
X122696938Y-117297754D01*
X122927548Y-117143665D01*
X123123665Y-116947548D01*
X123277754Y-116716938D01*
X123300000Y-116663232D01*
X123322246Y-116716938D01*
X123476335Y-116947548D01*
X123672452Y-117143665D01*
X123903062Y-117297754D01*
X124159301Y-117403892D01*
X124431324Y-117458000D01*
X124708676Y-117458000D01*
X124980699Y-117403892D01*
X125236938Y-117297754D01*
X125251999Y-117287691D01*
X125251999Y-117548997D01*
X125248453Y-117584999D01*
X125251999Y-117621000D01*
X125262606Y-117728691D01*
X125304519Y-117866862D01*
X125372583Y-117994201D01*
X125464182Y-118105815D01*
X125492150Y-118128768D01*
X126056227Y-118692845D01*
X126079183Y-118720817D01*
X126190797Y-118812416D01*
X126318134Y-118880479D01*
X126318136Y-118880480D01*
X126456306Y-118922393D01*
X126600000Y-118936546D01*
X126636002Y-118933000D01*
X129063998Y-118933000D01*
X129100000Y-118936546D01*
X129243693Y-118922393D01*
X129248892Y-118920816D01*
X129381864Y-118880480D01*
X129509203Y-118812416D01*
X129620817Y-118720817D01*
X129643772Y-118692846D01*
X130142850Y-118193769D01*
X130170817Y-118170817D01*
X130262416Y-118059203D01*
X130330480Y-117931864D01*
X130372393Y-117793693D01*
X130383000Y-117686002D01*
X130386546Y-117650001D01*
X130383000Y-117613999D01*
X130383000Y-117460941D01*
X130450000Y-117460941D01*
X130569189Y-117449202D01*
X130683797Y-117414436D01*
X130789421Y-117357979D01*
X130882001Y-117282001D01*
X130957979Y-117189421D01*
X131014436Y-117083797D01*
X131049202Y-116969189D01*
X131060941Y-116850000D01*
X131060941Y-115250000D01*
X131049202Y-115130811D01*
X131014436Y-115016203D01*
X130957979Y-114910579D01*
X130882001Y-114817999D01*
X130789421Y-114742021D01*
X130683797Y-114685564D01*
X130569189Y-114650798D01*
X130450000Y-114639059D01*
X128850000Y-114639059D01*
X128730811Y-114650798D01*
X128616203Y-114685564D01*
X128510579Y-114742021D01*
X128417999Y-114817999D01*
X128342021Y-114910579D01*
X128285564Y-115016203D01*
X128250798Y-115130811D01*
X128242885Y-115211149D01*
X128203665Y-115152452D01*
X128007548Y-114956335D01*
X127843000Y-114846387D01*
X127843000Y-111423515D01*
X128110000Y-111449812D01*
X128386015Y-111422627D01*
X128651424Y-111342116D01*
X128896026Y-111211373D01*
X129110422Y-111035423D01*
X129286373Y-110821027D01*
X129380000Y-110645863D01*
X129473627Y-110821026D01*
X129649577Y-111035422D01*
X129863973Y-111211373D01*
X130108575Y-111342116D01*
X130373984Y-111422627D01*
X130650000Y-111449812D01*
X130926015Y-111422627D01*
X131191424Y-111342116D01*
X131436026Y-111211373D01*
X131650422Y-111035423D01*
X131826373Y-110821027D01*
X131957116Y-110576425D01*
X132037627Y-110311016D01*
X132058000Y-110104164D01*
X132058000Y-109565837D01*
X132037627Y-109358985D01*
X131957116Y-109093576D01*
X131826373Y-108848973D01*
X131650423Y-108634577D01*
X131436027Y-108458627D01*
X131191425Y-108327884D01*
X130926016Y-108247373D01*
X130650000Y-108220188D01*
X130373985Y-108247373D01*
X130108576Y-108327884D01*
X129863974Y-108458627D01*
X129649578Y-108634577D01*
X129473627Y-108848973D01*
X129380000Y-109024136D01*
X129286373Y-108848973D01*
X129110423Y-108634577D01*
X128896027Y-108458627D01*
X128651425Y-108327884D01*
X128386016Y-108247373D01*
X128110000Y-108220188D01*
X127833985Y-108247373D01*
X127568576Y-108327884D01*
X127323974Y-108458627D01*
X127109578Y-108634577D01*
X126933627Y-108848973D01*
X126840000Y-109024136D01*
X126746373Y-108848973D01*
X126570423Y-108634577D01*
X126356027Y-108458627D01*
X126303000Y-108430283D01*
X126303000Y-89073618D01*
X127163564Y-88213055D01*
X127243706Y-88289089D01*
X127477700Y-88436688D01*
X127738958Y-88533231D01*
X127956000Y-88421523D01*
X127956000Y-87129000D01*
X127936000Y-87129000D01*
X127936000Y-86821000D01*
X127956000Y-86821000D01*
X127956000Y-85528477D01*
X127738958Y-85416769D01*
X127477700Y-85513312D01*
X127428010Y-85544656D01*
X127428010Y-66272010D01*
X127431556Y-66236008D01*
X127417403Y-66092314D01*
X127375490Y-65954144D01*
X127360063Y-65925283D01*
X127307426Y-65826805D01*
X127215827Y-65715191D01*
X127187855Y-65692235D01*
X123602775Y-62107155D01*
X123579819Y-62079183D01*
X123468205Y-61987584D01*
X123340866Y-61919520D01*
X123202695Y-61877607D01*
X123095004Y-61867000D01*
X123059002Y-61863454D01*
X123023000Y-61867000D01*
X122436002Y-61867000D01*
X122400000Y-61863454D01*
X122256306Y-61877607D01*
X122118136Y-61919520D01*
X121990797Y-61987584D01*
X121879183Y-62079183D01*
X121856227Y-62107155D01*
X121336585Y-62626797D01*
X121268797Y-62590563D01*
X121154189Y-62555797D01*
X121035000Y-62544058D01*
X120491000Y-62547000D01*
X120339000Y-62699000D01*
X120339000Y-63851000D01*
X120359000Y-63851000D01*
X120359000Y-64159000D01*
X120339000Y-64159000D01*
X120339000Y-64179000D01*
X120031000Y-64179000D01*
X120031000Y-64159000D01*
X118879000Y-64159000D01*
X118727000Y-64311000D01*
X118724058Y-64855000D01*
X118735797Y-64974189D01*
X118770563Y-65088797D01*
X118827020Y-65194421D01*
X118902999Y-65287001D01*
X118995579Y-65362980D01*
X119101203Y-65419437D01*
X119214324Y-65453752D01*
X119052497Y-65615579D01*
X118892937Y-65854378D01*
X118783030Y-66119717D01*
X118727000Y-66401399D01*
X118727000Y-66688601D01*
X118783030Y-66970283D01*
X118892937Y-67235622D01*
X119052497Y-67474421D01*
X119255579Y-67677503D01*
X119461358Y-67815000D01*
X119255579Y-67952497D01*
X119052497Y-68155579D01*
X118892937Y-68394378D01*
X118783030Y-68659717D01*
X118727000Y-68941399D01*
X118727000Y-69228601D01*
X118783030Y-69510283D01*
X118892937Y-69775622D01*
X119052497Y-70014421D01*
X119255579Y-70217503D01*
X119461358Y-70355000D01*
X119255579Y-70492497D01*
X119052497Y-70695579D01*
X118892937Y-70934378D01*
X118783030Y-71199717D01*
X118727000Y-71481399D01*
X118727000Y-71768601D01*
X118783030Y-72050283D01*
X118892937Y-72315622D01*
X119052497Y-72554421D01*
X119255579Y-72757503D01*
X119461358Y-72895000D01*
X119255579Y-73032497D01*
X119052497Y-73235579D01*
X118892937Y-73474378D01*
X118783030Y-73739717D01*
X118727000Y-74021399D01*
X118727000Y-74308601D01*
X118773087Y-74540295D01*
X117457150Y-75856232D01*
X117429184Y-75879183D01*
X117337585Y-75990797D01*
X117269521Y-76118136D01*
X117227607Y-76256307D01*
X117213454Y-76400000D01*
X117217001Y-76436012D01*
X117217001Y-77833138D01*
X117177467Y-77806722D01*
X116994023Y-77730737D01*
X116799279Y-77692000D01*
X116600721Y-77692000D01*
X116405977Y-77730737D01*
X116222533Y-77806722D01*
X116057438Y-77917035D01*
X115917035Y-78057438D01*
X115806722Y-78222533D01*
X115730737Y-78405977D01*
X115692000Y-78600721D01*
X115692000Y-78671381D01*
X108196382Y-86167000D01*
X107736002Y-86167000D01*
X107700000Y-86163454D01*
X107663998Y-86167000D01*
X103719618Y-86167000D01*
X111639059Y-78247560D01*
X111639059Y-78400000D01*
X111655121Y-78563084D01*
X111702691Y-78719901D01*
X111779940Y-78864424D01*
X111811469Y-78902843D01*
X111792000Y-79000721D01*
X111792000Y-79199279D01*
X111830737Y-79394023D01*
X111906722Y-79577467D01*
X112017035Y-79742562D01*
X112157438Y-79882965D01*
X112322533Y-79993278D01*
X112505977Y-80069263D01*
X112700721Y-80108000D01*
X112899279Y-80108000D01*
X113094023Y-80069263D01*
X113277467Y-79993278D01*
X113442562Y-79882965D01*
X113582965Y-79742562D01*
X113693278Y-79577467D01*
X113769263Y-79394023D01*
X113808000Y-79199279D01*
X113808000Y-79000721D01*
X113769263Y-78805977D01*
X113739591Y-78734341D01*
X113747309Y-78719901D01*
X113794879Y-78563084D01*
X113810941Y-78400000D01*
X113810941Y-77950000D01*
X113794879Y-77786916D01*
X113747309Y-77630099D01*
X113670060Y-77485576D01*
X113599830Y-77400000D01*
X113670060Y-77314424D01*
X113747309Y-77169901D01*
X113794879Y-77013084D01*
X113810941Y-76850000D01*
X113810941Y-76400000D01*
X113794879Y-76236916D01*
X113747309Y-76080099D01*
X113670060Y-75935576D01*
X113625177Y-75880886D01*
X113653314Y-75865846D01*
X113783778Y-75758778D01*
X113890846Y-75628314D01*
X113970406Y-75479468D01*
X114019398Y-75317962D01*
X114035941Y-75150001D01*
X114035941Y-74449999D01*
X114019398Y-74282038D01*
X113970406Y-74120532D01*
X113890846Y-73971686D01*
X113783778Y-73841222D01*
X113733548Y-73800000D01*
X113783778Y-73758778D01*
X113890846Y-73628314D01*
X113970406Y-73479468D01*
X114019398Y-73317962D01*
X114035941Y-73150001D01*
X114035941Y-72449999D01*
X114019398Y-72282038D01*
X113970406Y-72120532D01*
X113890846Y-71971686D01*
X113783778Y-71841222D01*
X113653314Y-71734154D01*
X113504468Y-71654594D01*
X113458000Y-71640498D01*
X113458000Y-65161004D01*
X113461546Y-65125000D01*
X113447394Y-64981307D01*
X113405480Y-64843136D01*
X113387265Y-64809059D01*
X113337416Y-64715797D01*
X113245816Y-64604183D01*
X113217850Y-64581232D01*
X111791618Y-63155000D01*
X118724058Y-63155000D01*
X118727000Y-63699000D01*
X118879000Y-63851000D01*
X120031000Y-63851000D01*
X120031000Y-62699000D01*
X119879000Y-62547000D01*
X119335000Y-62544058D01*
X119215811Y-62555797D01*
X119101203Y-62590563D01*
X118995579Y-62647020D01*
X118902999Y-62722999D01*
X118827020Y-62815579D01*
X118770563Y-62921203D01*
X118735797Y-63035811D01*
X118724058Y-63155000D01*
X111791618Y-63155000D01*
X107608457Y-58971839D01*
X107657001Y-58932001D01*
X107732979Y-58839421D01*
X107789436Y-58733797D01*
X107824202Y-58619189D01*
X107835941Y-58500000D01*
X107835941Y-58356399D01*
X108067000Y-58356399D01*
X108067000Y-58643601D01*
X108123030Y-58925283D01*
X108232937Y-59190622D01*
X108392497Y-59429421D01*
X108595579Y-59632503D01*
X108834378Y-59792063D01*
X109099717Y-59901970D01*
X109381399Y-59958000D01*
X109668601Y-59958000D01*
X109950283Y-59901970D01*
X110215622Y-59792063D01*
X110454421Y-59632503D01*
X110657503Y-59429421D01*
X110817063Y-59190622D01*
X110926970Y-58925283D01*
X110983000Y-58643601D01*
X110983000Y-58356399D01*
X110971782Y-58300000D01*
X111214059Y-58300000D01*
X111214059Y-60500000D01*
X111225798Y-60619189D01*
X111260564Y-60733797D01*
X111317021Y-60839421D01*
X111392999Y-60932001D01*
X111485579Y-61007979D01*
X111591203Y-61064436D01*
X111705811Y-61099202D01*
X111825000Y-61110941D01*
X114625000Y-61110941D01*
X114744189Y-61099202D01*
X114858797Y-61064436D01*
X114964421Y-61007979D01*
X115057001Y-60932001D01*
X115132979Y-60839421D01*
X115189436Y-60733797D01*
X115224202Y-60619189D01*
X115235941Y-60500000D01*
X115235941Y-58300000D01*
X115224202Y-58180811D01*
X115189436Y-58066203D01*
X115132979Y-57960579D01*
X115057001Y-57867999D01*
X114964421Y-57792021D01*
X114858797Y-57735564D01*
X114744189Y-57700798D01*
X114625000Y-57689059D01*
X111825000Y-57689059D01*
X111705811Y-57700798D01*
X111591203Y-57735564D01*
X111485579Y-57792021D01*
X111392999Y-57867999D01*
X111317021Y-57960579D01*
X111260564Y-58066203D01*
X111225798Y-58180811D01*
X111214059Y-58300000D01*
X110971782Y-58300000D01*
X110926970Y-58074717D01*
X110817063Y-57809378D01*
X110657503Y-57570579D01*
X110454421Y-57367497D01*
X110215622Y-57207937D01*
X109950283Y-57098030D01*
X109668601Y-57042000D01*
X109381399Y-57042000D01*
X109099717Y-57098030D01*
X108834378Y-57207937D01*
X108595579Y-57367497D01*
X108392497Y-57570579D01*
X108232937Y-57809378D01*
X108123030Y-58074717D01*
X108067000Y-58356399D01*
X107835941Y-58356399D01*
X107835941Y-56300000D01*
X107824202Y-56180811D01*
X107789436Y-56066203D01*
X107771689Y-56033000D01*
X132100000Y-56033000D01*
X132100000Y-85564931D01*
G37*
G04 #@! TD.AperFunction*
D31*
X95897000Y-89344770D02*
X95897001Y-91527472D01*
X95847035Y-91577438D01*
X95736722Y-91742533D01*
X95660737Y-91925977D01*
X95622000Y-92120721D01*
X95622000Y-92319279D01*
X95660737Y-92514023D01*
X95736722Y-92697467D01*
X95847035Y-92862562D01*
X95987438Y-93002965D01*
X96152533Y-93113278D01*
X96335977Y-93189263D01*
X96530721Y-93228000D01*
X96729279Y-93228000D01*
X96924023Y-93189263D01*
X97107467Y-93113278D01*
X97272562Y-93002965D01*
X97412965Y-92862562D01*
X97523278Y-92697467D01*
X97599263Y-92514023D01*
X97603813Y-92491148D01*
X97649023Y-92482155D01*
X97832467Y-92406170D01*
X97997562Y-92295857D01*
X98137965Y-92155454D01*
X98248278Y-91990359D01*
X98324263Y-91806915D01*
X98332138Y-91767326D01*
X98345580Y-91764652D01*
X98469059Y-91713505D01*
X98469059Y-91820000D01*
X98480798Y-91939189D01*
X98482561Y-91945000D01*
X98480798Y-91950811D01*
X98469059Y-92070000D01*
X98469059Y-92320000D01*
X98480798Y-92439189D01*
X98482561Y-92445000D01*
X98480798Y-92450811D01*
X98469059Y-92570000D01*
X98469059Y-92820000D01*
X98480798Y-92939189D01*
X98482561Y-92945000D01*
X98480798Y-92950811D01*
X98469059Y-93070000D01*
X98469059Y-93320000D01*
X98480798Y-93439189D01*
X98482561Y-93445000D01*
X98480798Y-93450811D01*
X98469059Y-93570000D01*
X98469059Y-93820000D01*
X98480798Y-93939189D01*
X98482561Y-93945000D01*
X98480798Y-93950811D01*
X98469059Y-94070000D01*
X98469059Y-94320000D01*
X98480798Y-94439189D01*
X98482561Y-94445000D01*
X98480798Y-94450811D01*
X98469059Y-94570000D01*
X98469059Y-94820000D01*
X98480798Y-94939189D01*
X98482561Y-94945000D01*
X98480798Y-94950811D01*
X98469059Y-95070000D01*
X98469059Y-95320000D01*
X98480798Y-95439189D01*
X98515564Y-95553797D01*
X98546300Y-95611300D01*
X98488797Y-95580564D01*
X98374189Y-95545798D01*
X98255000Y-95534059D01*
X98005000Y-95534059D01*
X97885811Y-95545798D01*
X97880000Y-95547561D01*
X97874189Y-95545798D01*
X97755000Y-95534059D01*
X97505000Y-95534059D01*
X97385811Y-95545798D01*
X97380000Y-95547561D01*
X97374189Y-95545798D01*
X97255000Y-95534059D01*
X97005000Y-95534059D01*
X96885811Y-95545798D01*
X96880000Y-95547561D01*
X96874189Y-95545798D01*
X96755000Y-95534059D01*
X96701082Y-95534059D01*
X96708000Y-95499279D01*
X96708000Y-95300721D01*
X96669263Y-95105977D01*
X96593278Y-94922533D01*
X96482965Y-94757438D01*
X96342562Y-94617035D01*
X96177467Y-94506722D01*
X95994023Y-94430737D01*
X95799279Y-94392000D01*
X95600721Y-94392000D01*
X95405977Y-94430737D01*
X95363000Y-94448539D01*
X95363000Y-91971000D01*
X95366546Y-91934998D01*
X95352393Y-91791304D01*
X95310480Y-91653134D01*
X95292513Y-91619520D01*
X95242416Y-91525795D01*
X95150816Y-91414181D01*
X95122850Y-91391230D01*
X93087561Y-89355941D01*
X93255000Y-89355941D01*
X93374189Y-89344202D01*
X93380000Y-89342439D01*
X93385811Y-89344202D01*
X93505000Y-89355941D01*
X93755000Y-89355941D01*
X93874189Y-89344202D01*
X93880000Y-89342439D01*
X93885811Y-89344202D01*
X94005000Y-89355941D01*
X94255000Y-89355941D01*
X94374189Y-89344202D01*
X94380000Y-89342439D01*
X94385811Y-89344202D01*
X94505000Y-89355941D01*
X94755000Y-89355941D01*
X94874189Y-89344202D01*
X94880000Y-89342439D01*
X94885811Y-89344202D01*
X95005000Y-89355941D01*
X95255000Y-89355941D01*
X95374189Y-89344202D01*
X95380000Y-89342439D01*
X95385811Y-89344202D01*
X95505000Y-89355941D01*
X95755000Y-89355941D01*
X95874189Y-89344202D01*
X95880372Y-89342326D01*
X95897000Y-89344770D01*
G04 #@! TA.AperFunction,Conductor*
D32*
G36*
X95897000Y-89344770D02*
G01*
X95897001Y-91527472D01*
X95847035Y-91577438D01*
X95736722Y-91742533D01*
X95660737Y-91925977D01*
X95622000Y-92120721D01*
X95622000Y-92319279D01*
X95660737Y-92514023D01*
X95736722Y-92697467D01*
X95847035Y-92862562D01*
X95987438Y-93002965D01*
X96152533Y-93113278D01*
X96335977Y-93189263D01*
X96530721Y-93228000D01*
X96729279Y-93228000D01*
X96924023Y-93189263D01*
X97107467Y-93113278D01*
X97272562Y-93002965D01*
X97412965Y-92862562D01*
X97523278Y-92697467D01*
X97599263Y-92514023D01*
X97603813Y-92491148D01*
X97649023Y-92482155D01*
X97832467Y-92406170D01*
X97997562Y-92295857D01*
X98137965Y-92155454D01*
X98248278Y-91990359D01*
X98324263Y-91806915D01*
X98332138Y-91767326D01*
X98345580Y-91764652D01*
X98469059Y-91713505D01*
X98469059Y-91820000D01*
X98480798Y-91939189D01*
X98482561Y-91945000D01*
X98480798Y-91950811D01*
X98469059Y-92070000D01*
X98469059Y-92320000D01*
X98480798Y-92439189D01*
X98482561Y-92445000D01*
X98480798Y-92450811D01*
X98469059Y-92570000D01*
X98469059Y-92820000D01*
X98480798Y-92939189D01*
X98482561Y-92945000D01*
X98480798Y-92950811D01*
X98469059Y-93070000D01*
X98469059Y-93320000D01*
X98480798Y-93439189D01*
X98482561Y-93445000D01*
X98480798Y-93450811D01*
X98469059Y-93570000D01*
X98469059Y-93820000D01*
X98480798Y-93939189D01*
X98482561Y-93945000D01*
X98480798Y-93950811D01*
X98469059Y-94070000D01*
X98469059Y-94320000D01*
X98480798Y-94439189D01*
X98482561Y-94445000D01*
X98480798Y-94450811D01*
X98469059Y-94570000D01*
X98469059Y-94820000D01*
X98480798Y-94939189D01*
X98482561Y-94945000D01*
X98480798Y-94950811D01*
X98469059Y-95070000D01*
X98469059Y-95320000D01*
X98480798Y-95439189D01*
X98515564Y-95553797D01*
X98546300Y-95611300D01*
X98488797Y-95580564D01*
X98374189Y-95545798D01*
X98255000Y-95534059D01*
X98005000Y-95534059D01*
X97885811Y-95545798D01*
X97880000Y-95547561D01*
X97874189Y-95545798D01*
X97755000Y-95534059D01*
X97505000Y-95534059D01*
X97385811Y-95545798D01*
X97380000Y-95547561D01*
X97374189Y-95545798D01*
X97255000Y-95534059D01*
X97005000Y-95534059D01*
X96885811Y-95545798D01*
X96880000Y-95547561D01*
X96874189Y-95545798D01*
X96755000Y-95534059D01*
X96701082Y-95534059D01*
X96708000Y-95499279D01*
X96708000Y-95300721D01*
X96669263Y-95105977D01*
X96593278Y-94922533D01*
X96482965Y-94757438D01*
X96342562Y-94617035D01*
X96177467Y-94506722D01*
X95994023Y-94430737D01*
X95799279Y-94392000D01*
X95600721Y-94392000D01*
X95405977Y-94430737D01*
X95363000Y-94448539D01*
X95363000Y-91971000D01*
X95366546Y-91934998D01*
X95352393Y-91791304D01*
X95310480Y-91653134D01*
X95292513Y-91619520D01*
X95242416Y-91525795D01*
X95150816Y-91414181D01*
X95122850Y-91391230D01*
X93087561Y-89355941D01*
X93255000Y-89355941D01*
X93374189Y-89344202D01*
X93380000Y-89342439D01*
X93385811Y-89344202D01*
X93505000Y-89355941D01*
X93755000Y-89355941D01*
X93874189Y-89344202D01*
X93880000Y-89342439D01*
X93885811Y-89344202D01*
X94005000Y-89355941D01*
X94255000Y-89355941D01*
X94374189Y-89344202D01*
X94380000Y-89342439D01*
X94385811Y-89344202D01*
X94505000Y-89355941D01*
X94755000Y-89355941D01*
X94874189Y-89344202D01*
X94880000Y-89342439D01*
X94885811Y-89344202D01*
X95005000Y-89355941D01*
X95255000Y-89355941D01*
X95374189Y-89344202D01*
X95380000Y-89342439D01*
X95385811Y-89344202D01*
X95505000Y-89355941D01*
X95755000Y-89355941D01*
X95874189Y-89344202D01*
X95880372Y-89342326D01*
X95897000Y-89344770D01*
G37*
G04 #@! TD.AperFunction*
M02*
