%FSLAX45Y45*%
G04 Gerber Fmt 4.5, Leading zero omitted, Abs format (unit mm)*
G04 Created by KiCad (PCBNEW (5.1.10)-1) date 2021-08-26 19:55:00*
%MOMM*%
%LPD*%
G01*
G04 APERTURE LIST*
%TA.AperFunction,Profile*%
%ADD10C,0.050000*%
%TD*%
%ADD11C,0.200000*%
%ADD12C,0.300000*%
G04 APERTURE END LIST*
D10*
X13920000Y-13940000D02*
X13120000Y-13940000D01*
X13920000Y-5540000D02*
X13920000Y-13940000D01*
X13220000Y-5540000D02*
X13920000Y-5540000D01*
X13220000Y-5540000D02*
X8320000Y-5540000D01*
X4420000Y-13940000D02*
X13220000Y-13940000D01*
X4420000Y-13640000D02*
X4420000Y-13940000D01*
X4420000Y-8940000D02*
X4420000Y-13640000D01*
X4420000Y-5540000D02*
X4420000Y-8940000D01*
X4520000Y-5540000D02*
X4420000Y-5540000D01*
X4720000Y-5540000D02*
X4520000Y-5540000D01*
X7620000Y-5540000D02*
X4720000Y-5540000D01*
X8920000Y-5540000D02*
X7620000Y-5540000D01*
D11*
X4972500Y-9212500D02*
X5012500Y-9252500D01*
X5012500Y-9212500D02*
X4972500Y-9252500D01*
X5425000Y-9095000D02*
X5465000Y-9135000D01*
X5465000Y-9095000D02*
X5425000Y-9135000D01*
X5600000Y-8970000D02*
X5640000Y-9010000D01*
X5640000Y-8970000D02*
X5600000Y-9010000D01*
X7450000Y-7120000D02*
X7490000Y-7160000D01*
X7490000Y-7120000D02*
X7450000Y-7160000D01*
X7450000Y-7545000D02*
X7490000Y-7585000D01*
X7490000Y-7545000D02*
X7450000Y-7585000D01*
X7450000Y-7945000D02*
X7490000Y-7985000D01*
X7490000Y-7945000D02*
X7450000Y-7985000D01*
X7475000Y-7745000D02*
X7515000Y-7785000D01*
X7515000Y-7745000D02*
X7475000Y-7785000D01*
X7500000Y-6920000D02*
X7540000Y-6960000D01*
X7540000Y-6920000D02*
X7500000Y-6960000D01*
X7500000Y-7345000D02*
X7540000Y-7385000D01*
X7540000Y-7345000D02*
X7500000Y-7385000D01*
X8250000Y-7920000D02*
X8290000Y-7960000D01*
X8290000Y-7920000D02*
X8250000Y-7960000D01*
X8340000Y-9450000D02*
X8380000Y-9490000D01*
X8380000Y-9450000D02*
X8340000Y-9490000D01*
X8350000Y-9210000D02*
X8390000Y-9250000D01*
X8390000Y-9210000D02*
X8350000Y-9250000D01*
X8370000Y-8980000D02*
X8410000Y-9020000D01*
X8410000Y-8980000D02*
X8370000Y-9020000D01*
X8575000Y-7495000D02*
X8615000Y-7535000D01*
X8615000Y-7495000D02*
X8575000Y-7535000D01*
X8750000Y-9022000D02*
X8790000Y-9062000D01*
X8790000Y-9022000D02*
X8750000Y-9062000D01*
X8750000Y-9122000D02*
X8790000Y-9162000D01*
X8790000Y-9122000D02*
X8750000Y-9162000D01*
X8775000Y-9420000D02*
X8815000Y-9460000D01*
X8815000Y-9420000D02*
X8775000Y-9460000D01*
X8781346Y-9300215D02*
X8821346Y-9340215D01*
X8821346Y-9300215D02*
X8781346Y-9340215D01*
X8813353Y-9205476D02*
X8853353Y-9245476D01*
X8853353Y-9205476D02*
X8813353Y-9245476D01*
X8852500Y-8122500D02*
X8892500Y-8162500D01*
X8892500Y-8122500D02*
X8852500Y-8162500D01*
X8866382Y-9372526D02*
X8906382Y-9412526D01*
X8906382Y-9372526D02*
X8866382Y-9412526D01*
X8868415Y-9122000D02*
X8908415Y-9162000D01*
X8908415Y-9122000D02*
X8868415Y-9162000D01*
X8875000Y-8270000D02*
X8915000Y-8310000D01*
X8915000Y-8270000D02*
X8875000Y-8310000D01*
X8925000Y-7920000D02*
X8965000Y-7960000D01*
X8965000Y-7920000D02*
X8925000Y-7960000D01*
X8950000Y-10260000D02*
X8990000Y-10300000D01*
X8990000Y-10260000D02*
X8950000Y-10300000D01*
X9038765Y-8508765D02*
X9078765Y-8548765D01*
X9078765Y-8508765D02*
X9038765Y-8548765D01*
X9050000Y-10745000D02*
X9090000Y-10785000D01*
X9090000Y-10745000D02*
X9050000Y-10785000D01*
X9075000Y-8395000D02*
X9115000Y-8435000D01*
X9115000Y-8395000D02*
X9075000Y-8435000D01*
X9075000Y-9570000D02*
X9115000Y-9610000D01*
X9115000Y-9570000D02*
X9075000Y-9610000D01*
X9133515Y-8761485D02*
X9173515Y-8801485D01*
X9173515Y-8761485D02*
X9133515Y-8801485D01*
X9150000Y-8645000D02*
X9190000Y-8685000D01*
X9190000Y-8645000D02*
X9150000Y-8685000D01*
X9243485Y-9076515D02*
X9283485Y-9116515D01*
X9283485Y-9076515D02*
X9243485Y-9116515D01*
X9250000Y-9220000D02*
X9290000Y-9260000D01*
X9290000Y-9220000D02*
X9250000Y-9260000D01*
X9250000Y-10745000D02*
X9290000Y-10785000D01*
X9290000Y-10745000D02*
X9250000Y-10785000D01*
X9350000Y-8090000D02*
X9390000Y-8130000D01*
X9390000Y-8090000D02*
X9350000Y-8130000D01*
X9375000Y-10270000D02*
X9415000Y-10310000D01*
X9415000Y-10270000D02*
X9375000Y-10310000D01*
X9420500Y-8620000D02*
X9460500Y-8660000D01*
X9460500Y-8620000D02*
X9420500Y-8660000D01*
X9430000Y-7900000D02*
X9470000Y-7940000D01*
X9470000Y-7900000D02*
X9430000Y-7940000D01*
X9475000Y-10745000D02*
X9515000Y-10785000D01*
X9515000Y-10745000D02*
X9475000Y-10785000D01*
X9550000Y-9520000D02*
X9590000Y-9560000D01*
X9590000Y-9520000D02*
X9550000Y-9560000D01*
X9560000Y-8090000D02*
X9600000Y-8130000D01*
X9600000Y-8090000D02*
X9560000Y-8130000D01*
X9643000Y-9202000D02*
X9683000Y-9242000D01*
X9683000Y-9202000D02*
X9643000Y-9242000D01*
X9715500Y-9131289D02*
X9755500Y-9171289D01*
X9755500Y-9131289D02*
X9715500Y-9171289D01*
X9730000Y-9490000D02*
X9770000Y-9530000D01*
X9770000Y-9490000D02*
X9730000Y-9530000D01*
X9750000Y-7480000D02*
X9790000Y-7520000D01*
X9790000Y-7480000D02*
X9750000Y-7520000D01*
X9785156Y-9059539D02*
X9825156Y-9099539D01*
X9825156Y-9059539D02*
X9785156Y-9099539D01*
X9850000Y-8595000D02*
X9890000Y-8635000D01*
X9890000Y-8595000D02*
X9850000Y-8635000D01*
X9910000Y-9660000D02*
X9950000Y-9700000D01*
X9950000Y-9660000D02*
X9910000Y-9700000D01*
X9925000Y-8520000D02*
X9965000Y-8560000D01*
X9965000Y-8520000D02*
X9925000Y-8560000D01*
X10050000Y-8895000D02*
X10090000Y-8935000D01*
X10090000Y-8895000D02*
X10050000Y-8935000D01*
X10090000Y-7930000D02*
X10130000Y-7970000D01*
X10130000Y-7930000D02*
X10090000Y-7970000D01*
X10100000Y-8970000D02*
X10140000Y-9010000D01*
X10140000Y-8970000D02*
X10100000Y-9010000D01*
X10100000Y-9172000D02*
X10140000Y-9212000D01*
X10140000Y-9172000D02*
X10100000Y-9212000D01*
X10520000Y-9140000D02*
X10560000Y-9180000D01*
X10560000Y-9140000D02*
X10520000Y-9180000D01*
X10590000Y-7910000D02*
X10630000Y-7950000D01*
X10630000Y-7910000D02*
X10590000Y-7950000D01*
X10650000Y-8850000D02*
X10690000Y-8890000D01*
X10690000Y-8850000D02*
X10650000Y-8890000D01*
X10920000Y-7460000D02*
X10960000Y-7500000D01*
X10960000Y-7460000D02*
X10920000Y-7500000D01*
X11260000Y-7890000D02*
X11300000Y-7930000D01*
X11300000Y-7890000D02*
X11260000Y-7930000D01*
X11650000Y-7850000D02*
X11690000Y-7890000D01*
X11690000Y-7850000D02*
X11650000Y-7890000D01*
X11750000Y-9420000D02*
X11790000Y-9460000D01*
X11790000Y-9420000D02*
X11750000Y-9460000D01*
X12025000Y-9320000D02*
X12065000Y-9360000D01*
X12065000Y-9320000D02*
X12025000Y-9360000D01*
X12150000Y-8090000D02*
X12190000Y-8130000D01*
X12190000Y-8090000D02*
X12150000Y-8130000D01*
X12280000Y-9250000D02*
X12320000Y-9290000D01*
X12320000Y-9250000D02*
X12280000Y-9290000D01*
X12300000Y-8020000D02*
X12340000Y-8060000D01*
X12340000Y-8020000D02*
X12300000Y-8060000D01*
X7142500Y-8860000D02*
G75*
G03*
X7142500Y-8860000I-30000J0D01*
G01*
X7142500Y-9640000D02*
G75*
G03*
X7142500Y-9640000I-30000J0D01*
G01*
X7142500Y-10420000D02*
G75*
G03*
X7142500Y-10420000I-30000J0D01*
G01*
X7142500Y-11200000D02*
G75*
G03*
X7142500Y-11200000I-30000J0D01*
G01*
X7322500Y-8360000D02*
G75*
G03*
X7322500Y-8360000I-30000J0D01*
G01*
X7322500Y-9140000D02*
G75*
G03*
X7322500Y-9140000I-30000J0D01*
G01*
X7322500Y-9920000D02*
G75*
G03*
X7322500Y-9920000I-30000J0D01*
G01*
X7322500Y-10700000D02*
G75*
G03*
X7322500Y-10700000I-30000J0D01*
G01*
X10420000Y-11822000D02*
X10420000Y-11898000D01*
X10382000Y-11860000D02*
X10458000Y-11860000D01*
X10420000Y-12582000D02*
X10420000Y-12658000D01*
X10382000Y-12620000D02*
X10458000Y-12620000D01*
X7648284Y-11888284D02*
X7648284Y-11831715D01*
X7591715Y-11831715D01*
X7591715Y-11888284D01*
X7648284Y-11888284D01*
X7648284Y-13408284D02*
X7648284Y-13351715D01*
X7591715Y-13351715D01*
X7591715Y-13408284D01*
X7648284Y-13408284D01*
X11723284Y-11633284D02*
X11723284Y-11576715D01*
X11666715Y-11576715D01*
X11666715Y-11633284D01*
X11723284Y-11633284D01*
X11723284Y-12395284D02*
X11723284Y-12338715D01*
X11666715Y-12338715D01*
X11666715Y-12395284D01*
X11723284Y-12395284D01*
X11977284Y-11633284D02*
X11977284Y-11576715D01*
X11920715Y-11576715D01*
X11920715Y-11633284D01*
X11977284Y-11633284D01*
X11977284Y-12395284D02*
X11977284Y-12338715D01*
X11920715Y-12338715D01*
X11920715Y-12395284D01*
X11977284Y-12395284D01*
X12231284Y-11633284D02*
X12231284Y-11576715D01*
X12174715Y-11576715D01*
X12174715Y-11633284D01*
X12231284Y-11633284D01*
X12231284Y-12395284D02*
X12231284Y-12338715D01*
X12174715Y-12338715D01*
X12174715Y-12395284D01*
X12231284Y-12395284D01*
X12485284Y-11633284D02*
X12485284Y-11576715D01*
X12428715Y-11576715D01*
X12428715Y-11633284D01*
X12485284Y-11633284D01*
X12485284Y-12395284D02*
X12485284Y-12338715D01*
X12428715Y-12338715D01*
X12428715Y-12395284D01*
X12485284Y-12395284D01*
X12739284Y-11633284D02*
X12739284Y-11576715D01*
X12682715Y-11576715D01*
X12682715Y-11633284D01*
X12739284Y-11633284D01*
X12739284Y-12395284D02*
X12739284Y-12338715D01*
X12682715Y-12338715D01*
X12682715Y-12395284D01*
X12739284Y-12395284D01*
X12993284Y-11633284D02*
X12993284Y-11576715D01*
X12936715Y-11576715D01*
X12936715Y-11633284D01*
X12993284Y-11633284D01*
X12993284Y-12395284D02*
X12993284Y-12338715D01*
X12936715Y-12338715D01*
X12936715Y-12395284D01*
X12993284Y-12395284D01*
X6612500Y-9928000D02*
X6662500Y-9878000D01*
X6612500Y-9828000D01*
X6562500Y-9878000D01*
X6612500Y-9928000D01*
X6612500Y-10182000D02*
X6662500Y-10132000D01*
X6612500Y-10082000D01*
X6562500Y-10132000D01*
X6612500Y-10182000D01*
X6612500Y-10436000D02*
X6662500Y-10386000D01*
X6612500Y-10336000D01*
X6562500Y-10386000D01*
X6612500Y-10436000D01*
X6612500Y-10690000D02*
X6662500Y-10640000D01*
X6612500Y-10590000D01*
X6562500Y-10640000D01*
X6612500Y-10690000D01*
X6920000Y-11890000D02*
X6970000Y-11840000D01*
X6920000Y-11790000D01*
X6870000Y-11840000D01*
X6920000Y-11890000D01*
X6920000Y-12890000D02*
X6970000Y-12840000D01*
X6920000Y-12790000D01*
X6870000Y-12840000D01*
X6920000Y-12890000D01*
X11287000Y-8747500D02*
X11337000Y-8697500D01*
X11287000Y-8647500D01*
X11237000Y-8697500D01*
X11287000Y-8747500D01*
X11287000Y-11033500D02*
X11337000Y-10983500D01*
X11287000Y-10933500D01*
X11237000Y-10983500D01*
X11287000Y-11033500D01*
X11410000Y-12980000D02*
X11460000Y-12930000D01*
X11410000Y-12880000D01*
X11360000Y-12930000D01*
X11410000Y-12980000D01*
X11410000Y-13480000D02*
X11460000Y-13430000D01*
X11410000Y-13380000D01*
X11360000Y-13430000D01*
X11410000Y-13480000D01*
X11541000Y-8747500D02*
X11591000Y-8697500D01*
X11541000Y-8647500D01*
X11491000Y-8697500D01*
X11541000Y-8747500D01*
X11541000Y-11033500D02*
X11591000Y-10983500D01*
X11541000Y-10933500D01*
X11491000Y-10983500D01*
X11541000Y-11033500D01*
X11795000Y-8747500D02*
X11845000Y-8697500D01*
X11795000Y-8647500D01*
X11745000Y-8697500D01*
X11795000Y-8747500D01*
X11795000Y-11033500D02*
X11845000Y-10983500D01*
X11795000Y-10933500D01*
X11745000Y-10983500D01*
X11795000Y-11033500D01*
X12018500Y-6450500D02*
X12068500Y-6400500D01*
X12018500Y-6350500D01*
X11968500Y-6400500D01*
X12018500Y-6450500D01*
X12018500Y-6704500D02*
X12068500Y-6654500D01*
X12018500Y-6604500D01*
X11968500Y-6654500D01*
X12018500Y-6704500D01*
X12018500Y-6958500D02*
X12068500Y-6908500D01*
X12018500Y-6858500D01*
X11968500Y-6908500D01*
X12018500Y-6958500D01*
X12018500Y-7212500D02*
X12068500Y-7162500D01*
X12018500Y-7112500D01*
X11968500Y-7162500D01*
X12018500Y-7212500D01*
X12018500Y-7466500D02*
X12068500Y-7416500D01*
X12018500Y-7366500D01*
X11968500Y-7416500D01*
X12018500Y-7466500D01*
X12018500Y-7720500D02*
X12068500Y-7670500D01*
X12018500Y-7620500D01*
X11968500Y-7670500D01*
X12018500Y-7720500D01*
X12049000Y-8747500D02*
X12099000Y-8697500D01*
X12049000Y-8647500D01*
X11999000Y-8697500D01*
X12049000Y-8747500D01*
X12049000Y-11033500D02*
X12099000Y-10983500D01*
X12049000Y-10933500D01*
X11999000Y-10983500D01*
X12049000Y-11033500D01*
X12272500Y-6450500D02*
X12322500Y-6400500D01*
X12272500Y-6350500D01*
X12222500Y-6400500D01*
X12272500Y-6450500D01*
X12272500Y-6704500D02*
X12322500Y-6654500D01*
X12272500Y-6604500D01*
X12222500Y-6654500D01*
X12272500Y-6704500D01*
X12272500Y-6958500D02*
X12322500Y-6908500D01*
X12272500Y-6858500D01*
X12222500Y-6908500D01*
X12272500Y-6958500D01*
X12272500Y-7212500D02*
X12322500Y-7162500D01*
X12272500Y-7112500D01*
X12222500Y-7162500D01*
X12272500Y-7212500D01*
X12272500Y-7466500D02*
X12322500Y-7416500D01*
X12272500Y-7366500D01*
X12222500Y-7416500D01*
X12272500Y-7466500D01*
X12272500Y-7720500D02*
X12322500Y-7670500D01*
X12272500Y-7620500D01*
X12222500Y-7670500D01*
X12272500Y-7720500D01*
X12303000Y-8747500D02*
X12353000Y-8697500D01*
X12303000Y-8647500D01*
X12253000Y-8697500D01*
X12303000Y-8747500D01*
X12303000Y-11033500D02*
X12353000Y-10983500D01*
X12303000Y-10933500D01*
X12253000Y-10983500D01*
X12303000Y-11033500D01*
X12557000Y-8747500D02*
X12607000Y-8697500D01*
X12557000Y-8647500D01*
X12507000Y-8697500D01*
X12557000Y-8747500D01*
X12557000Y-11033500D02*
X12607000Y-10983500D01*
X12557000Y-10933500D01*
X12507000Y-10983500D01*
X12557000Y-11033500D01*
X12811000Y-8747500D02*
X12861000Y-8697500D01*
X12811000Y-8647500D01*
X12761000Y-8697500D01*
X12811000Y-8747500D01*
X12811000Y-11033500D02*
X12861000Y-10983500D01*
X12811000Y-10933500D01*
X12761000Y-10983500D01*
X12811000Y-11033500D01*
X13065000Y-8747500D02*
X13115000Y-8697500D01*
X13065000Y-8647500D01*
X13015000Y-8697500D01*
X13065000Y-8747500D01*
X13065000Y-11033500D02*
X13115000Y-10983500D01*
X13065000Y-10933500D01*
X13015000Y-10983500D01*
X13065000Y-11033500D01*
X4927500Y-9795000D02*
X5057500Y-9925000D01*
X5057500Y-9795000D02*
X4927500Y-9925000D01*
X5057500Y-9860000D02*
G75*
G03*
X5057500Y-9860000I-65000J0D01*
G01*
X4927500Y-10295000D02*
X5057500Y-10425000D01*
X5057500Y-10295000D02*
X4927500Y-10425000D01*
X5057500Y-10360000D02*
G75*
G03*
X5057500Y-10360000I-65000J0D01*
G01*
X4927500Y-10795000D02*
X5057500Y-10925000D01*
X5057500Y-10795000D02*
X4927500Y-10925000D01*
X5057500Y-10860000D02*
G75*
G03*
X5057500Y-10860000I-65000J0D01*
G01*
X4927500Y-11295000D02*
X5057500Y-11425000D01*
X5057500Y-11295000D02*
X4927500Y-11425000D01*
X5057500Y-11360000D02*
G75*
G03*
X5057500Y-11360000I-65000J0D01*
G01*
X5555000Y-12375000D02*
X5685000Y-12505000D01*
X5685000Y-12375000D02*
X5555000Y-12505000D01*
X5685000Y-12440000D02*
G75*
G03*
X5685000Y-12440000I-65000J0D01*
G01*
X6055000Y-12375000D02*
X6185000Y-12505000D01*
X6185000Y-12375000D02*
X6055000Y-12505000D01*
X6185000Y-12440000D02*
G75*
G03*
X6185000Y-12440000I-65000J0D01*
G01*
X4670000Y-5790000D02*
X4970000Y-6090000D01*
X4970000Y-5790000D02*
X4670000Y-6090000D01*
X4820000Y-5790000D02*
X4820000Y-6090000D01*
X4670000Y-5940000D02*
X4970000Y-5940000D01*
X4670000Y-13390000D02*
X4970000Y-13690000D01*
X4970000Y-13390000D02*
X4670000Y-13690000D01*
X4820000Y-13390000D02*
X4820000Y-13690000D01*
X4670000Y-13540000D02*
X4970000Y-13540000D01*
X13370000Y-5790000D02*
X13670000Y-6090000D01*
X13670000Y-5790000D02*
X13370000Y-6090000D01*
X13520000Y-5790000D02*
X13520000Y-6090000D01*
X13370000Y-5940000D02*
X13670000Y-5940000D01*
X13370000Y-13390000D02*
X13670000Y-13690000D01*
X13670000Y-13390000D02*
X13370000Y-13690000D01*
X13520000Y-13390000D02*
X13520000Y-13690000D01*
X13370000Y-13540000D02*
X13670000Y-13540000D01*
D12*
X4703928Y-14408214D02*
X4703928Y-14108214D01*
X4775357Y-14108214D01*
X4818214Y-14122500D01*
X4846786Y-14151071D01*
X4861071Y-14179643D01*
X4875357Y-14236786D01*
X4875357Y-14279643D01*
X4861071Y-14336786D01*
X4846786Y-14365357D01*
X4818214Y-14393929D01*
X4775357Y-14408214D01*
X4703928Y-14408214D01*
X5003928Y-14408214D02*
X5003928Y-14208214D01*
X5003928Y-14265357D02*
X5018214Y-14236786D01*
X5032500Y-14222500D01*
X5061071Y-14208214D01*
X5089643Y-14208214D01*
X5189643Y-14408214D02*
X5189643Y-14208214D01*
X5189643Y-14108214D02*
X5175357Y-14122500D01*
X5189643Y-14136786D01*
X5203928Y-14122500D01*
X5189643Y-14108214D01*
X5189643Y-14136786D01*
X5375357Y-14408214D02*
X5346786Y-14393929D01*
X5332500Y-14365357D01*
X5332500Y-14108214D01*
X5532500Y-14408214D02*
X5503928Y-14393929D01*
X5489643Y-14365357D01*
X5489643Y-14108214D01*
X5875357Y-14408214D02*
X5875357Y-14108214D01*
X5975357Y-14322500D01*
X6075357Y-14108214D01*
X6075357Y-14408214D01*
X6346786Y-14408214D02*
X6346786Y-14251071D01*
X6332500Y-14222500D01*
X6303928Y-14208214D01*
X6246786Y-14208214D01*
X6218214Y-14222500D01*
X6346786Y-14393929D02*
X6318214Y-14408214D01*
X6246786Y-14408214D01*
X6218214Y-14393929D01*
X6203928Y-14365357D01*
X6203928Y-14336786D01*
X6218214Y-14308214D01*
X6246786Y-14293929D01*
X6318214Y-14293929D01*
X6346786Y-14279643D01*
X6489643Y-14208214D02*
X6489643Y-14508214D01*
X6489643Y-14222500D02*
X6518214Y-14208214D01*
X6575357Y-14208214D01*
X6603928Y-14222500D01*
X6618214Y-14236786D01*
X6632500Y-14265357D01*
X6632500Y-14351071D01*
X6618214Y-14379643D01*
X6603928Y-14393929D01*
X6575357Y-14408214D01*
X6518214Y-14408214D01*
X6489643Y-14393929D01*
X6761071Y-14379643D02*
X6775357Y-14393929D01*
X6761071Y-14408214D01*
X6746786Y-14393929D01*
X6761071Y-14379643D01*
X6761071Y-14408214D01*
X6761071Y-14222500D02*
X6775357Y-14236786D01*
X6761071Y-14251071D01*
X6746786Y-14236786D01*
X6761071Y-14222500D01*
X6761071Y-14251071D01*
X4377500Y-14882500D02*
X4417500Y-14922500D01*
X4417500Y-14882500D02*
X4377500Y-14922500D01*
X4761071Y-14738214D02*
X4789643Y-14738214D01*
X4818214Y-14752500D01*
X4832500Y-14766786D01*
X4846786Y-14795357D01*
X4861071Y-14852500D01*
X4861071Y-14923929D01*
X4846786Y-14981071D01*
X4832500Y-15009643D01*
X4818214Y-15023929D01*
X4789643Y-15038214D01*
X4761071Y-15038214D01*
X4732500Y-15023929D01*
X4718214Y-15009643D01*
X4703928Y-14981071D01*
X4689643Y-14923929D01*
X4689643Y-14852500D01*
X4703928Y-14795357D01*
X4718214Y-14766786D01*
X4732500Y-14752500D01*
X4761071Y-14738214D01*
X4989643Y-15009643D02*
X5003928Y-15023929D01*
X4989643Y-15038214D01*
X4975357Y-15023929D01*
X4989643Y-15009643D01*
X4989643Y-15038214D01*
X5261071Y-14838214D02*
X5261071Y-15038214D01*
X5189643Y-14723929D02*
X5118214Y-14938214D01*
X5303928Y-14938214D01*
X5475357Y-14738214D02*
X5503928Y-14738214D01*
X5532500Y-14752500D01*
X5546786Y-14766786D01*
X5561071Y-14795357D01*
X5575357Y-14852500D01*
X5575357Y-14923929D01*
X5561071Y-14981071D01*
X5546786Y-15009643D01*
X5532500Y-15023929D01*
X5503928Y-15038214D01*
X5475357Y-15038214D01*
X5446786Y-15023929D01*
X5432500Y-15009643D01*
X5418214Y-14981071D01*
X5403928Y-14923929D01*
X5403928Y-14852500D01*
X5418214Y-14795357D01*
X5432500Y-14766786D01*
X5446786Y-14752500D01*
X5475357Y-14738214D01*
X5761071Y-14738214D02*
X5789643Y-14738214D01*
X5818214Y-14752500D01*
X5832500Y-14766786D01*
X5846786Y-14795357D01*
X5861071Y-14852500D01*
X5861071Y-14923929D01*
X5846786Y-14981071D01*
X5832500Y-15009643D01*
X5818214Y-15023929D01*
X5789643Y-15038214D01*
X5761071Y-15038214D01*
X5732500Y-15023929D01*
X5718214Y-15009643D01*
X5703928Y-14981071D01*
X5689643Y-14923929D01*
X5689643Y-14852500D01*
X5703928Y-14795357D01*
X5718214Y-14766786D01*
X5732500Y-14752500D01*
X5761071Y-14738214D01*
X5989643Y-15038214D02*
X5989643Y-14838214D01*
X5989643Y-14866786D02*
X6003928Y-14852500D01*
X6032500Y-14838214D01*
X6075357Y-14838214D01*
X6103928Y-14852500D01*
X6118214Y-14881071D01*
X6118214Y-15038214D01*
X6118214Y-14881071D02*
X6132500Y-14852500D01*
X6161071Y-14838214D01*
X6203928Y-14838214D01*
X6232500Y-14852500D01*
X6246786Y-14881071D01*
X6246786Y-15038214D01*
X6389643Y-15038214D02*
X6389643Y-14838214D01*
X6389643Y-14866786D02*
X6403928Y-14852500D01*
X6432500Y-14838214D01*
X6475357Y-14838214D01*
X6503928Y-14852500D01*
X6518214Y-14881071D01*
X6518214Y-15038214D01*
X6518214Y-14881071D02*
X6532500Y-14852500D01*
X6561071Y-14838214D01*
X6603928Y-14838214D01*
X6632500Y-14852500D01*
X6646786Y-14881071D01*
X6646786Y-15038214D01*
X7232500Y-14723929D02*
X6975357Y-15109643D01*
X7618214Y-14738214D02*
X7646786Y-14738214D01*
X7675357Y-14752500D01*
X7689643Y-14766786D01*
X7703928Y-14795357D01*
X7718214Y-14852500D01*
X7718214Y-14923929D01*
X7703928Y-14981071D01*
X7689643Y-15009643D01*
X7675357Y-15023929D01*
X7646786Y-15038214D01*
X7618214Y-15038214D01*
X7589643Y-15023929D01*
X7575357Y-15009643D01*
X7561071Y-14981071D01*
X7546786Y-14923929D01*
X7546786Y-14852500D01*
X7561071Y-14795357D01*
X7575357Y-14766786D01*
X7589643Y-14752500D01*
X7618214Y-14738214D01*
X7846786Y-15009643D02*
X7861071Y-15023929D01*
X7846786Y-15038214D01*
X7832500Y-15023929D01*
X7846786Y-15009643D01*
X7846786Y-15038214D01*
X8046786Y-14738214D02*
X8075357Y-14738214D01*
X8103928Y-14752500D01*
X8118214Y-14766786D01*
X8132500Y-14795357D01*
X8146786Y-14852500D01*
X8146786Y-14923929D01*
X8132500Y-14981071D01*
X8118214Y-15009643D01*
X8103928Y-15023929D01*
X8075357Y-15038214D01*
X8046786Y-15038214D01*
X8018214Y-15023929D01*
X8003928Y-15009643D01*
X7989643Y-14981071D01*
X7975357Y-14923929D01*
X7975357Y-14852500D01*
X7989643Y-14795357D01*
X8003928Y-14766786D01*
X8018214Y-14752500D01*
X8046786Y-14738214D01*
X8432500Y-15038214D02*
X8261071Y-15038214D01*
X8346786Y-15038214D02*
X8346786Y-14738214D01*
X8318214Y-14781071D01*
X8289643Y-14809643D01*
X8261071Y-14823929D01*
X8703928Y-14738214D02*
X8561071Y-14738214D01*
X8546786Y-14881071D01*
X8561071Y-14866786D01*
X8589643Y-14852500D01*
X8661071Y-14852500D01*
X8689643Y-14866786D01*
X8703928Y-14881071D01*
X8718214Y-14909643D01*
X8718214Y-14981071D01*
X8703928Y-15009643D01*
X8689643Y-15023929D01*
X8661071Y-15038214D01*
X8589643Y-15038214D01*
X8561071Y-15023929D01*
X8546786Y-15009643D01*
X8818214Y-14738214D02*
X9018214Y-14738214D01*
X8889643Y-15038214D01*
X9118214Y-14738214D02*
X9118214Y-14795357D01*
X9232500Y-14738214D02*
X9232500Y-14795357D01*
X9675357Y-15152500D02*
X9661071Y-15138214D01*
X9632500Y-15095357D01*
X9618214Y-15066786D01*
X9603928Y-15023929D01*
X9589643Y-14952500D01*
X9589643Y-14895357D01*
X9603928Y-14823929D01*
X9618214Y-14781071D01*
X9632500Y-14752500D01*
X9661071Y-14709643D01*
X9675357Y-14695357D01*
X9918214Y-14738214D02*
X9861071Y-14738214D01*
X9832500Y-14752500D01*
X9818214Y-14766786D01*
X9789643Y-14809643D01*
X9775357Y-14866786D01*
X9775357Y-14981071D01*
X9789643Y-15009643D01*
X9803928Y-15023929D01*
X9832500Y-15038214D01*
X9889643Y-15038214D01*
X9918214Y-15023929D01*
X9932500Y-15009643D01*
X9946786Y-14981071D01*
X9946786Y-14909643D01*
X9932500Y-14881071D01*
X9918214Y-14866786D01*
X9889643Y-14852500D01*
X9832500Y-14852500D01*
X9803928Y-14866786D01*
X9789643Y-14881071D01*
X9775357Y-14909643D01*
X10203928Y-14838214D02*
X10203928Y-15038214D01*
X10132500Y-14723929D02*
X10061071Y-14938214D01*
X10246786Y-14938214D01*
X10589643Y-15038214D02*
X10589643Y-14738214D01*
X10718214Y-15038214D02*
X10718214Y-14881071D01*
X10703928Y-14852500D01*
X10675357Y-14838214D01*
X10632500Y-14838214D01*
X10603928Y-14852500D01*
X10589643Y-14866786D01*
X10903928Y-15038214D02*
X10875357Y-15023929D01*
X10861071Y-15009643D01*
X10846786Y-14981071D01*
X10846786Y-14895357D01*
X10861071Y-14866786D01*
X10875357Y-14852500D01*
X10903928Y-14838214D01*
X10946786Y-14838214D01*
X10975357Y-14852500D01*
X10989643Y-14866786D01*
X11003928Y-14895357D01*
X11003928Y-14981071D01*
X10989643Y-15009643D01*
X10975357Y-15023929D01*
X10946786Y-15038214D01*
X10903928Y-15038214D01*
X11175357Y-15038214D02*
X11146786Y-15023929D01*
X11132500Y-14995357D01*
X11132500Y-14738214D01*
X11403928Y-15023929D02*
X11375357Y-15038214D01*
X11318214Y-15038214D01*
X11289643Y-15023929D01*
X11275357Y-14995357D01*
X11275357Y-14881071D01*
X11289643Y-14852500D01*
X11318214Y-14838214D01*
X11375357Y-14838214D01*
X11403928Y-14852500D01*
X11418214Y-14881071D01*
X11418214Y-14909643D01*
X11275357Y-14938214D01*
X11532500Y-15023929D02*
X11561071Y-15038214D01*
X11618214Y-15038214D01*
X11646786Y-15023929D01*
X11661071Y-14995357D01*
X11661071Y-14981071D01*
X11646786Y-14952500D01*
X11618214Y-14938214D01*
X11575357Y-14938214D01*
X11546786Y-14923929D01*
X11532500Y-14895357D01*
X11532500Y-14881071D01*
X11546786Y-14852500D01*
X11575357Y-14838214D01*
X11618214Y-14838214D01*
X11646786Y-14852500D01*
X11761071Y-15152500D02*
X11775357Y-15138214D01*
X11803928Y-15095357D01*
X11818214Y-15066786D01*
X11832500Y-15023929D01*
X11846786Y-14952500D01*
X11846786Y-14895357D01*
X11832500Y-14823929D01*
X11818214Y-14781071D01*
X11803928Y-14752500D01*
X11775357Y-14709643D01*
X11761071Y-14695357D01*
X4417500Y-15298500D02*
G75*
G03*
X4417500Y-15298500I-30000J0D01*
G01*
X4761071Y-15134214D02*
X4789643Y-15134214D01*
X4818214Y-15148500D01*
X4832500Y-15162786D01*
X4846786Y-15191357D01*
X4861071Y-15248500D01*
X4861071Y-15319929D01*
X4846786Y-15377071D01*
X4832500Y-15405643D01*
X4818214Y-15419929D01*
X4789643Y-15434214D01*
X4761071Y-15434214D01*
X4732500Y-15419929D01*
X4718214Y-15405643D01*
X4703928Y-15377071D01*
X4689643Y-15319929D01*
X4689643Y-15248500D01*
X4703928Y-15191357D01*
X4718214Y-15162786D01*
X4732500Y-15148500D01*
X4761071Y-15134214D01*
X4989643Y-15405643D02*
X5003928Y-15419929D01*
X4989643Y-15434214D01*
X4975357Y-15419929D01*
X4989643Y-15405643D01*
X4989643Y-15434214D01*
X5261071Y-15134214D02*
X5203928Y-15134214D01*
X5175357Y-15148500D01*
X5161071Y-15162786D01*
X5132500Y-15205643D01*
X5118214Y-15262786D01*
X5118214Y-15377071D01*
X5132500Y-15405643D01*
X5146786Y-15419929D01*
X5175357Y-15434214D01*
X5232500Y-15434214D01*
X5261071Y-15419929D01*
X5275357Y-15405643D01*
X5289643Y-15377071D01*
X5289643Y-15305643D01*
X5275357Y-15277071D01*
X5261071Y-15262786D01*
X5232500Y-15248500D01*
X5175357Y-15248500D01*
X5146786Y-15262786D01*
X5132500Y-15277071D01*
X5118214Y-15305643D01*
X5475357Y-15134214D02*
X5503928Y-15134214D01*
X5532500Y-15148500D01*
X5546786Y-15162786D01*
X5561071Y-15191357D01*
X5575357Y-15248500D01*
X5575357Y-15319929D01*
X5561071Y-15377071D01*
X5546786Y-15405643D01*
X5532500Y-15419929D01*
X5503928Y-15434214D01*
X5475357Y-15434214D01*
X5446786Y-15419929D01*
X5432500Y-15405643D01*
X5418214Y-15377071D01*
X5403928Y-15319929D01*
X5403928Y-15248500D01*
X5418214Y-15191357D01*
X5432500Y-15162786D01*
X5446786Y-15148500D01*
X5475357Y-15134214D01*
X5761071Y-15134214D02*
X5789643Y-15134214D01*
X5818214Y-15148500D01*
X5832500Y-15162786D01*
X5846786Y-15191357D01*
X5861071Y-15248500D01*
X5861071Y-15319929D01*
X5846786Y-15377071D01*
X5832500Y-15405643D01*
X5818214Y-15419929D01*
X5789643Y-15434214D01*
X5761071Y-15434214D01*
X5732500Y-15419929D01*
X5718214Y-15405643D01*
X5703928Y-15377071D01*
X5689643Y-15319929D01*
X5689643Y-15248500D01*
X5703928Y-15191357D01*
X5718214Y-15162786D01*
X5732500Y-15148500D01*
X5761071Y-15134214D01*
X5989643Y-15434214D02*
X5989643Y-15234214D01*
X5989643Y-15262786D02*
X6003928Y-15248500D01*
X6032500Y-15234214D01*
X6075357Y-15234214D01*
X6103928Y-15248500D01*
X6118214Y-15277071D01*
X6118214Y-15434214D01*
X6118214Y-15277071D02*
X6132500Y-15248500D01*
X6161071Y-15234214D01*
X6203928Y-15234214D01*
X6232500Y-15248500D01*
X6246786Y-15277071D01*
X6246786Y-15434214D01*
X6389643Y-15434214D02*
X6389643Y-15234214D01*
X6389643Y-15262786D02*
X6403928Y-15248500D01*
X6432500Y-15234214D01*
X6475357Y-15234214D01*
X6503928Y-15248500D01*
X6518214Y-15277071D01*
X6518214Y-15434214D01*
X6518214Y-15277071D02*
X6532500Y-15248500D01*
X6561071Y-15234214D01*
X6603928Y-15234214D01*
X6632500Y-15248500D01*
X6646786Y-15277071D01*
X6646786Y-15434214D01*
X7232500Y-15119929D02*
X6975357Y-15505643D01*
X7618214Y-15134214D02*
X7646786Y-15134214D01*
X7675357Y-15148500D01*
X7689643Y-15162786D01*
X7703928Y-15191357D01*
X7718214Y-15248500D01*
X7718214Y-15319929D01*
X7703928Y-15377071D01*
X7689643Y-15405643D01*
X7675357Y-15419929D01*
X7646786Y-15434214D01*
X7618214Y-15434214D01*
X7589643Y-15419929D01*
X7575357Y-15405643D01*
X7561071Y-15377071D01*
X7546786Y-15319929D01*
X7546786Y-15248500D01*
X7561071Y-15191357D01*
X7575357Y-15162786D01*
X7589643Y-15148500D01*
X7618214Y-15134214D01*
X7846786Y-15405643D02*
X7861071Y-15419929D01*
X7846786Y-15434214D01*
X7832500Y-15419929D01*
X7846786Y-15405643D01*
X7846786Y-15434214D01*
X8046786Y-15134214D02*
X8075357Y-15134214D01*
X8103928Y-15148500D01*
X8118214Y-15162786D01*
X8132500Y-15191357D01*
X8146786Y-15248500D01*
X8146786Y-15319929D01*
X8132500Y-15377071D01*
X8118214Y-15405643D01*
X8103928Y-15419929D01*
X8075357Y-15434214D01*
X8046786Y-15434214D01*
X8018214Y-15419929D01*
X8003928Y-15405643D01*
X7989643Y-15377071D01*
X7975357Y-15319929D01*
X7975357Y-15248500D01*
X7989643Y-15191357D01*
X8003928Y-15162786D01*
X8018214Y-15148500D01*
X8046786Y-15134214D01*
X8261071Y-15162786D02*
X8275357Y-15148500D01*
X8303928Y-15134214D01*
X8375357Y-15134214D01*
X8403928Y-15148500D01*
X8418214Y-15162786D01*
X8432500Y-15191357D01*
X8432500Y-15219929D01*
X8418214Y-15262786D01*
X8246786Y-15434214D01*
X8432500Y-15434214D01*
X8532500Y-15134214D02*
X8718214Y-15134214D01*
X8618214Y-15248500D01*
X8661071Y-15248500D01*
X8689643Y-15262786D01*
X8703928Y-15277071D01*
X8718214Y-15305643D01*
X8718214Y-15377071D01*
X8703928Y-15405643D01*
X8689643Y-15419929D01*
X8661071Y-15434214D01*
X8575357Y-15434214D01*
X8546786Y-15419929D01*
X8532500Y-15405643D01*
X8975357Y-15134214D02*
X8918214Y-15134214D01*
X8889643Y-15148500D01*
X8875357Y-15162786D01*
X8846786Y-15205643D01*
X8832500Y-15262786D01*
X8832500Y-15377071D01*
X8846786Y-15405643D01*
X8861071Y-15419929D01*
X8889643Y-15434214D01*
X8946786Y-15434214D01*
X8975357Y-15419929D01*
X8989643Y-15405643D01*
X9003928Y-15377071D01*
X9003928Y-15305643D01*
X8989643Y-15277071D01*
X8975357Y-15262786D01*
X8946786Y-15248500D01*
X8889643Y-15248500D01*
X8861071Y-15262786D01*
X8846786Y-15277071D01*
X8832500Y-15305643D01*
X9118214Y-15134214D02*
X9118214Y-15191357D01*
X9232500Y-15134214D02*
X9232500Y-15191357D01*
X9675357Y-15548500D02*
X9661071Y-15534214D01*
X9632500Y-15491357D01*
X9618214Y-15462786D01*
X9603928Y-15419929D01*
X9589643Y-15348500D01*
X9589643Y-15291357D01*
X9603928Y-15219929D01*
X9618214Y-15177071D01*
X9632500Y-15148500D01*
X9661071Y-15105643D01*
X9675357Y-15091357D01*
X9832500Y-15262786D02*
X9803928Y-15248500D01*
X9789643Y-15234214D01*
X9775357Y-15205643D01*
X9775357Y-15191357D01*
X9789643Y-15162786D01*
X9803928Y-15148500D01*
X9832500Y-15134214D01*
X9889643Y-15134214D01*
X9918214Y-15148500D01*
X9932500Y-15162786D01*
X9946786Y-15191357D01*
X9946786Y-15205643D01*
X9932500Y-15234214D01*
X9918214Y-15248500D01*
X9889643Y-15262786D01*
X9832500Y-15262786D01*
X9803928Y-15277071D01*
X9789643Y-15291357D01*
X9775357Y-15319929D01*
X9775357Y-15377071D01*
X9789643Y-15405643D01*
X9803928Y-15419929D01*
X9832500Y-15434214D01*
X9889643Y-15434214D01*
X9918214Y-15419929D01*
X9932500Y-15405643D01*
X9946786Y-15377071D01*
X9946786Y-15319929D01*
X9932500Y-15291357D01*
X9918214Y-15277071D01*
X9889643Y-15262786D01*
X10303928Y-15434214D02*
X10303928Y-15134214D01*
X10432500Y-15434214D02*
X10432500Y-15277071D01*
X10418214Y-15248500D01*
X10389643Y-15234214D01*
X10346786Y-15234214D01*
X10318214Y-15248500D01*
X10303928Y-15262786D01*
X10618214Y-15434214D02*
X10589643Y-15419929D01*
X10575357Y-15405643D01*
X10561071Y-15377071D01*
X10561071Y-15291357D01*
X10575357Y-15262786D01*
X10589643Y-15248500D01*
X10618214Y-15234214D01*
X10661071Y-15234214D01*
X10689643Y-15248500D01*
X10703928Y-15262786D01*
X10718214Y-15291357D01*
X10718214Y-15377071D01*
X10703928Y-15405643D01*
X10689643Y-15419929D01*
X10661071Y-15434214D01*
X10618214Y-15434214D01*
X10889643Y-15434214D02*
X10861071Y-15419929D01*
X10846786Y-15391357D01*
X10846786Y-15134214D01*
X11118214Y-15419929D02*
X11089643Y-15434214D01*
X11032500Y-15434214D01*
X11003928Y-15419929D01*
X10989643Y-15391357D01*
X10989643Y-15277071D01*
X11003928Y-15248500D01*
X11032500Y-15234214D01*
X11089643Y-15234214D01*
X11118214Y-15248500D01*
X11132500Y-15277071D01*
X11132500Y-15305643D01*
X10989643Y-15334214D01*
X11246786Y-15419929D02*
X11275357Y-15434214D01*
X11332500Y-15434214D01*
X11361071Y-15419929D01*
X11375357Y-15391357D01*
X11375357Y-15377071D01*
X11361071Y-15348500D01*
X11332500Y-15334214D01*
X11289643Y-15334214D01*
X11261071Y-15319929D01*
X11246786Y-15291357D01*
X11246786Y-15277071D01*
X11261071Y-15248500D01*
X11289643Y-15234214D01*
X11332500Y-15234214D01*
X11361071Y-15248500D01*
X11475357Y-15548500D02*
X11489643Y-15534214D01*
X11518214Y-15491357D01*
X11532500Y-15462786D01*
X11546786Y-15419929D01*
X11561071Y-15348500D01*
X11561071Y-15291357D01*
X11546786Y-15219929D01*
X11532500Y-15177071D01*
X11518214Y-15148500D01*
X11489643Y-15105643D01*
X11475357Y-15091357D01*
X4379500Y-15656500D02*
X4379500Y-15732500D01*
X4341500Y-15694500D02*
X4417500Y-15694500D01*
X4761071Y-15530214D02*
X4789643Y-15530214D01*
X4818214Y-15544500D01*
X4832500Y-15558786D01*
X4846786Y-15587357D01*
X4861071Y-15644500D01*
X4861071Y-15715929D01*
X4846786Y-15773071D01*
X4832500Y-15801643D01*
X4818214Y-15815929D01*
X4789643Y-15830214D01*
X4761071Y-15830214D01*
X4732500Y-15815929D01*
X4718214Y-15801643D01*
X4703928Y-15773071D01*
X4689643Y-15715929D01*
X4689643Y-15644500D01*
X4703928Y-15587357D01*
X4718214Y-15558786D01*
X4732500Y-15544500D01*
X4761071Y-15530214D01*
X4989643Y-15801643D02*
X5003928Y-15815929D01*
X4989643Y-15830214D01*
X4975357Y-15815929D01*
X4989643Y-15801643D01*
X4989643Y-15830214D01*
X5103928Y-15530214D02*
X5303928Y-15530214D01*
X5175357Y-15830214D01*
X5546786Y-15530214D02*
X5489643Y-15530214D01*
X5461071Y-15544500D01*
X5446786Y-15558786D01*
X5418214Y-15601643D01*
X5403928Y-15658786D01*
X5403928Y-15773071D01*
X5418214Y-15801643D01*
X5432500Y-15815929D01*
X5461071Y-15830214D01*
X5518214Y-15830214D01*
X5546786Y-15815929D01*
X5561071Y-15801643D01*
X5575357Y-15773071D01*
X5575357Y-15701643D01*
X5561071Y-15673071D01*
X5546786Y-15658786D01*
X5518214Y-15644500D01*
X5461071Y-15644500D01*
X5432500Y-15658786D01*
X5418214Y-15673071D01*
X5403928Y-15701643D01*
X5761071Y-15530214D02*
X5789643Y-15530214D01*
X5818214Y-15544500D01*
X5832500Y-15558786D01*
X5846786Y-15587357D01*
X5861071Y-15644500D01*
X5861071Y-15715929D01*
X5846786Y-15773071D01*
X5832500Y-15801643D01*
X5818214Y-15815929D01*
X5789643Y-15830214D01*
X5761071Y-15830214D01*
X5732500Y-15815929D01*
X5718214Y-15801643D01*
X5703928Y-15773071D01*
X5689643Y-15715929D01*
X5689643Y-15644500D01*
X5703928Y-15587357D01*
X5718214Y-15558786D01*
X5732500Y-15544500D01*
X5761071Y-15530214D01*
X5989643Y-15830214D02*
X5989643Y-15630214D01*
X5989643Y-15658786D02*
X6003928Y-15644500D01*
X6032500Y-15630214D01*
X6075357Y-15630214D01*
X6103928Y-15644500D01*
X6118214Y-15673071D01*
X6118214Y-15830214D01*
X6118214Y-15673071D02*
X6132500Y-15644500D01*
X6161071Y-15630214D01*
X6203928Y-15630214D01*
X6232500Y-15644500D01*
X6246786Y-15673071D01*
X6246786Y-15830214D01*
X6389643Y-15830214D02*
X6389643Y-15630214D01*
X6389643Y-15658786D02*
X6403928Y-15644500D01*
X6432500Y-15630214D01*
X6475357Y-15630214D01*
X6503928Y-15644500D01*
X6518214Y-15673071D01*
X6518214Y-15830214D01*
X6518214Y-15673071D02*
X6532500Y-15644500D01*
X6561071Y-15630214D01*
X6603928Y-15630214D01*
X6632500Y-15644500D01*
X6646786Y-15673071D01*
X6646786Y-15830214D01*
X7232500Y-15515929D02*
X6975357Y-15901643D01*
X7618214Y-15530214D02*
X7646786Y-15530214D01*
X7675357Y-15544500D01*
X7689643Y-15558786D01*
X7703928Y-15587357D01*
X7718214Y-15644500D01*
X7718214Y-15715929D01*
X7703928Y-15773071D01*
X7689643Y-15801643D01*
X7675357Y-15815929D01*
X7646786Y-15830214D01*
X7618214Y-15830214D01*
X7589643Y-15815929D01*
X7575357Y-15801643D01*
X7561071Y-15773071D01*
X7546786Y-15715929D01*
X7546786Y-15644500D01*
X7561071Y-15587357D01*
X7575357Y-15558786D01*
X7589643Y-15544500D01*
X7618214Y-15530214D01*
X7846786Y-15801643D02*
X7861071Y-15815929D01*
X7846786Y-15830214D01*
X7832500Y-15815929D01*
X7846786Y-15801643D01*
X7846786Y-15830214D01*
X8046786Y-15530214D02*
X8075357Y-15530214D01*
X8103928Y-15544500D01*
X8118214Y-15558786D01*
X8132500Y-15587357D01*
X8146786Y-15644500D01*
X8146786Y-15715929D01*
X8132500Y-15773071D01*
X8118214Y-15801643D01*
X8103928Y-15815929D01*
X8075357Y-15830214D01*
X8046786Y-15830214D01*
X8018214Y-15815929D01*
X8003928Y-15801643D01*
X7989643Y-15773071D01*
X7975357Y-15715929D01*
X7975357Y-15644500D01*
X7989643Y-15587357D01*
X8003928Y-15558786D01*
X8018214Y-15544500D01*
X8046786Y-15530214D01*
X8261071Y-15558786D02*
X8275357Y-15544500D01*
X8303928Y-15530214D01*
X8375357Y-15530214D01*
X8403928Y-15544500D01*
X8418214Y-15558786D01*
X8432500Y-15587357D01*
X8432500Y-15615929D01*
X8418214Y-15658786D01*
X8246786Y-15830214D01*
X8432500Y-15830214D01*
X8575357Y-15830214D02*
X8632500Y-15830214D01*
X8661071Y-15815929D01*
X8675357Y-15801643D01*
X8703928Y-15758786D01*
X8718214Y-15701643D01*
X8718214Y-15587357D01*
X8703928Y-15558786D01*
X8689643Y-15544500D01*
X8661071Y-15530214D01*
X8603928Y-15530214D01*
X8575357Y-15544500D01*
X8561071Y-15558786D01*
X8546786Y-15587357D01*
X8546786Y-15658786D01*
X8561071Y-15687357D01*
X8575357Y-15701643D01*
X8603928Y-15715929D01*
X8661071Y-15715929D01*
X8689643Y-15701643D01*
X8703928Y-15687357D01*
X8718214Y-15658786D01*
X8861071Y-15830214D02*
X8918214Y-15830214D01*
X8946786Y-15815929D01*
X8961071Y-15801643D01*
X8989643Y-15758786D01*
X9003928Y-15701643D01*
X9003928Y-15587357D01*
X8989643Y-15558786D01*
X8975357Y-15544500D01*
X8946786Y-15530214D01*
X8889643Y-15530214D01*
X8861071Y-15544500D01*
X8846786Y-15558786D01*
X8832500Y-15587357D01*
X8832500Y-15658786D01*
X8846786Y-15687357D01*
X8861071Y-15701643D01*
X8889643Y-15715929D01*
X8946786Y-15715929D01*
X8975357Y-15701643D01*
X8989643Y-15687357D01*
X9003928Y-15658786D01*
X9118214Y-15530214D02*
X9118214Y-15587357D01*
X9232500Y-15530214D02*
X9232500Y-15587357D01*
X9675357Y-15944500D02*
X9661071Y-15930214D01*
X9632500Y-15887357D01*
X9618214Y-15858786D01*
X9603928Y-15815929D01*
X9589643Y-15744500D01*
X9589643Y-15687357D01*
X9603928Y-15615929D01*
X9618214Y-15573071D01*
X9632500Y-15544500D01*
X9661071Y-15501643D01*
X9675357Y-15487357D01*
X9775357Y-15558786D02*
X9789643Y-15544500D01*
X9818214Y-15530214D01*
X9889643Y-15530214D01*
X9918214Y-15544500D01*
X9932500Y-15558786D01*
X9946786Y-15587357D01*
X9946786Y-15615929D01*
X9932500Y-15658786D01*
X9761071Y-15830214D01*
X9946786Y-15830214D01*
X10303928Y-15830214D02*
X10303928Y-15530214D01*
X10432500Y-15830214D02*
X10432500Y-15673071D01*
X10418214Y-15644500D01*
X10389643Y-15630214D01*
X10346786Y-15630214D01*
X10318214Y-15644500D01*
X10303928Y-15658786D01*
X10618214Y-15830214D02*
X10589643Y-15815929D01*
X10575357Y-15801643D01*
X10561071Y-15773071D01*
X10561071Y-15687357D01*
X10575357Y-15658786D01*
X10589643Y-15644500D01*
X10618214Y-15630214D01*
X10661071Y-15630214D01*
X10689643Y-15644500D01*
X10703928Y-15658786D01*
X10718214Y-15687357D01*
X10718214Y-15773071D01*
X10703928Y-15801643D01*
X10689643Y-15815929D01*
X10661071Y-15830214D01*
X10618214Y-15830214D01*
X10889643Y-15830214D02*
X10861071Y-15815929D01*
X10846786Y-15787357D01*
X10846786Y-15530214D01*
X11118214Y-15815929D02*
X11089643Y-15830214D01*
X11032500Y-15830214D01*
X11003928Y-15815929D01*
X10989643Y-15787357D01*
X10989643Y-15673071D01*
X11003928Y-15644500D01*
X11032500Y-15630214D01*
X11089643Y-15630214D01*
X11118214Y-15644500D01*
X11132500Y-15673071D01*
X11132500Y-15701643D01*
X10989643Y-15730214D01*
X11246786Y-15815929D02*
X11275357Y-15830214D01*
X11332500Y-15830214D01*
X11361071Y-15815929D01*
X11375357Y-15787357D01*
X11375357Y-15773071D01*
X11361071Y-15744500D01*
X11332500Y-15730214D01*
X11289643Y-15730214D01*
X11261071Y-15715929D01*
X11246786Y-15687357D01*
X11246786Y-15673071D01*
X11261071Y-15644500D01*
X11289643Y-15630214D01*
X11332500Y-15630214D01*
X11361071Y-15644500D01*
X11475357Y-15944500D02*
X11489643Y-15930214D01*
X11518214Y-15887357D01*
X11532500Y-15858786D01*
X11546786Y-15815929D01*
X11561071Y-15744500D01*
X11561071Y-15687357D01*
X11546786Y-15615929D01*
X11532500Y-15573071D01*
X11518214Y-15544500D01*
X11489643Y-15501643D01*
X11475357Y-15487357D01*
X4405784Y-16118785D02*
X4405784Y-16062216D01*
X4349215Y-16062216D01*
X4349215Y-16118785D01*
X4405784Y-16118785D01*
X4761071Y-15926214D02*
X4789643Y-15926214D01*
X4818214Y-15940500D01*
X4832500Y-15954786D01*
X4846786Y-15983357D01*
X4861071Y-16040500D01*
X4861071Y-16111929D01*
X4846786Y-16169071D01*
X4832500Y-16197643D01*
X4818214Y-16211929D01*
X4789643Y-16226214D01*
X4761071Y-16226214D01*
X4732500Y-16211929D01*
X4718214Y-16197643D01*
X4703928Y-16169071D01*
X4689643Y-16111929D01*
X4689643Y-16040500D01*
X4703928Y-15983357D01*
X4718214Y-15954786D01*
X4732500Y-15940500D01*
X4761071Y-15926214D01*
X4989643Y-16197643D02*
X5003928Y-16211929D01*
X4989643Y-16226214D01*
X4975357Y-16211929D01*
X4989643Y-16197643D01*
X4989643Y-16226214D01*
X5175357Y-16054786D02*
X5146786Y-16040500D01*
X5132500Y-16026214D01*
X5118214Y-15997643D01*
X5118214Y-15983357D01*
X5132500Y-15954786D01*
X5146786Y-15940500D01*
X5175357Y-15926214D01*
X5232500Y-15926214D01*
X5261071Y-15940500D01*
X5275357Y-15954786D01*
X5289643Y-15983357D01*
X5289643Y-15997643D01*
X5275357Y-16026214D01*
X5261071Y-16040500D01*
X5232500Y-16054786D01*
X5175357Y-16054786D01*
X5146786Y-16069071D01*
X5132500Y-16083357D01*
X5118214Y-16111929D01*
X5118214Y-16169071D01*
X5132500Y-16197643D01*
X5146786Y-16211929D01*
X5175357Y-16226214D01*
X5232500Y-16226214D01*
X5261071Y-16211929D01*
X5275357Y-16197643D01*
X5289643Y-16169071D01*
X5289643Y-16111929D01*
X5275357Y-16083357D01*
X5261071Y-16069071D01*
X5232500Y-16054786D01*
X5475357Y-15926214D02*
X5503928Y-15926214D01*
X5532500Y-15940500D01*
X5546786Y-15954786D01*
X5561071Y-15983357D01*
X5575357Y-16040500D01*
X5575357Y-16111929D01*
X5561071Y-16169071D01*
X5546786Y-16197643D01*
X5532500Y-16211929D01*
X5503928Y-16226214D01*
X5475357Y-16226214D01*
X5446786Y-16211929D01*
X5432500Y-16197643D01*
X5418214Y-16169071D01*
X5403928Y-16111929D01*
X5403928Y-16040500D01*
X5418214Y-15983357D01*
X5432500Y-15954786D01*
X5446786Y-15940500D01*
X5475357Y-15926214D01*
X5761071Y-15926214D02*
X5789643Y-15926214D01*
X5818214Y-15940500D01*
X5832500Y-15954786D01*
X5846786Y-15983357D01*
X5861071Y-16040500D01*
X5861071Y-16111929D01*
X5846786Y-16169071D01*
X5832500Y-16197643D01*
X5818214Y-16211929D01*
X5789643Y-16226214D01*
X5761071Y-16226214D01*
X5732500Y-16211929D01*
X5718214Y-16197643D01*
X5703928Y-16169071D01*
X5689643Y-16111929D01*
X5689643Y-16040500D01*
X5703928Y-15983357D01*
X5718214Y-15954786D01*
X5732500Y-15940500D01*
X5761071Y-15926214D01*
X5989643Y-16226214D02*
X5989643Y-16026214D01*
X5989643Y-16054786D02*
X6003928Y-16040500D01*
X6032500Y-16026214D01*
X6075357Y-16026214D01*
X6103928Y-16040500D01*
X6118214Y-16069071D01*
X6118214Y-16226214D01*
X6118214Y-16069071D02*
X6132500Y-16040500D01*
X6161071Y-16026214D01*
X6203928Y-16026214D01*
X6232500Y-16040500D01*
X6246786Y-16069071D01*
X6246786Y-16226214D01*
X6389643Y-16226214D02*
X6389643Y-16026214D01*
X6389643Y-16054786D02*
X6403928Y-16040500D01*
X6432500Y-16026214D01*
X6475357Y-16026214D01*
X6503928Y-16040500D01*
X6518214Y-16069071D01*
X6518214Y-16226214D01*
X6518214Y-16069071D02*
X6532500Y-16040500D01*
X6561071Y-16026214D01*
X6603928Y-16026214D01*
X6632500Y-16040500D01*
X6646786Y-16069071D01*
X6646786Y-16226214D01*
X7232500Y-15911929D02*
X6975357Y-16297643D01*
X7618214Y-15926214D02*
X7646786Y-15926214D01*
X7675357Y-15940500D01*
X7689643Y-15954786D01*
X7703928Y-15983357D01*
X7718214Y-16040500D01*
X7718214Y-16111929D01*
X7703928Y-16169071D01*
X7689643Y-16197643D01*
X7675357Y-16211929D01*
X7646786Y-16226214D01*
X7618214Y-16226214D01*
X7589643Y-16211929D01*
X7575357Y-16197643D01*
X7561071Y-16169071D01*
X7546786Y-16111929D01*
X7546786Y-16040500D01*
X7561071Y-15983357D01*
X7575357Y-15954786D01*
X7589643Y-15940500D01*
X7618214Y-15926214D01*
X7846786Y-16197643D02*
X7861071Y-16211929D01*
X7846786Y-16226214D01*
X7832500Y-16211929D01*
X7846786Y-16197643D01*
X7846786Y-16226214D01*
X8046786Y-15926214D02*
X8075357Y-15926214D01*
X8103928Y-15940500D01*
X8118214Y-15954786D01*
X8132500Y-15983357D01*
X8146786Y-16040500D01*
X8146786Y-16111929D01*
X8132500Y-16169071D01*
X8118214Y-16197643D01*
X8103928Y-16211929D01*
X8075357Y-16226214D01*
X8046786Y-16226214D01*
X8018214Y-16211929D01*
X8003928Y-16197643D01*
X7989643Y-16169071D01*
X7975357Y-16111929D01*
X7975357Y-16040500D01*
X7989643Y-15983357D01*
X8003928Y-15954786D01*
X8018214Y-15940500D01*
X8046786Y-15926214D01*
X8246786Y-15926214D02*
X8432500Y-15926214D01*
X8332500Y-16040500D01*
X8375357Y-16040500D01*
X8403928Y-16054786D01*
X8418214Y-16069071D01*
X8432500Y-16097643D01*
X8432500Y-16169071D01*
X8418214Y-16197643D01*
X8403928Y-16211929D01*
X8375357Y-16226214D01*
X8289643Y-16226214D01*
X8261071Y-16211929D01*
X8246786Y-16197643D01*
X8718214Y-16226214D02*
X8546786Y-16226214D01*
X8632500Y-16226214D02*
X8632500Y-15926214D01*
X8603928Y-15969071D01*
X8575357Y-15997643D01*
X8546786Y-16011929D01*
X8989643Y-15926214D02*
X8846786Y-15926214D01*
X8832500Y-16069071D01*
X8846786Y-16054786D01*
X8875357Y-16040500D01*
X8946786Y-16040500D01*
X8975357Y-16054786D01*
X8989643Y-16069071D01*
X9003928Y-16097643D01*
X9003928Y-16169071D01*
X8989643Y-16197643D01*
X8975357Y-16211929D01*
X8946786Y-16226214D01*
X8875357Y-16226214D01*
X8846786Y-16211929D01*
X8832500Y-16197643D01*
X9118214Y-15926214D02*
X9118214Y-15983357D01*
X9232500Y-15926214D02*
X9232500Y-15983357D01*
X9675357Y-16340500D02*
X9661071Y-16326214D01*
X9632500Y-16283357D01*
X9618214Y-16254786D01*
X9603928Y-16211929D01*
X9589643Y-16140500D01*
X9589643Y-16083357D01*
X9603928Y-16011929D01*
X9618214Y-15969071D01*
X9632500Y-15940500D01*
X9661071Y-15897643D01*
X9675357Y-15883357D01*
X9946786Y-16226214D02*
X9775357Y-16226214D01*
X9861071Y-16226214D02*
X9861071Y-15926214D01*
X9832500Y-15969071D01*
X9803928Y-15997643D01*
X9775357Y-16011929D01*
X10203928Y-16026214D02*
X10203928Y-16226214D01*
X10132500Y-15911929D02*
X10061071Y-16126214D01*
X10246786Y-16126214D01*
X10589643Y-16226214D02*
X10589643Y-15926214D01*
X10718214Y-16226214D02*
X10718214Y-16069071D01*
X10703928Y-16040500D01*
X10675357Y-16026214D01*
X10632500Y-16026214D01*
X10603928Y-16040500D01*
X10589643Y-16054786D01*
X10903928Y-16226214D02*
X10875357Y-16211929D01*
X10861071Y-16197643D01*
X10846786Y-16169071D01*
X10846786Y-16083357D01*
X10861071Y-16054786D01*
X10875357Y-16040500D01*
X10903928Y-16026214D01*
X10946786Y-16026214D01*
X10975357Y-16040500D01*
X10989643Y-16054786D01*
X11003928Y-16083357D01*
X11003928Y-16169071D01*
X10989643Y-16197643D01*
X10975357Y-16211929D01*
X10946786Y-16226214D01*
X10903928Y-16226214D01*
X11175357Y-16226214D02*
X11146786Y-16211929D01*
X11132500Y-16183357D01*
X11132500Y-15926214D01*
X11403928Y-16211929D02*
X11375357Y-16226214D01*
X11318214Y-16226214D01*
X11289643Y-16211929D01*
X11275357Y-16183357D01*
X11275357Y-16069071D01*
X11289643Y-16040500D01*
X11318214Y-16026214D01*
X11375357Y-16026214D01*
X11403928Y-16040500D01*
X11418214Y-16069071D01*
X11418214Y-16097643D01*
X11275357Y-16126214D01*
X11532500Y-16211929D02*
X11561071Y-16226214D01*
X11618214Y-16226214D01*
X11646786Y-16211929D01*
X11661071Y-16183357D01*
X11661071Y-16169071D01*
X11646786Y-16140500D01*
X11618214Y-16126214D01*
X11575357Y-16126214D01*
X11546786Y-16111929D01*
X11532500Y-16083357D01*
X11532500Y-16069071D01*
X11546786Y-16040500D01*
X11575357Y-16026214D01*
X11618214Y-16026214D01*
X11646786Y-16040500D01*
X11761071Y-16340500D02*
X11775357Y-16326214D01*
X11803928Y-16283357D01*
X11818214Y-16254786D01*
X11832500Y-16211929D01*
X11846786Y-16140500D01*
X11846786Y-16083357D01*
X11832500Y-16011929D01*
X11818214Y-15969071D01*
X11803928Y-15940500D01*
X11775357Y-15897643D01*
X11761071Y-15883357D01*
X4367500Y-16536500D02*
X4417500Y-16486500D01*
X4367500Y-16436500D01*
X4317500Y-16486500D01*
X4367500Y-16536500D01*
X4861071Y-16622214D02*
X4689643Y-16622214D01*
X4775357Y-16622214D02*
X4775357Y-16322214D01*
X4746786Y-16365071D01*
X4718214Y-16393643D01*
X4689643Y-16407929D01*
X4989643Y-16593643D02*
X5003928Y-16607929D01*
X4989643Y-16622214D01*
X4975357Y-16607929D01*
X4989643Y-16593643D01*
X4989643Y-16622214D01*
X5189643Y-16322214D02*
X5218214Y-16322214D01*
X5246786Y-16336500D01*
X5261071Y-16350786D01*
X5275357Y-16379357D01*
X5289643Y-16436500D01*
X5289643Y-16507929D01*
X5275357Y-16565071D01*
X5261071Y-16593643D01*
X5246786Y-16607929D01*
X5218214Y-16622214D01*
X5189643Y-16622214D01*
X5161071Y-16607929D01*
X5146786Y-16593643D01*
X5132500Y-16565071D01*
X5118214Y-16507929D01*
X5118214Y-16436500D01*
X5132500Y-16379357D01*
X5146786Y-16350786D01*
X5161071Y-16336500D01*
X5189643Y-16322214D01*
X5475357Y-16322214D02*
X5503928Y-16322214D01*
X5532500Y-16336500D01*
X5546786Y-16350786D01*
X5561071Y-16379357D01*
X5575357Y-16436500D01*
X5575357Y-16507929D01*
X5561071Y-16565071D01*
X5546786Y-16593643D01*
X5532500Y-16607929D01*
X5503928Y-16622214D01*
X5475357Y-16622214D01*
X5446786Y-16607929D01*
X5432500Y-16593643D01*
X5418214Y-16565071D01*
X5403928Y-16507929D01*
X5403928Y-16436500D01*
X5418214Y-16379357D01*
X5432500Y-16350786D01*
X5446786Y-16336500D01*
X5475357Y-16322214D01*
X5761071Y-16322214D02*
X5789643Y-16322214D01*
X5818214Y-16336500D01*
X5832500Y-16350786D01*
X5846786Y-16379357D01*
X5861071Y-16436500D01*
X5861071Y-16507929D01*
X5846786Y-16565071D01*
X5832500Y-16593643D01*
X5818214Y-16607929D01*
X5789643Y-16622214D01*
X5761071Y-16622214D01*
X5732500Y-16607929D01*
X5718214Y-16593643D01*
X5703928Y-16565071D01*
X5689643Y-16507929D01*
X5689643Y-16436500D01*
X5703928Y-16379357D01*
X5718214Y-16350786D01*
X5732500Y-16336500D01*
X5761071Y-16322214D01*
X5989643Y-16622214D02*
X5989643Y-16422214D01*
X5989643Y-16450786D02*
X6003928Y-16436500D01*
X6032500Y-16422214D01*
X6075357Y-16422214D01*
X6103928Y-16436500D01*
X6118214Y-16465071D01*
X6118214Y-16622214D01*
X6118214Y-16465071D02*
X6132500Y-16436500D01*
X6161071Y-16422214D01*
X6203928Y-16422214D01*
X6232500Y-16436500D01*
X6246786Y-16465071D01*
X6246786Y-16622214D01*
X6389643Y-16622214D02*
X6389643Y-16422214D01*
X6389643Y-16450786D02*
X6403928Y-16436500D01*
X6432500Y-16422214D01*
X6475357Y-16422214D01*
X6503928Y-16436500D01*
X6518214Y-16465071D01*
X6518214Y-16622214D01*
X6518214Y-16465071D02*
X6532500Y-16436500D01*
X6561071Y-16422214D01*
X6603928Y-16422214D01*
X6632500Y-16436500D01*
X6646786Y-16465071D01*
X6646786Y-16622214D01*
X7232500Y-16307929D02*
X6975357Y-16693643D01*
X7618214Y-16322214D02*
X7646786Y-16322214D01*
X7675357Y-16336500D01*
X7689643Y-16350786D01*
X7703928Y-16379357D01*
X7718214Y-16436500D01*
X7718214Y-16507929D01*
X7703928Y-16565071D01*
X7689643Y-16593643D01*
X7675357Y-16607929D01*
X7646786Y-16622214D01*
X7618214Y-16622214D01*
X7589643Y-16607929D01*
X7575357Y-16593643D01*
X7561071Y-16565071D01*
X7546786Y-16507929D01*
X7546786Y-16436500D01*
X7561071Y-16379357D01*
X7575357Y-16350786D01*
X7589643Y-16336500D01*
X7618214Y-16322214D01*
X7846786Y-16593643D02*
X7861071Y-16607929D01*
X7846786Y-16622214D01*
X7832500Y-16607929D01*
X7846786Y-16593643D01*
X7846786Y-16622214D01*
X8046786Y-16322214D02*
X8075357Y-16322214D01*
X8103928Y-16336500D01*
X8118214Y-16350786D01*
X8132500Y-16379357D01*
X8146786Y-16436500D01*
X8146786Y-16507929D01*
X8132500Y-16565071D01*
X8118214Y-16593643D01*
X8103928Y-16607929D01*
X8075357Y-16622214D01*
X8046786Y-16622214D01*
X8018214Y-16607929D01*
X8003928Y-16593643D01*
X7989643Y-16565071D01*
X7975357Y-16507929D01*
X7975357Y-16436500D01*
X7989643Y-16379357D01*
X8003928Y-16350786D01*
X8018214Y-16336500D01*
X8046786Y-16322214D01*
X8246786Y-16322214D02*
X8432500Y-16322214D01*
X8332500Y-16436500D01*
X8375357Y-16436500D01*
X8403928Y-16450786D01*
X8418214Y-16465071D01*
X8432500Y-16493643D01*
X8432500Y-16565071D01*
X8418214Y-16593643D01*
X8403928Y-16607929D01*
X8375357Y-16622214D01*
X8289643Y-16622214D01*
X8261071Y-16607929D01*
X8246786Y-16593643D01*
X8575357Y-16622214D02*
X8632500Y-16622214D01*
X8661071Y-16607929D01*
X8675357Y-16593643D01*
X8703928Y-16550786D01*
X8718214Y-16493643D01*
X8718214Y-16379357D01*
X8703928Y-16350786D01*
X8689643Y-16336500D01*
X8661071Y-16322214D01*
X8603928Y-16322214D01*
X8575357Y-16336500D01*
X8561071Y-16350786D01*
X8546786Y-16379357D01*
X8546786Y-16450786D01*
X8561071Y-16479357D01*
X8575357Y-16493643D01*
X8603928Y-16507929D01*
X8661071Y-16507929D01*
X8689643Y-16493643D01*
X8703928Y-16479357D01*
X8718214Y-16450786D01*
X8975357Y-16422214D02*
X8975357Y-16622214D01*
X8903928Y-16307929D02*
X8832500Y-16522214D01*
X9018214Y-16522214D01*
X9118214Y-16322214D02*
X9118214Y-16379357D01*
X9232500Y-16322214D02*
X9232500Y-16379357D01*
X9675357Y-16736500D02*
X9661071Y-16722214D01*
X9632500Y-16679357D01*
X9618214Y-16650786D01*
X9603928Y-16607929D01*
X9589643Y-16536500D01*
X9589643Y-16479357D01*
X9603928Y-16407929D01*
X9618214Y-16365071D01*
X9632500Y-16336500D01*
X9661071Y-16293643D01*
X9675357Y-16279357D01*
X9761071Y-16322214D02*
X9946786Y-16322214D01*
X9846786Y-16436500D01*
X9889643Y-16436500D01*
X9918214Y-16450786D01*
X9932500Y-16465071D01*
X9946786Y-16493643D01*
X9946786Y-16565071D01*
X9932500Y-16593643D01*
X9918214Y-16607929D01*
X9889643Y-16622214D01*
X9803928Y-16622214D01*
X9775357Y-16607929D01*
X9761071Y-16593643D01*
X10203928Y-16322214D02*
X10146786Y-16322214D01*
X10118214Y-16336500D01*
X10103928Y-16350786D01*
X10075357Y-16393643D01*
X10061071Y-16450786D01*
X10061071Y-16565071D01*
X10075357Y-16593643D01*
X10089643Y-16607929D01*
X10118214Y-16622214D01*
X10175357Y-16622214D01*
X10203928Y-16607929D01*
X10218214Y-16593643D01*
X10232500Y-16565071D01*
X10232500Y-16493643D01*
X10218214Y-16465071D01*
X10203928Y-16450786D01*
X10175357Y-16436500D01*
X10118214Y-16436500D01*
X10089643Y-16450786D01*
X10075357Y-16465071D01*
X10061071Y-16493643D01*
X10589643Y-16622214D02*
X10589643Y-16322214D01*
X10718214Y-16622214D02*
X10718214Y-16465071D01*
X10703928Y-16436500D01*
X10675357Y-16422214D01*
X10632500Y-16422214D01*
X10603928Y-16436500D01*
X10589643Y-16450786D01*
X10903928Y-16622214D02*
X10875357Y-16607929D01*
X10861071Y-16593643D01*
X10846786Y-16565071D01*
X10846786Y-16479357D01*
X10861071Y-16450786D01*
X10875357Y-16436500D01*
X10903928Y-16422214D01*
X10946786Y-16422214D01*
X10975357Y-16436500D01*
X10989643Y-16450786D01*
X11003928Y-16479357D01*
X11003928Y-16565071D01*
X10989643Y-16593643D01*
X10975357Y-16607929D01*
X10946786Y-16622214D01*
X10903928Y-16622214D01*
X11175357Y-16622214D02*
X11146786Y-16607929D01*
X11132500Y-16579357D01*
X11132500Y-16322214D01*
X11403928Y-16607929D02*
X11375357Y-16622214D01*
X11318214Y-16622214D01*
X11289643Y-16607929D01*
X11275357Y-16579357D01*
X11275357Y-16465071D01*
X11289643Y-16436500D01*
X11318214Y-16422214D01*
X11375357Y-16422214D01*
X11403928Y-16436500D01*
X11418214Y-16465071D01*
X11418214Y-16493643D01*
X11275357Y-16522214D01*
X11532500Y-16607929D02*
X11561071Y-16622214D01*
X11618214Y-16622214D01*
X11646786Y-16607929D01*
X11661071Y-16579357D01*
X11661071Y-16565071D01*
X11646786Y-16536500D01*
X11618214Y-16522214D01*
X11575357Y-16522214D01*
X11546786Y-16507929D01*
X11532500Y-16479357D01*
X11532500Y-16465071D01*
X11546786Y-16436500D01*
X11575357Y-16422214D01*
X11618214Y-16422214D01*
X11646786Y-16436500D01*
X11761071Y-16736500D02*
X11775357Y-16722214D01*
X11803928Y-16679357D01*
X11818214Y-16650786D01*
X11832500Y-16607929D01*
X11846786Y-16536500D01*
X11846786Y-16479357D01*
X11832500Y-16407929D01*
X11818214Y-16365071D01*
X11803928Y-16336500D01*
X11775357Y-16293643D01*
X11761071Y-16279357D01*
X4287500Y-16817500D02*
X4417500Y-16947500D01*
X4417500Y-16817500D02*
X4287500Y-16947500D01*
X4417500Y-16882500D02*
G75*
G03*
X4417500Y-16882500I-65000J0D01*
G01*
X4861071Y-17018214D02*
X4689643Y-17018214D01*
X4775357Y-17018214D02*
X4775357Y-16718214D01*
X4746786Y-16761071D01*
X4718214Y-16789643D01*
X4689643Y-16803929D01*
X4989643Y-16989643D02*
X5003928Y-17003929D01*
X4989643Y-17018214D01*
X4975357Y-17003929D01*
X4989643Y-16989643D01*
X4989643Y-17018214D01*
X5103928Y-16718214D02*
X5289643Y-16718214D01*
X5189643Y-16832500D01*
X5232500Y-16832500D01*
X5261071Y-16846786D01*
X5275357Y-16861072D01*
X5289643Y-16889643D01*
X5289643Y-16961072D01*
X5275357Y-16989643D01*
X5261071Y-17003929D01*
X5232500Y-17018214D01*
X5146786Y-17018214D01*
X5118214Y-17003929D01*
X5103928Y-16989643D01*
X5475357Y-16718214D02*
X5503928Y-16718214D01*
X5532500Y-16732500D01*
X5546786Y-16746786D01*
X5561071Y-16775357D01*
X5575357Y-16832500D01*
X5575357Y-16903929D01*
X5561071Y-16961072D01*
X5546786Y-16989643D01*
X5532500Y-17003929D01*
X5503928Y-17018214D01*
X5475357Y-17018214D01*
X5446786Y-17003929D01*
X5432500Y-16989643D01*
X5418214Y-16961072D01*
X5403928Y-16903929D01*
X5403928Y-16832500D01*
X5418214Y-16775357D01*
X5432500Y-16746786D01*
X5446786Y-16732500D01*
X5475357Y-16718214D01*
X5761071Y-16718214D02*
X5789643Y-16718214D01*
X5818214Y-16732500D01*
X5832500Y-16746786D01*
X5846786Y-16775357D01*
X5861071Y-16832500D01*
X5861071Y-16903929D01*
X5846786Y-16961072D01*
X5832500Y-16989643D01*
X5818214Y-17003929D01*
X5789643Y-17018214D01*
X5761071Y-17018214D01*
X5732500Y-17003929D01*
X5718214Y-16989643D01*
X5703928Y-16961072D01*
X5689643Y-16903929D01*
X5689643Y-16832500D01*
X5703928Y-16775357D01*
X5718214Y-16746786D01*
X5732500Y-16732500D01*
X5761071Y-16718214D01*
X5989643Y-17018214D02*
X5989643Y-16818214D01*
X5989643Y-16846786D02*
X6003928Y-16832500D01*
X6032500Y-16818214D01*
X6075357Y-16818214D01*
X6103928Y-16832500D01*
X6118214Y-16861072D01*
X6118214Y-17018214D01*
X6118214Y-16861072D02*
X6132500Y-16832500D01*
X6161071Y-16818214D01*
X6203928Y-16818214D01*
X6232500Y-16832500D01*
X6246786Y-16861072D01*
X6246786Y-17018214D01*
X6389643Y-17018214D02*
X6389643Y-16818214D01*
X6389643Y-16846786D02*
X6403928Y-16832500D01*
X6432500Y-16818214D01*
X6475357Y-16818214D01*
X6503928Y-16832500D01*
X6518214Y-16861072D01*
X6518214Y-17018214D01*
X6518214Y-16861072D02*
X6532500Y-16832500D01*
X6561071Y-16818214D01*
X6603928Y-16818214D01*
X6632500Y-16832500D01*
X6646786Y-16861072D01*
X6646786Y-17018214D01*
X7232500Y-16703929D02*
X6975357Y-17089643D01*
X7618214Y-16718214D02*
X7646786Y-16718214D01*
X7675357Y-16732500D01*
X7689643Y-16746786D01*
X7703928Y-16775357D01*
X7718214Y-16832500D01*
X7718214Y-16903929D01*
X7703928Y-16961072D01*
X7689643Y-16989643D01*
X7675357Y-17003929D01*
X7646786Y-17018214D01*
X7618214Y-17018214D01*
X7589643Y-17003929D01*
X7575357Y-16989643D01*
X7561071Y-16961072D01*
X7546786Y-16903929D01*
X7546786Y-16832500D01*
X7561071Y-16775357D01*
X7575357Y-16746786D01*
X7589643Y-16732500D01*
X7618214Y-16718214D01*
X7846786Y-16989643D02*
X7861071Y-17003929D01*
X7846786Y-17018214D01*
X7832500Y-17003929D01*
X7846786Y-16989643D01*
X7846786Y-17018214D01*
X8046786Y-16718214D02*
X8075357Y-16718214D01*
X8103928Y-16732500D01*
X8118214Y-16746786D01*
X8132500Y-16775357D01*
X8146786Y-16832500D01*
X8146786Y-16903929D01*
X8132500Y-16961072D01*
X8118214Y-16989643D01*
X8103928Y-17003929D01*
X8075357Y-17018214D01*
X8046786Y-17018214D01*
X8018214Y-17003929D01*
X8003928Y-16989643D01*
X7989643Y-16961072D01*
X7975357Y-16903929D01*
X7975357Y-16832500D01*
X7989643Y-16775357D01*
X8003928Y-16746786D01*
X8018214Y-16732500D01*
X8046786Y-16718214D01*
X8418214Y-16718214D02*
X8275357Y-16718214D01*
X8261071Y-16861072D01*
X8275357Y-16846786D01*
X8303928Y-16832500D01*
X8375357Y-16832500D01*
X8403928Y-16846786D01*
X8418214Y-16861072D01*
X8432500Y-16889643D01*
X8432500Y-16961072D01*
X8418214Y-16989643D01*
X8403928Y-17003929D01*
X8375357Y-17018214D01*
X8303928Y-17018214D01*
X8275357Y-17003929D01*
X8261071Y-16989643D01*
X8718214Y-17018214D02*
X8546786Y-17018214D01*
X8632500Y-17018214D02*
X8632500Y-16718214D01*
X8603928Y-16761071D01*
X8575357Y-16789643D01*
X8546786Y-16803929D01*
X8832500Y-16746786D02*
X8846786Y-16732500D01*
X8875357Y-16718214D01*
X8946786Y-16718214D01*
X8975357Y-16732500D01*
X8989643Y-16746786D01*
X9003928Y-16775357D01*
X9003928Y-16803929D01*
X8989643Y-16846786D01*
X8818214Y-17018214D01*
X9003928Y-17018214D01*
X9118214Y-16718214D02*
X9118214Y-16775357D01*
X9232500Y-16718214D02*
X9232500Y-16775357D01*
X9675357Y-17132500D02*
X9661071Y-17118214D01*
X9632500Y-17075357D01*
X9618214Y-17046786D01*
X9603928Y-17003929D01*
X9589643Y-16932500D01*
X9589643Y-16875357D01*
X9603928Y-16803929D01*
X9618214Y-16761071D01*
X9632500Y-16732500D01*
X9661071Y-16689643D01*
X9675357Y-16675357D01*
X9918214Y-16718214D02*
X9861071Y-16718214D01*
X9832500Y-16732500D01*
X9818214Y-16746786D01*
X9789643Y-16789643D01*
X9775357Y-16846786D01*
X9775357Y-16961072D01*
X9789643Y-16989643D01*
X9803928Y-17003929D01*
X9832500Y-17018214D01*
X9889643Y-17018214D01*
X9918214Y-17003929D01*
X9932500Y-16989643D01*
X9946786Y-16961072D01*
X9946786Y-16889643D01*
X9932500Y-16861072D01*
X9918214Y-16846786D01*
X9889643Y-16832500D01*
X9832500Y-16832500D01*
X9803928Y-16846786D01*
X9789643Y-16861072D01*
X9775357Y-16889643D01*
X10303928Y-17018214D02*
X10303928Y-16718214D01*
X10432500Y-17018214D02*
X10432500Y-16861072D01*
X10418214Y-16832500D01*
X10389643Y-16818214D01*
X10346786Y-16818214D01*
X10318214Y-16832500D01*
X10303928Y-16846786D01*
X10618214Y-17018214D02*
X10589643Y-17003929D01*
X10575357Y-16989643D01*
X10561071Y-16961072D01*
X10561071Y-16875357D01*
X10575357Y-16846786D01*
X10589643Y-16832500D01*
X10618214Y-16818214D01*
X10661071Y-16818214D01*
X10689643Y-16832500D01*
X10703928Y-16846786D01*
X10718214Y-16875357D01*
X10718214Y-16961072D01*
X10703928Y-16989643D01*
X10689643Y-17003929D01*
X10661071Y-17018214D01*
X10618214Y-17018214D01*
X10889643Y-17018214D02*
X10861071Y-17003929D01*
X10846786Y-16975357D01*
X10846786Y-16718214D01*
X11118214Y-17003929D02*
X11089643Y-17018214D01*
X11032500Y-17018214D01*
X11003928Y-17003929D01*
X10989643Y-16975357D01*
X10989643Y-16861072D01*
X11003928Y-16832500D01*
X11032500Y-16818214D01*
X11089643Y-16818214D01*
X11118214Y-16832500D01*
X11132500Y-16861072D01*
X11132500Y-16889643D01*
X10989643Y-16918214D01*
X11246786Y-17003929D02*
X11275357Y-17018214D01*
X11332500Y-17018214D01*
X11361071Y-17003929D01*
X11375357Y-16975357D01*
X11375357Y-16961072D01*
X11361071Y-16932500D01*
X11332500Y-16918214D01*
X11289643Y-16918214D01*
X11261071Y-16903929D01*
X11246786Y-16875357D01*
X11246786Y-16861072D01*
X11261071Y-16832500D01*
X11289643Y-16818214D01*
X11332500Y-16818214D01*
X11361071Y-16832500D01*
X11475357Y-17132500D02*
X11489643Y-17118214D01*
X11518214Y-17075357D01*
X11532500Y-17046786D01*
X11546786Y-17003929D01*
X11561071Y-16932500D01*
X11561071Y-16875357D01*
X11546786Y-16803929D01*
X11532500Y-16761071D01*
X11518214Y-16732500D01*
X11489643Y-16689643D01*
X11475357Y-16675357D01*
X4117500Y-17128500D02*
X4417500Y-17428500D01*
X4417500Y-17128500D02*
X4117500Y-17428500D01*
X4267500Y-17128500D02*
X4267500Y-17428500D01*
X4117500Y-17278500D02*
X4417500Y-17278500D01*
X4675357Y-17114214D02*
X4861071Y-17114214D01*
X4761071Y-17228500D01*
X4803928Y-17228500D01*
X4832500Y-17242786D01*
X4846786Y-17257072D01*
X4861071Y-17285643D01*
X4861071Y-17357072D01*
X4846786Y-17385643D01*
X4832500Y-17399929D01*
X4803928Y-17414214D01*
X4718214Y-17414214D01*
X4689643Y-17399929D01*
X4675357Y-17385643D01*
X4989643Y-17385643D02*
X5003928Y-17399929D01*
X4989643Y-17414214D01*
X4975357Y-17399929D01*
X4989643Y-17385643D01*
X4989643Y-17414214D01*
X5189643Y-17114214D02*
X5218214Y-17114214D01*
X5246786Y-17128500D01*
X5261071Y-17142786D01*
X5275357Y-17171357D01*
X5289643Y-17228500D01*
X5289643Y-17299929D01*
X5275357Y-17357072D01*
X5261071Y-17385643D01*
X5246786Y-17399929D01*
X5218214Y-17414214D01*
X5189643Y-17414214D01*
X5161071Y-17399929D01*
X5146786Y-17385643D01*
X5132500Y-17357072D01*
X5118214Y-17299929D01*
X5118214Y-17228500D01*
X5132500Y-17171357D01*
X5146786Y-17142786D01*
X5161071Y-17128500D01*
X5189643Y-17114214D01*
X5475357Y-17114214D02*
X5503928Y-17114214D01*
X5532500Y-17128500D01*
X5546786Y-17142786D01*
X5561071Y-17171357D01*
X5575357Y-17228500D01*
X5575357Y-17299929D01*
X5561071Y-17357072D01*
X5546786Y-17385643D01*
X5532500Y-17399929D01*
X5503928Y-17414214D01*
X5475357Y-17414214D01*
X5446786Y-17399929D01*
X5432500Y-17385643D01*
X5418214Y-17357072D01*
X5403928Y-17299929D01*
X5403928Y-17228500D01*
X5418214Y-17171357D01*
X5432500Y-17142786D01*
X5446786Y-17128500D01*
X5475357Y-17114214D01*
X5761071Y-17114214D02*
X5789643Y-17114214D01*
X5818214Y-17128500D01*
X5832500Y-17142786D01*
X5846786Y-17171357D01*
X5861071Y-17228500D01*
X5861071Y-17299929D01*
X5846786Y-17357072D01*
X5832500Y-17385643D01*
X5818214Y-17399929D01*
X5789643Y-17414214D01*
X5761071Y-17414214D01*
X5732500Y-17399929D01*
X5718214Y-17385643D01*
X5703928Y-17357072D01*
X5689643Y-17299929D01*
X5689643Y-17228500D01*
X5703928Y-17171357D01*
X5718214Y-17142786D01*
X5732500Y-17128500D01*
X5761071Y-17114214D01*
X5989643Y-17414214D02*
X5989643Y-17214214D01*
X5989643Y-17242786D02*
X6003928Y-17228500D01*
X6032500Y-17214214D01*
X6075357Y-17214214D01*
X6103928Y-17228500D01*
X6118214Y-17257072D01*
X6118214Y-17414214D01*
X6118214Y-17257072D02*
X6132500Y-17228500D01*
X6161071Y-17214214D01*
X6203928Y-17214214D01*
X6232500Y-17228500D01*
X6246786Y-17257072D01*
X6246786Y-17414214D01*
X6389643Y-17414214D02*
X6389643Y-17214214D01*
X6389643Y-17242786D02*
X6403928Y-17228500D01*
X6432500Y-17214214D01*
X6475357Y-17214214D01*
X6503928Y-17228500D01*
X6518214Y-17257072D01*
X6518214Y-17414214D01*
X6518214Y-17257072D02*
X6532500Y-17228500D01*
X6561071Y-17214214D01*
X6603928Y-17214214D01*
X6632500Y-17228500D01*
X6646786Y-17257072D01*
X6646786Y-17414214D01*
X7232500Y-17099929D02*
X6975357Y-17485643D01*
X7618214Y-17114214D02*
X7646786Y-17114214D01*
X7675357Y-17128500D01*
X7689643Y-17142786D01*
X7703928Y-17171357D01*
X7718214Y-17228500D01*
X7718214Y-17299929D01*
X7703928Y-17357072D01*
X7689643Y-17385643D01*
X7675357Y-17399929D01*
X7646786Y-17414214D01*
X7618214Y-17414214D01*
X7589643Y-17399929D01*
X7575357Y-17385643D01*
X7561071Y-17357072D01*
X7546786Y-17299929D01*
X7546786Y-17228500D01*
X7561071Y-17171357D01*
X7575357Y-17142786D01*
X7589643Y-17128500D01*
X7618214Y-17114214D01*
X7846786Y-17385643D02*
X7861071Y-17399929D01*
X7846786Y-17414214D01*
X7832500Y-17399929D01*
X7846786Y-17385643D01*
X7846786Y-17414214D01*
X8146786Y-17414214D02*
X7975357Y-17414214D01*
X8061071Y-17414214D02*
X8061071Y-17114214D01*
X8032500Y-17157072D01*
X8003928Y-17185643D01*
X7975357Y-17199929D01*
X8432500Y-17414214D02*
X8261071Y-17414214D01*
X8346786Y-17414214D02*
X8346786Y-17114214D01*
X8318214Y-17157072D01*
X8289643Y-17185643D01*
X8261071Y-17199929D01*
X8603928Y-17242786D02*
X8575357Y-17228500D01*
X8561071Y-17214214D01*
X8546786Y-17185643D01*
X8546786Y-17171357D01*
X8561071Y-17142786D01*
X8575357Y-17128500D01*
X8603928Y-17114214D01*
X8661071Y-17114214D01*
X8689643Y-17128500D01*
X8703928Y-17142786D01*
X8718214Y-17171357D01*
X8718214Y-17185643D01*
X8703928Y-17214214D01*
X8689643Y-17228500D01*
X8661071Y-17242786D01*
X8603928Y-17242786D01*
X8575357Y-17257072D01*
X8561071Y-17271357D01*
X8546786Y-17299929D01*
X8546786Y-17357072D01*
X8561071Y-17385643D01*
X8575357Y-17399929D01*
X8603928Y-17414214D01*
X8661071Y-17414214D01*
X8689643Y-17399929D01*
X8703928Y-17385643D01*
X8718214Y-17357072D01*
X8718214Y-17299929D01*
X8703928Y-17271357D01*
X8689643Y-17257072D01*
X8661071Y-17242786D01*
X9003928Y-17414214D02*
X8832500Y-17414214D01*
X8918214Y-17414214D02*
X8918214Y-17114214D01*
X8889643Y-17157072D01*
X8861071Y-17185643D01*
X8832500Y-17199929D01*
X9118214Y-17114214D02*
X9118214Y-17171357D01*
X9232500Y-17114214D02*
X9232500Y-17171357D01*
X9675357Y-17528500D02*
X9661071Y-17514214D01*
X9632500Y-17471357D01*
X9618214Y-17442786D01*
X9603928Y-17399929D01*
X9589643Y-17328500D01*
X9589643Y-17271357D01*
X9603928Y-17199929D01*
X9618214Y-17157072D01*
X9632500Y-17128500D01*
X9661071Y-17085643D01*
X9675357Y-17071357D01*
X9918214Y-17214214D02*
X9918214Y-17414214D01*
X9846786Y-17099929D02*
X9775357Y-17314214D01*
X9961071Y-17314214D01*
X10303928Y-17414214D02*
X10303928Y-17114214D01*
X10432500Y-17414214D02*
X10432500Y-17257072D01*
X10418214Y-17228500D01*
X10389643Y-17214214D01*
X10346786Y-17214214D01*
X10318214Y-17228500D01*
X10303928Y-17242786D01*
X10618214Y-17414214D02*
X10589643Y-17399929D01*
X10575357Y-17385643D01*
X10561071Y-17357072D01*
X10561071Y-17271357D01*
X10575357Y-17242786D01*
X10589643Y-17228500D01*
X10618214Y-17214214D01*
X10661071Y-17214214D01*
X10689643Y-17228500D01*
X10703928Y-17242786D01*
X10718214Y-17271357D01*
X10718214Y-17357072D01*
X10703928Y-17385643D01*
X10689643Y-17399929D01*
X10661071Y-17414214D01*
X10618214Y-17414214D01*
X10889643Y-17414214D02*
X10861071Y-17399929D01*
X10846786Y-17371357D01*
X10846786Y-17114214D01*
X11118214Y-17399929D02*
X11089643Y-17414214D01*
X11032500Y-17414214D01*
X11003928Y-17399929D01*
X10989643Y-17371357D01*
X10989643Y-17257072D01*
X11003928Y-17228500D01*
X11032500Y-17214214D01*
X11089643Y-17214214D01*
X11118214Y-17228500D01*
X11132500Y-17257072D01*
X11132500Y-17285643D01*
X10989643Y-17314214D01*
X11246786Y-17399929D02*
X11275357Y-17414214D01*
X11332500Y-17414214D01*
X11361071Y-17399929D01*
X11375357Y-17371357D01*
X11375357Y-17357072D01*
X11361071Y-17328500D01*
X11332500Y-17314214D01*
X11289643Y-17314214D01*
X11261071Y-17299929D01*
X11246786Y-17271357D01*
X11246786Y-17257072D01*
X11261071Y-17228500D01*
X11289643Y-17214214D01*
X11332500Y-17214214D01*
X11361071Y-17228500D01*
X11475357Y-17528500D02*
X11489643Y-17514214D01*
X11518214Y-17471357D01*
X11532500Y-17442786D01*
X11546786Y-17399929D01*
X11561071Y-17328500D01*
X11561071Y-17271357D01*
X11546786Y-17199929D01*
X11532500Y-17157072D01*
X11518214Y-17128500D01*
X11489643Y-17085643D01*
X11475357Y-17071357D01*
M02*
