G04 #@! TF.GenerationSoftware,KiCad,Pcbnew,(5.1.10)-1*
G04 #@! TF.CreationDate,2021-08-26T19:54:54+02:00*
G04 #@! TF.ProjectId,CT_Sensor_Mains,43545f53-656e-4736-9f72-5f4d61696e73,rev?*
G04 #@! TF.SameCoordinates,Original*
G04 #@! TF.FileFunction,Copper,L2,Bot*
G04 #@! TF.FilePolarity,Positive*
%FSLAX46Y46*%
G04 Gerber Fmt 4.6, Leading zero omitted, Abs format (unit mm)*
G04 Created by KiCad (PCBNEW (5.1.10)-1) date 2021-08-26 19:54:54*
%MOMM*%
%LPD*%
G01*
G04 APERTURE LIST*
G04 #@! TA.AperFunction,ComponentPad*
%ADD10O,1.600000X2.000000*%
G04 #@! TD*
G04 #@! TA.AperFunction,ComponentPad*
%ADD11R,2.000000X2.000000*%
G04 #@! TD*
G04 #@! TA.AperFunction,ComponentPad*
%ADD12C,2.600000*%
G04 #@! TD*
G04 #@! TA.AperFunction,ComponentPad*
%ADD13R,2.600000X2.600000*%
G04 #@! TD*
G04 #@! TA.AperFunction,ComponentPad*
%ADD14O,1.600000X1.600000*%
G04 #@! TD*
G04 #@! TA.AperFunction,ComponentPad*
%ADD15R,1.600000X1.600000*%
G04 #@! TD*
G04 #@! TA.AperFunction,ComponentPad*
%ADD16C,1.600000*%
G04 #@! TD*
G04 #@! TA.AperFunction,ComponentPad*
%ADD17O,1.700000X1.700000*%
G04 #@! TD*
G04 #@! TA.AperFunction,ComponentPad*
%ADD18R,1.700000X1.700000*%
G04 #@! TD*
G04 #@! TA.AperFunction,ComponentPad*
%ADD19C,2.300000*%
G04 #@! TD*
G04 #@! TA.AperFunction,ComponentPad*
%ADD20R,2.300000X2.000000*%
G04 #@! TD*
G04 #@! TA.AperFunction,ComponentPad*
%ADD21C,2.000000*%
G04 #@! TD*
G04 #@! TA.AperFunction,ViaPad*
%ADD22C,0.800000*%
G04 #@! TD*
G04 #@! TA.AperFunction,ViaPad*
%ADD23C,3.500000*%
G04 #@! TD*
G04 #@! TA.AperFunction,Conductor*
%ADD24C,0.250000*%
G04 #@! TD*
G04 #@! TA.AperFunction,Conductor*
%ADD25C,1.000000*%
G04 #@! TD*
G04 #@! TA.AperFunction,Conductor*
%ADD26C,0.254000*%
G04 #@! TD*
G04 #@! TA.AperFunction,Conductor*
%ADD27C,0.100000*%
G04 #@! TD*
G04 APERTURE END LIST*
D10*
X130650000Y-109835000D03*
X128110000Y-109835000D03*
X125570000Y-109835000D03*
X123030000Y-109835000D03*
X120490000Y-109835000D03*
X117950000Y-109835000D03*
X115410000Y-109835000D03*
X112870000Y-109835000D03*
X112870000Y-86975000D03*
X115410000Y-86975000D03*
X117950000Y-86975000D03*
X120490000Y-86975000D03*
X123030000Y-86975000D03*
X125570000Y-86975000D03*
D11*
X130650000Y-86975000D03*
D10*
X128110000Y-86975000D03*
D12*
X49925000Y-98600000D03*
X49925000Y-103600000D03*
X49925000Y-108600000D03*
D13*
X49925000Y-113600000D03*
D14*
X129650000Y-123670000D03*
X116950000Y-116050000D03*
X127110000Y-123670000D03*
X119490000Y-116050000D03*
X124570000Y-123670000D03*
X122030000Y-116050000D03*
X122030000Y-123670000D03*
X124570000Y-116050000D03*
X119490000Y-123670000D03*
X127110000Y-116050000D03*
X116950000Y-123670000D03*
D15*
X129650000Y-116050000D03*
D16*
X72925000Y-107000000D03*
X71125000Y-112000000D03*
D17*
X122725000Y-76705000D03*
X120185000Y-76705000D03*
X122725000Y-74165000D03*
X120185000Y-74165000D03*
X122725000Y-71625000D03*
X120185000Y-71625000D03*
X122725000Y-69085000D03*
X120185000Y-69085000D03*
X122725000Y-66545000D03*
X120185000Y-66545000D03*
X122725000Y-64005000D03*
D18*
X120185000Y-64005000D03*
D17*
X66125000Y-98780000D03*
X66125000Y-101320000D03*
X66125000Y-103860000D03*
D18*
X66125000Y-106400000D03*
D16*
X72925000Y-83600000D03*
X71125000Y-88600000D03*
X72925000Y-91400000D03*
X71125000Y-96400000D03*
X72925000Y-99200000D03*
X71125000Y-104200000D03*
D19*
X104200000Y-126200000D03*
X76200000Y-133800000D03*
D20*
X76200000Y-118600000D03*
D19*
X104200000Y-118600000D03*
D12*
X61200000Y-124400000D03*
X56200000Y-124400000D03*
D21*
X114100000Y-129300000D03*
D11*
X114100000Y-134300000D03*
D21*
X69200000Y-118400000D03*
X69200000Y-128400000D03*
D22*
X87700000Y-91420003D03*
X88724999Y-81424999D03*
X75200000Y-69400000D03*
X74700000Y-71400000D03*
X75200000Y-73650000D03*
X74700000Y-75650000D03*
X74950000Y-77650000D03*
X74700000Y-79650000D03*
X85950000Y-75150000D03*
X89450000Y-79400000D03*
X82700000Y-79400000D03*
X93950000Y-102900000D03*
X94950000Y-107650000D03*
X92700000Y-107650000D03*
X90700000Y-107650000D03*
X87700000Y-90420000D03*
X101200000Y-91920000D03*
X101200000Y-89900000D03*
X100700000Y-89150000D03*
X95700000Y-95400000D03*
X90950000Y-95900000D03*
X94405000Y-86400000D03*
X93700000Y-81100000D03*
X95800000Y-81100000D03*
X94500000Y-79200000D03*
X101100000Y-79500000D03*
X106100000Y-79300000D03*
X109400000Y-74800000D03*
X97700000Y-75000000D03*
X112800000Y-79100000D03*
X105400000Y-91600000D03*
X106700000Y-88700000D03*
X89700000Y-102800000D03*
X83900000Y-90000000D03*
X83700000Y-92300000D03*
X83600000Y-94700000D03*
D23*
X48200000Y-59400000D03*
X48200000Y-135400000D03*
D22*
X88884154Y-91420000D03*
X88950000Y-82900000D03*
X88333530Y-92254756D03*
X90950000Y-84150000D03*
X88013460Y-93202152D03*
X90587653Y-85287653D03*
X88863824Y-93925256D03*
X98700000Y-86150000D03*
X87950000Y-94400000D03*
X99450000Y-85400000D03*
X92700000Y-92400000D03*
X91700000Y-86650000D03*
D23*
X135200000Y-59400000D03*
X135200000Y-135400000D03*
D22*
X49925000Y-92325000D03*
X97500000Y-95100000D03*
X99300000Y-96800000D03*
X91535154Y-87814846D03*
X92634848Y-90965152D03*
X116700000Y-78700000D03*
X96630000Y-92220000D03*
X117700000Y-94400000D03*
X97355000Y-91512892D03*
X120450000Y-93400000D03*
X98051557Y-90795389D03*
X123200000Y-80400000D03*
X123000000Y-92700000D03*
X54450000Y-91150000D03*
X56200000Y-89900000D03*
X121700000Y-81100000D03*
D24*
X87772999Y-91420003D02*
X87700000Y-91420003D01*
X88425001Y-90768001D02*
X87772999Y-91420003D01*
X88425001Y-90071999D02*
X88425001Y-90768001D01*
X88048001Y-89694999D02*
X88425001Y-90071999D01*
X88048001Y-82101997D02*
X88048001Y-89694999D01*
X88724999Y-81424999D02*
X88048001Y-82101997D01*
X93700000Y-81100000D02*
X94800000Y-82200000D01*
X88884154Y-82965846D02*
X88950000Y-82900000D01*
X88884154Y-91420000D02*
X88884154Y-82965846D01*
X89122400Y-92254756D02*
X89700000Y-91677156D01*
X88333530Y-92254756D02*
X89122400Y-92254756D01*
X89700000Y-91677156D02*
X89700000Y-85150000D01*
X90700000Y-84150000D02*
X90950000Y-84150000D01*
X89700000Y-85150000D02*
X90700000Y-84150000D01*
X88811414Y-93202152D02*
X90450000Y-91563566D01*
X88013460Y-93202152D02*
X88811414Y-93202152D01*
X90450000Y-85425306D02*
X90587653Y-85287653D01*
X90450000Y-91563566D02*
X90450000Y-85425306D01*
X92247746Y-93925256D02*
X98700000Y-87473002D01*
X88863824Y-93925256D02*
X92247746Y-93925256D01*
X98700000Y-87473002D02*
X98700000Y-86150000D01*
X99450000Y-85400000D02*
X99450000Y-87650000D01*
X88200257Y-94650257D02*
X87950000Y-94400000D01*
X92449743Y-94650257D02*
X88200257Y-94650257D01*
X99450000Y-87650000D02*
X92449743Y-94650257D01*
X93359849Y-91740151D02*
X93359849Y-88309849D01*
X92700000Y-92400000D02*
X93359849Y-91740151D01*
X93359849Y-88309849D02*
X91700000Y-86650000D01*
D25*
X128110000Y-86975000D02*
X128110000Y-92273666D01*
X119091833Y-101291833D02*
X115308167Y-101291833D01*
X128110000Y-92273666D02*
X119091833Y-101291833D01*
X108100000Y-108500000D02*
X108100000Y-122300000D01*
X115308167Y-101291833D02*
X108100000Y-108500000D01*
X108100000Y-122300000D02*
X104200000Y-126200000D01*
D24*
X101200000Y-91920000D02*
X101200000Y-89900000D01*
X100700000Y-89400000D02*
X101200000Y-89900000D01*
X100700000Y-89150000D02*
X100700000Y-89400000D01*
X50000000Y-98525000D02*
X49925000Y-98600000D01*
X50000000Y-92000000D02*
X50000000Y-98525000D01*
D25*
X49925000Y-98600000D02*
X49925000Y-92325000D01*
D24*
X49925000Y-94225000D02*
X49925000Y-92325000D01*
X49925000Y-98600000D02*
X49925000Y-94225000D01*
X99200000Y-96800000D02*
X99300000Y-96800000D01*
X97500000Y-95100000D02*
X99200000Y-96800000D01*
X91535154Y-89865458D02*
X92634848Y-90965152D01*
X91535154Y-87814846D02*
X91535154Y-89865458D01*
X116700000Y-78700000D02*
X116700000Y-79600000D01*
X118925001Y-81825001D02*
X123674999Y-81825001D01*
X116700000Y-79600000D02*
X118925001Y-81825001D01*
X123674999Y-81825001D02*
X124700000Y-80800000D01*
X124700000Y-76140000D02*
X122725000Y-74165000D01*
X124700000Y-80800000D02*
X124700000Y-76140000D01*
X96630000Y-92220000D02*
X98810000Y-94400000D01*
X98810000Y-94400000D02*
X115700000Y-94400000D01*
X115700000Y-94400000D02*
X117700000Y-94400000D01*
X99242108Y-93400000D02*
X97355000Y-91512892D01*
X120450000Y-93400000D02*
X99242108Y-93400000D01*
X98051557Y-91001557D02*
X98051557Y-90795389D01*
X99695001Y-92645001D02*
X98051557Y-91001557D01*
X121549999Y-72989999D02*
X120185000Y-71625000D01*
X121549999Y-78749999D02*
X121549999Y-72989999D01*
X123200000Y-80400000D02*
X121549999Y-78749999D01*
X122945001Y-92645001D02*
X123000000Y-92700000D01*
X120445001Y-92645001D02*
X122945001Y-92645001D01*
X120445001Y-92645001D02*
X99695001Y-92645001D01*
X66125000Y-106400000D02*
X62200000Y-106400000D01*
X62200000Y-106400000D02*
X59700000Y-103900000D01*
X59700000Y-103900000D02*
X59700000Y-96400000D01*
X58700000Y-95400000D02*
X54400000Y-91100000D01*
X59700000Y-96400000D02*
X58700000Y-95400000D01*
X54400000Y-91100000D02*
X54450000Y-91150000D01*
X62200000Y-95900000D02*
X62200000Y-102400000D01*
X63660000Y-103860000D02*
X66125000Y-103860000D01*
X62200000Y-102400000D02*
X63660000Y-103860000D01*
X60800000Y-94500000D02*
X56200000Y-89900000D01*
X60800000Y-94500000D02*
X62200000Y-95900000D01*
X121700000Y-81100000D02*
X118300000Y-77700000D01*
X118300000Y-70970000D02*
X120185000Y-69085000D01*
X118300000Y-77700000D02*
X118300000Y-70970000D01*
D26*
X132073000Y-85500684D02*
X132004494Y-85444463D01*
X131894180Y-85385498D01*
X131774482Y-85349188D01*
X131650000Y-85336928D01*
X129650000Y-85336928D01*
X129525518Y-85349188D01*
X129405820Y-85385498D01*
X129295506Y-85444463D01*
X129198815Y-85523815D01*
X129119463Y-85620506D01*
X129072441Y-85708476D01*
X128911101Y-85576068D01*
X128661808Y-85442818D01*
X128391309Y-85360764D01*
X128110000Y-85333057D01*
X127828692Y-85360764D01*
X127558193Y-85442818D01*
X127308900Y-85576068D01*
X127090393Y-85755392D01*
X126911068Y-85973899D01*
X126840000Y-86106858D01*
X126768932Y-85973899D01*
X126589608Y-85755392D01*
X126371101Y-85576068D01*
X126121808Y-85442818D01*
X125851309Y-85360764D01*
X125570000Y-85333057D01*
X125288692Y-85360764D01*
X125018193Y-85442818D01*
X124768900Y-85576068D01*
X124550393Y-85755392D01*
X124371068Y-85973899D01*
X124300000Y-86106858D01*
X124228932Y-85973899D01*
X124049608Y-85755392D01*
X123831101Y-85576068D01*
X123581808Y-85442818D01*
X123311309Y-85360764D01*
X123030000Y-85333057D01*
X122748692Y-85360764D01*
X122478193Y-85442818D01*
X122228900Y-85576068D01*
X122010393Y-85755392D01*
X121831068Y-85973899D01*
X121760000Y-86106858D01*
X121688932Y-85973899D01*
X121509608Y-85755392D01*
X121291101Y-85576068D01*
X121041808Y-85442818D01*
X120771309Y-85360764D01*
X120490000Y-85333057D01*
X120208692Y-85360764D01*
X119938193Y-85442818D01*
X119688900Y-85576068D01*
X119470393Y-85755392D01*
X119291068Y-85973899D01*
X119220000Y-86106858D01*
X119148932Y-85973899D01*
X118969608Y-85755392D01*
X118751101Y-85576068D01*
X118501808Y-85442818D01*
X118231309Y-85360764D01*
X117950000Y-85333057D01*
X117668692Y-85360764D01*
X117398193Y-85442818D01*
X117148900Y-85576068D01*
X116930393Y-85755392D01*
X116751068Y-85973899D01*
X116680000Y-86106858D01*
X116608932Y-85973899D01*
X116429608Y-85755392D01*
X116211101Y-85576068D01*
X115961808Y-85442818D01*
X115691309Y-85360764D01*
X115410000Y-85333057D01*
X115128692Y-85360764D01*
X114858193Y-85442818D01*
X114608900Y-85576068D01*
X114390393Y-85755392D01*
X114211068Y-85973899D01*
X114140000Y-86106858D01*
X114068932Y-85973899D01*
X113889608Y-85755392D01*
X113671101Y-85576068D01*
X113421808Y-85442818D01*
X113151309Y-85360764D01*
X112870000Y-85333057D01*
X112588692Y-85360764D01*
X112318193Y-85442818D01*
X112068900Y-85576068D01*
X111850393Y-85755392D01*
X111671068Y-85973899D01*
X111537818Y-86223192D01*
X111455764Y-86493691D01*
X111435000Y-86704508D01*
X111435000Y-87245491D01*
X111455764Y-87456308D01*
X111537818Y-87726807D01*
X111671068Y-87976100D01*
X111850392Y-88194607D01*
X112068899Y-88373932D01*
X112318192Y-88507182D01*
X112588691Y-88589236D01*
X112870000Y-88616943D01*
X113151308Y-88589236D01*
X113421807Y-88507182D01*
X113671100Y-88373932D01*
X113889607Y-88194608D01*
X114068932Y-87976101D01*
X114140000Y-87843142D01*
X114211068Y-87976100D01*
X114390392Y-88194607D01*
X114608899Y-88373932D01*
X114858192Y-88507182D01*
X115128691Y-88589236D01*
X115410000Y-88616943D01*
X115691308Y-88589236D01*
X115961807Y-88507182D01*
X116211100Y-88373932D01*
X116429607Y-88194608D01*
X116608932Y-87976101D01*
X116680000Y-87843142D01*
X116751068Y-87976100D01*
X116930392Y-88194607D01*
X117148899Y-88373932D01*
X117398192Y-88507182D01*
X117668691Y-88589236D01*
X117950000Y-88616943D01*
X118231308Y-88589236D01*
X118501807Y-88507182D01*
X118751100Y-88373932D01*
X118969607Y-88194608D01*
X119148932Y-87976101D01*
X119220000Y-87843142D01*
X119291068Y-87976100D01*
X119470392Y-88194607D01*
X119688899Y-88373932D01*
X119938192Y-88507182D01*
X120208691Y-88589236D01*
X120490000Y-88616943D01*
X120771308Y-88589236D01*
X121041807Y-88507182D01*
X121291100Y-88373932D01*
X121509607Y-88194608D01*
X121688932Y-87976101D01*
X121760000Y-87843142D01*
X121831068Y-87976100D01*
X122010392Y-88194607D01*
X122228899Y-88373932D01*
X122478192Y-88507182D01*
X122748691Y-88589236D01*
X123030000Y-88616943D01*
X123311308Y-88589236D01*
X123581807Y-88507182D01*
X123831100Y-88373932D01*
X124049607Y-88194608D01*
X124228932Y-87976101D01*
X124300000Y-87843142D01*
X124371068Y-87976100D01*
X124550392Y-88194607D01*
X124768899Y-88373932D01*
X125018192Y-88507182D01*
X125288691Y-88589236D01*
X125570000Y-88616943D01*
X125851308Y-88589236D01*
X126121807Y-88507182D01*
X126371100Y-88373932D01*
X126589607Y-88194608D01*
X126768932Y-87976101D01*
X126840000Y-87843142D01*
X126911068Y-87976100D01*
X126975000Y-88054002D01*
X126975001Y-91803533D01*
X118621702Y-100156833D01*
X115363919Y-100156833D01*
X115308167Y-100151342D01*
X115085668Y-100173256D01*
X114871720Y-100238157D01*
X114674544Y-100343549D01*
X114545023Y-100449844D01*
X114545021Y-100449846D01*
X114501718Y-100485384D01*
X114466180Y-100528687D01*
X107336865Y-107658004D01*
X107293551Y-107693551D01*
X107151716Y-107866377D01*
X107084195Y-107992702D01*
X107046324Y-108063554D01*
X106981423Y-108277502D01*
X106959509Y-108500000D01*
X106965000Y-108555751D01*
X106965001Y-121829867D01*
X104379195Y-124415674D01*
X104375807Y-124415000D01*
X104024193Y-124415000D01*
X103679335Y-124483596D01*
X103354485Y-124618153D01*
X103062129Y-124813500D01*
X102813500Y-125062129D01*
X102618153Y-125354485D01*
X102483596Y-125679335D01*
X102415000Y-126024193D01*
X102415000Y-126375807D01*
X102483596Y-126720665D01*
X102618153Y-127045515D01*
X102813500Y-127337871D01*
X103062129Y-127586500D01*
X103354485Y-127781847D01*
X103679335Y-127916404D01*
X104024193Y-127985000D01*
X104375807Y-127985000D01*
X104720665Y-127916404D01*
X105045515Y-127781847D01*
X105337871Y-127586500D01*
X105586500Y-127337871D01*
X105781847Y-127045515D01*
X105916404Y-126720665D01*
X105985000Y-126375807D01*
X105985000Y-126024193D01*
X105984326Y-126020805D01*
X108476466Y-123528665D01*
X115515000Y-123528665D01*
X115515000Y-123811335D01*
X115570147Y-124088574D01*
X115678320Y-124349727D01*
X115835363Y-124584759D01*
X116035241Y-124784637D01*
X116270273Y-124941680D01*
X116531426Y-125049853D01*
X116808665Y-125105000D01*
X117091335Y-125105000D01*
X117368574Y-125049853D01*
X117629727Y-124941680D01*
X117864759Y-124784637D01*
X118064637Y-124584759D01*
X118220000Y-124352241D01*
X118375363Y-124584759D01*
X118575241Y-124784637D01*
X118810273Y-124941680D01*
X119071426Y-125049853D01*
X119348665Y-125105000D01*
X119631335Y-125105000D01*
X119908574Y-125049853D01*
X120169727Y-124941680D01*
X120404759Y-124784637D01*
X120604637Y-124584759D01*
X120760000Y-124352241D01*
X120915363Y-124584759D01*
X121115241Y-124784637D01*
X121350273Y-124941680D01*
X121611426Y-125049853D01*
X121888665Y-125105000D01*
X122171335Y-125105000D01*
X122448574Y-125049853D01*
X122709727Y-124941680D01*
X122944759Y-124784637D01*
X123144637Y-124584759D01*
X123300000Y-124352241D01*
X123455363Y-124584759D01*
X123655241Y-124784637D01*
X123890273Y-124941680D01*
X124151426Y-125049853D01*
X124428665Y-125105000D01*
X124711335Y-125105000D01*
X124988574Y-125049853D01*
X125249727Y-124941680D01*
X125484759Y-124784637D01*
X125684637Y-124584759D01*
X125840000Y-124352241D01*
X125995363Y-124584759D01*
X126195241Y-124784637D01*
X126430273Y-124941680D01*
X126691426Y-125049853D01*
X126968665Y-125105000D01*
X127251335Y-125105000D01*
X127528574Y-125049853D01*
X127789727Y-124941680D01*
X128024759Y-124784637D01*
X128224637Y-124584759D01*
X128380000Y-124352241D01*
X128535363Y-124584759D01*
X128735241Y-124784637D01*
X128970273Y-124941680D01*
X129231426Y-125049853D01*
X129508665Y-125105000D01*
X129791335Y-125105000D01*
X130068574Y-125049853D01*
X130329727Y-124941680D01*
X130564759Y-124784637D01*
X130764637Y-124584759D01*
X130921680Y-124349727D01*
X131029853Y-124088574D01*
X131085000Y-123811335D01*
X131085000Y-123528665D01*
X131029853Y-123251426D01*
X130921680Y-122990273D01*
X130764637Y-122755241D01*
X130564759Y-122555363D01*
X130329727Y-122398320D01*
X130068574Y-122290147D01*
X129791335Y-122235000D01*
X129508665Y-122235000D01*
X129231426Y-122290147D01*
X128970273Y-122398320D01*
X128735241Y-122555363D01*
X128535363Y-122755241D01*
X128380000Y-122987759D01*
X128224637Y-122755241D01*
X128024759Y-122555363D01*
X127789727Y-122398320D01*
X127528574Y-122290147D01*
X127251335Y-122235000D01*
X126968665Y-122235000D01*
X126691426Y-122290147D01*
X126430273Y-122398320D01*
X126195241Y-122555363D01*
X125995363Y-122755241D01*
X125840000Y-122987759D01*
X125684637Y-122755241D01*
X125484759Y-122555363D01*
X125249727Y-122398320D01*
X124988574Y-122290147D01*
X124711335Y-122235000D01*
X124428665Y-122235000D01*
X124151426Y-122290147D01*
X123890273Y-122398320D01*
X123655241Y-122555363D01*
X123455363Y-122755241D01*
X123300000Y-122987759D01*
X123144637Y-122755241D01*
X122944759Y-122555363D01*
X122709727Y-122398320D01*
X122448574Y-122290147D01*
X122171335Y-122235000D01*
X121888665Y-122235000D01*
X121611426Y-122290147D01*
X121350273Y-122398320D01*
X121115241Y-122555363D01*
X120915363Y-122755241D01*
X120760000Y-122987759D01*
X120604637Y-122755241D01*
X120404759Y-122555363D01*
X120169727Y-122398320D01*
X119908574Y-122290147D01*
X119631335Y-122235000D01*
X119348665Y-122235000D01*
X119071426Y-122290147D01*
X118810273Y-122398320D01*
X118575241Y-122555363D01*
X118375363Y-122755241D01*
X118220000Y-122987759D01*
X118064637Y-122755241D01*
X117864759Y-122555363D01*
X117629727Y-122398320D01*
X117368574Y-122290147D01*
X117091335Y-122235000D01*
X116808665Y-122235000D01*
X116531426Y-122290147D01*
X116270273Y-122398320D01*
X116035241Y-122555363D01*
X115835363Y-122755241D01*
X115678320Y-122990273D01*
X115570147Y-123251426D01*
X115515000Y-123528665D01*
X108476466Y-123528665D01*
X108863141Y-123141991D01*
X108906449Y-123106449D01*
X109048284Y-122933623D01*
X109153676Y-122736447D01*
X109218577Y-122522499D01*
X109235000Y-122355752D01*
X109240491Y-122300000D01*
X109235000Y-122244248D01*
X109235000Y-115908665D01*
X115515000Y-115908665D01*
X115515000Y-116191335D01*
X115570147Y-116468574D01*
X115678320Y-116729727D01*
X115835363Y-116964759D01*
X116035241Y-117164637D01*
X116270273Y-117321680D01*
X116531426Y-117429853D01*
X116808665Y-117485000D01*
X117091335Y-117485000D01*
X117368574Y-117429853D01*
X117629727Y-117321680D01*
X117864759Y-117164637D01*
X118064637Y-116964759D01*
X118220000Y-116732241D01*
X118375363Y-116964759D01*
X118575241Y-117164637D01*
X118810273Y-117321680D01*
X119071426Y-117429853D01*
X119348665Y-117485000D01*
X119631335Y-117485000D01*
X119908574Y-117429853D01*
X120169727Y-117321680D01*
X120404759Y-117164637D01*
X120604637Y-116964759D01*
X120760000Y-116732241D01*
X120915363Y-116964759D01*
X121115241Y-117164637D01*
X121350273Y-117321680D01*
X121611426Y-117429853D01*
X121888665Y-117485000D01*
X122171335Y-117485000D01*
X122448574Y-117429853D01*
X122709727Y-117321680D01*
X122944759Y-117164637D01*
X123144637Y-116964759D01*
X123300000Y-116732241D01*
X123455363Y-116964759D01*
X123655241Y-117164637D01*
X123890273Y-117321680D01*
X124151426Y-117429853D01*
X124428665Y-117485000D01*
X124711335Y-117485000D01*
X124988574Y-117429853D01*
X125249727Y-117321680D01*
X125484759Y-117164637D01*
X125684637Y-116964759D01*
X125840000Y-116732241D01*
X125995363Y-116964759D01*
X126195241Y-117164637D01*
X126430273Y-117321680D01*
X126691426Y-117429853D01*
X126968665Y-117485000D01*
X127251335Y-117485000D01*
X127528574Y-117429853D01*
X127789727Y-117321680D01*
X128024759Y-117164637D01*
X128223357Y-116966039D01*
X128224188Y-116974482D01*
X128260498Y-117094180D01*
X128319463Y-117204494D01*
X128398815Y-117301185D01*
X128495506Y-117380537D01*
X128605820Y-117439502D01*
X128725518Y-117475812D01*
X128850000Y-117488072D01*
X130450000Y-117488072D01*
X130574482Y-117475812D01*
X130694180Y-117439502D01*
X130804494Y-117380537D01*
X130901185Y-117301185D01*
X130980537Y-117204494D01*
X131039502Y-117094180D01*
X131075812Y-116974482D01*
X131088072Y-116850000D01*
X131088072Y-115250000D01*
X131075812Y-115125518D01*
X131039502Y-115005820D01*
X130980537Y-114895506D01*
X130901185Y-114798815D01*
X130804494Y-114719463D01*
X130694180Y-114660498D01*
X130574482Y-114624188D01*
X130450000Y-114611928D01*
X128850000Y-114611928D01*
X128725518Y-114624188D01*
X128605820Y-114660498D01*
X128495506Y-114719463D01*
X128398815Y-114798815D01*
X128319463Y-114895506D01*
X128260498Y-115005820D01*
X128224188Y-115125518D01*
X128223357Y-115133961D01*
X128024759Y-114935363D01*
X127789727Y-114778320D01*
X127528574Y-114670147D01*
X127251335Y-114615000D01*
X126968665Y-114615000D01*
X126691426Y-114670147D01*
X126430273Y-114778320D01*
X126195241Y-114935363D01*
X125995363Y-115135241D01*
X125840000Y-115367759D01*
X125684637Y-115135241D01*
X125484759Y-114935363D01*
X125249727Y-114778320D01*
X124988574Y-114670147D01*
X124711335Y-114615000D01*
X124428665Y-114615000D01*
X124151426Y-114670147D01*
X123890273Y-114778320D01*
X123655241Y-114935363D01*
X123455363Y-115135241D01*
X123300000Y-115367759D01*
X123144637Y-115135241D01*
X122944759Y-114935363D01*
X122709727Y-114778320D01*
X122448574Y-114670147D01*
X122171335Y-114615000D01*
X121888665Y-114615000D01*
X121611426Y-114670147D01*
X121350273Y-114778320D01*
X121115241Y-114935363D01*
X120915363Y-115135241D01*
X120760000Y-115367759D01*
X120604637Y-115135241D01*
X120404759Y-114935363D01*
X120169727Y-114778320D01*
X119908574Y-114670147D01*
X119631335Y-114615000D01*
X119348665Y-114615000D01*
X119071426Y-114670147D01*
X118810273Y-114778320D01*
X118575241Y-114935363D01*
X118375363Y-115135241D01*
X118220000Y-115367759D01*
X118064637Y-115135241D01*
X117864759Y-114935363D01*
X117629727Y-114778320D01*
X117368574Y-114670147D01*
X117091335Y-114615000D01*
X116808665Y-114615000D01*
X116531426Y-114670147D01*
X116270273Y-114778320D01*
X116035241Y-114935363D01*
X115835363Y-115135241D01*
X115678320Y-115370273D01*
X115570147Y-115631426D01*
X115515000Y-115908665D01*
X109235000Y-115908665D01*
X109235000Y-109564508D01*
X111435000Y-109564508D01*
X111435000Y-110105491D01*
X111455764Y-110316308D01*
X111537818Y-110586807D01*
X111671068Y-110836100D01*
X111850392Y-111054607D01*
X112068899Y-111233932D01*
X112318192Y-111367182D01*
X112588691Y-111449236D01*
X112870000Y-111476943D01*
X113151308Y-111449236D01*
X113421807Y-111367182D01*
X113671100Y-111233932D01*
X113889607Y-111054608D01*
X114068932Y-110836101D01*
X114138122Y-110706655D01*
X114145570Y-110724227D01*
X114304327Y-110957662D01*
X114505575Y-111155639D01*
X114741579Y-111310551D01*
X115003270Y-111416444D01*
X115060961Y-111426904D01*
X115283000Y-111304915D01*
X115283000Y-109962000D01*
X115263000Y-109962000D01*
X115263000Y-109708000D01*
X115283000Y-109708000D01*
X115283000Y-108365085D01*
X115060961Y-108243096D01*
X115003270Y-108253556D01*
X114741579Y-108359449D01*
X114505575Y-108514361D01*
X114304327Y-108712338D01*
X114145570Y-108945773D01*
X114138122Y-108963345D01*
X114068932Y-108833899D01*
X113889608Y-108615392D01*
X113671101Y-108436068D01*
X113421808Y-108302818D01*
X113151309Y-108220764D01*
X112870000Y-108193057D01*
X112588692Y-108220764D01*
X112318193Y-108302818D01*
X112068900Y-108436068D01*
X111850393Y-108615392D01*
X111671068Y-108833899D01*
X111537818Y-109083192D01*
X111455764Y-109353691D01*
X111435000Y-109564508D01*
X109235000Y-109564508D01*
X109235000Y-108970131D01*
X115778300Y-102426833D01*
X119036082Y-102426833D01*
X119091833Y-102432324D01*
X119147584Y-102426833D01*
X119147585Y-102426833D01*
X119314332Y-102410410D01*
X119528280Y-102345509D01*
X119725456Y-102240117D01*
X119898282Y-102098282D01*
X119933829Y-102054968D01*
X128873141Y-93115657D01*
X128916449Y-93080115D01*
X129058284Y-92907289D01*
X129163676Y-92710113D01*
X129228577Y-92496165D01*
X129241496Y-92365000D01*
X129250491Y-92273667D01*
X129245000Y-92217915D01*
X129245000Y-88464088D01*
X129295506Y-88505537D01*
X129405820Y-88564502D01*
X129525518Y-88600812D01*
X129650000Y-88613072D01*
X131650000Y-88613072D01*
X131774482Y-88600812D01*
X131894180Y-88564502D01*
X132004494Y-88505537D01*
X132073000Y-88449316D01*
X132073000Y-109442673D01*
X132064236Y-109353692D01*
X131982182Y-109083193D01*
X131848932Y-108833899D01*
X131669608Y-108615392D01*
X131451101Y-108436068D01*
X131201808Y-108302818D01*
X130931309Y-108220764D01*
X130650000Y-108193057D01*
X130368692Y-108220764D01*
X130098193Y-108302818D01*
X129848900Y-108436068D01*
X129630393Y-108615392D01*
X129451068Y-108833899D01*
X129380000Y-108966858D01*
X129308932Y-108833899D01*
X129129608Y-108615392D01*
X128911101Y-108436068D01*
X128661808Y-108302818D01*
X128391309Y-108220764D01*
X128110000Y-108193057D01*
X127828692Y-108220764D01*
X127558193Y-108302818D01*
X127308900Y-108436068D01*
X127090393Y-108615392D01*
X126911068Y-108833899D01*
X126840000Y-108966858D01*
X126768932Y-108833899D01*
X126589608Y-108615392D01*
X126371101Y-108436068D01*
X126121808Y-108302818D01*
X125851309Y-108220764D01*
X125570000Y-108193057D01*
X125288692Y-108220764D01*
X125018193Y-108302818D01*
X124768900Y-108436068D01*
X124550393Y-108615392D01*
X124371068Y-108833899D01*
X124300000Y-108966858D01*
X124228932Y-108833899D01*
X124049608Y-108615392D01*
X123831101Y-108436068D01*
X123581808Y-108302818D01*
X123311309Y-108220764D01*
X123030000Y-108193057D01*
X122748692Y-108220764D01*
X122478193Y-108302818D01*
X122228900Y-108436068D01*
X122010393Y-108615392D01*
X121831068Y-108833899D01*
X121760000Y-108966858D01*
X121688932Y-108833899D01*
X121509608Y-108615392D01*
X121291101Y-108436068D01*
X121041808Y-108302818D01*
X120771309Y-108220764D01*
X120490000Y-108193057D01*
X120208692Y-108220764D01*
X119938193Y-108302818D01*
X119688900Y-108436068D01*
X119470393Y-108615392D01*
X119291068Y-108833899D01*
X119220000Y-108966858D01*
X119148932Y-108833899D01*
X118969608Y-108615392D01*
X118751101Y-108436068D01*
X118501808Y-108302818D01*
X118231309Y-108220764D01*
X117950000Y-108193057D01*
X117668692Y-108220764D01*
X117398193Y-108302818D01*
X117148900Y-108436068D01*
X116930393Y-108615392D01*
X116751068Y-108833899D01*
X116681878Y-108963345D01*
X116674430Y-108945773D01*
X116515673Y-108712338D01*
X116314425Y-108514361D01*
X116078421Y-108359449D01*
X115816730Y-108253556D01*
X115759039Y-108243096D01*
X115537000Y-108365085D01*
X115537000Y-109708000D01*
X115557000Y-109708000D01*
X115557000Y-109962000D01*
X115537000Y-109962000D01*
X115537000Y-111304915D01*
X115759039Y-111426904D01*
X115816730Y-111416444D01*
X116078421Y-111310551D01*
X116314425Y-111155639D01*
X116515673Y-110957662D01*
X116674430Y-110724227D01*
X116681878Y-110706655D01*
X116751068Y-110836100D01*
X116930392Y-111054607D01*
X117148899Y-111233932D01*
X117398192Y-111367182D01*
X117668691Y-111449236D01*
X117950000Y-111476943D01*
X118231308Y-111449236D01*
X118501807Y-111367182D01*
X118751100Y-111233932D01*
X118969607Y-111054608D01*
X119148932Y-110836101D01*
X119220000Y-110703142D01*
X119291068Y-110836100D01*
X119470392Y-111054607D01*
X119688899Y-111233932D01*
X119938192Y-111367182D01*
X120208691Y-111449236D01*
X120490000Y-111476943D01*
X120771308Y-111449236D01*
X121041807Y-111367182D01*
X121291100Y-111233932D01*
X121509607Y-111054608D01*
X121688932Y-110836101D01*
X121760000Y-110703142D01*
X121831068Y-110836100D01*
X122010392Y-111054607D01*
X122228899Y-111233932D01*
X122478192Y-111367182D01*
X122748691Y-111449236D01*
X123030000Y-111476943D01*
X123311308Y-111449236D01*
X123581807Y-111367182D01*
X123831100Y-111233932D01*
X124049607Y-111054608D01*
X124228932Y-110836101D01*
X124300000Y-110703142D01*
X124371068Y-110836100D01*
X124550392Y-111054607D01*
X124768899Y-111233932D01*
X125018192Y-111367182D01*
X125288691Y-111449236D01*
X125570000Y-111476943D01*
X125851308Y-111449236D01*
X126121807Y-111367182D01*
X126371100Y-111233932D01*
X126589607Y-111054608D01*
X126768932Y-110836101D01*
X126840000Y-110703142D01*
X126911068Y-110836100D01*
X127090392Y-111054607D01*
X127308899Y-111233932D01*
X127558192Y-111367182D01*
X127828691Y-111449236D01*
X128110000Y-111476943D01*
X128391308Y-111449236D01*
X128661807Y-111367182D01*
X128911100Y-111233932D01*
X129129607Y-111054608D01*
X129308932Y-110836101D01*
X129380000Y-110703142D01*
X129451068Y-110836100D01*
X129630392Y-111054607D01*
X129848899Y-111233932D01*
X130098192Y-111367182D01*
X130368691Y-111449236D01*
X130650000Y-111476943D01*
X130931308Y-111449236D01*
X131201807Y-111367182D01*
X131451100Y-111233932D01*
X131669607Y-111054608D01*
X131848932Y-110836101D01*
X131982182Y-110586808D01*
X132064236Y-110316309D01*
X132073000Y-110227328D01*
X132073000Y-138740000D01*
X44860000Y-138740000D01*
X44860000Y-133624193D01*
X74415000Y-133624193D01*
X74415000Y-133975807D01*
X74483596Y-134320665D01*
X74618153Y-134645515D01*
X74813500Y-134937871D01*
X75062129Y-135186500D01*
X75354485Y-135381847D01*
X75679335Y-135516404D01*
X76024193Y-135585000D01*
X76375807Y-135585000D01*
X76720665Y-135516404D01*
X77045515Y-135381847D01*
X77337871Y-135186500D01*
X77586500Y-134937871D01*
X77781847Y-134645515D01*
X77916404Y-134320665D01*
X77985000Y-133975807D01*
X77985000Y-133624193D01*
X77920515Y-133300000D01*
X112461928Y-133300000D01*
X112461928Y-135300000D01*
X112474188Y-135424482D01*
X112510498Y-135544180D01*
X112569463Y-135654494D01*
X112648815Y-135751185D01*
X112745506Y-135830537D01*
X112855820Y-135889502D01*
X112975518Y-135925812D01*
X113100000Y-135938072D01*
X115100000Y-135938072D01*
X115224482Y-135925812D01*
X115344180Y-135889502D01*
X115454494Y-135830537D01*
X115551185Y-135751185D01*
X115630537Y-135654494D01*
X115689502Y-135544180D01*
X115725812Y-135424482D01*
X115738072Y-135300000D01*
X115738072Y-133300000D01*
X115725812Y-133175518D01*
X115689502Y-133055820D01*
X115630537Y-132945506D01*
X115551185Y-132848815D01*
X115454494Y-132769463D01*
X115344180Y-132710498D01*
X115224482Y-132674188D01*
X115100000Y-132661928D01*
X113100000Y-132661928D01*
X112975518Y-132674188D01*
X112855820Y-132710498D01*
X112745506Y-132769463D01*
X112648815Y-132848815D01*
X112569463Y-132945506D01*
X112510498Y-133055820D01*
X112474188Y-133175518D01*
X112461928Y-133300000D01*
X77920515Y-133300000D01*
X77916404Y-133279335D01*
X77781847Y-132954485D01*
X77586500Y-132662129D01*
X77337871Y-132413500D01*
X77045515Y-132218153D01*
X76720665Y-132083596D01*
X76375807Y-132015000D01*
X76024193Y-132015000D01*
X75679335Y-132083596D01*
X75354485Y-132218153D01*
X75062129Y-132413500D01*
X74813500Y-132662129D01*
X74618153Y-132954485D01*
X74483596Y-133279335D01*
X74415000Y-133624193D01*
X44860000Y-133624193D01*
X44860000Y-130435413D01*
X113144192Y-130435413D01*
X113239956Y-130699814D01*
X113529571Y-130840704D01*
X113841108Y-130922384D01*
X114162595Y-130941718D01*
X114481675Y-130897961D01*
X114786088Y-130792795D01*
X114960044Y-130699814D01*
X115055808Y-130435413D01*
X114100000Y-129479605D01*
X113144192Y-130435413D01*
X44860000Y-130435413D01*
X44860000Y-128238967D01*
X67565000Y-128238967D01*
X67565000Y-128561033D01*
X67627832Y-128876912D01*
X67751082Y-129174463D01*
X67930013Y-129442252D01*
X68157748Y-129669987D01*
X68425537Y-129848918D01*
X68723088Y-129972168D01*
X69038967Y-130035000D01*
X69361033Y-130035000D01*
X69676912Y-129972168D01*
X69974463Y-129848918D01*
X70242252Y-129669987D01*
X70469987Y-129442252D01*
X70523212Y-129362595D01*
X112458282Y-129362595D01*
X112502039Y-129681675D01*
X112607205Y-129986088D01*
X112700186Y-130160044D01*
X112964587Y-130255808D01*
X113920395Y-129300000D01*
X114279605Y-129300000D01*
X115235413Y-130255808D01*
X115499814Y-130160044D01*
X115640704Y-129870429D01*
X115722384Y-129558892D01*
X115741718Y-129237405D01*
X115697961Y-128918325D01*
X115592795Y-128613912D01*
X115499814Y-128439956D01*
X115235413Y-128344192D01*
X114279605Y-129300000D01*
X113920395Y-129300000D01*
X112964587Y-128344192D01*
X112700186Y-128439956D01*
X112559296Y-128729571D01*
X112477616Y-129041108D01*
X112458282Y-129362595D01*
X70523212Y-129362595D01*
X70648918Y-129174463D01*
X70772168Y-128876912D01*
X70835000Y-128561033D01*
X70835000Y-128238967D01*
X70820205Y-128164587D01*
X113144192Y-128164587D01*
X114100000Y-129120395D01*
X115055808Y-128164587D01*
X114960044Y-127900186D01*
X114670429Y-127759296D01*
X114358892Y-127677616D01*
X114037405Y-127658282D01*
X113718325Y-127702039D01*
X113413912Y-127807205D01*
X113239956Y-127900186D01*
X113144192Y-128164587D01*
X70820205Y-128164587D01*
X70772168Y-127923088D01*
X70648918Y-127625537D01*
X70469987Y-127357748D01*
X70242252Y-127130013D01*
X69974463Y-126951082D01*
X69676912Y-126827832D01*
X69361033Y-126765000D01*
X69038967Y-126765000D01*
X68723088Y-126827832D01*
X68425537Y-126951082D01*
X68157748Y-127130013D01*
X67930013Y-127357748D01*
X67751082Y-127625537D01*
X67627832Y-127923088D01*
X67565000Y-128238967D01*
X44860000Y-128238967D01*
X44860000Y-124209419D01*
X54265000Y-124209419D01*
X54265000Y-124590581D01*
X54339361Y-124964419D01*
X54485225Y-125316566D01*
X54696987Y-125633491D01*
X54966509Y-125903013D01*
X55283434Y-126114775D01*
X55635581Y-126260639D01*
X56009419Y-126335000D01*
X56390581Y-126335000D01*
X56764419Y-126260639D01*
X57116566Y-126114775D01*
X57433491Y-125903013D01*
X57703013Y-125633491D01*
X57914775Y-125316566D01*
X58060639Y-124964419D01*
X58135000Y-124590581D01*
X58135000Y-124209419D01*
X59265000Y-124209419D01*
X59265000Y-124590581D01*
X59339361Y-124964419D01*
X59485225Y-125316566D01*
X59696987Y-125633491D01*
X59966509Y-125903013D01*
X60283434Y-126114775D01*
X60635581Y-126260639D01*
X61009419Y-126335000D01*
X61390581Y-126335000D01*
X61764419Y-126260639D01*
X62116566Y-126114775D01*
X62433491Y-125903013D01*
X62703013Y-125633491D01*
X62914775Y-125316566D01*
X63060639Y-124964419D01*
X63135000Y-124590581D01*
X63135000Y-124209419D01*
X63060639Y-123835581D01*
X62914775Y-123483434D01*
X62703013Y-123166509D01*
X62433491Y-122896987D01*
X62116566Y-122685225D01*
X61764419Y-122539361D01*
X61390581Y-122465000D01*
X61009419Y-122465000D01*
X60635581Y-122539361D01*
X60283434Y-122685225D01*
X59966509Y-122896987D01*
X59696987Y-123166509D01*
X59485225Y-123483434D01*
X59339361Y-123835581D01*
X59265000Y-124209419D01*
X58135000Y-124209419D01*
X58060639Y-123835581D01*
X57914775Y-123483434D01*
X57703013Y-123166509D01*
X57433491Y-122896987D01*
X57116566Y-122685225D01*
X56764419Y-122539361D01*
X56390581Y-122465000D01*
X56009419Y-122465000D01*
X55635581Y-122539361D01*
X55283434Y-122685225D01*
X54966509Y-122896987D01*
X54696987Y-123166509D01*
X54485225Y-123483434D01*
X54339361Y-123835581D01*
X54265000Y-124209419D01*
X44860000Y-124209419D01*
X44860000Y-119535413D01*
X68244192Y-119535413D01*
X68339956Y-119799814D01*
X68629571Y-119940704D01*
X68941108Y-120022384D01*
X69262595Y-120041718D01*
X69581675Y-119997961D01*
X69886088Y-119892795D01*
X70060044Y-119799814D01*
X70132415Y-119600000D01*
X74411928Y-119600000D01*
X74424188Y-119724482D01*
X74460498Y-119844180D01*
X74519463Y-119954494D01*
X74598815Y-120051185D01*
X74695506Y-120130537D01*
X74805820Y-120189502D01*
X74925518Y-120225812D01*
X75050000Y-120238072D01*
X75914250Y-120235000D01*
X76073000Y-120076250D01*
X76073000Y-118727000D01*
X76327000Y-118727000D01*
X76327000Y-120076250D01*
X76485750Y-120235000D01*
X77350000Y-120238072D01*
X77474482Y-120225812D01*
X77594180Y-120189502D01*
X77704494Y-120130537D01*
X77801185Y-120051185D01*
X77880537Y-119954494D01*
X77939502Y-119844180D01*
X77940057Y-119842349D01*
X103137256Y-119842349D01*
X103251118Y-120122090D01*
X103566296Y-120277961D01*
X103905826Y-120369349D01*
X104256661Y-120392741D01*
X104605319Y-120347240D01*
X104938400Y-120234594D01*
X105148882Y-120122090D01*
X105262744Y-119842349D01*
X104200000Y-118779605D01*
X103137256Y-119842349D01*
X77940057Y-119842349D01*
X77975812Y-119724482D01*
X77988072Y-119600000D01*
X77985000Y-118885750D01*
X77826250Y-118727000D01*
X76327000Y-118727000D01*
X76073000Y-118727000D01*
X74573750Y-118727000D01*
X74415000Y-118885750D01*
X74411928Y-119600000D01*
X70132415Y-119600000D01*
X70155808Y-119535413D01*
X69200000Y-118579605D01*
X68244192Y-119535413D01*
X44860000Y-119535413D01*
X44860000Y-119127000D01*
X62800000Y-119127000D01*
X62824776Y-119124560D01*
X62848601Y-119117333D01*
X62870557Y-119105597D01*
X62889803Y-119089803D01*
X62905597Y-119070557D01*
X62917333Y-119048601D01*
X62924560Y-119024776D01*
X62927000Y-119000000D01*
X62927000Y-118462595D01*
X67558282Y-118462595D01*
X67602039Y-118781675D01*
X67707205Y-119086088D01*
X67800186Y-119260044D01*
X68064587Y-119355808D01*
X69020395Y-118400000D01*
X69379605Y-118400000D01*
X70335413Y-119355808D01*
X70599814Y-119260044D01*
X70740704Y-118970429D01*
X70822384Y-118658892D01*
X70822518Y-118656661D01*
X102407259Y-118656661D01*
X102452760Y-119005319D01*
X102565406Y-119338400D01*
X102677910Y-119548882D01*
X102957651Y-119662744D01*
X104020395Y-118600000D01*
X104379605Y-118600000D01*
X105442349Y-119662744D01*
X105722090Y-119548882D01*
X105877961Y-119233704D01*
X105969349Y-118894174D01*
X105992741Y-118543339D01*
X105947240Y-118194681D01*
X105834594Y-117861600D01*
X105722090Y-117651118D01*
X105442349Y-117537256D01*
X104379605Y-118600000D01*
X104020395Y-118600000D01*
X102957651Y-117537256D01*
X102677910Y-117651118D01*
X102522039Y-117966296D01*
X102430651Y-118305826D01*
X102407259Y-118656661D01*
X70822518Y-118656661D01*
X70841718Y-118337405D01*
X70797961Y-118018325D01*
X70692795Y-117713912D01*
X70631909Y-117600000D01*
X74411928Y-117600000D01*
X74415000Y-118314250D01*
X74573750Y-118473000D01*
X76073000Y-118473000D01*
X76073000Y-117123750D01*
X76327000Y-117123750D01*
X76327000Y-118473000D01*
X77826250Y-118473000D01*
X77985000Y-118314250D01*
X77988072Y-117600000D01*
X77975812Y-117475518D01*
X77940058Y-117357651D01*
X103137256Y-117357651D01*
X104200000Y-118420395D01*
X105262744Y-117357651D01*
X105148882Y-117077910D01*
X104833704Y-116922039D01*
X104494174Y-116830651D01*
X104143339Y-116807259D01*
X103794681Y-116852760D01*
X103461600Y-116965406D01*
X103251118Y-117077910D01*
X103137256Y-117357651D01*
X77940058Y-117357651D01*
X77939502Y-117355820D01*
X77880537Y-117245506D01*
X77801185Y-117148815D01*
X77704494Y-117069463D01*
X77594180Y-117010498D01*
X77474482Y-116974188D01*
X77350000Y-116961928D01*
X76485750Y-116965000D01*
X76327000Y-117123750D01*
X76073000Y-117123750D01*
X75914250Y-116965000D01*
X75050000Y-116961928D01*
X74925518Y-116974188D01*
X74805820Y-117010498D01*
X74695506Y-117069463D01*
X74598815Y-117148815D01*
X74519463Y-117245506D01*
X74460498Y-117355820D01*
X74424188Y-117475518D01*
X74411928Y-117600000D01*
X70631909Y-117600000D01*
X70599814Y-117539956D01*
X70335413Y-117444192D01*
X69379605Y-118400000D01*
X69020395Y-118400000D01*
X68064587Y-117444192D01*
X67800186Y-117539956D01*
X67659296Y-117829571D01*
X67577616Y-118141108D01*
X67558282Y-118462595D01*
X62927000Y-118462595D01*
X62927000Y-117264587D01*
X68244192Y-117264587D01*
X69200000Y-118220395D01*
X70155808Y-117264587D01*
X70060044Y-117000186D01*
X69770429Y-116859296D01*
X69458892Y-116777616D01*
X69137405Y-116758282D01*
X68818325Y-116802039D01*
X68513912Y-116907205D01*
X68339956Y-117000186D01*
X68244192Y-117264587D01*
X62927000Y-117264587D01*
X62927000Y-111858665D01*
X69690000Y-111858665D01*
X69690000Y-112141335D01*
X69745147Y-112418574D01*
X69853320Y-112679727D01*
X70010363Y-112914759D01*
X70210241Y-113114637D01*
X70445273Y-113271680D01*
X70706426Y-113379853D01*
X70983665Y-113435000D01*
X71266335Y-113435000D01*
X71543574Y-113379853D01*
X71804727Y-113271680D01*
X72039759Y-113114637D01*
X72239637Y-112914759D01*
X72396680Y-112679727D01*
X72504853Y-112418574D01*
X72560000Y-112141335D01*
X72560000Y-111858665D01*
X72504853Y-111581426D01*
X72396680Y-111320273D01*
X72239637Y-111085241D01*
X72039759Y-110885363D01*
X71804727Y-110728320D01*
X71543574Y-110620147D01*
X71266335Y-110565000D01*
X70983665Y-110565000D01*
X70706426Y-110620147D01*
X70445273Y-110728320D01*
X70210241Y-110885363D01*
X70010363Y-111085241D01*
X69853320Y-111320273D01*
X69745147Y-111581426D01*
X69690000Y-111858665D01*
X62927000Y-111858665D01*
X62927000Y-107992702D01*
X72111903Y-107992702D01*
X72183486Y-108236671D01*
X72438996Y-108357571D01*
X72713184Y-108426300D01*
X72995512Y-108440217D01*
X73275130Y-108398787D01*
X73541292Y-108303603D01*
X73666514Y-108236671D01*
X73738097Y-107992702D01*
X72925000Y-107179605D01*
X72111903Y-107992702D01*
X62927000Y-107992702D01*
X62927000Y-107160000D01*
X64636928Y-107160000D01*
X64636928Y-107250000D01*
X64649188Y-107374482D01*
X64685498Y-107494180D01*
X64744463Y-107604494D01*
X64823815Y-107701185D01*
X64920506Y-107780537D01*
X65030820Y-107839502D01*
X65150518Y-107875812D01*
X65275000Y-107888072D01*
X66975000Y-107888072D01*
X67099482Y-107875812D01*
X67219180Y-107839502D01*
X67329494Y-107780537D01*
X67426185Y-107701185D01*
X67505537Y-107604494D01*
X67564502Y-107494180D01*
X67600812Y-107374482D01*
X67613072Y-107250000D01*
X67613072Y-107070512D01*
X71484783Y-107070512D01*
X71526213Y-107350130D01*
X71621397Y-107616292D01*
X71688329Y-107741514D01*
X71932298Y-107813097D01*
X72745395Y-107000000D01*
X73104605Y-107000000D01*
X73917702Y-107813097D01*
X74161671Y-107741514D01*
X74282571Y-107486004D01*
X74351300Y-107211816D01*
X74365217Y-106929488D01*
X74323787Y-106649870D01*
X74228603Y-106383708D01*
X74161671Y-106258486D01*
X73917702Y-106186903D01*
X73104605Y-107000000D01*
X72745395Y-107000000D01*
X71932298Y-106186903D01*
X71688329Y-106258486D01*
X71567429Y-106513996D01*
X71498700Y-106788184D01*
X71484783Y-107070512D01*
X67613072Y-107070512D01*
X67613072Y-106007298D01*
X72111903Y-106007298D01*
X72925000Y-106820395D01*
X73738097Y-106007298D01*
X73666514Y-105763329D01*
X73411004Y-105642429D01*
X73136816Y-105573700D01*
X72854488Y-105559783D01*
X72574870Y-105601213D01*
X72308708Y-105696397D01*
X72183486Y-105763329D01*
X72111903Y-106007298D01*
X67613072Y-106007298D01*
X67613072Y-105550000D01*
X67600812Y-105425518D01*
X67564502Y-105305820D01*
X67505537Y-105195506D01*
X67426185Y-105098815D01*
X67329494Y-105019463D01*
X67219180Y-104960498D01*
X67146620Y-104938487D01*
X67278475Y-104806632D01*
X67440990Y-104563411D01*
X67552932Y-104293158D01*
X67599575Y-104058665D01*
X69690000Y-104058665D01*
X69690000Y-104341335D01*
X69745147Y-104618574D01*
X69853320Y-104879727D01*
X70010363Y-105114759D01*
X70210241Y-105314637D01*
X70445273Y-105471680D01*
X70706426Y-105579853D01*
X70983665Y-105635000D01*
X71266335Y-105635000D01*
X71543574Y-105579853D01*
X71804727Y-105471680D01*
X72039759Y-105314637D01*
X72239637Y-105114759D01*
X72396680Y-104879727D01*
X72504853Y-104618574D01*
X72560000Y-104341335D01*
X72560000Y-104058665D01*
X72504853Y-103781426D01*
X72396680Y-103520273D01*
X72239637Y-103285241D01*
X72039759Y-103085363D01*
X71804727Y-102928320D01*
X71543574Y-102820147D01*
X71266335Y-102765000D01*
X70983665Y-102765000D01*
X70706426Y-102820147D01*
X70445273Y-102928320D01*
X70210241Y-103085363D01*
X70010363Y-103285241D01*
X69853320Y-103520273D01*
X69745147Y-103781426D01*
X69690000Y-104058665D01*
X67599575Y-104058665D01*
X67610000Y-104006260D01*
X67610000Y-103713740D01*
X67552932Y-103426842D01*
X67440990Y-103156589D01*
X67278475Y-102913368D01*
X67071632Y-102706525D01*
X66897240Y-102590000D01*
X67071632Y-102473475D01*
X67278475Y-102266632D01*
X67440990Y-102023411D01*
X67552932Y-101753158D01*
X67610000Y-101466260D01*
X67610000Y-101173740D01*
X67552932Y-100886842D01*
X67440990Y-100616589D01*
X67278475Y-100373368D01*
X67097809Y-100192702D01*
X72111903Y-100192702D01*
X72183486Y-100436671D01*
X72438996Y-100557571D01*
X72713184Y-100626300D01*
X72995512Y-100640217D01*
X73275130Y-100598787D01*
X73541292Y-100503603D01*
X73666514Y-100436671D01*
X73738097Y-100192702D01*
X72925000Y-99379605D01*
X72111903Y-100192702D01*
X67097809Y-100192702D01*
X67071632Y-100166525D01*
X66889466Y-100044805D01*
X67006355Y-99975178D01*
X67222588Y-99780269D01*
X67396641Y-99546920D01*
X67521825Y-99284099D01*
X67525946Y-99270512D01*
X71484783Y-99270512D01*
X71526213Y-99550130D01*
X71621397Y-99816292D01*
X71688329Y-99941514D01*
X71932298Y-100013097D01*
X72745395Y-99200000D01*
X73104605Y-99200000D01*
X73917702Y-100013097D01*
X74161671Y-99941514D01*
X74282571Y-99686004D01*
X74351300Y-99411816D01*
X74365217Y-99129488D01*
X74323787Y-98849870D01*
X74228603Y-98583708D01*
X74161671Y-98458486D01*
X73917702Y-98386903D01*
X73104605Y-99200000D01*
X72745395Y-99200000D01*
X71932298Y-98386903D01*
X71688329Y-98458486D01*
X71567429Y-98713996D01*
X71498700Y-98988184D01*
X71484783Y-99270512D01*
X67525946Y-99270512D01*
X67566476Y-99136890D01*
X67445155Y-98907000D01*
X66252000Y-98907000D01*
X66252000Y-98927000D01*
X65998000Y-98927000D01*
X65998000Y-98907000D01*
X64804845Y-98907000D01*
X64683524Y-99136890D01*
X64728175Y-99284099D01*
X64853359Y-99546920D01*
X65027412Y-99780269D01*
X65243645Y-99975178D01*
X65360534Y-100044805D01*
X65178368Y-100166525D01*
X64971525Y-100373368D01*
X64809010Y-100616589D01*
X64697068Y-100886842D01*
X64640000Y-101173740D01*
X64640000Y-101466260D01*
X64697068Y-101753158D01*
X64809010Y-102023411D01*
X64971525Y-102266632D01*
X65178368Y-102473475D01*
X65352760Y-102590000D01*
X65178368Y-102706525D01*
X64971525Y-102913368D01*
X64846822Y-103100000D01*
X63974802Y-103100000D01*
X62960000Y-102085199D01*
X62960000Y-98423110D01*
X64683524Y-98423110D01*
X64804845Y-98653000D01*
X65998000Y-98653000D01*
X65998000Y-97459186D01*
X66252000Y-97459186D01*
X66252000Y-98653000D01*
X67445155Y-98653000D01*
X67566476Y-98423110D01*
X67521825Y-98275901D01*
X67489149Y-98207298D01*
X72111903Y-98207298D01*
X72925000Y-99020395D01*
X73738097Y-98207298D01*
X73666514Y-97963329D01*
X73411004Y-97842429D01*
X73136816Y-97773700D01*
X72854488Y-97759783D01*
X72574870Y-97801213D01*
X72308708Y-97896397D01*
X72183486Y-97963329D01*
X72111903Y-98207298D01*
X67489149Y-98207298D01*
X67396641Y-98013080D01*
X67222588Y-97779731D01*
X67006355Y-97584822D01*
X66756252Y-97435843D01*
X66481891Y-97338519D01*
X66252000Y-97459186D01*
X65998000Y-97459186D01*
X65768109Y-97338519D01*
X65493748Y-97435843D01*
X65243645Y-97584822D01*
X65027412Y-97779731D01*
X64853359Y-98013080D01*
X64728175Y-98275901D01*
X64683524Y-98423110D01*
X62960000Y-98423110D01*
X62960000Y-96258665D01*
X69690000Y-96258665D01*
X69690000Y-96541335D01*
X69745147Y-96818574D01*
X69853320Y-97079727D01*
X70010363Y-97314759D01*
X70210241Y-97514637D01*
X70445273Y-97671680D01*
X70706426Y-97779853D01*
X70983665Y-97835000D01*
X71266335Y-97835000D01*
X71543574Y-97779853D01*
X71804727Y-97671680D01*
X72039759Y-97514637D01*
X72239637Y-97314759D01*
X72396680Y-97079727D01*
X72504853Y-96818574D01*
X72560000Y-96541335D01*
X72560000Y-96258665D01*
X72504853Y-95981426D01*
X72396680Y-95720273D01*
X72239637Y-95485241D01*
X72039759Y-95285363D01*
X71804727Y-95128320D01*
X71543574Y-95020147D01*
X71266335Y-94965000D01*
X70983665Y-94965000D01*
X70706426Y-95020147D01*
X70445273Y-95128320D01*
X70210241Y-95285363D01*
X70010363Y-95485241D01*
X69853320Y-95720273D01*
X69745147Y-95981426D01*
X69690000Y-96258665D01*
X62960000Y-96258665D01*
X62960000Y-95937322D01*
X62963676Y-95900000D01*
X62960000Y-95862677D01*
X62960000Y-95862667D01*
X62949003Y-95751014D01*
X62927000Y-95678479D01*
X62927000Y-93600000D01*
X62924560Y-93575224D01*
X62917333Y-93551399D01*
X62905597Y-93529443D01*
X62889803Y-93510197D01*
X62870557Y-93494403D01*
X62848601Y-93482667D01*
X62824776Y-93475440D01*
X62800000Y-93473000D01*
X60847803Y-93473000D01*
X59767505Y-92392702D01*
X72111903Y-92392702D01*
X72183486Y-92636671D01*
X72438996Y-92757571D01*
X72713184Y-92826300D01*
X72995512Y-92840217D01*
X73275130Y-92798787D01*
X73541292Y-92703603D01*
X73666514Y-92636671D01*
X73738097Y-92392702D01*
X72925000Y-91579605D01*
X72111903Y-92392702D01*
X59767505Y-92392702D01*
X58845314Y-91470512D01*
X71484783Y-91470512D01*
X71526213Y-91750130D01*
X71621397Y-92016292D01*
X71688329Y-92141514D01*
X71932298Y-92213097D01*
X72745395Y-91400000D01*
X73104605Y-91400000D01*
X73917702Y-92213097D01*
X74161671Y-92141514D01*
X74282571Y-91886004D01*
X74351300Y-91611816D01*
X74365217Y-91329488D01*
X74363525Y-91318064D01*
X86665000Y-91318064D01*
X86665000Y-91521942D01*
X86704774Y-91721901D01*
X86782795Y-91910259D01*
X86896063Y-92079777D01*
X87040226Y-92223940D01*
X87209744Y-92337208D01*
X87302278Y-92375537D01*
X87314569Y-92437332D01*
X87209523Y-92542378D01*
X87096255Y-92711896D01*
X87018234Y-92900254D01*
X86978460Y-93100213D01*
X86978460Y-93304091D01*
X87018234Y-93504050D01*
X87096255Y-93692408D01*
X87137134Y-93753589D01*
X87032795Y-93909744D01*
X86954774Y-94098102D01*
X86915000Y-94298061D01*
X86915000Y-94501939D01*
X86954774Y-94701898D01*
X87032795Y-94890256D01*
X87146063Y-95059774D01*
X87290226Y-95203937D01*
X87459744Y-95317205D01*
X87648102Y-95395226D01*
X87848061Y-95435000D01*
X88051939Y-95435000D01*
X88171895Y-95411140D01*
X88200257Y-95413933D01*
X88237580Y-95410257D01*
X92412421Y-95410257D01*
X92449743Y-95413933D01*
X92487065Y-95410257D01*
X92487076Y-95410257D01*
X92598729Y-95399260D01*
X92741990Y-95355803D01*
X92874019Y-95285231D01*
X92989744Y-95190258D01*
X93013547Y-95161254D01*
X95640084Y-92534718D01*
X95712795Y-92710256D01*
X95826063Y-92879774D01*
X95970226Y-93023937D01*
X96139744Y-93137205D01*
X96328102Y-93215226D01*
X96528061Y-93255000D01*
X96590199Y-93255000D01*
X97400198Y-94065000D01*
X97398061Y-94065000D01*
X97198102Y-94104774D01*
X97009744Y-94182795D01*
X96840226Y-94296063D01*
X96696063Y-94440226D01*
X96582795Y-94609744D01*
X96504774Y-94798102D01*
X96465000Y-94998061D01*
X96465000Y-95201939D01*
X96504774Y-95401898D01*
X96582795Y-95590256D01*
X96696063Y-95759774D01*
X96840226Y-95903937D01*
X97009744Y-96017205D01*
X97198102Y-96095226D01*
X97398061Y-96135000D01*
X97460199Y-96135000D01*
X98274401Y-96949203D01*
X98304774Y-97101898D01*
X98382795Y-97290256D01*
X98496063Y-97459774D01*
X98640226Y-97603937D01*
X98809744Y-97717205D01*
X98998102Y-97795226D01*
X99198061Y-97835000D01*
X99401939Y-97835000D01*
X99601898Y-97795226D01*
X99790256Y-97717205D01*
X99959774Y-97603937D01*
X100103937Y-97459774D01*
X100217205Y-97290256D01*
X100295226Y-97101898D01*
X100335000Y-96901939D01*
X100335000Y-96698061D01*
X100295226Y-96498102D01*
X100217205Y-96309744D01*
X100103937Y-96140226D01*
X99959774Y-95996063D01*
X99790256Y-95882795D01*
X99601898Y-95804774D01*
X99401939Y-95765000D01*
X99239802Y-95765000D01*
X98607602Y-95132801D01*
X98661014Y-95149003D01*
X98810000Y-95163677D01*
X98847333Y-95160000D01*
X116996289Y-95160000D01*
X117040226Y-95203937D01*
X117209744Y-95317205D01*
X117398102Y-95395226D01*
X117598061Y-95435000D01*
X117801939Y-95435000D01*
X118001898Y-95395226D01*
X118190256Y-95317205D01*
X118359774Y-95203937D01*
X118503937Y-95059774D01*
X118617205Y-94890256D01*
X118695226Y-94701898D01*
X118735000Y-94501939D01*
X118735000Y-94298061D01*
X118707538Y-94160000D01*
X119746289Y-94160000D01*
X119790226Y-94203937D01*
X119959744Y-94317205D01*
X120148102Y-94395226D01*
X120348061Y-94435000D01*
X120551939Y-94435000D01*
X120751898Y-94395226D01*
X120940256Y-94317205D01*
X121109774Y-94203937D01*
X121253937Y-94059774D01*
X121367205Y-93890256D01*
X121445226Y-93701898D01*
X121485000Y-93501939D01*
X121485000Y-93405001D01*
X122241290Y-93405001D01*
X122340226Y-93503937D01*
X122509744Y-93617205D01*
X122698102Y-93695226D01*
X122898061Y-93735000D01*
X123101939Y-93735000D01*
X123301898Y-93695226D01*
X123490256Y-93617205D01*
X123659774Y-93503937D01*
X123803937Y-93359774D01*
X123917205Y-93190256D01*
X123995226Y-93001898D01*
X124035000Y-92801939D01*
X124035000Y-92598061D01*
X123995226Y-92398102D01*
X123917205Y-92209744D01*
X123803937Y-92040226D01*
X123659774Y-91896063D01*
X123490256Y-91782795D01*
X123301898Y-91704774D01*
X123101939Y-91665000D01*
X122898061Y-91665000D01*
X122698102Y-91704774D01*
X122509744Y-91782795D01*
X122356781Y-91885001D01*
X100009803Y-91885001D01*
X99075868Y-90951067D01*
X99086557Y-90897328D01*
X99086557Y-90693450D01*
X99046783Y-90493491D01*
X98968762Y-90305133D01*
X98855494Y-90135615D01*
X98711331Y-89991452D01*
X98541813Y-89878184D01*
X98368435Y-89806368D01*
X99961008Y-88213795D01*
X99990001Y-88190001D01*
X100013795Y-88161008D01*
X100013799Y-88161004D01*
X100084973Y-88074277D01*
X100115267Y-88017602D01*
X100155546Y-87942247D01*
X100199003Y-87798986D01*
X100210000Y-87687333D01*
X100210000Y-87687324D01*
X100213676Y-87650001D01*
X100210000Y-87612678D01*
X100210000Y-86103711D01*
X100253937Y-86059774D01*
X100367205Y-85890256D01*
X100445226Y-85701898D01*
X100485000Y-85501939D01*
X100485000Y-85298061D01*
X100445226Y-85098102D01*
X100367205Y-84909744D01*
X100253937Y-84740226D01*
X100109774Y-84596063D01*
X99940256Y-84482795D01*
X99751898Y-84404774D01*
X99551939Y-84365000D01*
X99348061Y-84365000D01*
X99148102Y-84404774D01*
X98959744Y-84482795D01*
X98790226Y-84596063D01*
X98646063Y-84740226D01*
X98532795Y-84909744D01*
X98454774Y-85098102D01*
X98445372Y-85145372D01*
X98398102Y-85154774D01*
X98209744Y-85232795D01*
X98040226Y-85346063D01*
X97896063Y-85490226D01*
X97782795Y-85659744D01*
X97704774Y-85848102D01*
X97665000Y-86048061D01*
X97665000Y-86251939D01*
X97704774Y-86451898D01*
X97782795Y-86640256D01*
X97896063Y-86809774D01*
X97940000Y-86853711D01*
X97940000Y-87158200D01*
X94119849Y-90978352D01*
X94119849Y-88347172D01*
X94123525Y-88309849D01*
X94119849Y-88272526D01*
X94119849Y-88272516D01*
X94108852Y-88160863D01*
X94065395Y-88017602D01*
X94043212Y-87976101D01*
X93994823Y-87885572D01*
X93923648Y-87798846D01*
X93899850Y-87769848D01*
X93870852Y-87746050D01*
X92735000Y-86610199D01*
X92735000Y-86548061D01*
X92695226Y-86348102D01*
X92617205Y-86159744D01*
X92503937Y-85990226D01*
X92359774Y-85846063D01*
X92190256Y-85732795D01*
X92001898Y-85654774D01*
X91801939Y-85615000D01*
X91598061Y-85615000D01*
X91570028Y-85620576D01*
X91582879Y-85589551D01*
X91622653Y-85389592D01*
X91622653Y-85185714D01*
X91582879Y-84985755D01*
X91578387Y-84974909D01*
X91609774Y-84953937D01*
X91753937Y-84809774D01*
X91867205Y-84640256D01*
X91945226Y-84451898D01*
X91985000Y-84251939D01*
X91985000Y-84048061D01*
X91945226Y-83848102D01*
X91867205Y-83659744D01*
X91753937Y-83490226D01*
X91609774Y-83346063D01*
X91440256Y-83232795D01*
X91251898Y-83154774D01*
X91051939Y-83115000D01*
X90848061Y-83115000D01*
X90648102Y-83154774D01*
X90459744Y-83232795D01*
X90290226Y-83346063D01*
X90146063Y-83490226D01*
X90032795Y-83659744D01*
X89974345Y-83800853D01*
X89644154Y-84131045D01*
X89644154Y-83669557D01*
X89753937Y-83559774D01*
X89867205Y-83390256D01*
X89945226Y-83201898D01*
X89985000Y-83001939D01*
X89985000Y-82798061D01*
X89945226Y-82598102D01*
X89867205Y-82409744D01*
X89753937Y-82240226D01*
X89609774Y-82096063D01*
X89548672Y-82055236D01*
X89642204Y-81915255D01*
X89720225Y-81726897D01*
X89759999Y-81526938D01*
X89759999Y-81323060D01*
X89720225Y-81123101D01*
X89642204Y-80934743D01*
X89528936Y-80765225D01*
X89384773Y-80621062D01*
X89215255Y-80507794D01*
X89026897Y-80429773D01*
X88826938Y-80389999D01*
X88623060Y-80389999D01*
X88423101Y-80429773D01*
X88234743Y-80507794D01*
X88065225Y-80621062D01*
X87921062Y-80765225D01*
X87807794Y-80934743D01*
X87729773Y-81123101D01*
X87689999Y-81323060D01*
X87689999Y-81385198D01*
X87537003Y-81538194D01*
X87508000Y-81561996D01*
X87452872Y-81629171D01*
X87413027Y-81677721D01*
X87344703Y-81805546D01*
X87342455Y-81809751D01*
X87298998Y-81953012D01*
X87288001Y-82064665D01*
X87288001Y-82064675D01*
X87284325Y-82101997D01*
X87288001Y-82139319D01*
X87288002Y-89657667D01*
X87284325Y-89694999D01*
X87298999Y-89843984D01*
X87342455Y-89987245D01*
X87413027Y-90119275D01*
X87480835Y-90201898D01*
X87508001Y-90235000D01*
X87536999Y-90258798D01*
X87663204Y-90385003D01*
X87598061Y-90385003D01*
X87398102Y-90424777D01*
X87209744Y-90502798D01*
X87040226Y-90616066D01*
X86896063Y-90760229D01*
X86782795Y-90929747D01*
X86704774Y-91118105D01*
X86665000Y-91318064D01*
X74363525Y-91318064D01*
X74323787Y-91049870D01*
X74228603Y-90783708D01*
X74161671Y-90658486D01*
X73917702Y-90586903D01*
X73104605Y-91400000D01*
X72745395Y-91400000D01*
X71932298Y-90586903D01*
X71688329Y-90658486D01*
X71567429Y-90913996D01*
X71498700Y-91188184D01*
X71484783Y-91470512D01*
X58845314Y-91470512D01*
X57782100Y-90407298D01*
X72111903Y-90407298D01*
X72925000Y-91220395D01*
X73738097Y-90407298D01*
X73666514Y-90163329D01*
X73411004Y-90042429D01*
X73136816Y-89973700D01*
X72854488Y-89959783D01*
X72574870Y-90001213D01*
X72308708Y-90096397D01*
X72183486Y-90163329D01*
X72111903Y-90407298D01*
X57782100Y-90407298D01*
X57235000Y-89860199D01*
X57235000Y-89798061D01*
X57195226Y-89598102D01*
X57117205Y-89409744D01*
X57003937Y-89240226D01*
X56859774Y-89096063D01*
X56690256Y-88982795D01*
X56501898Y-88904774D01*
X56301939Y-88865000D01*
X56098061Y-88865000D01*
X55898102Y-88904774D01*
X55709744Y-88982795D01*
X55540226Y-89096063D01*
X55396063Y-89240226D01*
X55282795Y-89409744D01*
X55204774Y-89598102D01*
X55165000Y-89798061D01*
X55165000Y-90001939D01*
X55204774Y-90201898D01*
X55282795Y-90390256D01*
X55396063Y-90559774D01*
X55540226Y-90703937D01*
X55709744Y-90817205D01*
X55898102Y-90895226D01*
X56098061Y-90935000D01*
X56160199Y-90935000D01*
X58698198Y-93473000D01*
X57847802Y-93473000D01*
X55485000Y-91110199D01*
X55485000Y-91048061D01*
X55445226Y-90848102D01*
X55367205Y-90659744D01*
X55253937Y-90490226D01*
X55109774Y-90346063D01*
X54940256Y-90232795D01*
X54751898Y-90154774D01*
X54551939Y-90115000D01*
X54348061Y-90115000D01*
X54148102Y-90154774D01*
X53959744Y-90232795D01*
X53790226Y-90346063D01*
X53646063Y-90490226D01*
X53532795Y-90659744D01*
X53454774Y-90848102D01*
X53415000Y-91048061D01*
X53415000Y-91251939D01*
X53454774Y-91451898D01*
X53532795Y-91640256D01*
X53646063Y-91809774D01*
X53790226Y-91953937D01*
X53959744Y-92067205D01*
X54148102Y-92145226D01*
X54348061Y-92185000D01*
X54410199Y-92185000D01*
X55698199Y-93473000D01*
X44860000Y-93473000D01*
X44860000Y-88458665D01*
X69690000Y-88458665D01*
X69690000Y-88741335D01*
X69745147Y-89018574D01*
X69853320Y-89279727D01*
X70010363Y-89514759D01*
X70210241Y-89714637D01*
X70445273Y-89871680D01*
X70706426Y-89979853D01*
X70983665Y-90035000D01*
X71266335Y-90035000D01*
X71543574Y-89979853D01*
X71804727Y-89871680D01*
X72039759Y-89714637D01*
X72239637Y-89514759D01*
X72396680Y-89279727D01*
X72504853Y-89018574D01*
X72560000Y-88741335D01*
X72560000Y-88458665D01*
X72504853Y-88181426D01*
X72396680Y-87920273D01*
X72239637Y-87685241D01*
X72039759Y-87485363D01*
X71804727Y-87328320D01*
X71543574Y-87220147D01*
X71266335Y-87165000D01*
X70983665Y-87165000D01*
X70706426Y-87220147D01*
X70445273Y-87328320D01*
X70210241Y-87485363D01*
X70010363Y-87685241D01*
X69853320Y-87920273D01*
X69745147Y-88181426D01*
X69690000Y-88458665D01*
X44860000Y-88458665D01*
X44860000Y-84592702D01*
X72111903Y-84592702D01*
X72183486Y-84836671D01*
X72438996Y-84957571D01*
X72713184Y-85026300D01*
X72995512Y-85040217D01*
X73275130Y-84998787D01*
X73541292Y-84903603D01*
X73666514Y-84836671D01*
X73738097Y-84592702D01*
X72925000Y-83779605D01*
X72111903Y-84592702D01*
X44860000Y-84592702D01*
X44860000Y-83670512D01*
X71484783Y-83670512D01*
X71526213Y-83950130D01*
X71621397Y-84216292D01*
X71688329Y-84341514D01*
X71932298Y-84413097D01*
X72745395Y-83600000D01*
X73104605Y-83600000D01*
X73917702Y-84413097D01*
X74161671Y-84341514D01*
X74282571Y-84086004D01*
X74351300Y-83811816D01*
X74365217Y-83529488D01*
X74323787Y-83249870D01*
X74228603Y-82983708D01*
X74161671Y-82858486D01*
X73917702Y-82786903D01*
X73104605Y-83600000D01*
X72745395Y-83600000D01*
X71932298Y-82786903D01*
X71688329Y-82858486D01*
X71567429Y-83113996D01*
X71498700Y-83388184D01*
X71484783Y-83670512D01*
X44860000Y-83670512D01*
X44860000Y-82607298D01*
X72111903Y-82607298D01*
X72925000Y-83420395D01*
X73738097Y-82607298D01*
X73666514Y-82363329D01*
X73411004Y-82242429D01*
X73136816Y-82173700D01*
X72854488Y-82159783D01*
X72574870Y-82201213D01*
X72308708Y-82296397D01*
X72183486Y-82363329D01*
X72111903Y-82607298D01*
X44860000Y-82607298D01*
X44860000Y-78598061D01*
X115665000Y-78598061D01*
X115665000Y-78801939D01*
X115704774Y-79001898D01*
X115782795Y-79190256D01*
X115896063Y-79359774D01*
X115940000Y-79403711D01*
X115940000Y-79562678D01*
X115936324Y-79600000D01*
X115940000Y-79637322D01*
X115940000Y-79637333D01*
X115950135Y-79740226D01*
X115950998Y-79748985D01*
X115994454Y-79892246D01*
X116065026Y-80024276D01*
X116098448Y-80065000D01*
X116160000Y-80140001D01*
X116188998Y-80163799D01*
X118361202Y-82336004D01*
X118385000Y-82365002D01*
X118413998Y-82388800D01*
X118500725Y-82459975D01*
X118632754Y-82530547D01*
X118776015Y-82574004D01*
X118925001Y-82588678D01*
X118962334Y-82585001D01*
X123637677Y-82585001D01*
X123674999Y-82588677D01*
X123712321Y-82585001D01*
X123712332Y-82585001D01*
X123823985Y-82574004D01*
X123967246Y-82530547D01*
X124099275Y-82459975D01*
X124215000Y-82365002D01*
X124238803Y-82335999D01*
X125211004Y-81363798D01*
X125240001Y-81340001D01*
X125334974Y-81224276D01*
X125405546Y-81092247D01*
X125449003Y-80948986D01*
X125460000Y-80837333D01*
X125460000Y-80837324D01*
X125463676Y-80800001D01*
X125460000Y-80762678D01*
X125460000Y-76177325D01*
X125463676Y-76140000D01*
X125460000Y-76102675D01*
X125460000Y-76102667D01*
X125449003Y-75991014D01*
X125405546Y-75847753D01*
X125334974Y-75715724D01*
X125240001Y-75599999D01*
X125211003Y-75576201D01*
X124166209Y-74531408D01*
X124210000Y-74311260D01*
X124210000Y-74018740D01*
X124152932Y-73731842D01*
X124040990Y-73461589D01*
X123878475Y-73218368D01*
X123671632Y-73011525D01*
X123497240Y-72895000D01*
X123671632Y-72778475D01*
X123878475Y-72571632D01*
X124040990Y-72328411D01*
X124152932Y-72058158D01*
X124210000Y-71771260D01*
X124210000Y-71478740D01*
X124152932Y-71191842D01*
X124040990Y-70921589D01*
X123878475Y-70678368D01*
X123671632Y-70471525D01*
X123489466Y-70349805D01*
X123606355Y-70280178D01*
X123822588Y-70085269D01*
X123996641Y-69851920D01*
X124121825Y-69589099D01*
X124166476Y-69441890D01*
X124045155Y-69212000D01*
X122852000Y-69212000D01*
X122852000Y-69232000D01*
X122598000Y-69232000D01*
X122598000Y-69212000D01*
X122578000Y-69212000D01*
X122578000Y-68958000D01*
X122598000Y-68958000D01*
X122598000Y-68938000D01*
X122852000Y-68938000D01*
X122852000Y-68958000D01*
X124045155Y-68958000D01*
X124166476Y-68728110D01*
X124121825Y-68580901D01*
X123996641Y-68318080D01*
X123822588Y-68084731D01*
X123606355Y-67889822D01*
X123489466Y-67820195D01*
X123671632Y-67698475D01*
X123878475Y-67491632D01*
X124040990Y-67248411D01*
X124152932Y-66978158D01*
X124210000Y-66691260D01*
X124210000Y-66398740D01*
X124152932Y-66111842D01*
X124040990Y-65841589D01*
X123878475Y-65598368D01*
X123671632Y-65391525D01*
X123497240Y-65275000D01*
X123671632Y-65158475D01*
X123878475Y-64951632D01*
X124040990Y-64708411D01*
X124152932Y-64438158D01*
X124210000Y-64151260D01*
X124210000Y-63858740D01*
X124152932Y-63571842D01*
X124040990Y-63301589D01*
X123878475Y-63058368D01*
X123671632Y-62851525D01*
X123428411Y-62689010D01*
X123158158Y-62577068D01*
X122871260Y-62520000D01*
X122578740Y-62520000D01*
X122291842Y-62577068D01*
X122021589Y-62689010D01*
X121778368Y-62851525D01*
X121646513Y-62983380D01*
X121624502Y-62910820D01*
X121565537Y-62800506D01*
X121486185Y-62703815D01*
X121389494Y-62624463D01*
X121279180Y-62565498D01*
X121159482Y-62529188D01*
X121035000Y-62516928D01*
X119335000Y-62516928D01*
X119210518Y-62529188D01*
X119090820Y-62565498D01*
X118980506Y-62624463D01*
X118883815Y-62703815D01*
X118804463Y-62800506D01*
X118745498Y-62910820D01*
X118709188Y-63030518D01*
X118696928Y-63155000D01*
X118696928Y-64855000D01*
X118709188Y-64979482D01*
X118745498Y-65099180D01*
X118804463Y-65209494D01*
X118883815Y-65306185D01*
X118980506Y-65385537D01*
X119090820Y-65444502D01*
X119163380Y-65466513D01*
X119031525Y-65598368D01*
X118869010Y-65841589D01*
X118757068Y-66111842D01*
X118700000Y-66398740D01*
X118700000Y-66691260D01*
X118757068Y-66978158D01*
X118869010Y-67248411D01*
X119031525Y-67491632D01*
X119238368Y-67698475D01*
X119412760Y-67815000D01*
X119238368Y-67931525D01*
X119031525Y-68138368D01*
X118869010Y-68381589D01*
X118757068Y-68651842D01*
X118700000Y-68938740D01*
X118700000Y-69231260D01*
X118743790Y-69451408D01*
X117788998Y-70406201D01*
X117760000Y-70429999D01*
X117736202Y-70458997D01*
X117736201Y-70458998D01*
X117665026Y-70545724D01*
X117594454Y-70677754D01*
X117594268Y-70678368D01*
X117550998Y-70821014D01*
X117541302Y-70919454D01*
X117536324Y-70970000D01*
X117540001Y-71007332D01*
X117540000Y-77662677D01*
X117536324Y-77700000D01*
X117540000Y-77737322D01*
X117540000Y-77737332D01*
X117550997Y-77848985D01*
X117592657Y-77986323D01*
X117594454Y-77992246D01*
X117665026Y-78124276D01*
X117704871Y-78172826D01*
X117759999Y-78240001D01*
X117789003Y-78263804D01*
X120590199Y-81065001D01*
X119239803Y-81065001D01*
X117516209Y-79341408D01*
X117617205Y-79190256D01*
X117695226Y-79001898D01*
X117735000Y-78801939D01*
X117735000Y-78598061D01*
X117695226Y-78398102D01*
X117617205Y-78209744D01*
X117503937Y-78040226D01*
X117359774Y-77896063D01*
X117190256Y-77782795D01*
X117001898Y-77704774D01*
X116801939Y-77665000D01*
X116598061Y-77665000D01*
X116398102Y-77704774D01*
X116209744Y-77782795D01*
X116040226Y-77896063D01*
X115896063Y-78040226D01*
X115782795Y-78209744D01*
X115704774Y-78398102D01*
X115665000Y-78598061D01*
X44860000Y-78598061D01*
X44860000Y-65373740D01*
X84920000Y-65373740D01*
X84920000Y-65666260D01*
X84977068Y-65953158D01*
X85089010Y-66223411D01*
X85251525Y-66466632D01*
X85458368Y-66673475D01*
X85701589Y-66835990D01*
X85971842Y-66947932D01*
X86258740Y-67005000D01*
X86551260Y-67005000D01*
X86838158Y-66947932D01*
X87108411Y-66835990D01*
X87351632Y-66673475D01*
X87558475Y-66466632D01*
X87720990Y-66223411D01*
X87832932Y-65953158D01*
X87890000Y-65666260D01*
X87890000Y-65373740D01*
X96470000Y-65373740D01*
X96470000Y-65666260D01*
X96527068Y-65953158D01*
X96639010Y-66223411D01*
X96801525Y-66466632D01*
X97008368Y-66673475D01*
X97251589Y-66835990D01*
X97521842Y-66947932D01*
X97808740Y-67005000D01*
X98101260Y-67005000D01*
X98388158Y-66947932D01*
X98658411Y-66835990D01*
X98901632Y-66673475D01*
X99108475Y-66466632D01*
X99270990Y-66223411D01*
X99382932Y-65953158D01*
X99440000Y-65666260D01*
X99440000Y-65373740D01*
X99436022Y-65353740D01*
X108040000Y-65353740D01*
X108040000Y-65646260D01*
X108097068Y-65933158D01*
X108209010Y-66203411D01*
X108371525Y-66446632D01*
X108578368Y-66653475D01*
X108821589Y-66815990D01*
X109091842Y-66927932D01*
X109378740Y-66985000D01*
X109671260Y-66985000D01*
X109958158Y-66927932D01*
X110228411Y-66815990D01*
X110471632Y-66653475D01*
X110678475Y-66446632D01*
X110840990Y-66203411D01*
X110952932Y-65933158D01*
X111010000Y-65646260D01*
X111010000Y-65353740D01*
X110952932Y-65066842D01*
X110840990Y-64796589D01*
X110678475Y-64553368D01*
X110471632Y-64346525D01*
X110228411Y-64184010D01*
X109958158Y-64072068D01*
X109671260Y-64015000D01*
X109378740Y-64015000D01*
X109091842Y-64072068D01*
X108821589Y-64184010D01*
X108578368Y-64346525D01*
X108371525Y-64553368D01*
X108209010Y-64796589D01*
X108097068Y-65066842D01*
X108040000Y-65353740D01*
X99436022Y-65353740D01*
X99382932Y-65086842D01*
X99270990Y-64816589D01*
X99108475Y-64573368D01*
X98901632Y-64366525D01*
X98658411Y-64204010D01*
X98388158Y-64092068D01*
X98101260Y-64035000D01*
X97808740Y-64035000D01*
X97521842Y-64092068D01*
X97251589Y-64204010D01*
X97008368Y-64366525D01*
X96801525Y-64573368D01*
X96639010Y-64816589D01*
X96527068Y-65086842D01*
X96470000Y-65373740D01*
X87890000Y-65373740D01*
X87832932Y-65086842D01*
X87720990Y-64816589D01*
X87558475Y-64573368D01*
X87351632Y-64366525D01*
X87108411Y-64204010D01*
X86838158Y-64092068D01*
X86551260Y-64035000D01*
X86258740Y-64035000D01*
X85971842Y-64092068D01*
X85701589Y-64204010D01*
X85458368Y-64366525D01*
X85251525Y-64573368D01*
X85089010Y-64816589D01*
X84977068Y-65086842D01*
X84920000Y-65373740D01*
X44860000Y-65373740D01*
X44860000Y-58373740D01*
X84920000Y-58373740D01*
X84920000Y-58666260D01*
X84977068Y-58953158D01*
X85089010Y-59223411D01*
X85251525Y-59466632D01*
X85458368Y-59673475D01*
X85701589Y-59835990D01*
X85971842Y-59947932D01*
X86258740Y-60005000D01*
X86551260Y-60005000D01*
X86838158Y-59947932D01*
X87108411Y-59835990D01*
X87351632Y-59673475D01*
X87558475Y-59466632D01*
X87720990Y-59223411D01*
X87832932Y-58953158D01*
X87890000Y-58666260D01*
X87890000Y-58373740D01*
X96470000Y-58373740D01*
X96470000Y-58666260D01*
X96527068Y-58953158D01*
X96639010Y-59223411D01*
X96801525Y-59466632D01*
X97008368Y-59673475D01*
X97251589Y-59835990D01*
X97521842Y-59947932D01*
X97808740Y-60005000D01*
X98101260Y-60005000D01*
X98388158Y-59947932D01*
X98658411Y-59835990D01*
X98901632Y-59673475D01*
X99108475Y-59466632D01*
X99270990Y-59223411D01*
X99382932Y-58953158D01*
X99440000Y-58666260D01*
X99440000Y-58373740D01*
X99436022Y-58353740D01*
X108040000Y-58353740D01*
X108040000Y-58646260D01*
X108097068Y-58933158D01*
X108209010Y-59203411D01*
X108371525Y-59446632D01*
X108578368Y-59653475D01*
X108821589Y-59815990D01*
X109091842Y-59927932D01*
X109378740Y-59985000D01*
X109671260Y-59985000D01*
X109958158Y-59927932D01*
X110228411Y-59815990D01*
X110471632Y-59653475D01*
X110678475Y-59446632D01*
X110840990Y-59203411D01*
X110952932Y-58933158D01*
X111010000Y-58646260D01*
X111010000Y-58353740D01*
X110952932Y-58066842D01*
X110840990Y-57796589D01*
X110678475Y-57553368D01*
X110471632Y-57346525D01*
X110228411Y-57184010D01*
X109958158Y-57072068D01*
X109671260Y-57015000D01*
X109378740Y-57015000D01*
X109091842Y-57072068D01*
X108821589Y-57184010D01*
X108578368Y-57346525D01*
X108371525Y-57553368D01*
X108209010Y-57796589D01*
X108097068Y-58066842D01*
X108040000Y-58353740D01*
X99436022Y-58353740D01*
X99382932Y-58086842D01*
X99270990Y-57816589D01*
X99108475Y-57573368D01*
X98901632Y-57366525D01*
X98658411Y-57204010D01*
X98388158Y-57092068D01*
X98101260Y-57035000D01*
X97808740Y-57035000D01*
X97521842Y-57092068D01*
X97251589Y-57204010D01*
X97008368Y-57366525D01*
X96801525Y-57573368D01*
X96639010Y-57816589D01*
X96527068Y-58086842D01*
X96470000Y-58373740D01*
X87890000Y-58373740D01*
X87832932Y-58086842D01*
X87720990Y-57816589D01*
X87558475Y-57573368D01*
X87351632Y-57366525D01*
X87108411Y-57204010D01*
X86838158Y-57092068D01*
X86551260Y-57035000D01*
X86258740Y-57035000D01*
X85971842Y-57092068D01*
X85701589Y-57204010D01*
X85458368Y-57366525D01*
X85251525Y-57573368D01*
X85089010Y-57816589D01*
X84977068Y-58086842D01*
X84920000Y-58373740D01*
X44860000Y-58373740D01*
X44860000Y-56060000D01*
X132073000Y-56060000D01*
X132073000Y-85500684D01*
G04 #@! TA.AperFunction,Conductor*
D27*
G36*
X132073000Y-85500684D02*
G01*
X132004494Y-85444463D01*
X131894180Y-85385498D01*
X131774482Y-85349188D01*
X131650000Y-85336928D01*
X129650000Y-85336928D01*
X129525518Y-85349188D01*
X129405820Y-85385498D01*
X129295506Y-85444463D01*
X129198815Y-85523815D01*
X129119463Y-85620506D01*
X129072441Y-85708476D01*
X128911101Y-85576068D01*
X128661808Y-85442818D01*
X128391309Y-85360764D01*
X128110000Y-85333057D01*
X127828692Y-85360764D01*
X127558193Y-85442818D01*
X127308900Y-85576068D01*
X127090393Y-85755392D01*
X126911068Y-85973899D01*
X126840000Y-86106858D01*
X126768932Y-85973899D01*
X126589608Y-85755392D01*
X126371101Y-85576068D01*
X126121808Y-85442818D01*
X125851309Y-85360764D01*
X125570000Y-85333057D01*
X125288692Y-85360764D01*
X125018193Y-85442818D01*
X124768900Y-85576068D01*
X124550393Y-85755392D01*
X124371068Y-85973899D01*
X124300000Y-86106858D01*
X124228932Y-85973899D01*
X124049608Y-85755392D01*
X123831101Y-85576068D01*
X123581808Y-85442818D01*
X123311309Y-85360764D01*
X123030000Y-85333057D01*
X122748692Y-85360764D01*
X122478193Y-85442818D01*
X122228900Y-85576068D01*
X122010393Y-85755392D01*
X121831068Y-85973899D01*
X121760000Y-86106858D01*
X121688932Y-85973899D01*
X121509608Y-85755392D01*
X121291101Y-85576068D01*
X121041808Y-85442818D01*
X120771309Y-85360764D01*
X120490000Y-85333057D01*
X120208692Y-85360764D01*
X119938193Y-85442818D01*
X119688900Y-85576068D01*
X119470393Y-85755392D01*
X119291068Y-85973899D01*
X119220000Y-86106858D01*
X119148932Y-85973899D01*
X118969608Y-85755392D01*
X118751101Y-85576068D01*
X118501808Y-85442818D01*
X118231309Y-85360764D01*
X117950000Y-85333057D01*
X117668692Y-85360764D01*
X117398193Y-85442818D01*
X117148900Y-85576068D01*
X116930393Y-85755392D01*
X116751068Y-85973899D01*
X116680000Y-86106858D01*
X116608932Y-85973899D01*
X116429608Y-85755392D01*
X116211101Y-85576068D01*
X115961808Y-85442818D01*
X115691309Y-85360764D01*
X115410000Y-85333057D01*
X115128692Y-85360764D01*
X114858193Y-85442818D01*
X114608900Y-85576068D01*
X114390393Y-85755392D01*
X114211068Y-85973899D01*
X114140000Y-86106858D01*
X114068932Y-85973899D01*
X113889608Y-85755392D01*
X113671101Y-85576068D01*
X113421808Y-85442818D01*
X113151309Y-85360764D01*
X112870000Y-85333057D01*
X112588692Y-85360764D01*
X112318193Y-85442818D01*
X112068900Y-85576068D01*
X111850393Y-85755392D01*
X111671068Y-85973899D01*
X111537818Y-86223192D01*
X111455764Y-86493691D01*
X111435000Y-86704508D01*
X111435000Y-87245491D01*
X111455764Y-87456308D01*
X111537818Y-87726807D01*
X111671068Y-87976100D01*
X111850392Y-88194607D01*
X112068899Y-88373932D01*
X112318192Y-88507182D01*
X112588691Y-88589236D01*
X112870000Y-88616943D01*
X113151308Y-88589236D01*
X113421807Y-88507182D01*
X113671100Y-88373932D01*
X113889607Y-88194608D01*
X114068932Y-87976101D01*
X114140000Y-87843142D01*
X114211068Y-87976100D01*
X114390392Y-88194607D01*
X114608899Y-88373932D01*
X114858192Y-88507182D01*
X115128691Y-88589236D01*
X115410000Y-88616943D01*
X115691308Y-88589236D01*
X115961807Y-88507182D01*
X116211100Y-88373932D01*
X116429607Y-88194608D01*
X116608932Y-87976101D01*
X116680000Y-87843142D01*
X116751068Y-87976100D01*
X116930392Y-88194607D01*
X117148899Y-88373932D01*
X117398192Y-88507182D01*
X117668691Y-88589236D01*
X117950000Y-88616943D01*
X118231308Y-88589236D01*
X118501807Y-88507182D01*
X118751100Y-88373932D01*
X118969607Y-88194608D01*
X119148932Y-87976101D01*
X119220000Y-87843142D01*
X119291068Y-87976100D01*
X119470392Y-88194607D01*
X119688899Y-88373932D01*
X119938192Y-88507182D01*
X120208691Y-88589236D01*
X120490000Y-88616943D01*
X120771308Y-88589236D01*
X121041807Y-88507182D01*
X121291100Y-88373932D01*
X121509607Y-88194608D01*
X121688932Y-87976101D01*
X121760000Y-87843142D01*
X121831068Y-87976100D01*
X122010392Y-88194607D01*
X122228899Y-88373932D01*
X122478192Y-88507182D01*
X122748691Y-88589236D01*
X123030000Y-88616943D01*
X123311308Y-88589236D01*
X123581807Y-88507182D01*
X123831100Y-88373932D01*
X124049607Y-88194608D01*
X124228932Y-87976101D01*
X124300000Y-87843142D01*
X124371068Y-87976100D01*
X124550392Y-88194607D01*
X124768899Y-88373932D01*
X125018192Y-88507182D01*
X125288691Y-88589236D01*
X125570000Y-88616943D01*
X125851308Y-88589236D01*
X126121807Y-88507182D01*
X126371100Y-88373932D01*
X126589607Y-88194608D01*
X126768932Y-87976101D01*
X126840000Y-87843142D01*
X126911068Y-87976100D01*
X126975000Y-88054002D01*
X126975001Y-91803533D01*
X118621702Y-100156833D01*
X115363919Y-100156833D01*
X115308167Y-100151342D01*
X115085668Y-100173256D01*
X114871720Y-100238157D01*
X114674544Y-100343549D01*
X114545023Y-100449844D01*
X114545021Y-100449846D01*
X114501718Y-100485384D01*
X114466180Y-100528687D01*
X107336865Y-107658004D01*
X107293551Y-107693551D01*
X107151716Y-107866377D01*
X107084195Y-107992702D01*
X107046324Y-108063554D01*
X106981423Y-108277502D01*
X106959509Y-108500000D01*
X106965000Y-108555751D01*
X106965001Y-121829867D01*
X104379195Y-124415674D01*
X104375807Y-124415000D01*
X104024193Y-124415000D01*
X103679335Y-124483596D01*
X103354485Y-124618153D01*
X103062129Y-124813500D01*
X102813500Y-125062129D01*
X102618153Y-125354485D01*
X102483596Y-125679335D01*
X102415000Y-126024193D01*
X102415000Y-126375807D01*
X102483596Y-126720665D01*
X102618153Y-127045515D01*
X102813500Y-127337871D01*
X103062129Y-127586500D01*
X103354485Y-127781847D01*
X103679335Y-127916404D01*
X104024193Y-127985000D01*
X104375807Y-127985000D01*
X104720665Y-127916404D01*
X105045515Y-127781847D01*
X105337871Y-127586500D01*
X105586500Y-127337871D01*
X105781847Y-127045515D01*
X105916404Y-126720665D01*
X105985000Y-126375807D01*
X105985000Y-126024193D01*
X105984326Y-126020805D01*
X108476466Y-123528665D01*
X115515000Y-123528665D01*
X115515000Y-123811335D01*
X115570147Y-124088574D01*
X115678320Y-124349727D01*
X115835363Y-124584759D01*
X116035241Y-124784637D01*
X116270273Y-124941680D01*
X116531426Y-125049853D01*
X116808665Y-125105000D01*
X117091335Y-125105000D01*
X117368574Y-125049853D01*
X117629727Y-124941680D01*
X117864759Y-124784637D01*
X118064637Y-124584759D01*
X118220000Y-124352241D01*
X118375363Y-124584759D01*
X118575241Y-124784637D01*
X118810273Y-124941680D01*
X119071426Y-125049853D01*
X119348665Y-125105000D01*
X119631335Y-125105000D01*
X119908574Y-125049853D01*
X120169727Y-124941680D01*
X120404759Y-124784637D01*
X120604637Y-124584759D01*
X120760000Y-124352241D01*
X120915363Y-124584759D01*
X121115241Y-124784637D01*
X121350273Y-124941680D01*
X121611426Y-125049853D01*
X121888665Y-125105000D01*
X122171335Y-125105000D01*
X122448574Y-125049853D01*
X122709727Y-124941680D01*
X122944759Y-124784637D01*
X123144637Y-124584759D01*
X123300000Y-124352241D01*
X123455363Y-124584759D01*
X123655241Y-124784637D01*
X123890273Y-124941680D01*
X124151426Y-125049853D01*
X124428665Y-125105000D01*
X124711335Y-125105000D01*
X124988574Y-125049853D01*
X125249727Y-124941680D01*
X125484759Y-124784637D01*
X125684637Y-124584759D01*
X125840000Y-124352241D01*
X125995363Y-124584759D01*
X126195241Y-124784637D01*
X126430273Y-124941680D01*
X126691426Y-125049853D01*
X126968665Y-125105000D01*
X127251335Y-125105000D01*
X127528574Y-125049853D01*
X127789727Y-124941680D01*
X128024759Y-124784637D01*
X128224637Y-124584759D01*
X128380000Y-124352241D01*
X128535363Y-124584759D01*
X128735241Y-124784637D01*
X128970273Y-124941680D01*
X129231426Y-125049853D01*
X129508665Y-125105000D01*
X129791335Y-125105000D01*
X130068574Y-125049853D01*
X130329727Y-124941680D01*
X130564759Y-124784637D01*
X130764637Y-124584759D01*
X130921680Y-124349727D01*
X131029853Y-124088574D01*
X131085000Y-123811335D01*
X131085000Y-123528665D01*
X131029853Y-123251426D01*
X130921680Y-122990273D01*
X130764637Y-122755241D01*
X130564759Y-122555363D01*
X130329727Y-122398320D01*
X130068574Y-122290147D01*
X129791335Y-122235000D01*
X129508665Y-122235000D01*
X129231426Y-122290147D01*
X128970273Y-122398320D01*
X128735241Y-122555363D01*
X128535363Y-122755241D01*
X128380000Y-122987759D01*
X128224637Y-122755241D01*
X128024759Y-122555363D01*
X127789727Y-122398320D01*
X127528574Y-122290147D01*
X127251335Y-122235000D01*
X126968665Y-122235000D01*
X126691426Y-122290147D01*
X126430273Y-122398320D01*
X126195241Y-122555363D01*
X125995363Y-122755241D01*
X125840000Y-122987759D01*
X125684637Y-122755241D01*
X125484759Y-122555363D01*
X125249727Y-122398320D01*
X124988574Y-122290147D01*
X124711335Y-122235000D01*
X124428665Y-122235000D01*
X124151426Y-122290147D01*
X123890273Y-122398320D01*
X123655241Y-122555363D01*
X123455363Y-122755241D01*
X123300000Y-122987759D01*
X123144637Y-122755241D01*
X122944759Y-122555363D01*
X122709727Y-122398320D01*
X122448574Y-122290147D01*
X122171335Y-122235000D01*
X121888665Y-122235000D01*
X121611426Y-122290147D01*
X121350273Y-122398320D01*
X121115241Y-122555363D01*
X120915363Y-122755241D01*
X120760000Y-122987759D01*
X120604637Y-122755241D01*
X120404759Y-122555363D01*
X120169727Y-122398320D01*
X119908574Y-122290147D01*
X119631335Y-122235000D01*
X119348665Y-122235000D01*
X119071426Y-122290147D01*
X118810273Y-122398320D01*
X118575241Y-122555363D01*
X118375363Y-122755241D01*
X118220000Y-122987759D01*
X118064637Y-122755241D01*
X117864759Y-122555363D01*
X117629727Y-122398320D01*
X117368574Y-122290147D01*
X117091335Y-122235000D01*
X116808665Y-122235000D01*
X116531426Y-122290147D01*
X116270273Y-122398320D01*
X116035241Y-122555363D01*
X115835363Y-122755241D01*
X115678320Y-122990273D01*
X115570147Y-123251426D01*
X115515000Y-123528665D01*
X108476466Y-123528665D01*
X108863141Y-123141991D01*
X108906449Y-123106449D01*
X109048284Y-122933623D01*
X109153676Y-122736447D01*
X109218577Y-122522499D01*
X109235000Y-122355752D01*
X109240491Y-122300000D01*
X109235000Y-122244248D01*
X109235000Y-115908665D01*
X115515000Y-115908665D01*
X115515000Y-116191335D01*
X115570147Y-116468574D01*
X115678320Y-116729727D01*
X115835363Y-116964759D01*
X116035241Y-117164637D01*
X116270273Y-117321680D01*
X116531426Y-117429853D01*
X116808665Y-117485000D01*
X117091335Y-117485000D01*
X117368574Y-117429853D01*
X117629727Y-117321680D01*
X117864759Y-117164637D01*
X118064637Y-116964759D01*
X118220000Y-116732241D01*
X118375363Y-116964759D01*
X118575241Y-117164637D01*
X118810273Y-117321680D01*
X119071426Y-117429853D01*
X119348665Y-117485000D01*
X119631335Y-117485000D01*
X119908574Y-117429853D01*
X120169727Y-117321680D01*
X120404759Y-117164637D01*
X120604637Y-116964759D01*
X120760000Y-116732241D01*
X120915363Y-116964759D01*
X121115241Y-117164637D01*
X121350273Y-117321680D01*
X121611426Y-117429853D01*
X121888665Y-117485000D01*
X122171335Y-117485000D01*
X122448574Y-117429853D01*
X122709727Y-117321680D01*
X122944759Y-117164637D01*
X123144637Y-116964759D01*
X123300000Y-116732241D01*
X123455363Y-116964759D01*
X123655241Y-117164637D01*
X123890273Y-117321680D01*
X124151426Y-117429853D01*
X124428665Y-117485000D01*
X124711335Y-117485000D01*
X124988574Y-117429853D01*
X125249727Y-117321680D01*
X125484759Y-117164637D01*
X125684637Y-116964759D01*
X125840000Y-116732241D01*
X125995363Y-116964759D01*
X126195241Y-117164637D01*
X126430273Y-117321680D01*
X126691426Y-117429853D01*
X126968665Y-117485000D01*
X127251335Y-117485000D01*
X127528574Y-117429853D01*
X127789727Y-117321680D01*
X128024759Y-117164637D01*
X128223357Y-116966039D01*
X128224188Y-116974482D01*
X128260498Y-117094180D01*
X128319463Y-117204494D01*
X128398815Y-117301185D01*
X128495506Y-117380537D01*
X128605820Y-117439502D01*
X128725518Y-117475812D01*
X128850000Y-117488072D01*
X130450000Y-117488072D01*
X130574482Y-117475812D01*
X130694180Y-117439502D01*
X130804494Y-117380537D01*
X130901185Y-117301185D01*
X130980537Y-117204494D01*
X131039502Y-117094180D01*
X131075812Y-116974482D01*
X131088072Y-116850000D01*
X131088072Y-115250000D01*
X131075812Y-115125518D01*
X131039502Y-115005820D01*
X130980537Y-114895506D01*
X130901185Y-114798815D01*
X130804494Y-114719463D01*
X130694180Y-114660498D01*
X130574482Y-114624188D01*
X130450000Y-114611928D01*
X128850000Y-114611928D01*
X128725518Y-114624188D01*
X128605820Y-114660498D01*
X128495506Y-114719463D01*
X128398815Y-114798815D01*
X128319463Y-114895506D01*
X128260498Y-115005820D01*
X128224188Y-115125518D01*
X128223357Y-115133961D01*
X128024759Y-114935363D01*
X127789727Y-114778320D01*
X127528574Y-114670147D01*
X127251335Y-114615000D01*
X126968665Y-114615000D01*
X126691426Y-114670147D01*
X126430273Y-114778320D01*
X126195241Y-114935363D01*
X125995363Y-115135241D01*
X125840000Y-115367759D01*
X125684637Y-115135241D01*
X125484759Y-114935363D01*
X125249727Y-114778320D01*
X124988574Y-114670147D01*
X124711335Y-114615000D01*
X124428665Y-114615000D01*
X124151426Y-114670147D01*
X123890273Y-114778320D01*
X123655241Y-114935363D01*
X123455363Y-115135241D01*
X123300000Y-115367759D01*
X123144637Y-115135241D01*
X122944759Y-114935363D01*
X122709727Y-114778320D01*
X122448574Y-114670147D01*
X122171335Y-114615000D01*
X121888665Y-114615000D01*
X121611426Y-114670147D01*
X121350273Y-114778320D01*
X121115241Y-114935363D01*
X120915363Y-115135241D01*
X120760000Y-115367759D01*
X120604637Y-115135241D01*
X120404759Y-114935363D01*
X120169727Y-114778320D01*
X119908574Y-114670147D01*
X119631335Y-114615000D01*
X119348665Y-114615000D01*
X119071426Y-114670147D01*
X118810273Y-114778320D01*
X118575241Y-114935363D01*
X118375363Y-115135241D01*
X118220000Y-115367759D01*
X118064637Y-115135241D01*
X117864759Y-114935363D01*
X117629727Y-114778320D01*
X117368574Y-114670147D01*
X117091335Y-114615000D01*
X116808665Y-114615000D01*
X116531426Y-114670147D01*
X116270273Y-114778320D01*
X116035241Y-114935363D01*
X115835363Y-115135241D01*
X115678320Y-115370273D01*
X115570147Y-115631426D01*
X115515000Y-115908665D01*
X109235000Y-115908665D01*
X109235000Y-109564508D01*
X111435000Y-109564508D01*
X111435000Y-110105491D01*
X111455764Y-110316308D01*
X111537818Y-110586807D01*
X111671068Y-110836100D01*
X111850392Y-111054607D01*
X112068899Y-111233932D01*
X112318192Y-111367182D01*
X112588691Y-111449236D01*
X112870000Y-111476943D01*
X113151308Y-111449236D01*
X113421807Y-111367182D01*
X113671100Y-111233932D01*
X113889607Y-111054608D01*
X114068932Y-110836101D01*
X114138122Y-110706655D01*
X114145570Y-110724227D01*
X114304327Y-110957662D01*
X114505575Y-111155639D01*
X114741579Y-111310551D01*
X115003270Y-111416444D01*
X115060961Y-111426904D01*
X115283000Y-111304915D01*
X115283000Y-109962000D01*
X115263000Y-109962000D01*
X115263000Y-109708000D01*
X115283000Y-109708000D01*
X115283000Y-108365085D01*
X115060961Y-108243096D01*
X115003270Y-108253556D01*
X114741579Y-108359449D01*
X114505575Y-108514361D01*
X114304327Y-108712338D01*
X114145570Y-108945773D01*
X114138122Y-108963345D01*
X114068932Y-108833899D01*
X113889608Y-108615392D01*
X113671101Y-108436068D01*
X113421808Y-108302818D01*
X113151309Y-108220764D01*
X112870000Y-108193057D01*
X112588692Y-108220764D01*
X112318193Y-108302818D01*
X112068900Y-108436068D01*
X111850393Y-108615392D01*
X111671068Y-108833899D01*
X111537818Y-109083192D01*
X111455764Y-109353691D01*
X111435000Y-109564508D01*
X109235000Y-109564508D01*
X109235000Y-108970131D01*
X115778300Y-102426833D01*
X119036082Y-102426833D01*
X119091833Y-102432324D01*
X119147584Y-102426833D01*
X119147585Y-102426833D01*
X119314332Y-102410410D01*
X119528280Y-102345509D01*
X119725456Y-102240117D01*
X119898282Y-102098282D01*
X119933829Y-102054968D01*
X128873141Y-93115657D01*
X128916449Y-93080115D01*
X129058284Y-92907289D01*
X129163676Y-92710113D01*
X129228577Y-92496165D01*
X129241496Y-92365000D01*
X129250491Y-92273667D01*
X129245000Y-92217915D01*
X129245000Y-88464088D01*
X129295506Y-88505537D01*
X129405820Y-88564502D01*
X129525518Y-88600812D01*
X129650000Y-88613072D01*
X131650000Y-88613072D01*
X131774482Y-88600812D01*
X131894180Y-88564502D01*
X132004494Y-88505537D01*
X132073000Y-88449316D01*
X132073000Y-109442673D01*
X132064236Y-109353692D01*
X131982182Y-109083193D01*
X131848932Y-108833899D01*
X131669608Y-108615392D01*
X131451101Y-108436068D01*
X131201808Y-108302818D01*
X130931309Y-108220764D01*
X130650000Y-108193057D01*
X130368692Y-108220764D01*
X130098193Y-108302818D01*
X129848900Y-108436068D01*
X129630393Y-108615392D01*
X129451068Y-108833899D01*
X129380000Y-108966858D01*
X129308932Y-108833899D01*
X129129608Y-108615392D01*
X128911101Y-108436068D01*
X128661808Y-108302818D01*
X128391309Y-108220764D01*
X128110000Y-108193057D01*
X127828692Y-108220764D01*
X127558193Y-108302818D01*
X127308900Y-108436068D01*
X127090393Y-108615392D01*
X126911068Y-108833899D01*
X126840000Y-108966858D01*
X126768932Y-108833899D01*
X126589608Y-108615392D01*
X126371101Y-108436068D01*
X126121808Y-108302818D01*
X125851309Y-108220764D01*
X125570000Y-108193057D01*
X125288692Y-108220764D01*
X125018193Y-108302818D01*
X124768900Y-108436068D01*
X124550393Y-108615392D01*
X124371068Y-108833899D01*
X124300000Y-108966858D01*
X124228932Y-108833899D01*
X124049608Y-108615392D01*
X123831101Y-108436068D01*
X123581808Y-108302818D01*
X123311309Y-108220764D01*
X123030000Y-108193057D01*
X122748692Y-108220764D01*
X122478193Y-108302818D01*
X122228900Y-108436068D01*
X122010393Y-108615392D01*
X121831068Y-108833899D01*
X121760000Y-108966858D01*
X121688932Y-108833899D01*
X121509608Y-108615392D01*
X121291101Y-108436068D01*
X121041808Y-108302818D01*
X120771309Y-108220764D01*
X120490000Y-108193057D01*
X120208692Y-108220764D01*
X119938193Y-108302818D01*
X119688900Y-108436068D01*
X119470393Y-108615392D01*
X119291068Y-108833899D01*
X119220000Y-108966858D01*
X119148932Y-108833899D01*
X118969608Y-108615392D01*
X118751101Y-108436068D01*
X118501808Y-108302818D01*
X118231309Y-108220764D01*
X117950000Y-108193057D01*
X117668692Y-108220764D01*
X117398193Y-108302818D01*
X117148900Y-108436068D01*
X116930393Y-108615392D01*
X116751068Y-108833899D01*
X116681878Y-108963345D01*
X116674430Y-108945773D01*
X116515673Y-108712338D01*
X116314425Y-108514361D01*
X116078421Y-108359449D01*
X115816730Y-108253556D01*
X115759039Y-108243096D01*
X115537000Y-108365085D01*
X115537000Y-109708000D01*
X115557000Y-109708000D01*
X115557000Y-109962000D01*
X115537000Y-109962000D01*
X115537000Y-111304915D01*
X115759039Y-111426904D01*
X115816730Y-111416444D01*
X116078421Y-111310551D01*
X116314425Y-111155639D01*
X116515673Y-110957662D01*
X116674430Y-110724227D01*
X116681878Y-110706655D01*
X116751068Y-110836100D01*
X116930392Y-111054607D01*
X117148899Y-111233932D01*
X117398192Y-111367182D01*
X117668691Y-111449236D01*
X117950000Y-111476943D01*
X118231308Y-111449236D01*
X118501807Y-111367182D01*
X118751100Y-111233932D01*
X118969607Y-111054608D01*
X119148932Y-110836101D01*
X119220000Y-110703142D01*
X119291068Y-110836100D01*
X119470392Y-111054607D01*
X119688899Y-111233932D01*
X119938192Y-111367182D01*
X120208691Y-111449236D01*
X120490000Y-111476943D01*
X120771308Y-111449236D01*
X121041807Y-111367182D01*
X121291100Y-111233932D01*
X121509607Y-111054608D01*
X121688932Y-110836101D01*
X121760000Y-110703142D01*
X121831068Y-110836100D01*
X122010392Y-111054607D01*
X122228899Y-111233932D01*
X122478192Y-111367182D01*
X122748691Y-111449236D01*
X123030000Y-111476943D01*
X123311308Y-111449236D01*
X123581807Y-111367182D01*
X123831100Y-111233932D01*
X124049607Y-111054608D01*
X124228932Y-110836101D01*
X124300000Y-110703142D01*
X124371068Y-110836100D01*
X124550392Y-111054607D01*
X124768899Y-111233932D01*
X125018192Y-111367182D01*
X125288691Y-111449236D01*
X125570000Y-111476943D01*
X125851308Y-111449236D01*
X126121807Y-111367182D01*
X126371100Y-111233932D01*
X126589607Y-111054608D01*
X126768932Y-110836101D01*
X126840000Y-110703142D01*
X126911068Y-110836100D01*
X127090392Y-111054607D01*
X127308899Y-111233932D01*
X127558192Y-111367182D01*
X127828691Y-111449236D01*
X128110000Y-111476943D01*
X128391308Y-111449236D01*
X128661807Y-111367182D01*
X128911100Y-111233932D01*
X129129607Y-111054608D01*
X129308932Y-110836101D01*
X129380000Y-110703142D01*
X129451068Y-110836100D01*
X129630392Y-111054607D01*
X129848899Y-111233932D01*
X130098192Y-111367182D01*
X130368691Y-111449236D01*
X130650000Y-111476943D01*
X130931308Y-111449236D01*
X131201807Y-111367182D01*
X131451100Y-111233932D01*
X131669607Y-111054608D01*
X131848932Y-110836101D01*
X131982182Y-110586808D01*
X132064236Y-110316309D01*
X132073000Y-110227328D01*
X132073000Y-138740000D01*
X44860000Y-138740000D01*
X44860000Y-133624193D01*
X74415000Y-133624193D01*
X74415000Y-133975807D01*
X74483596Y-134320665D01*
X74618153Y-134645515D01*
X74813500Y-134937871D01*
X75062129Y-135186500D01*
X75354485Y-135381847D01*
X75679335Y-135516404D01*
X76024193Y-135585000D01*
X76375807Y-135585000D01*
X76720665Y-135516404D01*
X77045515Y-135381847D01*
X77337871Y-135186500D01*
X77586500Y-134937871D01*
X77781847Y-134645515D01*
X77916404Y-134320665D01*
X77985000Y-133975807D01*
X77985000Y-133624193D01*
X77920515Y-133300000D01*
X112461928Y-133300000D01*
X112461928Y-135300000D01*
X112474188Y-135424482D01*
X112510498Y-135544180D01*
X112569463Y-135654494D01*
X112648815Y-135751185D01*
X112745506Y-135830537D01*
X112855820Y-135889502D01*
X112975518Y-135925812D01*
X113100000Y-135938072D01*
X115100000Y-135938072D01*
X115224482Y-135925812D01*
X115344180Y-135889502D01*
X115454494Y-135830537D01*
X115551185Y-135751185D01*
X115630537Y-135654494D01*
X115689502Y-135544180D01*
X115725812Y-135424482D01*
X115738072Y-135300000D01*
X115738072Y-133300000D01*
X115725812Y-133175518D01*
X115689502Y-133055820D01*
X115630537Y-132945506D01*
X115551185Y-132848815D01*
X115454494Y-132769463D01*
X115344180Y-132710498D01*
X115224482Y-132674188D01*
X115100000Y-132661928D01*
X113100000Y-132661928D01*
X112975518Y-132674188D01*
X112855820Y-132710498D01*
X112745506Y-132769463D01*
X112648815Y-132848815D01*
X112569463Y-132945506D01*
X112510498Y-133055820D01*
X112474188Y-133175518D01*
X112461928Y-133300000D01*
X77920515Y-133300000D01*
X77916404Y-133279335D01*
X77781847Y-132954485D01*
X77586500Y-132662129D01*
X77337871Y-132413500D01*
X77045515Y-132218153D01*
X76720665Y-132083596D01*
X76375807Y-132015000D01*
X76024193Y-132015000D01*
X75679335Y-132083596D01*
X75354485Y-132218153D01*
X75062129Y-132413500D01*
X74813500Y-132662129D01*
X74618153Y-132954485D01*
X74483596Y-133279335D01*
X74415000Y-133624193D01*
X44860000Y-133624193D01*
X44860000Y-130435413D01*
X113144192Y-130435413D01*
X113239956Y-130699814D01*
X113529571Y-130840704D01*
X113841108Y-130922384D01*
X114162595Y-130941718D01*
X114481675Y-130897961D01*
X114786088Y-130792795D01*
X114960044Y-130699814D01*
X115055808Y-130435413D01*
X114100000Y-129479605D01*
X113144192Y-130435413D01*
X44860000Y-130435413D01*
X44860000Y-128238967D01*
X67565000Y-128238967D01*
X67565000Y-128561033D01*
X67627832Y-128876912D01*
X67751082Y-129174463D01*
X67930013Y-129442252D01*
X68157748Y-129669987D01*
X68425537Y-129848918D01*
X68723088Y-129972168D01*
X69038967Y-130035000D01*
X69361033Y-130035000D01*
X69676912Y-129972168D01*
X69974463Y-129848918D01*
X70242252Y-129669987D01*
X70469987Y-129442252D01*
X70523212Y-129362595D01*
X112458282Y-129362595D01*
X112502039Y-129681675D01*
X112607205Y-129986088D01*
X112700186Y-130160044D01*
X112964587Y-130255808D01*
X113920395Y-129300000D01*
X114279605Y-129300000D01*
X115235413Y-130255808D01*
X115499814Y-130160044D01*
X115640704Y-129870429D01*
X115722384Y-129558892D01*
X115741718Y-129237405D01*
X115697961Y-128918325D01*
X115592795Y-128613912D01*
X115499814Y-128439956D01*
X115235413Y-128344192D01*
X114279605Y-129300000D01*
X113920395Y-129300000D01*
X112964587Y-128344192D01*
X112700186Y-128439956D01*
X112559296Y-128729571D01*
X112477616Y-129041108D01*
X112458282Y-129362595D01*
X70523212Y-129362595D01*
X70648918Y-129174463D01*
X70772168Y-128876912D01*
X70835000Y-128561033D01*
X70835000Y-128238967D01*
X70820205Y-128164587D01*
X113144192Y-128164587D01*
X114100000Y-129120395D01*
X115055808Y-128164587D01*
X114960044Y-127900186D01*
X114670429Y-127759296D01*
X114358892Y-127677616D01*
X114037405Y-127658282D01*
X113718325Y-127702039D01*
X113413912Y-127807205D01*
X113239956Y-127900186D01*
X113144192Y-128164587D01*
X70820205Y-128164587D01*
X70772168Y-127923088D01*
X70648918Y-127625537D01*
X70469987Y-127357748D01*
X70242252Y-127130013D01*
X69974463Y-126951082D01*
X69676912Y-126827832D01*
X69361033Y-126765000D01*
X69038967Y-126765000D01*
X68723088Y-126827832D01*
X68425537Y-126951082D01*
X68157748Y-127130013D01*
X67930013Y-127357748D01*
X67751082Y-127625537D01*
X67627832Y-127923088D01*
X67565000Y-128238967D01*
X44860000Y-128238967D01*
X44860000Y-124209419D01*
X54265000Y-124209419D01*
X54265000Y-124590581D01*
X54339361Y-124964419D01*
X54485225Y-125316566D01*
X54696987Y-125633491D01*
X54966509Y-125903013D01*
X55283434Y-126114775D01*
X55635581Y-126260639D01*
X56009419Y-126335000D01*
X56390581Y-126335000D01*
X56764419Y-126260639D01*
X57116566Y-126114775D01*
X57433491Y-125903013D01*
X57703013Y-125633491D01*
X57914775Y-125316566D01*
X58060639Y-124964419D01*
X58135000Y-124590581D01*
X58135000Y-124209419D01*
X59265000Y-124209419D01*
X59265000Y-124590581D01*
X59339361Y-124964419D01*
X59485225Y-125316566D01*
X59696987Y-125633491D01*
X59966509Y-125903013D01*
X60283434Y-126114775D01*
X60635581Y-126260639D01*
X61009419Y-126335000D01*
X61390581Y-126335000D01*
X61764419Y-126260639D01*
X62116566Y-126114775D01*
X62433491Y-125903013D01*
X62703013Y-125633491D01*
X62914775Y-125316566D01*
X63060639Y-124964419D01*
X63135000Y-124590581D01*
X63135000Y-124209419D01*
X63060639Y-123835581D01*
X62914775Y-123483434D01*
X62703013Y-123166509D01*
X62433491Y-122896987D01*
X62116566Y-122685225D01*
X61764419Y-122539361D01*
X61390581Y-122465000D01*
X61009419Y-122465000D01*
X60635581Y-122539361D01*
X60283434Y-122685225D01*
X59966509Y-122896987D01*
X59696987Y-123166509D01*
X59485225Y-123483434D01*
X59339361Y-123835581D01*
X59265000Y-124209419D01*
X58135000Y-124209419D01*
X58060639Y-123835581D01*
X57914775Y-123483434D01*
X57703013Y-123166509D01*
X57433491Y-122896987D01*
X57116566Y-122685225D01*
X56764419Y-122539361D01*
X56390581Y-122465000D01*
X56009419Y-122465000D01*
X55635581Y-122539361D01*
X55283434Y-122685225D01*
X54966509Y-122896987D01*
X54696987Y-123166509D01*
X54485225Y-123483434D01*
X54339361Y-123835581D01*
X54265000Y-124209419D01*
X44860000Y-124209419D01*
X44860000Y-119535413D01*
X68244192Y-119535413D01*
X68339956Y-119799814D01*
X68629571Y-119940704D01*
X68941108Y-120022384D01*
X69262595Y-120041718D01*
X69581675Y-119997961D01*
X69886088Y-119892795D01*
X70060044Y-119799814D01*
X70132415Y-119600000D01*
X74411928Y-119600000D01*
X74424188Y-119724482D01*
X74460498Y-119844180D01*
X74519463Y-119954494D01*
X74598815Y-120051185D01*
X74695506Y-120130537D01*
X74805820Y-120189502D01*
X74925518Y-120225812D01*
X75050000Y-120238072D01*
X75914250Y-120235000D01*
X76073000Y-120076250D01*
X76073000Y-118727000D01*
X76327000Y-118727000D01*
X76327000Y-120076250D01*
X76485750Y-120235000D01*
X77350000Y-120238072D01*
X77474482Y-120225812D01*
X77594180Y-120189502D01*
X77704494Y-120130537D01*
X77801185Y-120051185D01*
X77880537Y-119954494D01*
X77939502Y-119844180D01*
X77940057Y-119842349D01*
X103137256Y-119842349D01*
X103251118Y-120122090D01*
X103566296Y-120277961D01*
X103905826Y-120369349D01*
X104256661Y-120392741D01*
X104605319Y-120347240D01*
X104938400Y-120234594D01*
X105148882Y-120122090D01*
X105262744Y-119842349D01*
X104200000Y-118779605D01*
X103137256Y-119842349D01*
X77940057Y-119842349D01*
X77975812Y-119724482D01*
X77988072Y-119600000D01*
X77985000Y-118885750D01*
X77826250Y-118727000D01*
X76327000Y-118727000D01*
X76073000Y-118727000D01*
X74573750Y-118727000D01*
X74415000Y-118885750D01*
X74411928Y-119600000D01*
X70132415Y-119600000D01*
X70155808Y-119535413D01*
X69200000Y-118579605D01*
X68244192Y-119535413D01*
X44860000Y-119535413D01*
X44860000Y-119127000D01*
X62800000Y-119127000D01*
X62824776Y-119124560D01*
X62848601Y-119117333D01*
X62870557Y-119105597D01*
X62889803Y-119089803D01*
X62905597Y-119070557D01*
X62917333Y-119048601D01*
X62924560Y-119024776D01*
X62927000Y-119000000D01*
X62927000Y-118462595D01*
X67558282Y-118462595D01*
X67602039Y-118781675D01*
X67707205Y-119086088D01*
X67800186Y-119260044D01*
X68064587Y-119355808D01*
X69020395Y-118400000D01*
X69379605Y-118400000D01*
X70335413Y-119355808D01*
X70599814Y-119260044D01*
X70740704Y-118970429D01*
X70822384Y-118658892D01*
X70822518Y-118656661D01*
X102407259Y-118656661D01*
X102452760Y-119005319D01*
X102565406Y-119338400D01*
X102677910Y-119548882D01*
X102957651Y-119662744D01*
X104020395Y-118600000D01*
X104379605Y-118600000D01*
X105442349Y-119662744D01*
X105722090Y-119548882D01*
X105877961Y-119233704D01*
X105969349Y-118894174D01*
X105992741Y-118543339D01*
X105947240Y-118194681D01*
X105834594Y-117861600D01*
X105722090Y-117651118D01*
X105442349Y-117537256D01*
X104379605Y-118600000D01*
X104020395Y-118600000D01*
X102957651Y-117537256D01*
X102677910Y-117651118D01*
X102522039Y-117966296D01*
X102430651Y-118305826D01*
X102407259Y-118656661D01*
X70822518Y-118656661D01*
X70841718Y-118337405D01*
X70797961Y-118018325D01*
X70692795Y-117713912D01*
X70631909Y-117600000D01*
X74411928Y-117600000D01*
X74415000Y-118314250D01*
X74573750Y-118473000D01*
X76073000Y-118473000D01*
X76073000Y-117123750D01*
X76327000Y-117123750D01*
X76327000Y-118473000D01*
X77826250Y-118473000D01*
X77985000Y-118314250D01*
X77988072Y-117600000D01*
X77975812Y-117475518D01*
X77940058Y-117357651D01*
X103137256Y-117357651D01*
X104200000Y-118420395D01*
X105262744Y-117357651D01*
X105148882Y-117077910D01*
X104833704Y-116922039D01*
X104494174Y-116830651D01*
X104143339Y-116807259D01*
X103794681Y-116852760D01*
X103461600Y-116965406D01*
X103251118Y-117077910D01*
X103137256Y-117357651D01*
X77940058Y-117357651D01*
X77939502Y-117355820D01*
X77880537Y-117245506D01*
X77801185Y-117148815D01*
X77704494Y-117069463D01*
X77594180Y-117010498D01*
X77474482Y-116974188D01*
X77350000Y-116961928D01*
X76485750Y-116965000D01*
X76327000Y-117123750D01*
X76073000Y-117123750D01*
X75914250Y-116965000D01*
X75050000Y-116961928D01*
X74925518Y-116974188D01*
X74805820Y-117010498D01*
X74695506Y-117069463D01*
X74598815Y-117148815D01*
X74519463Y-117245506D01*
X74460498Y-117355820D01*
X74424188Y-117475518D01*
X74411928Y-117600000D01*
X70631909Y-117600000D01*
X70599814Y-117539956D01*
X70335413Y-117444192D01*
X69379605Y-118400000D01*
X69020395Y-118400000D01*
X68064587Y-117444192D01*
X67800186Y-117539956D01*
X67659296Y-117829571D01*
X67577616Y-118141108D01*
X67558282Y-118462595D01*
X62927000Y-118462595D01*
X62927000Y-117264587D01*
X68244192Y-117264587D01*
X69200000Y-118220395D01*
X70155808Y-117264587D01*
X70060044Y-117000186D01*
X69770429Y-116859296D01*
X69458892Y-116777616D01*
X69137405Y-116758282D01*
X68818325Y-116802039D01*
X68513912Y-116907205D01*
X68339956Y-117000186D01*
X68244192Y-117264587D01*
X62927000Y-117264587D01*
X62927000Y-111858665D01*
X69690000Y-111858665D01*
X69690000Y-112141335D01*
X69745147Y-112418574D01*
X69853320Y-112679727D01*
X70010363Y-112914759D01*
X70210241Y-113114637D01*
X70445273Y-113271680D01*
X70706426Y-113379853D01*
X70983665Y-113435000D01*
X71266335Y-113435000D01*
X71543574Y-113379853D01*
X71804727Y-113271680D01*
X72039759Y-113114637D01*
X72239637Y-112914759D01*
X72396680Y-112679727D01*
X72504853Y-112418574D01*
X72560000Y-112141335D01*
X72560000Y-111858665D01*
X72504853Y-111581426D01*
X72396680Y-111320273D01*
X72239637Y-111085241D01*
X72039759Y-110885363D01*
X71804727Y-110728320D01*
X71543574Y-110620147D01*
X71266335Y-110565000D01*
X70983665Y-110565000D01*
X70706426Y-110620147D01*
X70445273Y-110728320D01*
X70210241Y-110885363D01*
X70010363Y-111085241D01*
X69853320Y-111320273D01*
X69745147Y-111581426D01*
X69690000Y-111858665D01*
X62927000Y-111858665D01*
X62927000Y-107992702D01*
X72111903Y-107992702D01*
X72183486Y-108236671D01*
X72438996Y-108357571D01*
X72713184Y-108426300D01*
X72995512Y-108440217D01*
X73275130Y-108398787D01*
X73541292Y-108303603D01*
X73666514Y-108236671D01*
X73738097Y-107992702D01*
X72925000Y-107179605D01*
X72111903Y-107992702D01*
X62927000Y-107992702D01*
X62927000Y-107160000D01*
X64636928Y-107160000D01*
X64636928Y-107250000D01*
X64649188Y-107374482D01*
X64685498Y-107494180D01*
X64744463Y-107604494D01*
X64823815Y-107701185D01*
X64920506Y-107780537D01*
X65030820Y-107839502D01*
X65150518Y-107875812D01*
X65275000Y-107888072D01*
X66975000Y-107888072D01*
X67099482Y-107875812D01*
X67219180Y-107839502D01*
X67329494Y-107780537D01*
X67426185Y-107701185D01*
X67505537Y-107604494D01*
X67564502Y-107494180D01*
X67600812Y-107374482D01*
X67613072Y-107250000D01*
X67613072Y-107070512D01*
X71484783Y-107070512D01*
X71526213Y-107350130D01*
X71621397Y-107616292D01*
X71688329Y-107741514D01*
X71932298Y-107813097D01*
X72745395Y-107000000D01*
X73104605Y-107000000D01*
X73917702Y-107813097D01*
X74161671Y-107741514D01*
X74282571Y-107486004D01*
X74351300Y-107211816D01*
X74365217Y-106929488D01*
X74323787Y-106649870D01*
X74228603Y-106383708D01*
X74161671Y-106258486D01*
X73917702Y-106186903D01*
X73104605Y-107000000D01*
X72745395Y-107000000D01*
X71932298Y-106186903D01*
X71688329Y-106258486D01*
X71567429Y-106513996D01*
X71498700Y-106788184D01*
X71484783Y-107070512D01*
X67613072Y-107070512D01*
X67613072Y-106007298D01*
X72111903Y-106007298D01*
X72925000Y-106820395D01*
X73738097Y-106007298D01*
X73666514Y-105763329D01*
X73411004Y-105642429D01*
X73136816Y-105573700D01*
X72854488Y-105559783D01*
X72574870Y-105601213D01*
X72308708Y-105696397D01*
X72183486Y-105763329D01*
X72111903Y-106007298D01*
X67613072Y-106007298D01*
X67613072Y-105550000D01*
X67600812Y-105425518D01*
X67564502Y-105305820D01*
X67505537Y-105195506D01*
X67426185Y-105098815D01*
X67329494Y-105019463D01*
X67219180Y-104960498D01*
X67146620Y-104938487D01*
X67278475Y-104806632D01*
X67440990Y-104563411D01*
X67552932Y-104293158D01*
X67599575Y-104058665D01*
X69690000Y-104058665D01*
X69690000Y-104341335D01*
X69745147Y-104618574D01*
X69853320Y-104879727D01*
X70010363Y-105114759D01*
X70210241Y-105314637D01*
X70445273Y-105471680D01*
X70706426Y-105579853D01*
X70983665Y-105635000D01*
X71266335Y-105635000D01*
X71543574Y-105579853D01*
X71804727Y-105471680D01*
X72039759Y-105314637D01*
X72239637Y-105114759D01*
X72396680Y-104879727D01*
X72504853Y-104618574D01*
X72560000Y-104341335D01*
X72560000Y-104058665D01*
X72504853Y-103781426D01*
X72396680Y-103520273D01*
X72239637Y-103285241D01*
X72039759Y-103085363D01*
X71804727Y-102928320D01*
X71543574Y-102820147D01*
X71266335Y-102765000D01*
X70983665Y-102765000D01*
X70706426Y-102820147D01*
X70445273Y-102928320D01*
X70210241Y-103085363D01*
X70010363Y-103285241D01*
X69853320Y-103520273D01*
X69745147Y-103781426D01*
X69690000Y-104058665D01*
X67599575Y-104058665D01*
X67610000Y-104006260D01*
X67610000Y-103713740D01*
X67552932Y-103426842D01*
X67440990Y-103156589D01*
X67278475Y-102913368D01*
X67071632Y-102706525D01*
X66897240Y-102590000D01*
X67071632Y-102473475D01*
X67278475Y-102266632D01*
X67440990Y-102023411D01*
X67552932Y-101753158D01*
X67610000Y-101466260D01*
X67610000Y-101173740D01*
X67552932Y-100886842D01*
X67440990Y-100616589D01*
X67278475Y-100373368D01*
X67097809Y-100192702D01*
X72111903Y-100192702D01*
X72183486Y-100436671D01*
X72438996Y-100557571D01*
X72713184Y-100626300D01*
X72995512Y-100640217D01*
X73275130Y-100598787D01*
X73541292Y-100503603D01*
X73666514Y-100436671D01*
X73738097Y-100192702D01*
X72925000Y-99379605D01*
X72111903Y-100192702D01*
X67097809Y-100192702D01*
X67071632Y-100166525D01*
X66889466Y-100044805D01*
X67006355Y-99975178D01*
X67222588Y-99780269D01*
X67396641Y-99546920D01*
X67521825Y-99284099D01*
X67525946Y-99270512D01*
X71484783Y-99270512D01*
X71526213Y-99550130D01*
X71621397Y-99816292D01*
X71688329Y-99941514D01*
X71932298Y-100013097D01*
X72745395Y-99200000D01*
X73104605Y-99200000D01*
X73917702Y-100013097D01*
X74161671Y-99941514D01*
X74282571Y-99686004D01*
X74351300Y-99411816D01*
X74365217Y-99129488D01*
X74323787Y-98849870D01*
X74228603Y-98583708D01*
X74161671Y-98458486D01*
X73917702Y-98386903D01*
X73104605Y-99200000D01*
X72745395Y-99200000D01*
X71932298Y-98386903D01*
X71688329Y-98458486D01*
X71567429Y-98713996D01*
X71498700Y-98988184D01*
X71484783Y-99270512D01*
X67525946Y-99270512D01*
X67566476Y-99136890D01*
X67445155Y-98907000D01*
X66252000Y-98907000D01*
X66252000Y-98927000D01*
X65998000Y-98927000D01*
X65998000Y-98907000D01*
X64804845Y-98907000D01*
X64683524Y-99136890D01*
X64728175Y-99284099D01*
X64853359Y-99546920D01*
X65027412Y-99780269D01*
X65243645Y-99975178D01*
X65360534Y-100044805D01*
X65178368Y-100166525D01*
X64971525Y-100373368D01*
X64809010Y-100616589D01*
X64697068Y-100886842D01*
X64640000Y-101173740D01*
X64640000Y-101466260D01*
X64697068Y-101753158D01*
X64809010Y-102023411D01*
X64971525Y-102266632D01*
X65178368Y-102473475D01*
X65352760Y-102590000D01*
X65178368Y-102706525D01*
X64971525Y-102913368D01*
X64846822Y-103100000D01*
X63974802Y-103100000D01*
X62960000Y-102085199D01*
X62960000Y-98423110D01*
X64683524Y-98423110D01*
X64804845Y-98653000D01*
X65998000Y-98653000D01*
X65998000Y-97459186D01*
X66252000Y-97459186D01*
X66252000Y-98653000D01*
X67445155Y-98653000D01*
X67566476Y-98423110D01*
X67521825Y-98275901D01*
X67489149Y-98207298D01*
X72111903Y-98207298D01*
X72925000Y-99020395D01*
X73738097Y-98207298D01*
X73666514Y-97963329D01*
X73411004Y-97842429D01*
X73136816Y-97773700D01*
X72854488Y-97759783D01*
X72574870Y-97801213D01*
X72308708Y-97896397D01*
X72183486Y-97963329D01*
X72111903Y-98207298D01*
X67489149Y-98207298D01*
X67396641Y-98013080D01*
X67222588Y-97779731D01*
X67006355Y-97584822D01*
X66756252Y-97435843D01*
X66481891Y-97338519D01*
X66252000Y-97459186D01*
X65998000Y-97459186D01*
X65768109Y-97338519D01*
X65493748Y-97435843D01*
X65243645Y-97584822D01*
X65027412Y-97779731D01*
X64853359Y-98013080D01*
X64728175Y-98275901D01*
X64683524Y-98423110D01*
X62960000Y-98423110D01*
X62960000Y-96258665D01*
X69690000Y-96258665D01*
X69690000Y-96541335D01*
X69745147Y-96818574D01*
X69853320Y-97079727D01*
X70010363Y-97314759D01*
X70210241Y-97514637D01*
X70445273Y-97671680D01*
X70706426Y-97779853D01*
X70983665Y-97835000D01*
X71266335Y-97835000D01*
X71543574Y-97779853D01*
X71804727Y-97671680D01*
X72039759Y-97514637D01*
X72239637Y-97314759D01*
X72396680Y-97079727D01*
X72504853Y-96818574D01*
X72560000Y-96541335D01*
X72560000Y-96258665D01*
X72504853Y-95981426D01*
X72396680Y-95720273D01*
X72239637Y-95485241D01*
X72039759Y-95285363D01*
X71804727Y-95128320D01*
X71543574Y-95020147D01*
X71266335Y-94965000D01*
X70983665Y-94965000D01*
X70706426Y-95020147D01*
X70445273Y-95128320D01*
X70210241Y-95285363D01*
X70010363Y-95485241D01*
X69853320Y-95720273D01*
X69745147Y-95981426D01*
X69690000Y-96258665D01*
X62960000Y-96258665D01*
X62960000Y-95937322D01*
X62963676Y-95900000D01*
X62960000Y-95862677D01*
X62960000Y-95862667D01*
X62949003Y-95751014D01*
X62927000Y-95678479D01*
X62927000Y-93600000D01*
X62924560Y-93575224D01*
X62917333Y-93551399D01*
X62905597Y-93529443D01*
X62889803Y-93510197D01*
X62870557Y-93494403D01*
X62848601Y-93482667D01*
X62824776Y-93475440D01*
X62800000Y-93473000D01*
X60847803Y-93473000D01*
X59767505Y-92392702D01*
X72111903Y-92392702D01*
X72183486Y-92636671D01*
X72438996Y-92757571D01*
X72713184Y-92826300D01*
X72995512Y-92840217D01*
X73275130Y-92798787D01*
X73541292Y-92703603D01*
X73666514Y-92636671D01*
X73738097Y-92392702D01*
X72925000Y-91579605D01*
X72111903Y-92392702D01*
X59767505Y-92392702D01*
X58845314Y-91470512D01*
X71484783Y-91470512D01*
X71526213Y-91750130D01*
X71621397Y-92016292D01*
X71688329Y-92141514D01*
X71932298Y-92213097D01*
X72745395Y-91400000D01*
X73104605Y-91400000D01*
X73917702Y-92213097D01*
X74161671Y-92141514D01*
X74282571Y-91886004D01*
X74351300Y-91611816D01*
X74365217Y-91329488D01*
X74363525Y-91318064D01*
X86665000Y-91318064D01*
X86665000Y-91521942D01*
X86704774Y-91721901D01*
X86782795Y-91910259D01*
X86896063Y-92079777D01*
X87040226Y-92223940D01*
X87209744Y-92337208D01*
X87302278Y-92375537D01*
X87314569Y-92437332D01*
X87209523Y-92542378D01*
X87096255Y-92711896D01*
X87018234Y-92900254D01*
X86978460Y-93100213D01*
X86978460Y-93304091D01*
X87018234Y-93504050D01*
X87096255Y-93692408D01*
X87137134Y-93753589D01*
X87032795Y-93909744D01*
X86954774Y-94098102D01*
X86915000Y-94298061D01*
X86915000Y-94501939D01*
X86954774Y-94701898D01*
X87032795Y-94890256D01*
X87146063Y-95059774D01*
X87290226Y-95203937D01*
X87459744Y-95317205D01*
X87648102Y-95395226D01*
X87848061Y-95435000D01*
X88051939Y-95435000D01*
X88171895Y-95411140D01*
X88200257Y-95413933D01*
X88237580Y-95410257D01*
X92412421Y-95410257D01*
X92449743Y-95413933D01*
X92487065Y-95410257D01*
X92487076Y-95410257D01*
X92598729Y-95399260D01*
X92741990Y-95355803D01*
X92874019Y-95285231D01*
X92989744Y-95190258D01*
X93013547Y-95161254D01*
X95640084Y-92534718D01*
X95712795Y-92710256D01*
X95826063Y-92879774D01*
X95970226Y-93023937D01*
X96139744Y-93137205D01*
X96328102Y-93215226D01*
X96528061Y-93255000D01*
X96590199Y-93255000D01*
X97400198Y-94065000D01*
X97398061Y-94065000D01*
X97198102Y-94104774D01*
X97009744Y-94182795D01*
X96840226Y-94296063D01*
X96696063Y-94440226D01*
X96582795Y-94609744D01*
X96504774Y-94798102D01*
X96465000Y-94998061D01*
X96465000Y-95201939D01*
X96504774Y-95401898D01*
X96582795Y-95590256D01*
X96696063Y-95759774D01*
X96840226Y-95903937D01*
X97009744Y-96017205D01*
X97198102Y-96095226D01*
X97398061Y-96135000D01*
X97460199Y-96135000D01*
X98274401Y-96949203D01*
X98304774Y-97101898D01*
X98382795Y-97290256D01*
X98496063Y-97459774D01*
X98640226Y-97603937D01*
X98809744Y-97717205D01*
X98998102Y-97795226D01*
X99198061Y-97835000D01*
X99401939Y-97835000D01*
X99601898Y-97795226D01*
X99790256Y-97717205D01*
X99959774Y-97603937D01*
X100103937Y-97459774D01*
X100217205Y-97290256D01*
X100295226Y-97101898D01*
X100335000Y-96901939D01*
X100335000Y-96698061D01*
X100295226Y-96498102D01*
X100217205Y-96309744D01*
X100103937Y-96140226D01*
X99959774Y-95996063D01*
X99790256Y-95882795D01*
X99601898Y-95804774D01*
X99401939Y-95765000D01*
X99239802Y-95765000D01*
X98607602Y-95132801D01*
X98661014Y-95149003D01*
X98810000Y-95163677D01*
X98847333Y-95160000D01*
X116996289Y-95160000D01*
X117040226Y-95203937D01*
X117209744Y-95317205D01*
X117398102Y-95395226D01*
X117598061Y-95435000D01*
X117801939Y-95435000D01*
X118001898Y-95395226D01*
X118190256Y-95317205D01*
X118359774Y-95203937D01*
X118503937Y-95059774D01*
X118617205Y-94890256D01*
X118695226Y-94701898D01*
X118735000Y-94501939D01*
X118735000Y-94298061D01*
X118707538Y-94160000D01*
X119746289Y-94160000D01*
X119790226Y-94203937D01*
X119959744Y-94317205D01*
X120148102Y-94395226D01*
X120348061Y-94435000D01*
X120551939Y-94435000D01*
X120751898Y-94395226D01*
X120940256Y-94317205D01*
X121109774Y-94203937D01*
X121253937Y-94059774D01*
X121367205Y-93890256D01*
X121445226Y-93701898D01*
X121485000Y-93501939D01*
X121485000Y-93405001D01*
X122241290Y-93405001D01*
X122340226Y-93503937D01*
X122509744Y-93617205D01*
X122698102Y-93695226D01*
X122898061Y-93735000D01*
X123101939Y-93735000D01*
X123301898Y-93695226D01*
X123490256Y-93617205D01*
X123659774Y-93503937D01*
X123803937Y-93359774D01*
X123917205Y-93190256D01*
X123995226Y-93001898D01*
X124035000Y-92801939D01*
X124035000Y-92598061D01*
X123995226Y-92398102D01*
X123917205Y-92209744D01*
X123803937Y-92040226D01*
X123659774Y-91896063D01*
X123490256Y-91782795D01*
X123301898Y-91704774D01*
X123101939Y-91665000D01*
X122898061Y-91665000D01*
X122698102Y-91704774D01*
X122509744Y-91782795D01*
X122356781Y-91885001D01*
X100009803Y-91885001D01*
X99075868Y-90951067D01*
X99086557Y-90897328D01*
X99086557Y-90693450D01*
X99046783Y-90493491D01*
X98968762Y-90305133D01*
X98855494Y-90135615D01*
X98711331Y-89991452D01*
X98541813Y-89878184D01*
X98368435Y-89806368D01*
X99961008Y-88213795D01*
X99990001Y-88190001D01*
X100013795Y-88161008D01*
X100013799Y-88161004D01*
X100084973Y-88074277D01*
X100115267Y-88017602D01*
X100155546Y-87942247D01*
X100199003Y-87798986D01*
X100210000Y-87687333D01*
X100210000Y-87687324D01*
X100213676Y-87650001D01*
X100210000Y-87612678D01*
X100210000Y-86103711D01*
X100253937Y-86059774D01*
X100367205Y-85890256D01*
X100445226Y-85701898D01*
X100485000Y-85501939D01*
X100485000Y-85298061D01*
X100445226Y-85098102D01*
X100367205Y-84909744D01*
X100253937Y-84740226D01*
X100109774Y-84596063D01*
X99940256Y-84482795D01*
X99751898Y-84404774D01*
X99551939Y-84365000D01*
X99348061Y-84365000D01*
X99148102Y-84404774D01*
X98959744Y-84482795D01*
X98790226Y-84596063D01*
X98646063Y-84740226D01*
X98532795Y-84909744D01*
X98454774Y-85098102D01*
X98445372Y-85145372D01*
X98398102Y-85154774D01*
X98209744Y-85232795D01*
X98040226Y-85346063D01*
X97896063Y-85490226D01*
X97782795Y-85659744D01*
X97704774Y-85848102D01*
X97665000Y-86048061D01*
X97665000Y-86251939D01*
X97704774Y-86451898D01*
X97782795Y-86640256D01*
X97896063Y-86809774D01*
X97940000Y-86853711D01*
X97940000Y-87158200D01*
X94119849Y-90978352D01*
X94119849Y-88347172D01*
X94123525Y-88309849D01*
X94119849Y-88272526D01*
X94119849Y-88272516D01*
X94108852Y-88160863D01*
X94065395Y-88017602D01*
X94043212Y-87976101D01*
X93994823Y-87885572D01*
X93923648Y-87798846D01*
X93899850Y-87769848D01*
X93870852Y-87746050D01*
X92735000Y-86610199D01*
X92735000Y-86548061D01*
X92695226Y-86348102D01*
X92617205Y-86159744D01*
X92503937Y-85990226D01*
X92359774Y-85846063D01*
X92190256Y-85732795D01*
X92001898Y-85654774D01*
X91801939Y-85615000D01*
X91598061Y-85615000D01*
X91570028Y-85620576D01*
X91582879Y-85589551D01*
X91622653Y-85389592D01*
X91622653Y-85185714D01*
X91582879Y-84985755D01*
X91578387Y-84974909D01*
X91609774Y-84953937D01*
X91753937Y-84809774D01*
X91867205Y-84640256D01*
X91945226Y-84451898D01*
X91985000Y-84251939D01*
X91985000Y-84048061D01*
X91945226Y-83848102D01*
X91867205Y-83659744D01*
X91753937Y-83490226D01*
X91609774Y-83346063D01*
X91440256Y-83232795D01*
X91251898Y-83154774D01*
X91051939Y-83115000D01*
X90848061Y-83115000D01*
X90648102Y-83154774D01*
X90459744Y-83232795D01*
X90290226Y-83346063D01*
X90146063Y-83490226D01*
X90032795Y-83659744D01*
X89974345Y-83800853D01*
X89644154Y-84131045D01*
X89644154Y-83669557D01*
X89753937Y-83559774D01*
X89867205Y-83390256D01*
X89945226Y-83201898D01*
X89985000Y-83001939D01*
X89985000Y-82798061D01*
X89945226Y-82598102D01*
X89867205Y-82409744D01*
X89753937Y-82240226D01*
X89609774Y-82096063D01*
X89548672Y-82055236D01*
X89642204Y-81915255D01*
X89720225Y-81726897D01*
X89759999Y-81526938D01*
X89759999Y-81323060D01*
X89720225Y-81123101D01*
X89642204Y-80934743D01*
X89528936Y-80765225D01*
X89384773Y-80621062D01*
X89215255Y-80507794D01*
X89026897Y-80429773D01*
X88826938Y-80389999D01*
X88623060Y-80389999D01*
X88423101Y-80429773D01*
X88234743Y-80507794D01*
X88065225Y-80621062D01*
X87921062Y-80765225D01*
X87807794Y-80934743D01*
X87729773Y-81123101D01*
X87689999Y-81323060D01*
X87689999Y-81385198D01*
X87537003Y-81538194D01*
X87508000Y-81561996D01*
X87452872Y-81629171D01*
X87413027Y-81677721D01*
X87344703Y-81805546D01*
X87342455Y-81809751D01*
X87298998Y-81953012D01*
X87288001Y-82064665D01*
X87288001Y-82064675D01*
X87284325Y-82101997D01*
X87288001Y-82139319D01*
X87288002Y-89657667D01*
X87284325Y-89694999D01*
X87298999Y-89843984D01*
X87342455Y-89987245D01*
X87413027Y-90119275D01*
X87480835Y-90201898D01*
X87508001Y-90235000D01*
X87536999Y-90258798D01*
X87663204Y-90385003D01*
X87598061Y-90385003D01*
X87398102Y-90424777D01*
X87209744Y-90502798D01*
X87040226Y-90616066D01*
X86896063Y-90760229D01*
X86782795Y-90929747D01*
X86704774Y-91118105D01*
X86665000Y-91318064D01*
X74363525Y-91318064D01*
X74323787Y-91049870D01*
X74228603Y-90783708D01*
X74161671Y-90658486D01*
X73917702Y-90586903D01*
X73104605Y-91400000D01*
X72745395Y-91400000D01*
X71932298Y-90586903D01*
X71688329Y-90658486D01*
X71567429Y-90913996D01*
X71498700Y-91188184D01*
X71484783Y-91470512D01*
X58845314Y-91470512D01*
X57782100Y-90407298D01*
X72111903Y-90407298D01*
X72925000Y-91220395D01*
X73738097Y-90407298D01*
X73666514Y-90163329D01*
X73411004Y-90042429D01*
X73136816Y-89973700D01*
X72854488Y-89959783D01*
X72574870Y-90001213D01*
X72308708Y-90096397D01*
X72183486Y-90163329D01*
X72111903Y-90407298D01*
X57782100Y-90407298D01*
X57235000Y-89860199D01*
X57235000Y-89798061D01*
X57195226Y-89598102D01*
X57117205Y-89409744D01*
X57003937Y-89240226D01*
X56859774Y-89096063D01*
X56690256Y-88982795D01*
X56501898Y-88904774D01*
X56301939Y-88865000D01*
X56098061Y-88865000D01*
X55898102Y-88904774D01*
X55709744Y-88982795D01*
X55540226Y-89096063D01*
X55396063Y-89240226D01*
X55282795Y-89409744D01*
X55204774Y-89598102D01*
X55165000Y-89798061D01*
X55165000Y-90001939D01*
X55204774Y-90201898D01*
X55282795Y-90390256D01*
X55396063Y-90559774D01*
X55540226Y-90703937D01*
X55709744Y-90817205D01*
X55898102Y-90895226D01*
X56098061Y-90935000D01*
X56160199Y-90935000D01*
X58698198Y-93473000D01*
X57847802Y-93473000D01*
X55485000Y-91110199D01*
X55485000Y-91048061D01*
X55445226Y-90848102D01*
X55367205Y-90659744D01*
X55253937Y-90490226D01*
X55109774Y-90346063D01*
X54940256Y-90232795D01*
X54751898Y-90154774D01*
X54551939Y-90115000D01*
X54348061Y-90115000D01*
X54148102Y-90154774D01*
X53959744Y-90232795D01*
X53790226Y-90346063D01*
X53646063Y-90490226D01*
X53532795Y-90659744D01*
X53454774Y-90848102D01*
X53415000Y-91048061D01*
X53415000Y-91251939D01*
X53454774Y-91451898D01*
X53532795Y-91640256D01*
X53646063Y-91809774D01*
X53790226Y-91953937D01*
X53959744Y-92067205D01*
X54148102Y-92145226D01*
X54348061Y-92185000D01*
X54410199Y-92185000D01*
X55698199Y-93473000D01*
X44860000Y-93473000D01*
X44860000Y-88458665D01*
X69690000Y-88458665D01*
X69690000Y-88741335D01*
X69745147Y-89018574D01*
X69853320Y-89279727D01*
X70010363Y-89514759D01*
X70210241Y-89714637D01*
X70445273Y-89871680D01*
X70706426Y-89979853D01*
X70983665Y-90035000D01*
X71266335Y-90035000D01*
X71543574Y-89979853D01*
X71804727Y-89871680D01*
X72039759Y-89714637D01*
X72239637Y-89514759D01*
X72396680Y-89279727D01*
X72504853Y-89018574D01*
X72560000Y-88741335D01*
X72560000Y-88458665D01*
X72504853Y-88181426D01*
X72396680Y-87920273D01*
X72239637Y-87685241D01*
X72039759Y-87485363D01*
X71804727Y-87328320D01*
X71543574Y-87220147D01*
X71266335Y-87165000D01*
X70983665Y-87165000D01*
X70706426Y-87220147D01*
X70445273Y-87328320D01*
X70210241Y-87485363D01*
X70010363Y-87685241D01*
X69853320Y-87920273D01*
X69745147Y-88181426D01*
X69690000Y-88458665D01*
X44860000Y-88458665D01*
X44860000Y-84592702D01*
X72111903Y-84592702D01*
X72183486Y-84836671D01*
X72438996Y-84957571D01*
X72713184Y-85026300D01*
X72995512Y-85040217D01*
X73275130Y-84998787D01*
X73541292Y-84903603D01*
X73666514Y-84836671D01*
X73738097Y-84592702D01*
X72925000Y-83779605D01*
X72111903Y-84592702D01*
X44860000Y-84592702D01*
X44860000Y-83670512D01*
X71484783Y-83670512D01*
X71526213Y-83950130D01*
X71621397Y-84216292D01*
X71688329Y-84341514D01*
X71932298Y-84413097D01*
X72745395Y-83600000D01*
X73104605Y-83600000D01*
X73917702Y-84413097D01*
X74161671Y-84341514D01*
X74282571Y-84086004D01*
X74351300Y-83811816D01*
X74365217Y-83529488D01*
X74323787Y-83249870D01*
X74228603Y-82983708D01*
X74161671Y-82858486D01*
X73917702Y-82786903D01*
X73104605Y-83600000D01*
X72745395Y-83600000D01*
X71932298Y-82786903D01*
X71688329Y-82858486D01*
X71567429Y-83113996D01*
X71498700Y-83388184D01*
X71484783Y-83670512D01*
X44860000Y-83670512D01*
X44860000Y-82607298D01*
X72111903Y-82607298D01*
X72925000Y-83420395D01*
X73738097Y-82607298D01*
X73666514Y-82363329D01*
X73411004Y-82242429D01*
X73136816Y-82173700D01*
X72854488Y-82159783D01*
X72574870Y-82201213D01*
X72308708Y-82296397D01*
X72183486Y-82363329D01*
X72111903Y-82607298D01*
X44860000Y-82607298D01*
X44860000Y-78598061D01*
X115665000Y-78598061D01*
X115665000Y-78801939D01*
X115704774Y-79001898D01*
X115782795Y-79190256D01*
X115896063Y-79359774D01*
X115940000Y-79403711D01*
X115940000Y-79562678D01*
X115936324Y-79600000D01*
X115940000Y-79637322D01*
X115940000Y-79637333D01*
X115950135Y-79740226D01*
X115950998Y-79748985D01*
X115994454Y-79892246D01*
X116065026Y-80024276D01*
X116098448Y-80065000D01*
X116160000Y-80140001D01*
X116188998Y-80163799D01*
X118361202Y-82336004D01*
X118385000Y-82365002D01*
X118413998Y-82388800D01*
X118500725Y-82459975D01*
X118632754Y-82530547D01*
X118776015Y-82574004D01*
X118925001Y-82588678D01*
X118962334Y-82585001D01*
X123637677Y-82585001D01*
X123674999Y-82588677D01*
X123712321Y-82585001D01*
X123712332Y-82585001D01*
X123823985Y-82574004D01*
X123967246Y-82530547D01*
X124099275Y-82459975D01*
X124215000Y-82365002D01*
X124238803Y-82335999D01*
X125211004Y-81363798D01*
X125240001Y-81340001D01*
X125334974Y-81224276D01*
X125405546Y-81092247D01*
X125449003Y-80948986D01*
X125460000Y-80837333D01*
X125460000Y-80837324D01*
X125463676Y-80800001D01*
X125460000Y-80762678D01*
X125460000Y-76177325D01*
X125463676Y-76140000D01*
X125460000Y-76102675D01*
X125460000Y-76102667D01*
X125449003Y-75991014D01*
X125405546Y-75847753D01*
X125334974Y-75715724D01*
X125240001Y-75599999D01*
X125211003Y-75576201D01*
X124166209Y-74531408D01*
X124210000Y-74311260D01*
X124210000Y-74018740D01*
X124152932Y-73731842D01*
X124040990Y-73461589D01*
X123878475Y-73218368D01*
X123671632Y-73011525D01*
X123497240Y-72895000D01*
X123671632Y-72778475D01*
X123878475Y-72571632D01*
X124040990Y-72328411D01*
X124152932Y-72058158D01*
X124210000Y-71771260D01*
X124210000Y-71478740D01*
X124152932Y-71191842D01*
X124040990Y-70921589D01*
X123878475Y-70678368D01*
X123671632Y-70471525D01*
X123489466Y-70349805D01*
X123606355Y-70280178D01*
X123822588Y-70085269D01*
X123996641Y-69851920D01*
X124121825Y-69589099D01*
X124166476Y-69441890D01*
X124045155Y-69212000D01*
X122852000Y-69212000D01*
X122852000Y-69232000D01*
X122598000Y-69232000D01*
X122598000Y-69212000D01*
X122578000Y-69212000D01*
X122578000Y-68958000D01*
X122598000Y-68958000D01*
X122598000Y-68938000D01*
X122852000Y-68938000D01*
X122852000Y-68958000D01*
X124045155Y-68958000D01*
X124166476Y-68728110D01*
X124121825Y-68580901D01*
X123996641Y-68318080D01*
X123822588Y-68084731D01*
X123606355Y-67889822D01*
X123489466Y-67820195D01*
X123671632Y-67698475D01*
X123878475Y-67491632D01*
X124040990Y-67248411D01*
X124152932Y-66978158D01*
X124210000Y-66691260D01*
X124210000Y-66398740D01*
X124152932Y-66111842D01*
X124040990Y-65841589D01*
X123878475Y-65598368D01*
X123671632Y-65391525D01*
X123497240Y-65275000D01*
X123671632Y-65158475D01*
X123878475Y-64951632D01*
X124040990Y-64708411D01*
X124152932Y-64438158D01*
X124210000Y-64151260D01*
X124210000Y-63858740D01*
X124152932Y-63571842D01*
X124040990Y-63301589D01*
X123878475Y-63058368D01*
X123671632Y-62851525D01*
X123428411Y-62689010D01*
X123158158Y-62577068D01*
X122871260Y-62520000D01*
X122578740Y-62520000D01*
X122291842Y-62577068D01*
X122021589Y-62689010D01*
X121778368Y-62851525D01*
X121646513Y-62983380D01*
X121624502Y-62910820D01*
X121565537Y-62800506D01*
X121486185Y-62703815D01*
X121389494Y-62624463D01*
X121279180Y-62565498D01*
X121159482Y-62529188D01*
X121035000Y-62516928D01*
X119335000Y-62516928D01*
X119210518Y-62529188D01*
X119090820Y-62565498D01*
X118980506Y-62624463D01*
X118883815Y-62703815D01*
X118804463Y-62800506D01*
X118745498Y-62910820D01*
X118709188Y-63030518D01*
X118696928Y-63155000D01*
X118696928Y-64855000D01*
X118709188Y-64979482D01*
X118745498Y-65099180D01*
X118804463Y-65209494D01*
X118883815Y-65306185D01*
X118980506Y-65385537D01*
X119090820Y-65444502D01*
X119163380Y-65466513D01*
X119031525Y-65598368D01*
X118869010Y-65841589D01*
X118757068Y-66111842D01*
X118700000Y-66398740D01*
X118700000Y-66691260D01*
X118757068Y-66978158D01*
X118869010Y-67248411D01*
X119031525Y-67491632D01*
X119238368Y-67698475D01*
X119412760Y-67815000D01*
X119238368Y-67931525D01*
X119031525Y-68138368D01*
X118869010Y-68381589D01*
X118757068Y-68651842D01*
X118700000Y-68938740D01*
X118700000Y-69231260D01*
X118743790Y-69451408D01*
X117788998Y-70406201D01*
X117760000Y-70429999D01*
X117736202Y-70458997D01*
X117736201Y-70458998D01*
X117665026Y-70545724D01*
X117594454Y-70677754D01*
X117594268Y-70678368D01*
X117550998Y-70821014D01*
X117541302Y-70919454D01*
X117536324Y-70970000D01*
X117540001Y-71007332D01*
X117540000Y-77662677D01*
X117536324Y-77700000D01*
X117540000Y-77737322D01*
X117540000Y-77737332D01*
X117550997Y-77848985D01*
X117592657Y-77986323D01*
X117594454Y-77992246D01*
X117665026Y-78124276D01*
X117704871Y-78172826D01*
X117759999Y-78240001D01*
X117789003Y-78263804D01*
X120590199Y-81065001D01*
X119239803Y-81065001D01*
X117516209Y-79341408D01*
X117617205Y-79190256D01*
X117695226Y-79001898D01*
X117735000Y-78801939D01*
X117735000Y-78598061D01*
X117695226Y-78398102D01*
X117617205Y-78209744D01*
X117503937Y-78040226D01*
X117359774Y-77896063D01*
X117190256Y-77782795D01*
X117001898Y-77704774D01*
X116801939Y-77665000D01*
X116598061Y-77665000D01*
X116398102Y-77704774D01*
X116209744Y-77782795D01*
X116040226Y-77896063D01*
X115896063Y-78040226D01*
X115782795Y-78209744D01*
X115704774Y-78398102D01*
X115665000Y-78598061D01*
X44860000Y-78598061D01*
X44860000Y-65373740D01*
X84920000Y-65373740D01*
X84920000Y-65666260D01*
X84977068Y-65953158D01*
X85089010Y-66223411D01*
X85251525Y-66466632D01*
X85458368Y-66673475D01*
X85701589Y-66835990D01*
X85971842Y-66947932D01*
X86258740Y-67005000D01*
X86551260Y-67005000D01*
X86838158Y-66947932D01*
X87108411Y-66835990D01*
X87351632Y-66673475D01*
X87558475Y-66466632D01*
X87720990Y-66223411D01*
X87832932Y-65953158D01*
X87890000Y-65666260D01*
X87890000Y-65373740D01*
X96470000Y-65373740D01*
X96470000Y-65666260D01*
X96527068Y-65953158D01*
X96639010Y-66223411D01*
X96801525Y-66466632D01*
X97008368Y-66673475D01*
X97251589Y-66835990D01*
X97521842Y-66947932D01*
X97808740Y-67005000D01*
X98101260Y-67005000D01*
X98388158Y-66947932D01*
X98658411Y-66835990D01*
X98901632Y-66673475D01*
X99108475Y-66466632D01*
X99270990Y-66223411D01*
X99382932Y-65953158D01*
X99440000Y-65666260D01*
X99440000Y-65373740D01*
X99436022Y-65353740D01*
X108040000Y-65353740D01*
X108040000Y-65646260D01*
X108097068Y-65933158D01*
X108209010Y-66203411D01*
X108371525Y-66446632D01*
X108578368Y-66653475D01*
X108821589Y-66815990D01*
X109091842Y-66927932D01*
X109378740Y-66985000D01*
X109671260Y-66985000D01*
X109958158Y-66927932D01*
X110228411Y-66815990D01*
X110471632Y-66653475D01*
X110678475Y-66446632D01*
X110840990Y-66203411D01*
X110952932Y-65933158D01*
X111010000Y-65646260D01*
X111010000Y-65353740D01*
X110952932Y-65066842D01*
X110840990Y-64796589D01*
X110678475Y-64553368D01*
X110471632Y-64346525D01*
X110228411Y-64184010D01*
X109958158Y-64072068D01*
X109671260Y-64015000D01*
X109378740Y-64015000D01*
X109091842Y-64072068D01*
X108821589Y-64184010D01*
X108578368Y-64346525D01*
X108371525Y-64553368D01*
X108209010Y-64796589D01*
X108097068Y-65066842D01*
X108040000Y-65353740D01*
X99436022Y-65353740D01*
X99382932Y-65086842D01*
X99270990Y-64816589D01*
X99108475Y-64573368D01*
X98901632Y-64366525D01*
X98658411Y-64204010D01*
X98388158Y-64092068D01*
X98101260Y-64035000D01*
X97808740Y-64035000D01*
X97521842Y-64092068D01*
X97251589Y-64204010D01*
X97008368Y-64366525D01*
X96801525Y-64573368D01*
X96639010Y-64816589D01*
X96527068Y-65086842D01*
X96470000Y-65373740D01*
X87890000Y-65373740D01*
X87832932Y-65086842D01*
X87720990Y-64816589D01*
X87558475Y-64573368D01*
X87351632Y-64366525D01*
X87108411Y-64204010D01*
X86838158Y-64092068D01*
X86551260Y-64035000D01*
X86258740Y-64035000D01*
X85971842Y-64092068D01*
X85701589Y-64204010D01*
X85458368Y-64366525D01*
X85251525Y-64573368D01*
X85089010Y-64816589D01*
X84977068Y-65086842D01*
X84920000Y-65373740D01*
X44860000Y-65373740D01*
X44860000Y-58373740D01*
X84920000Y-58373740D01*
X84920000Y-58666260D01*
X84977068Y-58953158D01*
X85089010Y-59223411D01*
X85251525Y-59466632D01*
X85458368Y-59673475D01*
X85701589Y-59835990D01*
X85971842Y-59947932D01*
X86258740Y-60005000D01*
X86551260Y-60005000D01*
X86838158Y-59947932D01*
X87108411Y-59835990D01*
X87351632Y-59673475D01*
X87558475Y-59466632D01*
X87720990Y-59223411D01*
X87832932Y-58953158D01*
X87890000Y-58666260D01*
X87890000Y-58373740D01*
X96470000Y-58373740D01*
X96470000Y-58666260D01*
X96527068Y-58953158D01*
X96639010Y-59223411D01*
X96801525Y-59466632D01*
X97008368Y-59673475D01*
X97251589Y-59835990D01*
X97521842Y-59947932D01*
X97808740Y-60005000D01*
X98101260Y-60005000D01*
X98388158Y-59947932D01*
X98658411Y-59835990D01*
X98901632Y-59673475D01*
X99108475Y-59466632D01*
X99270990Y-59223411D01*
X99382932Y-58953158D01*
X99440000Y-58666260D01*
X99440000Y-58373740D01*
X99436022Y-58353740D01*
X108040000Y-58353740D01*
X108040000Y-58646260D01*
X108097068Y-58933158D01*
X108209010Y-59203411D01*
X108371525Y-59446632D01*
X108578368Y-59653475D01*
X108821589Y-59815990D01*
X109091842Y-59927932D01*
X109378740Y-59985000D01*
X109671260Y-59985000D01*
X109958158Y-59927932D01*
X110228411Y-59815990D01*
X110471632Y-59653475D01*
X110678475Y-59446632D01*
X110840990Y-59203411D01*
X110952932Y-58933158D01*
X111010000Y-58646260D01*
X111010000Y-58353740D01*
X110952932Y-58066842D01*
X110840990Y-57796589D01*
X110678475Y-57553368D01*
X110471632Y-57346525D01*
X110228411Y-57184010D01*
X109958158Y-57072068D01*
X109671260Y-57015000D01*
X109378740Y-57015000D01*
X109091842Y-57072068D01*
X108821589Y-57184010D01*
X108578368Y-57346525D01*
X108371525Y-57553368D01*
X108209010Y-57796589D01*
X108097068Y-58066842D01*
X108040000Y-58353740D01*
X99436022Y-58353740D01*
X99382932Y-58086842D01*
X99270990Y-57816589D01*
X99108475Y-57573368D01*
X98901632Y-57366525D01*
X98658411Y-57204010D01*
X98388158Y-57092068D01*
X98101260Y-57035000D01*
X97808740Y-57035000D01*
X97521842Y-57092068D01*
X97251589Y-57204010D01*
X97008368Y-57366525D01*
X96801525Y-57573368D01*
X96639010Y-57816589D01*
X96527068Y-58086842D01*
X96470000Y-58373740D01*
X87890000Y-58373740D01*
X87832932Y-58086842D01*
X87720990Y-57816589D01*
X87558475Y-57573368D01*
X87351632Y-57366525D01*
X87108411Y-57204010D01*
X86838158Y-57092068D01*
X86551260Y-57035000D01*
X86258740Y-57035000D01*
X85971842Y-57092068D01*
X85701589Y-57204010D01*
X85458368Y-57366525D01*
X85251525Y-57573368D01*
X85089010Y-57816589D01*
X84977068Y-58086842D01*
X84920000Y-58373740D01*
X44860000Y-58373740D01*
X44860000Y-56060000D01*
X132073000Y-56060000D01*
X132073000Y-85500684D01*
G37*
G04 #@! TD.AperFunction*
D26*
X122852000Y-76578000D02*
X122872000Y-76578000D01*
X122872000Y-76832000D01*
X122852000Y-76832000D01*
X122852000Y-78025814D01*
X123081891Y-78146481D01*
X123356252Y-78049157D01*
X123606355Y-77900178D01*
X123822588Y-77705269D01*
X123940001Y-77547856D01*
X123940000Y-79676289D01*
X123859774Y-79596063D01*
X123690256Y-79482795D01*
X123501898Y-79404774D01*
X123301939Y-79365000D01*
X123239802Y-79365000D01*
X122309999Y-78435198D01*
X122309999Y-78125868D01*
X122368109Y-78146481D01*
X122598000Y-78025814D01*
X122598000Y-76832000D01*
X122578000Y-76832000D01*
X122578000Y-76578000D01*
X122598000Y-76578000D01*
X122598000Y-76558000D01*
X122852000Y-76558000D01*
X122852000Y-76578000D01*
G04 #@! TA.AperFunction,Conductor*
D27*
G36*
X122852000Y-76578000D02*
G01*
X122872000Y-76578000D01*
X122872000Y-76832000D01*
X122852000Y-76832000D01*
X122852000Y-78025814D01*
X123081891Y-78146481D01*
X123356252Y-78049157D01*
X123606355Y-77900178D01*
X123822588Y-77705269D01*
X123940001Y-77547856D01*
X123940000Y-79676289D01*
X123859774Y-79596063D01*
X123690256Y-79482795D01*
X123501898Y-79404774D01*
X123301939Y-79365000D01*
X123239802Y-79365000D01*
X122309999Y-78435198D01*
X122309999Y-78125868D01*
X122368109Y-78146481D01*
X122598000Y-78025814D01*
X122598000Y-76832000D01*
X122578000Y-76832000D01*
X122578000Y-76578000D01*
X122598000Y-76578000D01*
X122598000Y-76558000D01*
X122852000Y-76558000D01*
X122852000Y-76578000D01*
G37*
G04 #@! TD.AperFunction*
M02*
