G04 #@! TF.GenerationSoftware,KiCad,Pcbnew,(5.1.10)-1*
G04 #@! TF.CreationDate,2021-08-26T19:54:54+02:00*
G04 #@! TF.ProjectId,CT_Sensor_Mains,43545f53-656e-4736-9f72-5f4d61696e73,rev?*
G04 #@! TF.SameCoordinates,Original*
G04 #@! TF.FileFunction,Legend,Bot*
G04 #@! TF.FilePolarity,Positive*
%FSLAX46Y46*%
G04 Gerber Fmt 4.6, Leading zero omitted, Abs format (unit mm)*
G04 Created by KiCad (PCBNEW (5.1.10)-1) date 2021-08-26 19:54:54*
%MOMM*%
%LPD*%
G01*
G04 APERTURE LIST*
%ADD10O,1.600000X2.000000*%
%ADD11R,2.000000X2.000000*%
%ADD12C,2.600000*%
%ADD13R,2.600000X2.600000*%
%ADD14O,1.600000X1.600000*%
%ADD15R,1.600000X1.600000*%
%ADD16C,1.600000*%
%ADD17O,1.700000X1.700000*%
%ADD18R,1.700000X1.700000*%
%ADD19C,2.300000*%
%ADD20R,2.300000X2.000000*%
%ADD21C,1.700000*%
%ADD22C,2.000000*%
G04 APERTURE END LIST*
%LPC*%
D10*
X130650000Y-109835000D03*
X128110000Y-109835000D03*
X125570000Y-109835000D03*
X123030000Y-109835000D03*
X120490000Y-109835000D03*
X117950000Y-109835000D03*
X115410000Y-109835000D03*
X112870000Y-109835000D03*
X112870000Y-86975000D03*
X115410000Y-86975000D03*
X117950000Y-86975000D03*
X120490000Y-86975000D03*
X123030000Y-86975000D03*
X125570000Y-86975000D03*
D11*
X130650000Y-86975000D03*
D10*
X128110000Y-86975000D03*
D12*
X49925000Y-98600000D03*
X49925000Y-103600000D03*
X49925000Y-108600000D03*
D13*
X49925000Y-113600000D03*
D14*
X129650000Y-123670000D03*
X116950000Y-116050000D03*
X127110000Y-123670000D03*
X119490000Y-116050000D03*
X124570000Y-123670000D03*
X122030000Y-116050000D03*
X122030000Y-123670000D03*
X124570000Y-116050000D03*
X119490000Y-123670000D03*
X127110000Y-116050000D03*
X116950000Y-123670000D03*
D15*
X129650000Y-116050000D03*
D16*
X72925000Y-107000000D03*
X71125000Y-112000000D03*
D17*
X122725000Y-76705000D03*
X120185000Y-76705000D03*
X122725000Y-74165000D03*
X120185000Y-74165000D03*
X122725000Y-71625000D03*
X120185000Y-71625000D03*
X122725000Y-69085000D03*
X120185000Y-69085000D03*
X122725000Y-66545000D03*
X120185000Y-66545000D03*
X122725000Y-64005000D03*
D18*
X120185000Y-64005000D03*
D17*
X66125000Y-98780000D03*
X66125000Y-101320000D03*
X66125000Y-103860000D03*
D18*
X66125000Y-106400000D03*
D16*
X72925000Y-83600000D03*
X71125000Y-88600000D03*
X72925000Y-91400000D03*
X71125000Y-96400000D03*
X72925000Y-99200000D03*
X71125000Y-104200000D03*
D19*
X104200000Y-126200000D03*
X76200000Y-133800000D03*
D20*
X76200000Y-118600000D03*
D19*
X104200000Y-118600000D03*
D12*
X61200000Y-124400000D03*
X56200000Y-124400000D03*
D21*
X109525000Y-65500000D03*
X109525000Y-58500000D03*
X97955000Y-65520000D03*
X97955000Y-58520000D03*
X86405000Y-65520000D03*
X86405000Y-58520000D03*
D22*
X114100000Y-129300000D03*
D11*
X114100000Y-134300000D03*
D22*
X69200000Y-118400000D03*
X69200000Y-128400000D03*
M02*
