G04 #@! TF.GenerationSoftware,KiCad,Pcbnew,(5.1.10)-1*
G04 #@! TF.CreationDate,2021-08-26T19:54:54+02:00*
G04 #@! TF.ProjectId,CT_Sensor_Mains,43545f53-656e-4736-9f72-5f4d61696e73,rev?*
G04 #@! TF.SameCoordinates,Original*
G04 #@! TF.FileFunction,Legend,Top*
G04 #@! TF.FilePolarity,Positive*
%FSLAX46Y46*%
G04 Gerber Fmt 4.6, Leading zero omitted, Abs format (unit mm)*
G04 Created by KiCad (PCBNEW (5.1.10)-1) date 2021-08-26 19:54:54*
%MOMM*%
%LPD*%
G01*
G04 APERTURE LIST*
%ADD10C,0.150000*%
%ADD11C,0.300000*%
%ADD12C,0.120000*%
%ADD13O,1.600000X2.000000*%
%ADD14R,2.000000X2.000000*%
%ADD15C,2.600000*%
%ADD16R,2.600000X2.600000*%
%ADD17O,1.600000X1.600000*%
%ADD18R,1.600000X1.600000*%
%ADD19C,1.600000*%
%ADD20O,1.700000X1.700000*%
%ADD21R,1.700000X1.700000*%
%ADD22R,0.900000X0.800000*%
%ADD23R,0.250000X1.300000*%
%ADD24R,1.300000X0.250000*%
%ADD25C,2.300000*%
%ADD26R,2.300000X2.000000*%
%ADD27C,1.700000*%
%ADD28R,2.800000X2.800000*%
%ADD29R,2.800000X2.200000*%
%ADD30C,2.000000*%
G04 APERTURE END LIST*
D10*
X134282142Y-126938095D02*
X134329761Y-126890476D01*
X134377380Y-126938095D01*
X134329761Y-126985714D01*
X134282142Y-126938095D01*
X134377380Y-126938095D01*
X133996428Y-126938095D02*
X133425000Y-126985714D01*
X133377380Y-126938095D01*
X133425000Y-126890476D01*
X133996428Y-126938095D01*
X133377380Y-126938095D01*
X134282142Y-126461904D02*
X134329761Y-126414285D01*
X134377380Y-126461904D01*
X134329761Y-126509523D01*
X134282142Y-126461904D01*
X134377380Y-126461904D01*
X133996428Y-126461904D02*
X133425000Y-126509523D01*
X133377380Y-126461904D01*
X133425000Y-126414285D01*
X133996428Y-126461904D01*
X133377380Y-126461904D01*
X134282142Y-125985714D02*
X134329761Y-125938095D01*
X134377380Y-125985714D01*
X134329761Y-126033333D01*
X134282142Y-125985714D01*
X134377380Y-125985714D01*
X133996428Y-125985714D02*
X133425000Y-126033333D01*
X133377380Y-125985714D01*
X133425000Y-125938095D01*
X133996428Y-125985714D01*
X133377380Y-125985714D01*
X133377380Y-124842857D02*
X134377380Y-124604761D01*
X133663095Y-124414285D01*
X134377380Y-124223809D01*
X133377380Y-123985714D01*
X134091666Y-123652380D02*
X134091666Y-123176190D01*
X134377380Y-123747619D02*
X133377380Y-123414285D01*
X134377380Y-123080952D01*
X134377380Y-122176190D02*
X133901190Y-122509523D01*
X134377380Y-122747619D02*
X133377380Y-122747619D01*
X133377380Y-122366666D01*
X133425000Y-122271428D01*
X133472619Y-122223809D01*
X133567857Y-122176190D01*
X133710714Y-122176190D01*
X133805952Y-122223809D01*
X133853571Y-122271428D01*
X133901190Y-122366666D01*
X133901190Y-122747619D01*
X134377380Y-121747619D02*
X133377380Y-121747619D01*
X134377380Y-121176190D01*
X133377380Y-121176190D01*
X134377380Y-120700000D02*
X133377380Y-120700000D01*
X134377380Y-120223809D02*
X133377380Y-120223809D01*
X134377380Y-119652380D01*
X133377380Y-119652380D01*
X133425000Y-118652380D02*
X133377380Y-118747619D01*
X133377380Y-118890476D01*
X133425000Y-119033333D01*
X133520238Y-119128571D01*
X133615476Y-119176190D01*
X133805952Y-119223809D01*
X133948809Y-119223809D01*
X134139285Y-119176190D01*
X134234523Y-119128571D01*
X134329761Y-119033333D01*
X134377380Y-118890476D01*
X134377380Y-118795238D01*
X134329761Y-118652380D01*
X134282142Y-118604761D01*
X133948809Y-118604761D01*
X133948809Y-118795238D01*
X134282142Y-117414285D02*
X134329761Y-117366666D01*
X134377380Y-117414285D01*
X134329761Y-117461904D01*
X134282142Y-117414285D01*
X134377380Y-117414285D01*
X133996428Y-117414285D02*
X133425000Y-117461904D01*
X133377380Y-117414285D01*
X133425000Y-117366666D01*
X133996428Y-117414285D01*
X133377380Y-117414285D01*
X134282142Y-116938095D02*
X134329761Y-116890476D01*
X134377380Y-116938095D01*
X134329761Y-116985714D01*
X134282142Y-116938095D01*
X134377380Y-116938095D01*
X133996428Y-116938095D02*
X133425000Y-116985714D01*
X133377380Y-116938095D01*
X133425000Y-116890476D01*
X133996428Y-116938095D01*
X133377380Y-116938095D01*
X134282142Y-116461904D02*
X134329761Y-116414285D01*
X134377380Y-116461904D01*
X134329761Y-116509523D01*
X134282142Y-116461904D01*
X134377380Y-116461904D01*
X133996428Y-116461904D02*
X133425000Y-116509523D01*
X133377380Y-116461904D01*
X133425000Y-116414285D01*
X133996428Y-116461904D01*
X133377380Y-116461904D01*
X136027380Y-129961904D02*
X135027380Y-129961904D01*
X135027380Y-129723809D01*
X135075000Y-129580952D01*
X135170238Y-129485714D01*
X135265476Y-129438095D01*
X135455952Y-129390476D01*
X135598809Y-129390476D01*
X135789285Y-129438095D01*
X135884523Y-129485714D01*
X135979761Y-129580952D01*
X136027380Y-129723809D01*
X136027380Y-129961904D01*
X135027380Y-128771428D02*
X135027380Y-128580952D01*
X135075000Y-128485714D01*
X135170238Y-128390476D01*
X135360714Y-128342857D01*
X135694047Y-128342857D01*
X135884523Y-128390476D01*
X135979761Y-128485714D01*
X136027380Y-128580952D01*
X136027380Y-128771428D01*
X135979761Y-128866666D01*
X135884523Y-128961904D01*
X135694047Y-129009523D01*
X135360714Y-129009523D01*
X135170238Y-128961904D01*
X135075000Y-128866666D01*
X135027380Y-128771428D01*
X136027380Y-127152380D02*
X135027380Y-127152380D01*
X136027380Y-126580952D01*
X135027380Y-126580952D01*
X135027380Y-125914285D02*
X135027380Y-125723809D01*
X135075000Y-125628571D01*
X135170238Y-125533333D01*
X135360714Y-125485714D01*
X135694047Y-125485714D01*
X135884523Y-125533333D01*
X135979761Y-125628571D01*
X136027380Y-125723809D01*
X136027380Y-125914285D01*
X135979761Y-126009523D01*
X135884523Y-126104761D01*
X135694047Y-126152380D01*
X135360714Y-126152380D01*
X135170238Y-126104761D01*
X135075000Y-126009523D01*
X135027380Y-125914285D01*
X135027380Y-125200000D02*
X135027380Y-124628571D01*
X136027380Y-124914285D02*
X135027380Y-124914285D01*
X135932142Y-122961904D02*
X135979761Y-123009523D01*
X136027380Y-123152380D01*
X136027380Y-123247619D01*
X135979761Y-123390476D01*
X135884523Y-123485714D01*
X135789285Y-123533333D01*
X135598809Y-123580952D01*
X135455952Y-123580952D01*
X135265476Y-123533333D01*
X135170238Y-123485714D01*
X135075000Y-123390476D01*
X135027380Y-123247619D01*
X135027380Y-123152380D01*
X135075000Y-123009523D01*
X135122619Y-122961904D01*
X135027380Y-122342857D02*
X135027380Y-122152380D01*
X135075000Y-122057142D01*
X135170238Y-121961904D01*
X135360714Y-121914285D01*
X135694047Y-121914285D01*
X135884523Y-121961904D01*
X135979761Y-122057142D01*
X136027380Y-122152380D01*
X136027380Y-122342857D01*
X135979761Y-122438095D01*
X135884523Y-122533333D01*
X135694047Y-122580952D01*
X135360714Y-122580952D01*
X135170238Y-122533333D01*
X135075000Y-122438095D01*
X135027380Y-122342857D01*
X136027380Y-121485714D02*
X135027380Y-121485714D01*
X136027380Y-120914285D01*
X135027380Y-120914285D01*
X136027380Y-120438095D02*
X135027380Y-120438095D01*
X136027380Y-119866666D01*
X135027380Y-119866666D01*
X135503571Y-119390476D02*
X135503571Y-119057142D01*
X136027380Y-118914285D02*
X136027380Y-119390476D01*
X135027380Y-119390476D01*
X135027380Y-118914285D01*
X135932142Y-117914285D02*
X135979761Y-117961904D01*
X136027380Y-118104761D01*
X136027380Y-118200000D01*
X135979761Y-118342857D01*
X135884523Y-118438095D01*
X135789285Y-118485714D01*
X135598809Y-118533333D01*
X135455952Y-118533333D01*
X135265476Y-118485714D01*
X135170238Y-118438095D01*
X135075000Y-118342857D01*
X135027380Y-118200000D01*
X135027380Y-118104761D01*
X135075000Y-117961904D01*
X135122619Y-117914285D01*
X135027380Y-117628571D02*
X135027380Y-117057142D01*
X136027380Y-117342857D02*
X135027380Y-117342857D01*
X135027380Y-115961904D02*
X135836904Y-115961904D01*
X135932142Y-115914285D01*
X135979761Y-115866666D01*
X136027380Y-115771428D01*
X136027380Y-115580952D01*
X135979761Y-115485714D01*
X135932142Y-115438095D01*
X135836904Y-115390476D01*
X135027380Y-115390476D01*
X135979761Y-114961904D02*
X136027380Y-114819047D01*
X136027380Y-114580952D01*
X135979761Y-114485714D01*
X135932142Y-114438095D01*
X135836904Y-114390476D01*
X135741666Y-114390476D01*
X135646428Y-114438095D01*
X135598809Y-114485714D01*
X135551190Y-114580952D01*
X135503571Y-114771428D01*
X135455952Y-114866666D01*
X135408333Y-114914285D01*
X135313095Y-114961904D01*
X135217857Y-114961904D01*
X135122619Y-114914285D01*
X135075000Y-114866666D01*
X135027380Y-114771428D01*
X135027380Y-114533333D01*
X135075000Y-114390476D01*
X135503571Y-113628571D02*
X135551190Y-113485714D01*
X135598809Y-113438095D01*
X135694047Y-113390476D01*
X135836904Y-113390476D01*
X135932142Y-113438095D01*
X135979761Y-113485714D01*
X136027380Y-113580952D01*
X136027380Y-113961904D01*
X135027380Y-113961904D01*
X135027380Y-113628571D01*
X135075000Y-113533333D01*
X135122619Y-113485714D01*
X135217857Y-113438095D01*
X135313095Y-113438095D01*
X135408333Y-113485714D01*
X135455952Y-113533333D01*
X135503571Y-113628571D01*
X135503571Y-113961904D01*
X137677380Y-130223809D02*
X136677380Y-130223809D01*
X137153571Y-129414285D02*
X137153571Y-129747619D01*
X137677380Y-129747619D02*
X136677380Y-129747619D01*
X136677380Y-129271428D01*
X137677380Y-128128571D02*
X136677380Y-128128571D01*
X137153571Y-128128571D02*
X137153571Y-127557142D01*
X137677380Y-127557142D02*
X136677380Y-127557142D01*
X136677380Y-127223809D02*
X137677380Y-126890476D01*
X136677380Y-126557142D01*
X137391666Y-126271428D02*
X137391666Y-125795238D01*
X137677380Y-126366666D02*
X136677380Y-126033333D01*
X137677380Y-125700000D01*
X137582142Y-124795238D02*
X137629761Y-124842857D01*
X137677380Y-124985714D01*
X137677380Y-125080952D01*
X137629761Y-125223809D01*
X137534523Y-125319047D01*
X137439285Y-125366666D01*
X137248809Y-125414285D01*
X137105952Y-125414285D01*
X136915476Y-125366666D01*
X136820238Y-125319047D01*
X136725000Y-125223809D01*
X136677380Y-125080952D01*
X136677380Y-124985714D01*
X136725000Y-124842857D01*
X136772619Y-124795238D01*
X137677380Y-123604761D02*
X136677380Y-123604761D01*
X137629761Y-123176190D02*
X137677380Y-123033333D01*
X137677380Y-122795238D01*
X137629761Y-122700000D01*
X137582142Y-122652380D01*
X137486904Y-122604761D01*
X137391666Y-122604761D01*
X137296428Y-122652380D01*
X137248809Y-122700000D01*
X137201190Y-122795238D01*
X137153571Y-122985714D01*
X137105952Y-123080952D01*
X137058333Y-123128571D01*
X136963095Y-123176190D01*
X136867857Y-123176190D01*
X136772619Y-123128571D01*
X136725000Y-123080952D01*
X136677380Y-122985714D01*
X136677380Y-122747619D01*
X136725000Y-122604761D01*
X137582142Y-120842857D02*
X137629761Y-120890476D01*
X137677380Y-121033333D01*
X137677380Y-121128571D01*
X137629761Y-121271428D01*
X137534523Y-121366666D01*
X137439285Y-121414285D01*
X137248809Y-121461904D01*
X137105952Y-121461904D01*
X136915476Y-121414285D01*
X136820238Y-121366666D01*
X136725000Y-121271428D01*
X136677380Y-121128571D01*
X136677380Y-121033333D01*
X136725000Y-120890476D01*
X136772619Y-120842857D01*
X136677380Y-120223809D02*
X136677380Y-120033333D01*
X136725000Y-119938095D01*
X136820238Y-119842857D01*
X137010714Y-119795238D01*
X137344047Y-119795238D01*
X137534523Y-119842857D01*
X137629761Y-119938095D01*
X137677380Y-120033333D01*
X137677380Y-120223809D01*
X137629761Y-120319047D01*
X137534523Y-120414285D01*
X137344047Y-120461904D01*
X137010714Y-120461904D01*
X136820238Y-120414285D01*
X136725000Y-120319047D01*
X136677380Y-120223809D01*
X137677380Y-119366666D02*
X136677380Y-119366666D01*
X137677380Y-118795238D01*
X136677380Y-118795238D01*
X137677380Y-118319047D02*
X136677380Y-118319047D01*
X137677380Y-117747619D01*
X136677380Y-117747619D01*
X137153571Y-117271428D02*
X137153571Y-116938095D01*
X137677380Y-116795238D02*
X137677380Y-117271428D01*
X136677380Y-117271428D01*
X136677380Y-116795238D01*
X137582142Y-115795238D02*
X137629761Y-115842857D01*
X137677380Y-115985714D01*
X137677380Y-116080952D01*
X137629761Y-116223809D01*
X137534523Y-116319047D01*
X137439285Y-116366666D01*
X137248809Y-116414285D01*
X137105952Y-116414285D01*
X136915476Y-116366666D01*
X136820238Y-116319047D01*
X136725000Y-116223809D01*
X136677380Y-116080952D01*
X136677380Y-115985714D01*
X136725000Y-115842857D01*
X136772619Y-115795238D01*
X136677380Y-115509523D02*
X136677380Y-114938095D01*
X137677380Y-115223809D02*
X136677380Y-115223809D01*
X137153571Y-114604761D02*
X137153571Y-114271428D01*
X137677380Y-114128571D02*
X137677380Y-114604761D01*
X136677380Y-114604761D01*
X136677380Y-114128571D01*
X137677380Y-113700000D02*
X136677380Y-113700000D01*
X136677380Y-113461904D01*
X136725000Y-113319047D01*
X136820238Y-113223809D01*
X136915476Y-113176190D01*
X137105952Y-113128571D01*
X137248809Y-113128571D01*
X137439285Y-113176190D01*
X137534523Y-113223809D01*
X137629761Y-113319047D01*
X137677380Y-113461904D01*
X137677380Y-113700000D01*
X134082142Y-78638095D02*
X134129761Y-78590476D01*
X134177380Y-78638095D01*
X134129761Y-78685714D01*
X134082142Y-78638095D01*
X134177380Y-78638095D01*
X133796428Y-78638095D02*
X133225000Y-78685714D01*
X133177380Y-78638095D01*
X133225000Y-78590476D01*
X133796428Y-78638095D01*
X133177380Y-78638095D01*
X134082142Y-78161904D02*
X134129761Y-78114285D01*
X134177380Y-78161904D01*
X134129761Y-78209523D01*
X134082142Y-78161904D01*
X134177380Y-78161904D01*
X133796428Y-78161904D02*
X133225000Y-78209523D01*
X133177380Y-78161904D01*
X133225000Y-78114285D01*
X133796428Y-78161904D01*
X133177380Y-78161904D01*
X134082142Y-77685714D02*
X134129761Y-77638095D01*
X134177380Y-77685714D01*
X134129761Y-77733333D01*
X134082142Y-77685714D01*
X134177380Y-77685714D01*
X133796428Y-77685714D02*
X133225000Y-77733333D01*
X133177380Y-77685714D01*
X133225000Y-77638095D01*
X133796428Y-77685714D01*
X133177380Y-77685714D01*
X133177380Y-76542857D02*
X134177380Y-76304761D01*
X133463095Y-76114285D01*
X134177380Y-75923809D01*
X133177380Y-75685714D01*
X133891666Y-75352380D02*
X133891666Y-74876190D01*
X134177380Y-75447619D02*
X133177380Y-75114285D01*
X134177380Y-74780952D01*
X134177380Y-73876190D02*
X133701190Y-74209523D01*
X134177380Y-74447619D02*
X133177380Y-74447619D01*
X133177380Y-74066666D01*
X133225000Y-73971428D01*
X133272619Y-73923809D01*
X133367857Y-73876190D01*
X133510714Y-73876190D01*
X133605952Y-73923809D01*
X133653571Y-73971428D01*
X133701190Y-74066666D01*
X133701190Y-74447619D01*
X134177380Y-73447619D02*
X133177380Y-73447619D01*
X134177380Y-72876190D01*
X133177380Y-72876190D01*
X134177380Y-72400000D02*
X133177380Y-72400000D01*
X134177380Y-71923809D02*
X133177380Y-71923809D01*
X134177380Y-71352380D01*
X133177380Y-71352380D01*
X133225000Y-70352380D02*
X133177380Y-70447619D01*
X133177380Y-70590476D01*
X133225000Y-70733333D01*
X133320238Y-70828571D01*
X133415476Y-70876190D01*
X133605952Y-70923809D01*
X133748809Y-70923809D01*
X133939285Y-70876190D01*
X134034523Y-70828571D01*
X134129761Y-70733333D01*
X134177380Y-70590476D01*
X134177380Y-70495238D01*
X134129761Y-70352380D01*
X134082142Y-70304761D01*
X133748809Y-70304761D01*
X133748809Y-70495238D01*
X134082142Y-69114285D02*
X134129761Y-69066666D01*
X134177380Y-69114285D01*
X134129761Y-69161904D01*
X134082142Y-69114285D01*
X134177380Y-69114285D01*
X133796428Y-69114285D02*
X133225000Y-69161904D01*
X133177380Y-69114285D01*
X133225000Y-69066666D01*
X133796428Y-69114285D01*
X133177380Y-69114285D01*
X134082142Y-68638095D02*
X134129761Y-68590476D01*
X134177380Y-68638095D01*
X134129761Y-68685714D01*
X134082142Y-68638095D01*
X134177380Y-68638095D01*
X133796428Y-68638095D02*
X133225000Y-68685714D01*
X133177380Y-68638095D01*
X133225000Y-68590476D01*
X133796428Y-68638095D01*
X133177380Y-68638095D01*
X134082142Y-68161904D02*
X134129761Y-68114285D01*
X134177380Y-68161904D01*
X134129761Y-68209523D01*
X134082142Y-68161904D01*
X134177380Y-68161904D01*
X133796428Y-68161904D02*
X133225000Y-68209523D01*
X133177380Y-68161904D01*
X133225000Y-68114285D01*
X133796428Y-68161904D01*
X133177380Y-68161904D01*
X135827380Y-81661904D02*
X134827380Y-81661904D01*
X134827380Y-81423809D01*
X134875000Y-81280952D01*
X134970238Y-81185714D01*
X135065476Y-81138095D01*
X135255952Y-81090476D01*
X135398809Y-81090476D01*
X135589285Y-81138095D01*
X135684523Y-81185714D01*
X135779761Y-81280952D01*
X135827380Y-81423809D01*
X135827380Y-81661904D01*
X134827380Y-80471428D02*
X134827380Y-80280952D01*
X134875000Y-80185714D01*
X134970238Y-80090476D01*
X135160714Y-80042857D01*
X135494047Y-80042857D01*
X135684523Y-80090476D01*
X135779761Y-80185714D01*
X135827380Y-80280952D01*
X135827380Y-80471428D01*
X135779761Y-80566666D01*
X135684523Y-80661904D01*
X135494047Y-80709523D01*
X135160714Y-80709523D01*
X134970238Y-80661904D01*
X134875000Y-80566666D01*
X134827380Y-80471428D01*
X135827380Y-78852380D02*
X134827380Y-78852380D01*
X135827380Y-78280952D01*
X134827380Y-78280952D01*
X134827380Y-77614285D02*
X134827380Y-77423809D01*
X134875000Y-77328571D01*
X134970238Y-77233333D01*
X135160714Y-77185714D01*
X135494047Y-77185714D01*
X135684523Y-77233333D01*
X135779761Y-77328571D01*
X135827380Y-77423809D01*
X135827380Y-77614285D01*
X135779761Y-77709523D01*
X135684523Y-77804761D01*
X135494047Y-77852380D01*
X135160714Y-77852380D01*
X134970238Y-77804761D01*
X134875000Y-77709523D01*
X134827380Y-77614285D01*
X134827380Y-76900000D02*
X134827380Y-76328571D01*
X135827380Y-76614285D02*
X134827380Y-76614285D01*
X135732142Y-74661904D02*
X135779761Y-74709523D01*
X135827380Y-74852380D01*
X135827380Y-74947619D01*
X135779761Y-75090476D01*
X135684523Y-75185714D01*
X135589285Y-75233333D01*
X135398809Y-75280952D01*
X135255952Y-75280952D01*
X135065476Y-75233333D01*
X134970238Y-75185714D01*
X134875000Y-75090476D01*
X134827380Y-74947619D01*
X134827380Y-74852380D01*
X134875000Y-74709523D01*
X134922619Y-74661904D01*
X134827380Y-74042857D02*
X134827380Y-73852380D01*
X134875000Y-73757142D01*
X134970238Y-73661904D01*
X135160714Y-73614285D01*
X135494047Y-73614285D01*
X135684523Y-73661904D01*
X135779761Y-73757142D01*
X135827380Y-73852380D01*
X135827380Y-74042857D01*
X135779761Y-74138095D01*
X135684523Y-74233333D01*
X135494047Y-74280952D01*
X135160714Y-74280952D01*
X134970238Y-74233333D01*
X134875000Y-74138095D01*
X134827380Y-74042857D01*
X135827380Y-73185714D02*
X134827380Y-73185714D01*
X135827380Y-72614285D01*
X134827380Y-72614285D01*
X135827380Y-72138095D02*
X134827380Y-72138095D01*
X135827380Y-71566666D01*
X134827380Y-71566666D01*
X135303571Y-71090476D02*
X135303571Y-70757142D01*
X135827380Y-70614285D02*
X135827380Y-71090476D01*
X134827380Y-71090476D01*
X134827380Y-70614285D01*
X135732142Y-69614285D02*
X135779761Y-69661904D01*
X135827380Y-69804761D01*
X135827380Y-69900000D01*
X135779761Y-70042857D01*
X135684523Y-70138095D01*
X135589285Y-70185714D01*
X135398809Y-70233333D01*
X135255952Y-70233333D01*
X135065476Y-70185714D01*
X134970238Y-70138095D01*
X134875000Y-70042857D01*
X134827380Y-69900000D01*
X134827380Y-69804761D01*
X134875000Y-69661904D01*
X134922619Y-69614285D01*
X134827380Y-69328571D02*
X134827380Y-68757142D01*
X135827380Y-69042857D02*
X134827380Y-69042857D01*
X134827380Y-67661904D02*
X135636904Y-67661904D01*
X135732142Y-67614285D01*
X135779761Y-67566666D01*
X135827380Y-67471428D01*
X135827380Y-67280952D01*
X135779761Y-67185714D01*
X135732142Y-67138095D01*
X135636904Y-67090476D01*
X134827380Y-67090476D01*
X135779761Y-66661904D02*
X135827380Y-66519047D01*
X135827380Y-66280952D01*
X135779761Y-66185714D01*
X135732142Y-66138095D01*
X135636904Y-66090476D01*
X135541666Y-66090476D01*
X135446428Y-66138095D01*
X135398809Y-66185714D01*
X135351190Y-66280952D01*
X135303571Y-66471428D01*
X135255952Y-66566666D01*
X135208333Y-66614285D01*
X135113095Y-66661904D01*
X135017857Y-66661904D01*
X134922619Y-66614285D01*
X134875000Y-66566666D01*
X134827380Y-66471428D01*
X134827380Y-66233333D01*
X134875000Y-66090476D01*
X135303571Y-65328571D02*
X135351190Y-65185714D01*
X135398809Y-65138095D01*
X135494047Y-65090476D01*
X135636904Y-65090476D01*
X135732142Y-65138095D01*
X135779761Y-65185714D01*
X135827380Y-65280952D01*
X135827380Y-65661904D01*
X134827380Y-65661904D01*
X134827380Y-65328571D01*
X134875000Y-65233333D01*
X134922619Y-65185714D01*
X135017857Y-65138095D01*
X135113095Y-65138095D01*
X135208333Y-65185714D01*
X135255952Y-65233333D01*
X135303571Y-65328571D01*
X135303571Y-65661904D01*
X137477380Y-81923809D02*
X136477380Y-81923809D01*
X136953571Y-81114285D02*
X136953571Y-81447619D01*
X137477380Y-81447619D02*
X136477380Y-81447619D01*
X136477380Y-80971428D01*
X137477380Y-79828571D02*
X136477380Y-79828571D01*
X136953571Y-79828571D02*
X136953571Y-79257142D01*
X137477380Y-79257142D02*
X136477380Y-79257142D01*
X136477380Y-78923809D02*
X137477380Y-78590476D01*
X136477380Y-78257142D01*
X137191666Y-77971428D02*
X137191666Y-77495238D01*
X137477380Y-78066666D02*
X136477380Y-77733333D01*
X137477380Y-77400000D01*
X137382142Y-76495238D02*
X137429761Y-76542857D01*
X137477380Y-76685714D01*
X137477380Y-76780952D01*
X137429761Y-76923809D01*
X137334523Y-77019047D01*
X137239285Y-77066666D01*
X137048809Y-77114285D01*
X136905952Y-77114285D01*
X136715476Y-77066666D01*
X136620238Y-77019047D01*
X136525000Y-76923809D01*
X136477380Y-76780952D01*
X136477380Y-76685714D01*
X136525000Y-76542857D01*
X136572619Y-76495238D01*
X137477380Y-75304761D02*
X136477380Y-75304761D01*
X137429761Y-74876190D02*
X137477380Y-74733333D01*
X137477380Y-74495238D01*
X137429761Y-74400000D01*
X137382142Y-74352380D01*
X137286904Y-74304761D01*
X137191666Y-74304761D01*
X137096428Y-74352380D01*
X137048809Y-74400000D01*
X137001190Y-74495238D01*
X136953571Y-74685714D01*
X136905952Y-74780952D01*
X136858333Y-74828571D01*
X136763095Y-74876190D01*
X136667857Y-74876190D01*
X136572619Y-74828571D01*
X136525000Y-74780952D01*
X136477380Y-74685714D01*
X136477380Y-74447619D01*
X136525000Y-74304761D01*
X137382142Y-72542857D02*
X137429761Y-72590476D01*
X137477380Y-72733333D01*
X137477380Y-72828571D01*
X137429761Y-72971428D01*
X137334523Y-73066666D01*
X137239285Y-73114285D01*
X137048809Y-73161904D01*
X136905952Y-73161904D01*
X136715476Y-73114285D01*
X136620238Y-73066666D01*
X136525000Y-72971428D01*
X136477380Y-72828571D01*
X136477380Y-72733333D01*
X136525000Y-72590476D01*
X136572619Y-72542857D01*
X136477380Y-71923809D02*
X136477380Y-71733333D01*
X136525000Y-71638095D01*
X136620238Y-71542857D01*
X136810714Y-71495238D01*
X137144047Y-71495238D01*
X137334523Y-71542857D01*
X137429761Y-71638095D01*
X137477380Y-71733333D01*
X137477380Y-71923809D01*
X137429761Y-72019047D01*
X137334523Y-72114285D01*
X137144047Y-72161904D01*
X136810714Y-72161904D01*
X136620238Y-72114285D01*
X136525000Y-72019047D01*
X136477380Y-71923809D01*
X137477380Y-71066666D02*
X136477380Y-71066666D01*
X137477380Y-70495238D01*
X136477380Y-70495238D01*
X137477380Y-70019047D02*
X136477380Y-70019047D01*
X137477380Y-69447619D01*
X136477380Y-69447619D01*
X136953571Y-68971428D02*
X136953571Y-68638095D01*
X137477380Y-68495238D02*
X137477380Y-68971428D01*
X136477380Y-68971428D01*
X136477380Y-68495238D01*
X137382142Y-67495238D02*
X137429761Y-67542857D01*
X137477380Y-67685714D01*
X137477380Y-67780952D01*
X137429761Y-67923809D01*
X137334523Y-68019047D01*
X137239285Y-68066666D01*
X137048809Y-68114285D01*
X136905952Y-68114285D01*
X136715476Y-68066666D01*
X136620238Y-68019047D01*
X136525000Y-67923809D01*
X136477380Y-67780952D01*
X136477380Y-67685714D01*
X136525000Y-67542857D01*
X136572619Y-67495238D01*
X136477380Y-67209523D02*
X136477380Y-66638095D01*
X137477380Y-66923809D02*
X136477380Y-66923809D01*
X136953571Y-66304761D02*
X136953571Y-65971428D01*
X137477380Y-65828571D02*
X137477380Y-66304761D01*
X136477380Y-66304761D01*
X136477380Y-65828571D01*
X137477380Y-65400000D02*
X136477380Y-65400000D01*
X136477380Y-65161904D01*
X136525000Y-65019047D01*
X136620238Y-64923809D01*
X136715476Y-64876190D01*
X136905952Y-64828571D01*
X137048809Y-64828571D01*
X137239285Y-64876190D01*
X137334523Y-64923809D01*
X137429761Y-65019047D01*
X137477380Y-65161904D01*
X137477380Y-65400000D01*
D11*
X52392857Y-61603571D02*
X52392857Y-60103571D01*
X52892857Y-61175000D01*
X53392857Y-60103571D01*
X53392857Y-61603571D01*
X54321428Y-61603571D02*
X54178571Y-61532142D01*
X54107142Y-61460714D01*
X54035714Y-61317857D01*
X54035714Y-60889285D01*
X54107142Y-60746428D01*
X54178571Y-60675000D01*
X54321428Y-60603571D01*
X54535714Y-60603571D01*
X54678571Y-60675000D01*
X54750000Y-60746428D01*
X54821428Y-60889285D01*
X54821428Y-61317857D01*
X54750000Y-61460714D01*
X54678571Y-61532142D01*
X54535714Y-61603571D01*
X54321428Y-61603571D01*
X56107142Y-61603571D02*
X56107142Y-60103571D01*
X56107142Y-61532142D02*
X55964285Y-61603571D01*
X55678571Y-61603571D01*
X55535714Y-61532142D01*
X55464285Y-61460714D01*
X55392857Y-61317857D01*
X55392857Y-60889285D01*
X55464285Y-60746428D01*
X55535714Y-60675000D01*
X55678571Y-60603571D01*
X55964285Y-60603571D01*
X56107142Y-60675000D01*
X57464285Y-60603571D02*
X57464285Y-61603571D01*
X56821428Y-60603571D02*
X56821428Y-61389285D01*
X56892857Y-61532142D01*
X57035714Y-61603571D01*
X57250000Y-61603571D01*
X57392857Y-61532142D01*
X57464285Y-61460714D01*
X58392857Y-61603571D02*
X58250000Y-61532142D01*
X58178571Y-61389285D01*
X58178571Y-60103571D01*
X59607142Y-61603571D02*
X59607142Y-60817857D01*
X59535714Y-60675000D01*
X59392857Y-60603571D01*
X59107142Y-60603571D01*
X58964285Y-60675000D01*
X59607142Y-61532142D02*
X59464285Y-61603571D01*
X59107142Y-61603571D01*
X58964285Y-61532142D01*
X58892857Y-61389285D01*
X58892857Y-61246428D01*
X58964285Y-61103571D01*
X59107142Y-61032142D01*
X59464285Y-61032142D01*
X59607142Y-60960714D01*
X60321428Y-61603571D02*
X60321428Y-60603571D01*
X60321428Y-60889285D02*
X60392857Y-60746428D01*
X60464285Y-60675000D01*
X60607142Y-60603571D01*
X60750000Y-60603571D01*
X62250000Y-60103571D02*
X63178571Y-60103571D01*
X62678571Y-60675000D01*
X62892857Y-60675000D01*
X63035714Y-60746428D01*
X63107142Y-60817857D01*
X63178571Y-60960714D01*
X63178571Y-61317857D01*
X63107142Y-61460714D01*
X63035714Y-61532142D01*
X62892857Y-61603571D01*
X62464285Y-61603571D01*
X62321428Y-61532142D01*
X62250000Y-61460714D01*
X63821428Y-61603571D02*
X63821428Y-60103571D01*
X64392857Y-60103571D01*
X64535714Y-60175000D01*
X64607142Y-60246428D01*
X64678571Y-60389285D01*
X64678571Y-60603571D01*
X64607142Y-60746428D01*
X64535714Y-60817857D01*
X64392857Y-60889285D01*
X63821428Y-60889285D01*
X66464285Y-61603571D02*
X66464285Y-60103571D01*
X67035714Y-60103571D01*
X67178571Y-60175000D01*
X67250000Y-60246428D01*
X67321428Y-60389285D01*
X67321428Y-60603571D01*
X67250000Y-60746428D01*
X67178571Y-60817857D01*
X67035714Y-60889285D01*
X66464285Y-60889285D01*
X68178571Y-61603571D02*
X68035714Y-61532142D01*
X67964285Y-61460714D01*
X67892857Y-61317857D01*
X67892857Y-60889285D01*
X67964285Y-60746428D01*
X68035714Y-60675000D01*
X68178571Y-60603571D01*
X68392857Y-60603571D01*
X68535714Y-60675000D01*
X68607142Y-60746428D01*
X68678571Y-60889285D01*
X68678571Y-61317857D01*
X68607142Y-61460714D01*
X68535714Y-61532142D01*
X68392857Y-61603571D01*
X68178571Y-61603571D01*
X69178571Y-60603571D02*
X69464285Y-61603571D01*
X69750000Y-60889285D01*
X70035714Y-61603571D01*
X70321428Y-60603571D01*
X71464285Y-61532142D02*
X71321428Y-61603571D01*
X71035714Y-61603571D01*
X70892857Y-61532142D01*
X70821428Y-61389285D01*
X70821428Y-60817857D01*
X70892857Y-60675000D01*
X71035714Y-60603571D01*
X71321428Y-60603571D01*
X71464285Y-60675000D01*
X71535714Y-60817857D01*
X71535714Y-60960714D01*
X70821428Y-61103571D01*
X72178571Y-61603571D02*
X72178571Y-60603571D01*
X72178571Y-60889285D02*
X72250000Y-60746428D01*
X72321428Y-60675000D01*
X72464285Y-60603571D01*
X72607142Y-60603571D01*
X74250000Y-61603571D02*
X74250000Y-60103571D01*
X74750000Y-61175000D01*
X75250000Y-60103571D01*
X75250000Y-61603571D01*
X76535714Y-61532142D02*
X76392857Y-61603571D01*
X76107142Y-61603571D01*
X75964285Y-61532142D01*
X75892857Y-61389285D01*
X75892857Y-60817857D01*
X75964285Y-60675000D01*
X76107142Y-60603571D01*
X76392857Y-60603571D01*
X76535714Y-60675000D01*
X76607142Y-60817857D01*
X76607142Y-60960714D01*
X75892857Y-61103571D01*
X77035714Y-60603571D02*
X77607142Y-60603571D01*
X77250000Y-60103571D02*
X77250000Y-61389285D01*
X77321428Y-61532142D01*
X77464285Y-61603571D01*
X77607142Y-61603571D01*
X78678571Y-61532142D02*
X78535714Y-61603571D01*
X78250000Y-61603571D01*
X78107142Y-61532142D01*
X78035714Y-61389285D01*
X78035714Y-60817857D01*
X78107142Y-60675000D01*
X78250000Y-60603571D01*
X78535714Y-60603571D01*
X78678571Y-60675000D01*
X78750000Y-60817857D01*
X78750000Y-60960714D01*
X78035714Y-61103571D01*
X79392857Y-61603571D02*
X79392857Y-60603571D01*
X79392857Y-60889285D02*
X79464285Y-60746428D01*
X79535714Y-60675000D01*
X79678571Y-60603571D01*
X79821428Y-60603571D01*
X53464285Y-64082142D02*
X53607142Y-64153571D01*
X53892857Y-64153571D01*
X54035714Y-64082142D01*
X54107142Y-63939285D01*
X54107142Y-63867857D01*
X54035714Y-63725000D01*
X53892857Y-63653571D01*
X53678571Y-63653571D01*
X53535714Y-63582142D01*
X53464285Y-63439285D01*
X53464285Y-63367857D01*
X53535714Y-63225000D01*
X53678571Y-63153571D01*
X53892857Y-63153571D01*
X54035714Y-63225000D01*
X54750000Y-64153571D02*
X54750000Y-63153571D01*
X54750000Y-62653571D02*
X54678571Y-62725000D01*
X54750000Y-62796428D01*
X54821428Y-62725000D01*
X54750000Y-62653571D01*
X54750000Y-62796428D01*
X55321428Y-64153571D02*
X56107142Y-63153571D01*
X55321428Y-63153571D02*
X56107142Y-64153571D01*
X56464285Y-63153571D02*
X57035714Y-63153571D01*
X56678571Y-62653571D02*
X56678571Y-63939285D01*
X56750000Y-64082142D01*
X56892857Y-64153571D01*
X57035714Y-64153571D01*
X57535714Y-64153571D02*
X57535714Y-63153571D01*
X57535714Y-62653571D02*
X57464285Y-62725000D01*
X57535714Y-62796428D01*
X57607142Y-62725000D01*
X57535714Y-62653571D01*
X57535714Y-62796428D01*
X58250000Y-64153571D02*
X58250000Y-63153571D01*
X58250000Y-63296428D02*
X58321428Y-63225000D01*
X58464285Y-63153571D01*
X58678571Y-63153571D01*
X58821428Y-63225000D01*
X58892857Y-63367857D01*
X58892857Y-64153571D01*
X58892857Y-63367857D02*
X58964285Y-63225000D01*
X59107142Y-63153571D01*
X59321428Y-63153571D01*
X59464285Y-63225000D01*
X59535714Y-63367857D01*
X59535714Y-64153571D01*
X60821428Y-64082142D02*
X60678571Y-64153571D01*
X60392857Y-64153571D01*
X60250000Y-64082142D01*
X60178571Y-63939285D01*
X60178571Y-63367857D01*
X60250000Y-63225000D01*
X60392857Y-63153571D01*
X60678571Y-63153571D01*
X60821428Y-63225000D01*
X60892857Y-63367857D01*
X60892857Y-63510714D01*
X60178571Y-63653571D01*
X61464285Y-64082142D02*
X61607142Y-64153571D01*
X61892857Y-64153571D01*
X62035714Y-64082142D01*
X62107142Y-63939285D01*
X62107142Y-63867857D01*
X62035714Y-63725000D01*
X61892857Y-63653571D01*
X61678571Y-63653571D01*
X61535714Y-63582142D01*
X61464285Y-63439285D01*
X61464285Y-63367857D01*
X61535714Y-63225000D01*
X61678571Y-63153571D01*
X61892857Y-63153571D01*
X62035714Y-63225000D01*
X62678571Y-64082142D02*
X62821428Y-64153571D01*
X63107142Y-64153571D01*
X63250000Y-64082142D01*
X63321428Y-63939285D01*
X63321428Y-63867857D01*
X63250000Y-63725000D01*
X63107142Y-63653571D01*
X62892857Y-63653571D01*
X62750000Y-63582142D01*
X62678571Y-63439285D01*
X62678571Y-63367857D01*
X62750000Y-63225000D01*
X62892857Y-63153571D01*
X63107142Y-63153571D01*
X63250000Y-63225000D01*
X64535714Y-64082142D02*
X64392857Y-64153571D01*
X64107142Y-64153571D01*
X63964285Y-64082142D01*
X63892857Y-63939285D01*
X63892857Y-63367857D01*
X63964285Y-63225000D01*
X64107142Y-63153571D01*
X64392857Y-63153571D01*
X64535714Y-63225000D01*
X64607142Y-63367857D01*
X64607142Y-63510714D01*
X63892857Y-63653571D01*
X65107142Y-63153571D02*
X65464285Y-64153571D01*
X65821428Y-63153571D01*
X66964285Y-64082142D02*
X66821428Y-64153571D01*
X66535714Y-64153571D01*
X66392857Y-64082142D01*
X66321428Y-63939285D01*
X66321428Y-63367857D01*
X66392857Y-63225000D01*
X66535714Y-63153571D01*
X66821428Y-63153571D01*
X66964285Y-63225000D01*
X67035714Y-63367857D01*
X67035714Y-63510714D01*
X66321428Y-63653571D01*
X67678571Y-63153571D02*
X67678571Y-64153571D01*
X67678571Y-63296428D02*
X67750000Y-63225000D01*
X67892857Y-63153571D01*
X68107142Y-63153571D01*
X68250000Y-63225000D01*
X68321428Y-63367857D01*
X68321428Y-64153571D01*
X70107142Y-62796428D02*
X70178571Y-62725000D01*
X70321428Y-62653571D01*
X70678571Y-62653571D01*
X70821428Y-62725000D01*
X70892857Y-62796428D01*
X70964285Y-62939285D01*
X70964285Y-63082142D01*
X70892857Y-63296428D01*
X70035714Y-64153571D01*
X70964285Y-64153571D01*
X71892857Y-62653571D02*
X72035714Y-62653571D01*
X72178571Y-62725000D01*
X72250000Y-62796428D01*
X72321428Y-62939285D01*
X72392857Y-63225000D01*
X72392857Y-63582142D01*
X72321428Y-63867857D01*
X72250000Y-64010714D01*
X72178571Y-64082142D01*
X72035714Y-64153571D01*
X71892857Y-64153571D01*
X71750000Y-64082142D01*
X71678571Y-64010714D01*
X71607142Y-63867857D01*
X71535714Y-63582142D01*
X71535714Y-63225000D01*
X71607142Y-62939285D01*
X71678571Y-62796428D01*
X71750000Y-62725000D01*
X71892857Y-62653571D01*
X72964285Y-62796428D02*
X73035714Y-62725000D01*
X73178571Y-62653571D01*
X73535714Y-62653571D01*
X73678571Y-62725000D01*
X73750000Y-62796428D01*
X73821428Y-62939285D01*
X73821428Y-63082142D01*
X73750000Y-63296428D01*
X72892857Y-64153571D01*
X73821428Y-64153571D01*
X75250000Y-64153571D02*
X74392857Y-64153571D01*
X74821428Y-64153571D02*
X74821428Y-62653571D01*
X74678571Y-62867857D01*
X74535714Y-63010714D01*
X74392857Y-63082142D01*
X75892857Y-63582142D02*
X77035714Y-63582142D01*
X78535714Y-64153571D02*
X77678571Y-64153571D01*
X78107142Y-64153571D02*
X78107142Y-62653571D01*
X77964285Y-62867857D01*
X77821428Y-63010714D01*
X77678571Y-63082142D01*
D10*
X125923809Y-63011904D02*
X126419047Y-63011904D01*
X126152380Y-63316666D01*
X126266666Y-63316666D01*
X126342857Y-63354761D01*
X126380952Y-63392857D01*
X126419047Y-63469047D01*
X126419047Y-63659523D01*
X126380952Y-63735714D01*
X126342857Y-63773809D01*
X126266666Y-63811904D01*
X126038095Y-63811904D01*
X125961904Y-63773809D01*
X125923809Y-63735714D01*
X126647619Y-63011904D02*
X126914285Y-63811904D01*
X127180952Y-63011904D01*
X127371428Y-63011904D02*
X127866666Y-63011904D01*
X127600000Y-63316666D01*
X127714285Y-63316666D01*
X127790476Y-63354761D01*
X127828571Y-63392857D01*
X127866666Y-63469047D01*
X127866666Y-63659523D01*
X127828571Y-63735714D01*
X127790476Y-63773809D01*
X127714285Y-63811904D01*
X127485714Y-63811904D01*
X127409523Y-63773809D01*
X127371428Y-63735714D01*
X128819047Y-63811904D02*
X128819047Y-63011904D01*
X129009523Y-63011904D01*
X129123809Y-63050000D01*
X129200000Y-63126190D01*
X129238095Y-63202380D01*
X129276190Y-63354761D01*
X129276190Y-63469047D01*
X129238095Y-63621428D01*
X129200000Y-63697619D01*
X129123809Y-63773809D01*
X129009523Y-63811904D01*
X128819047Y-63811904D01*
X129771428Y-63011904D02*
X129847619Y-63011904D01*
X129923809Y-63050000D01*
X129961904Y-63088095D01*
X130000000Y-63164285D01*
X130038095Y-63316666D01*
X130038095Y-63507142D01*
X130000000Y-63659523D01*
X129961904Y-63735714D01*
X129923809Y-63773809D01*
X129847619Y-63811904D01*
X129771428Y-63811904D01*
X129695238Y-63773809D01*
X129657142Y-63735714D01*
X129619047Y-63659523D01*
X129580952Y-63507142D01*
X129580952Y-63316666D01*
X129619047Y-63164285D01*
X129657142Y-63088095D01*
X129695238Y-63050000D01*
X129771428Y-63011904D01*
X125619047Y-66473809D02*
X125733333Y-66511904D01*
X125923809Y-66511904D01*
X126000000Y-66473809D01*
X126038095Y-66435714D01*
X126076190Y-66359523D01*
X126076190Y-66283333D01*
X126038095Y-66207142D01*
X126000000Y-66169047D01*
X125923809Y-66130952D01*
X125771428Y-66092857D01*
X125695238Y-66054761D01*
X125657142Y-66016666D01*
X125619047Y-65940476D01*
X125619047Y-65864285D01*
X125657142Y-65788095D01*
X125695238Y-65750000D01*
X125771428Y-65711904D01*
X125961904Y-65711904D01*
X126076190Y-65750000D01*
X126876190Y-66435714D02*
X126838095Y-66473809D01*
X126723809Y-66511904D01*
X126647619Y-66511904D01*
X126533333Y-66473809D01*
X126457142Y-66397619D01*
X126419047Y-66321428D01*
X126380952Y-66169047D01*
X126380952Y-66054761D01*
X126419047Y-65902380D01*
X126457142Y-65826190D01*
X126533333Y-65750000D01*
X126647619Y-65711904D01*
X126723809Y-65711904D01*
X126838095Y-65750000D01*
X126876190Y-65788095D01*
X127600000Y-66511904D02*
X127219047Y-66511904D01*
X127219047Y-65711904D01*
X128438095Y-66473809D02*
X128552380Y-66511904D01*
X128742857Y-66511904D01*
X128819047Y-66473809D01*
X128857142Y-66435714D01*
X128895238Y-66359523D01*
X128895238Y-66283333D01*
X128857142Y-66207142D01*
X128819047Y-66169047D01*
X128742857Y-66130952D01*
X128590476Y-66092857D01*
X128514285Y-66054761D01*
X128476190Y-66016666D01*
X128438095Y-65940476D01*
X128438095Y-65864285D01*
X128476190Y-65788095D01*
X128514285Y-65750000D01*
X128590476Y-65711904D01*
X128780952Y-65711904D01*
X128895238Y-65750000D01*
X129238095Y-66511904D02*
X129238095Y-65711904D01*
X129428571Y-65711904D01*
X129542857Y-65750000D01*
X129619047Y-65826190D01*
X129657142Y-65902380D01*
X129695238Y-66054761D01*
X129695238Y-66169047D01*
X129657142Y-66321428D01*
X129619047Y-66397619D01*
X129542857Y-66473809D01*
X129428571Y-66511904D01*
X129238095Y-66511904D01*
X130000000Y-66283333D02*
X130380952Y-66283333D01*
X129923809Y-66511904D02*
X130190476Y-65711904D01*
X130457142Y-66511904D01*
X125885714Y-69211904D02*
X125885714Y-68411904D01*
X126076190Y-68411904D01*
X126190476Y-68450000D01*
X126266666Y-68526190D01*
X126304761Y-68602380D01*
X126342857Y-68754761D01*
X126342857Y-68869047D01*
X126304761Y-69021428D01*
X126266666Y-69097619D01*
X126190476Y-69173809D01*
X126076190Y-69211904D01*
X125885714Y-69211904D01*
X126609523Y-68411904D02*
X127104761Y-68411904D01*
X126838095Y-68716666D01*
X126952380Y-68716666D01*
X127028571Y-68754761D01*
X127066666Y-68792857D01*
X127104761Y-68869047D01*
X127104761Y-69059523D01*
X127066666Y-69135714D01*
X127028571Y-69173809D01*
X126952380Y-69211904D01*
X126723809Y-69211904D01*
X126647619Y-69173809D01*
X126609523Y-69135714D01*
X128476190Y-68450000D02*
X128400000Y-68411904D01*
X128285714Y-68411904D01*
X128171428Y-68450000D01*
X128095238Y-68526190D01*
X128057142Y-68602380D01*
X128019047Y-68754761D01*
X128019047Y-68869047D01*
X128057142Y-69021428D01*
X128095238Y-69097619D01*
X128171428Y-69173809D01*
X128285714Y-69211904D01*
X128361904Y-69211904D01*
X128476190Y-69173809D01*
X128514285Y-69135714D01*
X128514285Y-68869047D01*
X128361904Y-68869047D01*
X128857142Y-69211904D02*
X128857142Y-68411904D01*
X129314285Y-69211904D01*
X129314285Y-68411904D01*
X129695238Y-69211904D02*
X129695238Y-68411904D01*
X129885714Y-68411904D01*
X130000000Y-68450000D01*
X130076190Y-68526190D01*
X130114285Y-68602380D01*
X130152380Y-68754761D01*
X130152380Y-68869047D01*
X130114285Y-69021428D01*
X130076190Y-69097619D01*
X130000000Y-69173809D01*
X129885714Y-69211904D01*
X129695238Y-69211904D01*
X125142857Y-71873809D02*
X125257142Y-71911904D01*
X125447619Y-71911904D01*
X125523809Y-71873809D01*
X125561904Y-71835714D01*
X125600000Y-71759523D01*
X125600000Y-71683333D01*
X125561904Y-71607142D01*
X125523809Y-71569047D01*
X125447619Y-71530952D01*
X125295238Y-71492857D01*
X125219047Y-71454761D01*
X125180952Y-71416666D01*
X125142857Y-71340476D01*
X125142857Y-71264285D01*
X125180952Y-71188095D01*
X125219047Y-71150000D01*
X125295238Y-71111904D01*
X125485714Y-71111904D01*
X125600000Y-71150000D01*
X126400000Y-71835714D02*
X126361904Y-71873809D01*
X126247619Y-71911904D01*
X126171428Y-71911904D01*
X126057142Y-71873809D01*
X125980952Y-71797619D01*
X125942857Y-71721428D01*
X125904761Y-71569047D01*
X125904761Y-71454761D01*
X125942857Y-71302380D01*
X125980952Y-71226190D01*
X126057142Y-71150000D01*
X126171428Y-71111904D01*
X126247619Y-71111904D01*
X126361904Y-71150000D01*
X126400000Y-71188095D01*
X126742857Y-71911904D02*
X126742857Y-71111904D01*
X127200000Y-71911904D02*
X126857142Y-71454761D01*
X127200000Y-71111904D02*
X126742857Y-71569047D01*
X127923809Y-71911904D02*
X127542857Y-71911904D01*
X127542857Y-71111904D01*
X128761904Y-71873809D02*
X128876190Y-71911904D01*
X129066666Y-71911904D01*
X129142857Y-71873809D01*
X129180952Y-71835714D01*
X129219047Y-71759523D01*
X129219047Y-71683333D01*
X129180952Y-71607142D01*
X129142857Y-71569047D01*
X129066666Y-71530952D01*
X128914285Y-71492857D01*
X128838095Y-71454761D01*
X128800000Y-71416666D01*
X128761904Y-71340476D01*
X128761904Y-71264285D01*
X128800000Y-71188095D01*
X128838095Y-71150000D01*
X128914285Y-71111904D01*
X129104761Y-71111904D01*
X129219047Y-71150000D01*
X129561904Y-71911904D02*
X129561904Y-71111904D01*
X129752380Y-71111904D01*
X129866666Y-71150000D01*
X129942857Y-71226190D01*
X129980952Y-71302380D01*
X130019047Y-71454761D01*
X130019047Y-71569047D01*
X129980952Y-71721428D01*
X129942857Y-71797619D01*
X129866666Y-71873809D01*
X129752380Y-71911904D01*
X129561904Y-71911904D01*
X130514285Y-71111904D02*
X130666666Y-71111904D01*
X130742857Y-71150000D01*
X130819047Y-71226190D01*
X130857142Y-71378571D01*
X130857142Y-71645238D01*
X130819047Y-71797619D01*
X130742857Y-71873809D01*
X130666666Y-71911904D01*
X130514285Y-71911904D01*
X130438095Y-71873809D01*
X130361904Y-71797619D01*
X130323809Y-71645238D01*
X130323809Y-71378571D01*
X130361904Y-71226190D01*
X130438095Y-71150000D01*
X130514285Y-71111904D01*
X126095238Y-74573809D02*
X126209523Y-74611904D01*
X126400000Y-74611904D01*
X126476190Y-74573809D01*
X126514285Y-74535714D01*
X126552380Y-74459523D01*
X126552380Y-74383333D01*
X126514285Y-74307142D01*
X126476190Y-74269047D01*
X126400000Y-74230952D01*
X126247619Y-74192857D01*
X126171428Y-74154761D01*
X126133333Y-74116666D01*
X126095238Y-74040476D01*
X126095238Y-73964285D01*
X126133333Y-73888095D01*
X126171428Y-73850000D01*
X126247619Y-73811904D01*
X126438095Y-73811904D01*
X126552380Y-73850000D01*
X126895238Y-74611904D02*
X126895238Y-73811904D01*
X127085714Y-73811904D01*
X127200000Y-73850000D01*
X127276190Y-73926190D01*
X127314285Y-74002380D01*
X127352380Y-74154761D01*
X127352380Y-74269047D01*
X127314285Y-74421428D01*
X127276190Y-74497619D01*
X127200000Y-74573809D01*
X127085714Y-74611904D01*
X126895238Y-74611904D01*
X127695238Y-74611904D02*
X127695238Y-73811904D01*
X129142857Y-74535714D02*
X129104761Y-74573809D01*
X128990476Y-74611904D01*
X128914285Y-74611904D01*
X128800000Y-74573809D01*
X128723809Y-74497619D01*
X128685714Y-74421428D01*
X128647619Y-74269047D01*
X128647619Y-74154761D01*
X128685714Y-74002380D01*
X128723809Y-73926190D01*
X128800000Y-73850000D01*
X128914285Y-73811904D01*
X128990476Y-73811904D01*
X129104761Y-73850000D01*
X129142857Y-73888095D01*
X129447619Y-74573809D02*
X129561904Y-74611904D01*
X129752380Y-74611904D01*
X129828571Y-74573809D01*
X129866666Y-74535714D01*
X129904761Y-74459523D01*
X129904761Y-74383333D01*
X129866666Y-74307142D01*
X129828571Y-74269047D01*
X129752380Y-74230952D01*
X129600000Y-74192857D01*
X129523809Y-74154761D01*
X129485714Y-74116666D01*
X129447619Y-74040476D01*
X129447619Y-73964285D01*
X129485714Y-73888095D01*
X129523809Y-73850000D01*
X129600000Y-73811904D01*
X129790476Y-73811904D01*
X129904761Y-73850000D01*
X125885714Y-77311904D02*
X125885714Y-76511904D01*
X126076190Y-76511904D01*
X126190476Y-76550000D01*
X126266666Y-76626190D01*
X126304761Y-76702380D01*
X126342857Y-76854761D01*
X126342857Y-76969047D01*
X126304761Y-77121428D01*
X126266666Y-77197619D01*
X126190476Y-77273809D01*
X126076190Y-77311904D01*
X125885714Y-77311904D01*
X127028571Y-76778571D02*
X127028571Y-77311904D01*
X126838095Y-76473809D02*
X126647619Y-77045238D01*
X127142857Y-77045238D01*
X128476190Y-76550000D02*
X128400000Y-76511904D01*
X128285714Y-76511904D01*
X128171428Y-76550000D01*
X128095238Y-76626190D01*
X128057142Y-76702380D01*
X128019047Y-76854761D01*
X128019047Y-76969047D01*
X128057142Y-77121428D01*
X128095238Y-77197619D01*
X128171428Y-77273809D01*
X128285714Y-77311904D01*
X128361904Y-77311904D01*
X128476190Y-77273809D01*
X128514285Y-77235714D01*
X128514285Y-76969047D01*
X128361904Y-76969047D01*
X128857142Y-77311904D02*
X128857142Y-76511904D01*
X129314285Y-77311904D01*
X129314285Y-76511904D01*
X129695238Y-77311904D02*
X129695238Y-76511904D01*
X129885714Y-76511904D01*
X130000000Y-76550000D01*
X130076190Y-76626190D01*
X130114285Y-76702380D01*
X130152380Y-76854761D01*
X130152380Y-76969047D01*
X130114285Y-77121428D01*
X130076190Y-77197619D01*
X130000000Y-77273809D01*
X129885714Y-77311904D01*
X129695238Y-77311904D01*
D11*
X52528571Y-135203571D02*
X52528571Y-133703571D01*
X52528571Y-134417857D02*
X53385714Y-134417857D01*
X53385714Y-135203571D02*
X53385714Y-133703571D01*
X54100000Y-135203571D02*
X54100000Y-133703571D01*
X55600000Y-133775000D02*
X55457142Y-133703571D01*
X55242857Y-133703571D01*
X55028571Y-133775000D01*
X54885714Y-133917857D01*
X54814285Y-134060714D01*
X54742857Y-134346428D01*
X54742857Y-134560714D01*
X54814285Y-134846428D01*
X54885714Y-134989285D01*
X55028571Y-135132142D01*
X55242857Y-135203571D01*
X55385714Y-135203571D01*
X55600000Y-135132142D01*
X55671428Y-135060714D01*
X55671428Y-134560714D01*
X55385714Y-134560714D01*
X56314285Y-135203571D02*
X56314285Y-133703571D01*
X56314285Y-134417857D02*
X57171428Y-134417857D01*
X57171428Y-135203571D02*
X57171428Y-133703571D01*
X58814285Y-133703571D02*
X59314285Y-135203571D01*
X59814285Y-133703571D01*
X60600000Y-133703571D02*
X60885714Y-133703571D01*
X61028571Y-133775000D01*
X61171428Y-133917857D01*
X61242857Y-134203571D01*
X61242857Y-134703571D01*
X61171428Y-134989285D01*
X61028571Y-135132142D01*
X60885714Y-135203571D01*
X60600000Y-135203571D01*
X60457142Y-135132142D01*
X60314285Y-134989285D01*
X60242857Y-134703571D01*
X60242857Y-134203571D01*
X60314285Y-133917857D01*
X60457142Y-133775000D01*
X60600000Y-133703571D01*
X62600000Y-135203571D02*
X61885714Y-135203571D01*
X61885714Y-133703571D01*
X62885714Y-133703571D02*
X63742857Y-133703571D01*
X63314285Y-135203571D02*
X63314285Y-133703571D01*
X64171428Y-134775000D02*
X64885714Y-134775000D01*
X64028571Y-135203571D02*
X64528571Y-133703571D01*
X65028571Y-135203571D01*
X66314285Y-133775000D02*
X66171428Y-133703571D01*
X65957142Y-133703571D01*
X65742857Y-133775000D01*
X65600000Y-133917857D01*
X65528571Y-134060714D01*
X65457142Y-134346428D01*
X65457142Y-134560714D01*
X65528571Y-134846428D01*
X65600000Y-134989285D01*
X65742857Y-135132142D01*
X65957142Y-135203571D01*
X66100000Y-135203571D01*
X66314285Y-135132142D01*
X66385714Y-135060714D01*
X66385714Y-134560714D01*
X66100000Y-134560714D01*
X67028571Y-134417857D02*
X67528571Y-134417857D01*
X67742857Y-135203571D02*
X67028571Y-135203571D01*
X67028571Y-133703571D01*
X67742857Y-133703571D01*
X51957142Y-137753571D02*
X51957142Y-136253571D01*
X52314285Y-136253571D01*
X52528571Y-136325000D01*
X52671428Y-136467857D01*
X52742857Y-136610714D01*
X52814285Y-136896428D01*
X52814285Y-137110714D01*
X52742857Y-137396428D01*
X52671428Y-137539285D01*
X52528571Y-137682142D01*
X52314285Y-137753571D01*
X51957142Y-137753571D01*
X53742857Y-136253571D02*
X54028571Y-136253571D01*
X54171428Y-136325000D01*
X54314285Y-136467857D01*
X54385714Y-136753571D01*
X54385714Y-137253571D01*
X54314285Y-137539285D01*
X54171428Y-137682142D01*
X54028571Y-137753571D01*
X53742857Y-137753571D01*
X53600000Y-137682142D01*
X53457142Y-137539285D01*
X53385714Y-137253571D01*
X53385714Y-136753571D01*
X53457142Y-136467857D01*
X53600000Y-136325000D01*
X53742857Y-136253571D01*
X56171428Y-137753571D02*
X56171428Y-136253571D01*
X57028571Y-137753571D01*
X57028571Y-136253571D01*
X58028571Y-136253571D02*
X58314285Y-136253571D01*
X58457142Y-136325000D01*
X58600000Y-136467857D01*
X58671428Y-136753571D01*
X58671428Y-137253571D01*
X58600000Y-137539285D01*
X58457142Y-137682142D01*
X58314285Y-137753571D01*
X58028571Y-137753571D01*
X57885714Y-137682142D01*
X57742857Y-137539285D01*
X57671428Y-137253571D01*
X57671428Y-136753571D01*
X57742857Y-136467857D01*
X57885714Y-136325000D01*
X58028571Y-136253571D01*
X59100000Y-136253571D02*
X59957142Y-136253571D01*
X59528571Y-137753571D02*
X59528571Y-136253571D01*
X61385714Y-136253571D02*
X62242857Y-136253571D01*
X61814285Y-137753571D02*
X61814285Y-136253571D01*
X63028571Y-136253571D02*
X63314285Y-136253571D01*
X63457142Y-136325000D01*
X63600000Y-136467857D01*
X63671428Y-136753571D01*
X63671428Y-137253571D01*
X63600000Y-137539285D01*
X63457142Y-137682142D01*
X63314285Y-137753571D01*
X63028571Y-137753571D01*
X62885714Y-137682142D01*
X62742857Y-137539285D01*
X62671428Y-137253571D01*
X62671428Y-136753571D01*
X62742857Y-136467857D01*
X62885714Y-136325000D01*
X63028571Y-136253571D01*
X64314285Y-136253571D02*
X64314285Y-137467857D01*
X64385714Y-137610714D01*
X64457142Y-137682142D01*
X64600000Y-137753571D01*
X64885714Y-137753571D01*
X65028571Y-137682142D01*
X65100000Y-137610714D01*
X65171428Y-137467857D01*
X65171428Y-136253571D01*
X66742857Y-137610714D02*
X66671428Y-137682142D01*
X66457142Y-137753571D01*
X66314285Y-137753571D01*
X66100000Y-137682142D01*
X65957142Y-137539285D01*
X65885714Y-137396428D01*
X65814285Y-137110714D01*
X65814285Y-136896428D01*
X65885714Y-136610714D01*
X65957142Y-136467857D01*
X66100000Y-136325000D01*
X66314285Y-136253571D01*
X66457142Y-136253571D01*
X66671428Y-136325000D01*
X66742857Y-136396428D01*
X67385714Y-137753571D02*
X67385714Y-136253571D01*
X67385714Y-136967857D02*
X68242857Y-136967857D01*
X68242857Y-137753571D02*
X68242857Y-136253571D01*
X52728571Y-85603571D02*
X52728571Y-84103571D01*
X52728571Y-84817857D02*
X53585714Y-84817857D01*
X53585714Y-85603571D02*
X53585714Y-84103571D01*
X54300000Y-85603571D02*
X54300000Y-84103571D01*
X55800000Y-84175000D02*
X55657142Y-84103571D01*
X55442857Y-84103571D01*
X55228571Y-84175000D01*
X55085714Y-84317857D01*
X55014285Y-84460714D01*
X54942857Y-84746428D01*
X54942857Y-84960714D01*
X55014285Y-85246428D01*
X55085714Y-85389285D01*
X55228571Y-85532142D01*
X55442857Y-85603571D01*
X55585714Y-85603571D01*
X55800000Y-85532142D01*
X55871428Y-85460714D01*
X55871428Y-84960714D01*
X55585714Y-84960714D01*
X56514285Y-85603571D02*
X56514285Y-84103571D01*
X56514285Y-84817857D02*
X57371428Y-84817857D01*
X57371428Y-85603571D02*
X57371428Y-84103571D01*
X59014285Y-84103571D02*
X59514285Y-85603571D01*
X60014285Y-84103571D01*
X60800000Y-84103571D02*
X61085714Y-84103571D01*
X61228571Y-84175000D01*
X61371428Y-84317857D01*
X61442857Y-84603571D01*
X61442857Y-85103571D01*
X61371428Y-85389285D01*
X61228571Y-85532142D01*
X61085714Y-85603571D01*
X60800000Y-85603571D01*
X60657142Y-85532142D01*
X60514285Y-85389285D01*
X60442857Y-85103571D01*
X60442857Y-84603571D01*
X60514285Y-84317857D01*
X60657142Y-84175000D01*
X60800000Y-84103571D01*
X62800000Y-85603571D02*
X62085714Y-85603571D01*
X62085714Y-84103571D01*
X63085714Y-84103571D02*
X63942857Y-84103571D01*
X63514285Y-85603571D02*
X63514285Y-84103571D01*
X64371428Y-85175000D02*
X65085714Y-85175000D01*
X64228571Y-85603571D02*
X64728571Y-84103571D01*
X65228571Y-85603571D01*
X66514285Y-84175000D02*
X66371428Y-84103571D01*
X66157142Y-84103571D01*
X65942857Y-84175000D01*
X65800000Y-84317857D01*
X65728571Y-84460714D01*
X65657142Y-84746428D01*
X65657142Y-84960714D01*
X65728571Y-85246428D01*
X65800000Y-85389285D01*
X65942857Y-85532142D01*
X66157142Y-85603571D01*
X66300000Y-85603571D01*
X66514285Y-85532142D01*
X66585714Y-85460714D01*
X66585714Y-84960714D01*
X66300000Y-84960714D01*
X67228571Y-84817857D02*
X67728571Y-84817857D01*
X67942857Y-85603571D02*
X67228571Y-85603571D01*
X67228571Y-84103571D01*
X67942857Y-84103571D01*
X52157142Y-88153571D02*
X52157142Y-86653571D01*
X52514285Y-86653571D01*
X52728571Y-86725000D01*
X52871428Y-86867857D01*
X52942857Y-87010714D01*
X53014285Y-87296428D01*
X53014285Y-87510714D01*
X52942857Y-87796428D01*
X52871428Y-87939285D01*
X52728571Y-88082142D01*
X52514285Y-88153571D01*
X52157142Y-88153571D01*
X53942857Y-86653571D02*
X54228571Y-86653571D01*
X54371428Y-86725000D01*
X54514285Y-86867857D01*
X54585714Y-87153571D01*
X54585714Y-87653571D01*
X54514285Y-87939285D01*
X54371428Y-88082142D01*
X54228571Y-88153571D01*
X53942857Y-88153571D01*
X53800000Y-88082142D01*
X53657142Y-87939285D01*
X53585714Y-87653571D01*
X53585714Y-87153571D01*
X53657142Y-86867857D01*
X53800000Y-86725000D01*
X53942857Y-86653571D01*
X56371428Y-88153571D02*
X56371428Y-86653571D01*
X57228571Y-88153571D01*
X57228571Y-86653571D01*
X58228571Y-86653571D02*
X58514285Y-86653571D01*
X58657142Y-86725000D01*
X58800000Y-86867857D01*
X58871428Y-87153571D01*
X58871428Y-87653571D01*
X58800000Y-87939285D01*
X58657142Y-88082142D01*
X58514285Y-88153571D01*
X58228571Y-88153571D01*
X58085714Y-88082142D01*
X57942857Y-87939285D01*
X57871428Y-87653571D01*
X57871428Y-87153571D01*
X57942857Y-86867857D01*
X58085714Y-86725000D01*
X58228571Y-86653571D01*
X59300000Y-86653571D02*
X60157142Y-86653571D01*
X59728571Y-88153571D02*
X59728571Y-86653571D01*
X61585714Y-86653571D02*
X62442857Y-86653571D01*
X62014285Y-88153571D02*
X62014285Y-86653571D01*
X63228571Y-86653571D02*
X63514285Y-86653571D01*
X63657142Y-86725000D01*
X63800000Y-86867857D01*
X63871428Y-87153571D01*
X63871428Y-87653571D01*
X63800000Y-87939285D01*
X63657142Y-88082142D01*
X63514285Y-88153571D01*
X63228571Y-88153571D01*
X63085714Y-88082142D01*
X62942857Y-87939285D01*
X62871428Y-87653571D01*
X62871428Y-87153571D01*
X62942857Y-86867857D01*
X63085714Y-86725000D01*
X63228571Y-86653571D01*
X64514285Y-86653571D02*
X64514285Y-87867857D01*
X64585714Y-88010714D01*
X64657142Y-88082142D01*
X64800000Y-88153571D01*
X65085714Y-88153571D01*
X65228571Y-88082142D01*
X65300000Y-88010714D01*
X65371428Y-87867857D01*
X65371428Y-86653571D01*
X66942857Y-88010714D02*
X66871428Y-88082142D01*
X66657142Y-88153571D01*
X66514285Y-88153571D01*
X66300000Y-88082142D01*
X66157142Y-87939285D01*
X66085714Y-87796428D01*
X66014285Y-87510714D01*
X66014285Y-87296428D01*
X66085714Y-87010714D01*
X66157142Y-86867857D01*
X66300000Y-86725000D01*
X66514285Y-86653571D01*
X66657142Y-86653571D01*
X66871428Y-86725000D01*
X66942857Y-86796428D01*
X67585714Y-88153571D02*
X67585714Y-86653571D01*
X67585714Y-87367857D02*
X68442857Y-87367857D01*
X68442857Y-88153571D02*
X68442857Y-86653571D01*
X55821428Y-98092857D02*
X57321428Y-98092857D01*
X55821428Y-98950000D01*
X57321428Y-98950000D01*
X56392857Y-99664285D02*
X56392857Y-100807142D01*
X55821428Y-101521428D02*
X57321428Y-101521428D01*
X57321428Y-102092857D01*
X57250000Y-102235714D01*
X57178571Y-102307142D01*
X57035714Y-102378571D01*
X56821428Y-102378571D01*
X56678571Y-102307142D01*
X56607142Y-102235714D01*
X56535714Y-102092857D01*
X56535714Y-101521428D01*
X55821428Y-103807142D02*
X55821428Y-102950000D01*
X55821428Y-103378571D02*
X57321428Y-103378571D01*
X57107142Y-103235714D01*
X56964285Y-103092857D01*
X56892857Y-102950000D01*
X56392857Y-104450000D02*
X56392857Y-105592857D01*
X55821428Y-106307142D02*
X57321428Y-106307142D01*
X57321428Y-106878571D01*
X57250000Y-107021428D01*
X57178571Y-107092857D01*
X57035714Y-107164285D01*
X56821428Y-107164285D01*
X56678571Y-107092857D01*
X56607142Y-107021428D01*
X56535714Y-106878571D01*
X56535714Y-106307142D01*
X57178571Y-107735714D02*
X57250000Y-107807142D01*
X57321428Y-107950000D01*
X57321428Y-108307142D01*
X57250000Y-108450000D01*
X57178571Y-108521428D01*
X57035714Y-108592857D01*
X56892857Y-108592857D01*
X56678571Y-108521428D01*
X55821428Y-107664285D01*
X55821428Y-108592857D01*
X56392857Y-109235714D02*
X56392857Y-110378571D01*
X55821428Y-111092857D02*
X57321428Y-111092857D01*
X57321428Y-111664285D01*
X57250000Y-111807142D01*
X57178571Y-111878571D01*
X57035714Y-111950000D01*
X56821428Y-111950000D01*
X56678571Y-111878571D01*
X56607142Y-111807142D01*
X56535714Y-111664285D01*
X56535714Y-111092857D01*
X57321428Y-112450000D02*
X57321428Y-113378571D01*
X56750000Y-112878571D01*
X56750000Y-113092857D01*
X56678571Y-113235714D01*
X56607142Y-113307142D01*
X56464285Y-113378571D01*
X56107142Y-113378571D01*
X55964285Y-113307142D01*
X55892857Y-113235714D01*
X55821428Y-113092857D01*
X55821428Y-112664285D01*
X55892857Y-112521428D01*
X55964285Y-112450000D01*
D10*
X130061904Y-114190476D02*
X129261904Y-114190476D01*
X129261904Y-114000000D01*
X129300000Y-113885714D01*
X129376190Y-113809523D01*
X129452380Y-113771428D01*
X129604761Y-113733333D01*
X129719047Y-113733333D01*
X129871428Y-113771428D01*
X129947619Y-113809523D01*
X130023809Y-113885714D01*
X130061904Y-114000000D01*
X130061904Y-114190476D01*
X129261904Y-113238095D02*
X129261904Y-113161904D01*
X129300000Y-113085714D01*
X129338095Y-113047619D01*
X129414285Y-113009523D01*
X129566666Y-112971428D01*
X129757142Y-112971428D01*
X129909523Y-113009523D01*
X129985714Y-113047619D01*
X130023809Y-113085714D01*
X130061904Y-113161904D01*
X130061904Y-113238095D01*
X130023809Y-113314285D01*
X129985714Y-113352380D01*
X129909523Y-113390476D01*
X129757142Y-113428571D01*
X129566666Y-113428571D01*
X129414285Y-113390476D01*
X129338095Y-113352380D01*
X129300000Y-113314285D01*
X129261904Y-113238095D01*
X127561904Y-114190476D02*
X126761904Y-114190476D01*
X126761904Y-114000000D01*
X126800000Y-113885714D01*
X126876190Y-113809523D01*
X126952380Y-113771428D01*
X127104761Y-113733333D01*
X127219047Y-113733333D01*
X127371428Y-113771428D01*
X127447619Y-113809523D01*
X127523809Y-113885714D01*
X127561904Y-114000000D01*
X127561904Y-114190476D01*
X127028571Y-113047619D02*
X127561904Y-113047619D01*
X126723809Y-113238095D02*
X127295238Y-113428571D01*
X127295238Y-112933333D01*
X124961904Y-114190476D02*
X124161904Y-114190476D01*
X124161904Y-114000000D01*
X124200000Y-113885714D01*
X124276190Y-113809523D01*
X124352380Y-113771428D01*
X124504761Y-113733333D01*
X124619047Y-113733333D01*
X124771428Y-113771428D01*
X124847619Y-113809523D01*
X124923809Y-113885714D01*
X124961904Y-114000000D01*
X124961904Y-114190476D01*
X124161904Y-113466666D02*
X124161904Y-112971428D01*
X124466666Y-113238095D01*
X124466666Y-113123809D01*
X124504761Y-113047619D01*
X124542857Y-113009523D01*
X124619047Y-112971428D01*
X124809523Y-112971428D01*
X124885714Y-113009523D01*
X124923809Y-113047619D01*
X124961904Y-113123809D01*
X124961904Y-113352380D01*
X124923809Y-113428571D01*
X124885714Y-113466666D01*
X122423809Y-114171428D02*
X122461904Y-114057142D01*
X122461904Y-113866666D01*
X122423809Y-113790476D01*
X122385714Y-113752380D01*
X122309523Y-113714285D01*
X122233333Y-113714285D01*
X122157142Y-113752380D01*
X122119047Y-113790476D01*
X122080952Y-113866666D01*
X122042857Y-114019047D01*
X122004761Y-114095238D01*
X121966666Y-114133333D01*
X121890476Y-114171428D01*
X121814285Y-114171428D01*
X121738095Y-114133333D01*
X121700000Y-114095238D01*
X121661904Y-114019047D01*
X121661904Y-113828571D01*
X121700000Y-113714285D01*
X122461904Y-113371428D02*
X121661904Y-113371428D01*
X121661904Y-113180952D01*
X121700000Y-113066666D01*
X121776190Y-112990476D01*
X121852380Y-112952380D01*
X122004761Y-112914285D01*
X122119047Y-112914285D01*
X122271428Y-112952380D01*
X122347619Y-112990476D01*
X122423809Y-113066666D01*
X122461904Y-113180952D01*
X122461904Y-113371428D01*
X122233333Y-112609523D02*
X122233333Y-112228571D01*
X122461904Y-112685714D02*
X121661904Y-112419047D01*
X122461904Y-112152380D01*
X119923809Y-114252380D02*
X119961904Y-114138095D01*
X119961904Y-113947619D01*
X119923809Y-113871428D01*
X119885714Y-113833333D01*
X119809523Y-113795238D01*
X119733333Y-113795238D01*
X119657142Y-113833333D01*
X119619047Y-113871428D01*
X119580952Y-113947619D01*
X119542857Y-114100000D01*
X119504761Y-114176190D01*
X119466666Y-114214285D01*
X119390476Y-114252380D01*
X119314285Y-114252380D01*
X119238095Y-114214285D01*
X119200000Y-114176190D01*
X119161904Y-114100000D01*
X119161904Y-113909523D01*
X119200000Y-113795238D01*
X119885714Y-112995238D02*
X119923809Y-113033333D01*
X119961904Y-113147619D01*
X119961904Y-113223809D01*
X119923809Y-113338095D01*
X119847619Y-113414285D01*
X119771428Y-113452380D01*
X119619047Y-113490476D01*
X119504761Y-113490476D01*
X119352380Y-113452380D01*
X119276190Y-113414285D01*
X119200000Y-113338095D01*
X119161904Y-113223809D01*
X119161904Y-113147619D01*
X119200000Y-113033333D01*
X119238095Y-112995238D01*
X119961904Y-112271428D02*
X119961904Y-112652380D01*
X119161904Y-112652380D01*
X117361904Y-114190476D02*
X116561904Y-114190476D01*
X116561904Y-114000000D01*
X116600000Y-113885714D01*
X116676190Y-113809523D01*
X116752380Y-113771428D01*
X116904761Y-113733333D01*
X117019047Y-113733333D01*
X117171428Y-113771428D01*
X117247619Y-113809523D01*
X117323809Y-113885714D01*
X117361904Y-114000000D01*
X117361904Y-114190476D01*
X116904761Y-113276190D02*
X116866666Y-113352380D01*
X116828571Y-113390476D01*
X116752380Y-113428571D01*
X116714285Y-113428571D01*
X116638095Y-113390476D01*
X116600000Y-113352380D01*
X116561904Y-113276190D01*
X116561904Y-113123809D01*
X116600000Y-113047619D01*
X116638095Y-113009523D01*
X116714285Y-112971428D01*
X116752380Y-112971428D01*
X116828571Y-113009523D01*
X116866666Y-113047619D01*
X116904761Y-113123809D01*
X116904761Y-113276190D01*
X116942857Y-113352380D01*
X116980952Y-113390476D01*
X117057142Y-113428571D01*
X117209523Y-113428571D01*
X117285714Y-113390476D01*
X117323809Y-113352380D01*
X117361904Y-113276190D01*
X117361904Y-113123809D01*
X117323809Y-113047619D01*
X117285714Y-113009523D01*
X117209523Y-112971428D01*
X117057142Y-112971428D01*
X116980952Y-113009523D01*
X116942857Y-113047619D01*
X116904761Y-113123809D01*
D12*
X138990000Y-109205000D02*
G75*
G02*
X136860000Y-111335000I-2130000J0D01*
G01*
X136860000Y-85475000D02*
G75*
G02*
X138990000Y-87605000I0J-2130000D01*
G01*
X104530000Y-88015000D02*
X104530000Y-111335000D01*
X111430000Y-85475000D02*
X136860000Y-85475000D01*
X104530000Y-111335000D02*
X136860000Y-111335000D01*
X138990000Y-109215000D02*
X138990000Y-87605000D01*
D10*
G36*
X131285000Y-84435000D02*
G01*
X130015000Y-84435000D01*
X130650000Y-85070000D01*
X131285000Y-84435000D01*
G37*
X131285000Y-84435000D02*
X130015000Y-84435000D01*
X130650000Y-85070000D01*
X131285000Y-84435000D01*
D12*
X111430000Y-85475000D02*
X111430000Y-88015000D01*
X111430000Y-88015000D02*
X104530000Y-88015000D01*
X51605253Y-113571195D02*
G75*
G02*
X51460000Y-114284000I-1680253J-28805D01*
G01*
X50608042Y-115135426D02*
G75*
G02*
X49241000Y-115135000I-683042J1535426D01*
G01*
X48389574Y-114283042D02*
G75*
G02*
X48390000Y-112916000I1535426J683042D01*
G01*
X49241958Y-112064574D02*
G75*
G02*
X50609000Y-112065000I683042J-1535426D01*
G01*
X51459756Y-112916682D02*
G75*
G02*
X51605000Y-113600000I-1534756J-683318D01*
G01*
X51605000Y-108600000D02*
G75*
G03*
X51605000Y-108600000I-1680000J0D01*
G01*
X51605000Y-103600000D02*
G75*
G03*
X51605000Y-103600000I-1680000J0D01*
G01*
X51605000Y-98600000D02*
G75*
G03*
X51605000Y-98600000I-1680000J0D01*
G01*
X54025000Y-116160000D02*
X54025000Y-96039000D01*
X52525000Y-116160000D02*
X52525000Y-96039000D01*
X47624000Y-116160000D02*
X47624000Y-96039000D01*
X44664000Y-116160000D02*
X44664000Y-96039000D01*
X54585000Y-116160000D02*
X54585000Y-96039000D01*
X44664000Y-116160000D02*
X54585000Y-116160000D01*
X44664000Y-96039000D02*
X54585000Y-96039000D01*
X48856000Y-107325000D02*
X48902000Y-107372000D01*
X51164000Y-109634000D02*
X51199000Y-109669000D01*
X48650000Y-107530000D02*
X48686000Y-107565000D01*
X50948000Y-109827000D02*
X50994000Y-109874000D01*
X48856000Y-102325000D02*
X48902000Y-102372000D01*
X51164000Y-104634000D02*
X51199000Y-104669000D01*
X48650000Y-102530000D02*
X48686000Y-102565000D01*
X50948000Y-104827000D02*
X50994000Y-104874000D01*
X48856000Y-97325000D02*
X48902000Y-97372000D01*
X51164000Y-99634000D02*
X51199000Y-99669000D01*
X48650000Y-97530000D02*
X48686000Y-97565000D01*
X50948000Y-99827000D02*
X50994000Y-99874000D01*
X54085000Y-116400000D02*
X54825000Y-116400000D01*
X54825000Y-116400000D02*
X54825000Y-115900000D01*
X132070000Y-114910000D02*
X132070000Y-124810000D01*
X114530000Y-114910000D02*
X114530000Y-124810000D01*
X132070000Y-114910000D02*
X114530000Y-114910000D01*
X132070000Y-124810000D02*
X114530000Y-124810000D01*
X132310000Y-114670000D02*
X132310000Y-116054000D01*
X132310000Y-114670000D02*
X130927000Y-114670000D01*
X130285000Y-117830000D02*
X129015000Y-117830000D01*
X129015000Y-117830000D02*
X129015000Y-121890000D01*
X129015000Y-121890000D02*
X130285000Y-121890000D01*
X130285000Y-121890000D02*
X130285000Y-117830000D01*
X130165000Y-117830000D02*
X130165000Y-119183333D01*
X130045000Y-117830000D02*
X130045000Y-119183333D01*
X129925000Y-117830000D02*
X129925000Y-119183333D01*
X129805000Y-117830000D02*
X129805000Y-119183333D01*
X129685000Y-117830000D02*
X129685000Y-119183333D01*
X129565000Y-117830000D02*
X129565000Y-119183333D01*
X129445000Y-117830000D02*
X129445000Y-119183333D01*
X129325000Y-117830000D02*
X129325000Y-119183333D01*
X129205000Y-117830000D02*
X129205000Y-119183333D01*
X129085000Y-117830000D02*
X129085000Y-119183333D01*
X130285000Y-119183333D02*
X129015000Y-119183333D01*
X127745000Y-117830000D02*
X126475000Y-117830000D01*
X126475000Y-117830000D02*
X126475000Y-121890000D01*
X126475000Y-121890000D02*
X127745000Y-121890000D01*
X127745000Y-121890000D02*
X127745000Y-117830000D01*
X127625000Y-117830000D02*
X127625000Y-119183333D01*
X127505000Y-117830000D02*
X127505000Y-119183333D01*
X127385000Y-117830000D02*
X127385000Y-119183333D01*
X127265000Y-117830000D02*
X127265000Y-119183333D01*
X127145000Y-117830000D02*
X127145000Y-119183333D01*
X127025000Y-117830000D02*
X127025000Y-119183333D01*
X126905000Y-117830000D02*
X126905000Y-119183333D01*
X126785000Y-117830000D02*
X126785000Y-119183333D01*
X126665000Y-117830000D02*
X126665000Y-119183333D01*
X126545000Y-117830000D02*
X126545000Y-119183333D01*
X127745000Y-119183333D02*
X126475000Y-119183333D01*
X125205000Y-117830000D02*
X123935000Y-117830000D01*
X123935000Y-117830000D02*
X123935000Y-121890000D01*
X123935000Y-121890000D02*
X125205000Y-121890000D01*
X125205000Y-121890000D02*
X125205000Y-117830000D01*
X125085000Y-117830000D02*
X125085000Y-119183333D01*
X124965000Y-117830000D02*
X124965000Y-119183333D01*
X124845000Y-117830000D02*
X124845000Y-119183333D01*
X124725000Y-117830000D02*
X124725000Y-119183333D01*
X124605000Y-117830000D02*
X124605000Y-119183333D01*
X124485000Y-117830000D02*
X124485000Y-119183333D01*
X124365000Y-117830000D02*
X124365000Y-119183333D01*
X124245000Y-117830000D02*
X124245000Y-119183333D01*
X124125000Y-117830000D02*
X124125000Y-119183333D01*
X124005000Y-117830000D02*
X124005000Y-119183333D01*
X125205000Y-119183333D02*
X123935000Y-119183333D01*
X122665000Y-117830000D02*
X121395000Y-117830000D01*
X121395000Y-117830000D02*
X121395000Y-121890000D01*
X121395000Y-121890000D02*
X122665000Y-121890000D01*
X122665000Y-121890000D02*
X122665000Y-117830000D01*
X122545000Y-117830000D02*
X122545000Y-119183333D01*
X122425000Y-117830000D02*
X122425000Y-119183333D01*
X122305000Y-117830000D02*
X122305000Y-119183333D01*
X122185000Y-117830000D02*
X122185000Y-119183333D01*
X122065000Y-117830000D02*
X122065000Y-119183333D01*
X121945000Y-117830000D02*
X121945000Y-119183333D01*
X121825000Y-117830000D02*
X121825000Y-119183333D01*
X121705000Y-117830000D02*
X121705000Y-119183333D01*
X121585000Y-117830000D02*
X121585000Y-119183333D01*
X121465000Y-117830000D02*
X121465000Y-119183333D01*
X122665000Y-119183333D02*
X121395000Y-119183333D01*
X120125000Y-117830000D02*
X118855000Y-117830000D01*
X118855000Y-117830000D02*
X118855000Y-121890000D01*
X118855000Y-121890000D02*
X120125000Y-121890000D01*
X120125000Y-121890000D02*
X120125000Y-117830000D01*
X120005000Y-117830000D02*
X120005000Y-119183333D01*
X119885000Y-117830000D02*
X119885000Y-119183333D01*
X119765000Y-117830000D02*
X119765000Y-119183333D01*
X119645000Y-117830000D02*
X119645000Y-119183333D01*
X119525000Y-117830000D02*
X119525000Y-119183333D01*
X119405000Y-117830000D02*
X119405000Y-119183333D01*
X119285000Y-117830000D02*
X119285000Y-119183333D01*
X119165000Y-117830000D02*
X119165000Y-119183333D01*
X119045000Y-117830000D02*
X119045000Y-119183333D01*
X118925000Y-117830000D02*
X118925000Y-119183333D01*
X120125000Y-119183333D02*
X118855000Y-119183333D01*
X117585000Y-117830000D02*
X116315000Y-117830000D01*
X116315000Y-117830000D02*
X116315000Y-121890000D01*
X116315000Y-121890000D02*
X117585000Y-121890000D01*
X117585000Y-121890000D02*
X117585000Y-117830000D01*
X117465000Y-117830000D02*
X117465000Y-119183333D01*
X117345000Y-117830000D02*
X117345000Y-119183333D01*
X117225000Y-117830000D02*
X117225000Y-119183333D01*
X117105000Y-117830000D02*
X117105000Y-119183333D01*
X116985000Y-117830000D02*
X116985000Y-119183333D01*
X116865000Y-117830000D02*
X116865000Y-119183333D01*
X116745000Y-117830000D02*
X116745000Y-119183333D01*
X116625000Y-117830000D02*
X116625000Y-119183333D01*
X116505000Y-117830000D02*
X116505000Y-119183333D01*
X116385000Y-117830000D02*
X116385000Y-119183333D01*
X117585000Y-119183333D02*
X116315000Y-119183333D01*
D10*
X74025000Y-113000000D02*
X74025000Y-106000000D01*
X70025000Y-113000000D02*
X70025000Y-106000000D01*
X70025000Y-106000000D02*
X74025000Y-106000000D01*
X70025000Y-113000000D02*
X74025000Y-113000000D01*
D12*
X118855000Y-78035000D02*
X124055000Y-78035000D01*
X118855000Y-65275000D02*
X118855000Y-78035000D01*
X124055000Y-62675000D02*
X124055000Y-78035000D01*
X118855000Y-65275000D02*
X121455000Y-65275000D01*
X121455000Y-65275000D02*
X121455000Y-62675000D01*
X121455000Y-62675000D02*
X124055000Y-62675000D01*
X118855000Y-64005000D02*
X118855000Y-62675000D01*
X118855000Y-62675000D02*
X120185000Y-62675000D01*
X67455000Y-97450000D02*
X64795000Y-97450000D01*
X67455000Y-105130000D02*
X67455000Y-97450000D01*
X64795000Y-105130000D02*
X64795000Y-97450000D01*
X67455000Y-105130000D02*
X64795000Y-105130000D01*
X67455000Y-106400000D02*
X67455000Y-107730000D01*
X67455000Y-107730000D02*
X66125000Y-107730000D01*
X97250000Y-103390000D02*
X96460000Y-103390000D01*
X97890000Y-103210000D02*
X98110000Y-103210000D01*
X97890000Y-100990000D02*
X98110000Y-100990000D01*
X96460000Y-102600000D02*
X96460000Y-103390000D01*
D10*
X91755000Y-88820000D02*
X91755000Y-89245000D01*
X99005000Y-88820000D02*
X99005000Y-89345000D01*
X99005000Y-96070000D02*
X99005000Y-95545000D01*
X91755000Y-96070000D02*
X91755000Y-95545000D01*
X91755000Y-88820000D02*
X92280000Y-88820000D01*
X91755000Y-96070000D02*
X92280000Y-96070000D01*
X99005000Y-96070000D02*
X98480000Y-96070000D01*
X99005000Y-88820000D02*
X98480000Y-88820000D01*
X91755000Y-89245000D02*
X90380000Y-89245000D01*
X74025000Y-89600000D02*
X74025000Y-82600000D01*
X70025000Y-89600000D02*
X70025000Y-82600000D01*
X70025000Y-82600000D02*
X74025000Y-82600000D01*
X70025000Y-89600000D02*
X74025000Y-89600000D01*
X74025000Y-97400000D02*
X74025000Y-90400000D01*
X70025000Y-97400000D02*
X70025000Y-90400000D01*
X70025000Y-90400000D02*
X74025000Y-90400000D01*
X70025000Y-97400000D02*
X74025000Y-97400000D01*
X74025000Y-105200000D02*
X74025000Y-98200000D01*
X70025000Y-105200000D02*
X70025000Y-98200000D01*
X70025000Y-98200000D02*
X74025000Y-98200000D01*
X70025000Y-105200000D02*
X74025000Y-105200000D01*
D12*
X89965000Y-105727064D02*
X89965000Y-105272936D01*
X91435000Y-105727064D02*
X91435000Y-105272936D01*
X92065000Y-105727064D02*
X92065000Y-105272936D01*
X93535000Y-105727064D02*
X93535000Y-105272936D01*
X94165000Y-105727064D02*
X94165000Y-105272936D01*
X95635000Y-105727064D02*
X95635000Y-105272936D01*
X72622936Y-76915000D02*
X73077064Y-76915000D01*
X72622936Y-78385000D02*
X73077064Y-78385000D01*
X72622936Y-72915000D02*
X73077064Y-72915000D01*
X72622936Y-74385000D02*
X73077064Y-74385000D01*
X72622936Y-68715000D02*
X73077064Y-68715000D01*
X72622936Y-70185000D02*
X73077064Y-70185000D01*
X68422936Y-76915000D02*
X68877064Y-76915000D01*
X68422936Y-78385000D02*
X68877064Y-78385000D01*
X68422936Y-72915000D02*
X68877064Y-72915000D01*
X68422936Y-74385000D02*
X68877064Y-74385000D01*
X68422936Y-68715000D02*
X68877064Y-68715000D01*
X68422936Y-70185000D02*
X68877064Y-70185000D01*
X64222936Y-76915000D02*
X64677064Y-76915000D01*
X64222936Y-78385000D02*
X64677064Y-78385000D01*
X64222936Y-72915000D02*
X64677064Y-72915000D01*
X64222936Y-74385000D02*
X64677064Y-74385000D01*
X64222936Y-68715000D02*
X64677064Y-68715000D01*
X64222936Y-70185000D02*
X64677064Y-70185000D01*
X60022936Y-76915000D02*
X60477064Y-76915000D01*
X60022936Y-78385000D02*
X60477064Y-78385000D01*
X60022936Y-72915000D02*
X60477064Y-72915000D01*
X60022936Y-74385000D02*
X60477064Y-74385000D01*
X60022936Y-68715000D02*
X60477064Y-68715000D01*
X60022936Y-70185000D02*
X60477064Y-70185000D01*
X55822936Y-76915000D02*
X56277064Y-76915000D01*
X55822936Y-78385000D02*
X56277064Y-78385000D01*
X55822936Y-72915000D02*
X56277064Y-72915000D01*
X55822936Y-74385000D02*
X56277064Y-74385000D01*
X55822936Y-68715000D02*
X56277064Y-68715000D01*
X55822936Y-70185000D02*
X56277064Y-70185000D01*
X51622936Y-76915000D02*
X52077064Y-76915000D01*
X51622936Y-78385000D02*
X52077064Y-78385000D01*
X51622936Y-72915000D02*
X52077064Y-72915000D01*
X51622936Y-74385000D02*
X52077064Y-74385000D01*
X51622936Y-68715000D02*
X52077064Y-68715000D01*
X51622936Y-70185000D02*
X52077064Y-70185000D01*
X106835000Y-73572936D02*
X106835000Y-74027064D01*
X105365000Y-73572936D02*
X105365000Y-74027064D01*
X111990000Y-74027064D02*
X111990000Y-73572936D01*
X113460000Y-74027064D02*
X113460000Y-73572936D01*
X95160000Y-73772936D02*
X95160000Y-74227064D01*
X93690000Y-73772936D02*
X93690000Y-74227064D01*
X100390000Y-74227064D02*
X100390000Y-73772936D01*
X101860000Y-74227064D02*
X101860000Y-73772936D01*
X83260000Y-73772936D02*
X83260000Y-74227064D01*
X81790000Y-73772936D02*
X81790000Y-74227064D01*
X88790000Y-74227064D02*
X88790000Y-73772936D01*
X90260000Y-74227064D02*
X90260000Y-73772936D01*
X107490000Y-74027064D02*
X107490000Y-73572936D01*
X108960000Y-74027064D02*
X108960000Y-73572936D01*
X111260000Y-73572936D02*
X111260000Y-74027064D01*
X109790000Y-73572936D02*
X109790000Y-74027064D01*
X95890000Y-74227064D02*
X95890000Y-73772936D01*
X97360000Y-74227064D02*
X97360000Y-73772936D01*
X99660000Y-73772936D02*
X99660000Y-74227064D01*
X98190000Y-73772936D02*
X98190000Y-74227064D01*
X83990000Y-74227064D02*
X83990000Y-73772936D01*
X85460000Y-74227064D02*
X85460000Y-73772936D01*
X87860000Y-73772936D02*
X87860000Y-74227064D01*
X86390000Y-73772936D02*
X86390000Y-74227064D01*
X73230000Y-137420000D02*
X73230000Y-114980000D01*
X107170000Y-114980000D02*
X107170000Y-137420000D01*
X73230000Y-114980000D02*
X107170000Y-114980000D01*
X73230000Y-137420000D02*
X107170000Y-137420000D01*
X74200000Y-114650000D02*
X80200000Y-114650000D01*
X64820000Y-124400000D02*
G75*
G03*
X64820000Y-124400000I-6120000J0D01*
G01*
X106425000Y-56100000D02*
X106425000Y-54900000D01*
X106425000Y-54900000D02*
X106925000Y-54900000D01*
X106925000Y-54900000D02*
X106925000Y-52400000D01*
X106925000Y-52400000D02*
X112125000Y-52400000D01*
X112125000Y-52400000D02*
X112125000Y-54900000D01*
X112125000Y-54900000D02*
X112625000Y-54900000D01*
X112625000Y-54900000D02*
X112625000Y-58100000D01*
X112625000Y-60700000D02*
X112625000Y-69600000D01*
X112625000Y-69600000D02*
X106425000Y-69600000D01*
X106425000Y-69600000D02*
X106425000Y-68400000D01*
X106425000Y-65200000D02*
X106425000Y-58700000D01*
X106425000Y-56100000D02*
X104425000Y-56100000D01*
X106425000Y-58700000D02*
X104425000Y-58700000D01*
X94855000Y-56120000D02*
X94855000Y-54920000D01*
X94855000Y-54920000D02*
X95355000Y-54920000D01*
X95355000Y-54920000D02*
X95355000Y-52420000D01*
X95355000Y-52420000D02*
X100555000Y-52420000D01*
X100555000Y-52420000D02*
X100555000Y-54920000D01*
X100555000Y-54920000D02*
X101055000Y-54920000D01*
X101055000Y-54920000D02*
X101055000Y-58120000D01*
X101055000Y-60720000D02*
X101055000Y-69620000D01*
X101055000Y-69620000D02*
X94855000Y-69620000D01*
X94855000Y-69620000D02*
X94855000Y-68420000D01*
X94855000Y-65220000D02*
X94855000Y-58720000D01*
X94855000Y-56120000D02*
X92855000Y-56120000D01*
X94855000Y-58720000D02*
X92855000Y-58720000D01*
X83305000Y-56120000D02*
X83305000Y-54920000D01*
X83305000Y-54920000D02*
X83805000Y-54920000D01*
X83805000Y-54920000D02*
X83805000Y-52420000D01*
X83805000Y-52420000D02*
X89005000Y-52420000D01*
X89005000Y-52420000D02*
X89005000Y-54920000D01*
X89005000Y-54920000D02*
X89505000Y-54920000D01*
X89505000Y-54920000D02*
X89505000Y-58120000D01*
X89505000Y-60720000D02*
X89505000Y-69620000D01*
X89505000Y-69620000D02*
X83305000Y-69620000D01*
X83305000Y-69620000D02*
X83305000Y-68420000D01*
X83305000Y-65220000D02*
X83305000Y-58720000D01*
X83305000Y-56120000D02*
X81305000Y-56120000D01*
X83305000Y-58720000D02*
X81305000Y-58720000D01*
X60927064Y-98310000D02*
X59722936Y-98310000D01*
X60927064Y-96490000D02*
X59722936Y-96490000D01*
X61039564Y-103110000D02*
X59835436Y-103110000D01*
X61039564Y-101290000D02*
X59835436Y-101290000D01*
X61127064Y-107910000D02*
X59922936Y-107910000D01*
X61127064Y-106090000D02*
X59922936Y-106090000D01*
X61127064Y-112710000D02*
X59922936Y-112710000D01*
X61127064Y-110890000D02*
X59922936Y-110890000D01*
X85911252Y-93035000D02*
X85388748Y-93035000D01*
X85911252Y-91565000D02*
X85388748Y-91565000D01*
X104588748Y-87840000D02*
X105111252Y-87840000D01*
X104588748Y-89310000D02*
X105111252Y-89310000D01*
X85990580Y-90485000D02*
X85709420Y-90485000D01*
X85990580Y-89465000D02*
X85709420Y-89465000D01*
X104509420Y-90065000D02*
X104790580Y-90065000D01*
X104509420Y-91085000D02*
X104790580Y-91085000D01*
X95115000Y-83236252D02*
X95115000Y-82713748D01*
X96585000Y-83236252D02*
X96585000Y-82713748D01*
X92915000Y-83236252D02*
X92915000Y-82713748D01*
X94385000Y-83236252D02*
X94385000Y-82713748D01*
X85911252Y-95510000D02*
X85388748Y-95510000D01*
X85911252Y-94040000D02*
X85388748Y-94040000D01*
X90190000Y-102140580D02*
X90190000Y-101859420D01*
X91210000Y-102140580D02*
X91210000Y-101859420D01*
X92340000Y-102140580D02*
X92340000Y-101859420D01*
X93360000Y-102140580D02*
X93360000Y-101859420D01*
X72940580Y-80110000D02*
X72659420Y-80110000D01*
X72940580Y-79090000D02*
X72659420Y-79090000D01*
X72940580Y-76160000D02*
X72659420Y-76160000D01*
X72940580Y-75140000D02*
X72659420Y-75140000D01*
X119220000Y-131800000D02*
G75*
G03*
X119220000Y-131800000I-5120000J0D01*
G01*
X109020000Y-131800000D02*
X119180000Y-131800000D01*
X109020000Y-131760000D02*
X119180000Y-131760000D01*
X109020000Y-131720000D02*
X119180000Y-131720000D01*
X109021000Y-131680000D02*
X119179000Y-131680000D01*
X109022000Y-131640000D02*
X119178000Y-131640000D01*
X109023000Y-131600000D02*
X119177000Y-131600000D01*
X109025000Y-131560000D02*
X119175000Y-131560000D01*
X109027000Y-131520000D02*
X119173000Y-131520000D01*
X109030000Y-131480000D02*
X119170000Y-131480000D01*
X109032000Y-131440000D02*
X119168000Y-131440000D01*
X109035000Y-131400000D02*
X119165000Y-131400000D01*
X109038000Y-131360000D02*
X119162000Y-131360000D01*
X109042000Y-131320000D02*
X119158000Y-131320000D01*
X109046000Y-131280000D02*
X119154000Y-131280000D01*
X109050000Y-131240000D02*
X119150000Y-131240000D01*
X109055000Y-131200000D02*
X119145000Y-131200000D01*
X109060000Y-131160000D02*
X119140000Y-131160000D01*
X109065000Y-131120000D02*
X119135000Y-131120000D01*
X109070000Y-131079000D02*
X119130000Y-131079000D01*
X109076000Y-131039000D02*
X119124000Y-131039000D01*
X109082000Y-130999000D02*
X119118000Y-130999000D01*
X109089000Y-130959000D02*
X119111000Y-130959000D01*
X109096000Y-130919000D02*
X119104000Y-130919000D01*
X109103000Y-130879000D02*
X119097000Y-130879000D01*
X109110000Y-130839000D02*
X119090000Y-130839000D01*
X109118000Y-130799000D02*
X119082000Y-130799000D01*
X109126000Y-130759000D02*
X119074000Y-130759000D01*
X109135000Y-130719000D02*
X119065000Y-130719000D01*
X109144000Y-130679000D02*
X119056000Y-130679000D01*
X109153000Y-130639000D02*
X119047000Y-130639000D01*
X109162000Y-130599000D02*
X119038000Y-130599000D01*
X109172000Y-130559000D02*
X119028000Y-130559000D01*
X109182000Y-130519000D02*
X112859000Y-130519000D01*
X115341000Y-130519000D02*
X119018000Y-130519000D01*
X109193000Y-130479000D02*
X112859000Y-130479000D01*
X115341000Y-130479000D02*
X119007000Y-130479000D01*
X109203000Y-130439000D02*
X112859000Y-130439000D01*
X115341000Y-130439000D02*
X118997000Y-130439000D01*
X109215000Y-130399000D02*
X112859000Y-130399000D01*
X115341000Y-130399000D02*
X118985000Y-130399000D01*
X109226000Y-130359000D02*
X112859000Y-130359000D01*
X115341000Y-130359000D02*
X118974000Y-130359000D01*
X109238000Y-130319000D02*
X112859000Y-130319000D01*
X115341000Y-130319000D02*
X118962000Y-130319000D01*
X109250000Y-130279000D02*
X112859000Y-130279000D01*
X115341000Y-130279000D02*
X118950000Y-130279000D01*
X109263000Y-130239000D02*
X112859000Y-130239000D01*
X115341000Y-130239000D02*
X118937000Y-130239000D01*
X109276000Y-130199000D02*
X112859000Y-130199000D01*
X115341000Y-130199000D02*
X118924000Y-130199000D01*
X109289000Y-130159000D02*
X112859000Y-130159000D01*
X115341000Y-130159000D02*
X118911000Y-130159000D01*
X109303000Y-130119000D02*
X112859000Y-130119000D01*
X115341000Y-130119000D02*
X118897000Y-130119000D01*
X109317000Y-130079000D02*
X112859000Y-130079000D01*
X115341000Y-130079000D02*
X118883000Y-130079000D01*
X109332000Y-130039000D02*
X112859000Y-130039000D01*
X115341000Y-130039000D02*
X118868000Y-130039000D01*
X109346000Y-129999000D02*
X112859000Y-129999000D01*
X115341000Y-129999000D02*
X118854000Y-129999000D01*
X109362000Y-129959000D02*
X112859000Y-129959000D01*
X115341000Y-129959000D02*
X118838000Y-129959000D01*
X109377000Y-129919000D02*
X112859000Y-129919000D01*
X115341000Y-129919000D02*
X118823000Y-129919000D01*
X109393000Y-129879000D02*
X112859000Y-129879000D01*
X115341000Y-129879000D02*
X118807000Y-129879000D01*
X109410000Y-129839000D02*
X112859000Y-129839000D01*
X115341000Y-129839000D02*
X118790000Y-129839000D01*
X109426000Y-129799000D02*
X112859000Y-129799000D01*
X115341000Y-129799000D02*
X118774000Y-129799000D01*
X109443000Y-129759000D02*
X112859000Y-129759000D01*
X115341000Y-129759000D02*
X118757000Y-129759000D01*
X109461000Y-129719000D02*
X112859000Y-129719000D01*
X115341000Y-129719000D02*
X118739000Y-129719000D01*
X109479000Y-129679000D02*
X112859000Y-129679000D01*
X115341000Y-129679000D02*
X118721000Y-129679000D01*
X109497000Y-129639000D02*
X112859000Y-129639000D01*
X115341000Y-129639000D02*
X118703000Y-129639000D01*
X109516000Y-129599000D02*
X112859000Y-129599000D01*
X115341000Y-129599000D02*
X118684000Y-129599000D01*
X109536000Y-129559000D02*
X112859000Y-129559000D01*
X115341000Y-129559000D02*
X118664000Y-129559000D01*
X109555000Y-129519000D02*
X112859000Y-129519000D01*
X115341000Y-129519000D02*
X118645000Y-129519000D01*
X109575000Y-129479000D02*
X112859000Y-129479000D01*
X115341000Y-129479000D02*
X118625000Y-129479000D01*
X109596000Y-129439000D02*
X112859000Y-129439000D01*
X115341000Y-129439000D02*
X118604000Y-129439000D01*
X109617000Y-129399000D02*
X112859000Y-129399000D01*
X115341000Y-129399000D02*
X118583000Y-129399000D01*
X109638000Y-129359000D02*
X112859000Y-129359000D01*
X115341000Y-129359000D02*
X118562000Y-129359000D01*
X109660000Y-129319000D02*
X112859000Y-129319000D01*
X115341000Y-129319000D02*
X118540000Y-129319000D01*
X109683000Y-129279000D02*
X112859000Y-129279000D01*
X115341000Y-129279000D02*
X118517000Y-129279000D01*
X109705000Y-129239000D02*
X112859000Y-129239000D01*
X115341000Y-129239000D02*
X118495000Y-129239000D01*
X109729000Y-129199000D02*
X112859000Y-129199000D01*
X115341000Y-129199000D02*
X118471000Y-129199000D01*
X109753000Y-129159000D02*
X112859000Y-129159000D01*
X115341000Y-129159000D02*
X118447000Y-129159000D01*
X109777000Y-129119000D02*
X112859000Y-129119000D01*
X115341000Y-129119000D02*
X118423000Y-129119000D01*
X109802000Y-129079000D02*
X112859000Y-129079000D01*
X115341000Y-129079000D02*
X118398000Y-129079000D01*
X109827000Y-129039000D02*
X112859000Y-129039000D01*
X115341000Y-129039000D02*
X118373000Y-129039000D01*
X109853000Y-128999000D02*
X112859000Y-128999000D01*
X115341000Y-128999000D02*
X118347000Y-128999000D01*
X109879000Y-128959000D02*
X112859000Y-128959000D01*
X115341000Y-128959000D02*
X118321000Y-128959000D01*
X109906000Y-128919000D02*
X112859000Y-128919000D01*
X115341000Y-128919000D02*
X118294000Y-128919000D01*
X109934000Y-128879000D02*
X112859000Y-128879000D01*
X115341000Y-128879000D02*
X118266000Y-128879000D01*
X109962000Y-128839000D02*
X112859000Y-128839000D01*
X115341000Y-128839000D02*
X118238000Y-128839000D01*
X109990000Y-128799000D02*
X112859000Y-128799000D01*
X115341000Y-128799000D02*
X118210000Y-128799000D01*
X110020000Y-128759000D02*
X112859000Y-128759000D01*
X115341000Y-128759000D02*
X118180000Y-128759000D01*
X110050000Y-128719000D02*
X112859000Y-128719000D01*
X115341000Y-128719000D02*
X118150000Y-128719000D01*
X110080000Y-128679000D02*
X112859000Y-128679000D01*
X115341000Y-128679000D02*
X118120000Y-128679000D01*
X110111000Y-128639000D02*
X112859000Y-128639000D01*
X115341000Y-128639000D02*
X118089000Y-128639000D01*
X110143000Y-128599000D02*
X112859000Y-128599000D01*
X115341000Y-128599000D02*
X118057000Y-128599000D01*
X110175000Y-128559000D02*
X112859000Y-128559000D01*
X115341000Y-128559000D02*
X118025000Y-128559000D01*
X110208000Y-128519000D02*
X112859000Y-128519000D01*
X115341000Y-128519000D02*
X117992000Y-128519000D01*
X110242000Y-128479000D02*
X112859000Y-128479000D01*
X115341000Y-128479000D02*
X117958000Y-128479000D01*
X110276000Y-128439000D02*
X112859000Y-128439000D01*
X115341000Y-128439000D02*
X117924000Y-128439000D01*
X110311000Y-128399000D02*
X112859000Y-128399000D01*
X115341000Y-128399000D02*
X117889000Y-128399000D01*
X110347000Y-128359000D02*
X112859000Y-128359000D01*
X115341000Y-128359000D02*
X117853000Y-128359000D01*
X110384000Y-128319000D02*
X112859000Y-128319000D01*
X115341000Y-128319000D02*
X117816000Y-128319000D01*
X110421000Y-128279000D02*
X112859000Y-128279000D01*
X115341000Y-128279000D02*
X117779000Y-128279000D01*
X110460000Y-128239000D02*
X112859000Y-128239000D01*
X115341000Y-128239000D02*
X117740000Y-128239000D01*
X110499000Y-128199000D02*
X112859000Y-128199000D01*
X115341000Y-128199000D02*
X117701000Y-128199000D01*
X110539000Y-128159000D02*
X112859000Y-128159000D01*
X115341000Y-128159000D02*
X117661000Y-128159000D01*
X110580000Y-128119000D02*
X112859000Y-128119000D01*
X115341000Y-128119000D02*
X117620000Y-128119000D01*
X110622000Y-128079000D02*
X112859000Y-128079000D01*
X115341000Y-128079000D02*
X117578000Y-128079000D01*
X110664000Y-128039000D02*
X117536000Y-128039000D01*
X110708000Y-127999000D02*
X117492000Y-127999000D01*
X110753000Y-127959000D02*
X117447000Y-127959000D01*
X110799000Y-127919000D02*
X117401000Y-127919000D01*
X110846000Y-127879000D02*
X117354000Y-127879000D01*
X110894000Y-127839000D02*
X117306000Y-127839000D01*
X110944000Y-127799000D02*
X117256000Y-127799000D01*
X110994000Y-127759000D02*
X117206000Y-127759000D01*
X111046000Y-127719000D02*
X117154000Y-127719000D01*
X111100000Y-127679000D02*
X117100000Y-127679000D01*
X111155000Y-127639000D02*
X117045000Y-127639000D01*
X111211000Y-127599000D02*
X116989000Y-127599000D01*
X111270000Y-127559000D02*
X116930000Y-127559000D01*
X111330000Y-127519000D02*
X116870000Y-127519000D01*
X111391000Y-127479000D02*
X116809000Y-127479000D01*
X111455000Y-127439000D02*
X116745000Y-127439000D01*
X111521000Y-127399000D02*
X116679000Y-127399000D01*
X111590000Y-127359000D02*
X116610000Y-127359000D01*
X111661000Y-127319000D02*
X116539000Y-127319000D01*
X111735000Y-127279000D02*
X116465000Y-127279000D01*
X111811000Y-127239000D02*
X116389000Y-127239000D01*
X111891000Y-127199000D02*
X116309000Y-127199000D01*
X111975000Y-127159000D02*
X116225000Y-127159000D01*
X112063000Y-127119000D02*
X116137000Y-127119000D01*
X112156000Y-127079000D02*
X116044000Y-127079000D01*
X112254000Y-127039000D02*
X115946000Y-127039000D01*
X112358000Y-126999000D02*
X115842000Y-126999000D01*
X112470000Y-126959000D02*
X115730000Y-126959000D01*
X112590000Y-126919000D02*
X115610000Y-126919000D01*
X112722000Y-126879000D02*
X115478000Y-126879000D01*
X112870000Y-126839000D02*
X115330000Y-126839000D01*
X113038000Y-126799000D02*
X115162000Y-126799000D01*
X113238000Y-126759000D02*
X114962000Y-126759000D01*
X113501000Y-126719000D02*
X114699000Y-126719000D01*
X111225000Y-137279646D02*
X111225000Y-136279646D01*
X110725000Y-136779646D02*
X111725000Y-136779646D01*
X94390000Y-102115580D02*
X94390000Y-101834420D01*
X95410000Y-102115580D02*
X95410000Y-101834420D01*
X72990580Y-71960000D02*
X72709420Y-71960000D01*
X72990580Y-70940000D02*
X72709420Y-70940000D01*
X67080000Y-130270000D02*
X67080000Y-116530000D01*
X71320000Y-130270000D02*
X71320000Y-116530000D01*
X67080000Y-130270000D02*
X71320000Y-130270000D01*
X67080000Y-116530000D02*
X71320000Y-116530000D01*
X106535000Y-77259420D02*
X106535000Y-77540580D01*
X105515000Y-77259420D02*
X105515000Y-77540580D01*
X112215000Y-77540580D02*
X112215000Y-77259420D01*
X113235000Y-77540580D02*
X113235000Y-77259420D01*
X94935000Y-77459420D02*
X94935000Y-77740580D01*
X93915000Y-77459420D02*
X93915000Y-77740580D01*
X100615000Y-77740580D02*
X100615000Y-77459420D01*
X101635000Y-77740580D02*
X101635000Y-77459420D01*
X83035000Y-77459420D02*
X83035000Y-77740580D01*
X82015000Y-77459420D02*
X82015000Y-77740580D01*
X89015000Y-77740580D02*
X89015000Y-77459420D01*
X90035000Y-77740580D02*
X90035000Y-77459420D01*
D10*
X103211904Y-109584523D02*
X103859523Y-109584523D01*
X103935714Y-109546428D01*
X103973809Y-109508333D01*
X104011904Y-109432142D01*
X104011904Y-109279761D01*
X103973809Y-109203571D01*
X103935714Y-109165476D01*
X103859523Y-109127380D01*
X103211904Y-109127380D01*
X103288095Y-108784523D02*
X103250000Y-108746428D01*
X103211904Y-108670238D01*
X103211904Y-108479761D01*
X103250000Y-108403571D01*
X103288095Y-108365476D01*
X103364285Y-108327380D01*
X103440476Y-108327380D01*
X103554761Y-108365476D01*
X104011904Y-108822619D01*
X104011904Y-108327380D01*
X54333333Y-117061904D02*
X54333333Y-117633333D01*
X54295238Y-117747619D01*
X54219047Y-117823809D01*
X54104761Y-117861904D01*
X54028571Y-117861904D01*
X55133333Y-117861904D02*
X54676190Y-117861904D01*
X54904761Y-117861904D02*
X54904761Y-117061904D01*
X54828571Y-117176190D01*
X54752380Y-117252380D01*
X54676190Y-117290476D01*
X113823809Y-124766666D02*
X113861904Y-124652380D01*
X113861904Y-124461904D01*
X113823809Y-124385714D01*
X113785714Y-124347619D01*
X113709523Y-124309523D01*
X113633333Y-124309523D01*
X113557142Y-124347619D01*
X113519047Y-124385714D01*
X113480952Y-124461904D01*
X113442857Y-124614285D01*
X113404761Y-124690476D01*
X113366666Y-124728571D01*
X113290476Y-124766666D01*
X113214285Y-124766666D01*
X113138095Y-124728571D01*
X113100000Y-124690476D01*
X113061904Y-124614285D01*
X113061904Y-124423809D01*
X113100000Y-124309523D01*
X113061904Y-124042857D02*
X113861904Y-123852380D01*
X113290476Y-123700000D01*
X113861904Y-123547619D01*
X113061904Y-123357142D01*
X113861904Y-122633333D02*
X113861904Y-123090476D01*
X113861904Y-122861904D02*
X113061904Y-122861904D01*
X113176190Y-122938095D01*
X113252380Y-123014285D01*
X113290476Y-123090476D01*
X75386904Y-109976190D02*
X75005952Y-110242857D01*
X75386904Y-110433333D02*
X74586904Y-110433333D01*
X74586904Y-110128571D01*
X74625000Y-110052380D01*
X74663095Y-110014285D01*
X74739285Y-109976190D01*
X74853571Y-109976190D01*
X74929761Y-110014285D01*
X74967857Y-110052380D01*
X75005952Y-110128571D01*
X75005952Y-110433333D01*
X74586904Y-109747619D02*
X75386904Y-109480952D01*
X74586904Y-109214285D01*
X74853571Y-108604761D02*
X75386904Y-108604761D01*
X74548809Y-108795238D02*
X75120238Y-108985714D01*
X75120238Y-108490476D01*
X119133333Y-61561904D02*
X119133333Y-62133333D01*
X119095238Y-62247619D01*
X119019047Y-62323809D01*
X118904761Y-62361904D01*
X118828571Y-62361904D01*
X119857142Y-61561904D02*
X119704761Y-61561904D01*
X119628571Y-61600000D01*
X119590476Y-61638095D01*
X119514285Y-61752380D01*
X119476190Y-61904761D01*
X119476190Y-62209523D01*
X119514285Y-62285714D01*
X119552380Y-62323809D01*
X119628571Y-62361904D01*
X119780952Y-62361904D01*
X119857142Y-62323809D01*
X119895238Y-62285714D01*
X119933333Y-62209523D01*
X119933333Y-62019047D01*
X119895238Y-61942857D01*
X119857142Y-61904761D01*
X119780952Y-61866666D01*
X119628571Y-61866666D01*
X119552380Y-61904761D01*
X119514285Y-61942857D01*
X119476190Y-62019047D01*
X65858333Y-108291904D02*
X65858333Y-108863333D01*
X65820238Y-108977619D01*
X65744047Y-109053809D01*
X65629761Y-109091904D01*
X65553571Y-109091904D01*
X66620238Y-108291904D02*
X66239285Y-108291904D01*
X66201190Y-108672857D01*
X66239285Y-108634761D01*
X66315476Y-108596666D01*
X66505952Y-108596666D01*
X66582142Y-108634761D01*
X66620238Y-108672857D01*
X66658333Y-108749047D01*
X66658333Y-108939523D01*
X66620238Y-109015714D01*
X66582142Y-109053809D01*
X66505952Y-109091904D01*
X66315476Y-109091904D01*
X66239285Y-109053809D01*
X66201190Y-109015714D01*
X100080952Y-102280952D02*
X100461904Y-102280952D01*
X99661904Y-102547619D02*
X100080952Y-102280952D01*
X99661904Y-102014285D01*
X100461904Y-101328571D02*
X100461904Y-101785714D01*
X100461904Y-101557142D02*
X99661904Y-101557142D01*
X99776190Y-101633333D01*
X99852380Y-101709523D01*
X99890476Y-101785714D01*
X90390476Y-87861904D02*
X90390476Y-88509523D01*
X90428571Y-88585714D01*
X90466666Y-88623809D01*
X90542857Y-88661904D01*
X90695238Y-88661904D01*
X90771428Y-88623809D01*
X90809523Y-88585714D01*
X90847619Y-88509523D01*
X90847619Y-87861904D01*
X91647619Y-88661904D02*
X91190476Y-88661904D01*
X91419047Y-88661904D02*
X91419047Y-87861904D01*
X91342857Y-87976190D01*
X91266666Y-88052380D01*
X91190476Y-88090476D01*
X75386904Y-86576190D02*
X75005952Y-86842857D01*
X75386904Y-87033333D02*
X74586904Y-87033333D01*
X74586904Y-86728571D01*
X74625000Y-86652380D01*
X74663095Y-86614285D01*
X74739285Y-86576190D01*
X74853571Y-86576190D01*
X74929761Y-86614285D01*
X74967857Y-86652380D01*
X75005952Y-86728571D01*
X75005952Y-87033333D01*
X74586904Y-86347619D02*
X75386904Y-86080952D01*
X74586904Y-85814285D01*
X74586904Y-85623809D02*
X74586904Y-85128571D01*
X74891666Y-85395238D01*
X74891666Y-85280952D01*
X74929761Y-85204761D01*
X74967857Y-85166666D01*
X75044047Y-85128571D01*
X75234523Y-85128571D01*
X75310714Y-85166666D01*
X75348809Y-85204761D01*
X75386904Y-85280952D01*
X75386904Y-85509523D01*
X75348809Y-85585714D01*
X75310714Y-85623809D01*
X75386904Y-94376190D02*
X75005952Y-94642857D01*
X75386904Y-94833333D02*
X74586904Y-94833333D01*
X74586904Y-94528571D01*
X74625000Y-94452380D01*
X74663095Y-94414285D01*
X74739285Y-94376190D01*
X74853571Y-94376190D01*
X74929761Y-94414285D01*
X74967857Y-94452380D01*
X75005952Y-94528571D01*
X75005952Y-94833333D01*
X74586904Y-94147619D02*
X75386904Y-93880952D01*
X74586904Y-93614285D01*
X74663095Y-93385714D02*
X74625000Y-93347619D01*
X74586904Y-93271428D01*
X74586904Y-93080952D01*
X74625000Y-93004761D01*
X74663095Y-92966666D01*
X74739285Y-92928571D01*
X74815476Y-92928571D01*
X74929761Y-92966666D01*
X75386904Y-93423809D01*
X75386904Y-92928571D01*
X75386904Y-102176190D02*
X75005952Y-102442857D01*
X75386904Y-102633333D02*
X74586904Y-102633333D01*
X74586904Y-102328571D01*
X74625000Y-102252380D01*
X74663095Y-102214285D01*
X74739285Y-102176190D01*
X74853571Y-102176190D01*
X74929761Y-102214285D01*
X74967857Y-102252380D01*
X75005952Y-102328571D01*
X75005952Y-102633333D01*
X74586904Y-101947619D02*
X75386904Y-101680952D01*
X74586904Y-101414285D01*
X75386904Y-100728571D02*
X75386904Y-101185714D01*
X75386904Y-100957142D02*
X74586904Y-100957142D01*
X74701190Y-101033333D01*
X74777380Y-101109523D01*
X74815476Y-101185714D01*
X91261904Y-110114285D02*
X90880952Y-110380952D01*
X91261904Y-110571428D02*
X90461904Y-110571428D01*
X90461904Y-110266666D01*
X90500000Y-110190476D01*
X90538095Y-110152380D01*
X90614285Y-110114285D01*
X90728571Y-110114285D01*
X90804761Y-110152380D01*
X90842857Y-110190476D01*
X90880952Y-110266666D01*
X90880952Y-110571428D01*
X90461904Y-109847619D02*
X90461904Y-109352380D01*
X90766666Y-109619047D01*
X90766666Y-109504761D01*
X90804761Y-109428571D01*
X90842857Y-109390476D01*
X90919047Y-109352380D01*
X91109523Y-109352380D01*
X91185714Y-109390476D01*
X91223809Y-109428571D01*
X91261904Y-109504761D01*
X91261904Y-109733333D01*
X91223809Y-109809523D01*
X91185714Y-109847619D01*
X90461904Y-109085714D02*
X90461904Y-108590476D01*
X90766666Y-108857142D01*
X90766666Y-108742857D01*
X90804761Y-108666666D01*
X90842857Y-108628571D01*
X90919047Y-108590476D01*
X91109523Y-108590476D01*
X91185714Y-108628571D01*
X91223809Y-108666666D01*
X91261904Y-108742857D01*
X91261904Y-108971428D01*
X91223809Y-109047619D01*
X91185714Y-109085714D01*
X93161904Y-110114285D02*
X92780952Y-110380952D01*
X93161904Y-110571428D02*
X92361904Y-110571428D01*
X92361904Y-110266666D01*
X92400000Y-110190476D01*
X92438095Y-110152380D01*
X92514285Y-110114285D01*
X92628571Y-110114285D01*
X92704761Y-110152380D01*
X92742857Y-110190476D01*
X92780952Y-110266666D01*
X92780952Y-110571428D01*
X92361904Y-109847619D02*
X92361904Y-109352380D01*
X92666666Y-109619047D01*
X92666666Y-109504761D01*
X92704761Y-109428571D01*
X92742857Y-109390476D01*
X92819047Y-109352380D01*
X93009523Y-109352380D01*
X93085714Y-109390476D01*
X93123809Y-109428571D01*
X93161904Y-109504761D01*
X93161904Y-109733333D01*
X93123809Y-109809523D01*
X93085714Y-109847619D01*
X92438095Y-109047619D02*
X92400000Y-109009523D01*
X92361904Y-108933333D01*
X92361904Y-108742857D01*
X92400000Y-108666666D01*
X92438095Y-108628571D01*
X92514285Y-108590476D01*
X92590476Y-108590476D01*
X92704761Y-108628571D01*
X93161904Y-109085714D01*
X93161904Y-108590476D01*
X95161904Y-110214285D02*
X94780952Y-110480952D01*
X95161904Y-110671428D02*
X94361904Y-110671428D01*
X94361904Y-110366666D01*
X94400000Y-110290476D01*
X94438095Y-110252380D01*
X94514285Y-110214285D01*
X94628571Y-110214285D01*
X94704761Y-110252380D01*
X94742857Y-110290476D01*
X94780952Y-110366666D01*
X94780952Y-110671428D01*
X94361904Y-109947619D02*
X94361904Y-109452380D01*
X94666666Y-109719047D01*
X94666666Y-109604761D01*
X94704761Y-109528571D01*
X94742857Y-109490476D01*
X94819047Y-109452380D01*
X95009523Y-109452380D01*
X95085714Y-109490476D01*
X95123809Y-109528571D01*
X95161904Y-109604761D01*
X95161904Y-109833333D01*
X95123809Y-109909523D01*
X95085714Y-109947619D01*
X95161904Y-108690476D02*
X95161904Y-109147619D01*
X95161904Y-108919047D02*
X94361904Y-108919047D01*
X94476190Y-108995238D01*
X94552380Y-109071428D01*
X94590476Y-109147619D01*
X75485714Y-78061904D02*
X75219047Y-77680952D01*
X75028571Y-78061904D02*
X75028571Y-77261904D01*
X75333333Y-77261904D01*
X75409523Y-77300000D01*
X75447619Y-77338095D01*
X75485714Y-77414285D01*
X75485714Y-77528571D01*
X75447619Y-77604761D01*
X75409523Y-77642857D01*
X75333333Y-77680952D01*
X75028571Y-77680952D01*
X75752380Y-77261904D02*
X76247619Y-77261904D01*
X75980952Y-77566666D01*
X76095238Y-77566666D01*
X76171428Y-77604761D01*
X76209523Y-77642857D01*
X76247619Y-77719047D01*
X76247619Y-77909523D01*
X76209523Y-77985714D01*
X76171428Y-78023809D01*
X76095238Y-78061904D01*
X75866666Y-78061904D01*
X75790476Y-78023809D01*
X75752380Y-77985714D01*
X76742857Y-77261904D02*
X76819047Y-77261904D01*
X76895238Y-77300000D01*
X76933333Y-77338095D01*
X76971428Y-77414285D01*
X77009523Y-77566666D01*
X77009523Y-77757142D01*
X76971428Y-77909523D01*
X76933333Y-77985714D01*
X76895238Y-78023809D01*
X76819047Y-78061904D01*
X76742857Y-78061904D01*
X76666666Y-78023809D01*
X76628571Y-77985714D01*
X76590476Y-77909523D01*
X76552380Y-77757142D01*
X76552380Y-77566666D01*
X76590476Y-77414285D01*
X76628571Y-77338095D01*
X76666666Y-77300000D01*
X76742857Y-77261904D01*
X75485714Y-74061904D02*
X75219047Y-73680952D01*
X75028571Y-74061904D02*
X75028571Y-73261904D01*
X75333333Y-73261904D01*
X75409523Y-73300000D01*
X75447619Y-73338095D01*
X75485714Y-73414285D01*
X75485714Y-73528571D01*
X75447619Y-73604761D01*
X75409523Y-73642857D01*
X75333333Y-73680952D01*
X75028571Y-73680952D01*
X75790476Y-73338095D02*
X75828571Y-73300000D01*
X75904761Y-73261904D01*
X76095238Y-73261904D01*
X76171428Y-73300000D01*
X76209523Y-73338095D01*
X76247619Y-73414285D01*
X76247619Y-73490476D01*
X76209523Y-73604761D01*
X75752380Y-74061904D01*
X76247619Y-74061904D01*
X76628571Y-74061904D02*
X76780952Y-74061904D01*
X76857142Y-74023809D01*
X76895238Y-73985714D01*
X76971428Y-73871428D01*
X77009523Y-73719047D01*
X77009523Y-73414285D01*
X76971428Y-73338095D01*
X76933333Y-73300000D01*
X76857142Y-73261904D01*
X76704761Y-73261904D01*
X76628571Y-73300000D01*
X76590476Y-73338095D01*
X76552380Y-73414285D01*
X76552380Y-73604761D01*
X76590476Y-73680952D01*
X76628571Y-73719047D01*
X76704761Y-73757142D01*
X76857142Y-73757142D01*
X76933333Y-73719047D01*
X76971428Y-73680952D01*
X77009523Y-73604761D01*
X75485714Y-69861904D02*
X75219047Y-69480952D01*
X75028571Y-69861904D02*
X75028571Y-69061904D01*
X75333333Y-69061904D01*
X75409523Y-69100000D01*
X75447619Y-69138095D01*
X75485714Y-69214285D01*
X75485714Y-69328571D01*
X75447619Y-69404761D01*
X75409523Y-69442857D01*
X75333333Y-69480952D01*
X75028571Y-69480952D01*
X75790476Y-69138095D02*
X75828571Y-69100000D01*
X75904761Y-69061904D01*
X76095238Y-69061904D01*
X76171428Y-69100000D01*
X76209523Y-69138095D01*
X76247619Y-69214285D01*
X76247619Y-69290476D01*
X76209523Y-69404761D01*
X75752380Y-69861904D01*
X76247619Y-69861904D01*
X76704761Y-69404761D02*
X76628571Y-69366666D01*
X76590476Y-69328571D01*
X76552380Y-69252380D01*
X76552380Y-69214285D01*
X76590476Y-69138095D01*
X76628571Y-69100000D01*
X76704761Y-69061904D01*
X76857142Y-69061904D01*
X76933333Y-69100000D01*
X76971428Y-69138095D01*
X77009523Y-69214285D01*
X77009523Y-69252380D01*
X76971428Y-69328571D01*
X76933333Y-69366666D01*
X76857142Y-69404761D01*
X76704761Y-69404761D01*
X76628571Y-69442857D01*
X76590476Y-69480952D01*
X76552380Y-69557142D01*
X76552380Y-69709523D01*
X76590476Y-69785714D01*
X76628571Y-69823809D01*
X76704761Y-69861904D01*
X76857142Y-69861904D01*
X76933333Y-69823809D01*
X76971428Y-69785714D01*
X77009523Y-69709523D01*
X77009523Y-69557142D01*
X76971428Y-69480952D01*
X76933333Y-69442857D01*
X76857142Y-69404761D01*
X68135714Y-76361904D02*
X67869047Y-75980952D01*
X67678571Y-76361904D02*
X67678571Y-75561904D01*
X67983333Y-75561904D01*
X68059523Y-75600000D01*
X68097619Y-75638095D01*
X68135714Y-75714285D01*
X68135714Y-75828571D01*
X68097619Y-75904761D01*
X68059523Y-75942857D01*
X67983333Y-75980952D01*
X67678571Y-75980952D01*
X68440476Y-75638095D02*
X68478571Y-75600000D01*
X68554761Y-75561904D01*
X68745238Y-75561904D01*
X68821428Y-75600000D01*
X68859523Y-75638095D01*
X68897619Y-75714285D01*
X68897619Y-75790476D01*
X68859523Y-75904761D01*
X68402380Y-76361904D01*
X68897619Y-76361904D01*
X69164285Y-75561904D02*
X69697619Y-75561904D01*
X69354761Y-76361904D01*
X68135714Y-72361904D02*
X67869047Y-71980952D01*
X67678571Y-72361904D02*
X67678571Y-71561904D01*
X67983333Y-71561904D01*
X68059523Y-71600000D01*
X68097619Y-71638095D01*
X68135714Y-71714285D01*
X68135714Y-71828571D01*
X68097619Y-71904761D01*
X68059523Y-71942857D01*
X67983333Y-71980952D01*
X67678571Y-71980952D01*
X68440476Y-71638095D02*
X68478571Y-71600000D01*
X68554761Y-71561904D01*
X68745238Y-71561904D01*
X68821428Y-71600000D01*
X68859523Y-71638095D01*
X68897619Y-71714285D01*
X68897619Y-71790476D01*
X68859523Y-71904761D01*
X68402380Y-72361904D01*
X68897619Y-72361904D01*
X69583333Y-71561904D02*
X69430952Y-71561904D01*
X69354761Y-71600000D01*
X69316666Y-71638095D01*
X69240476Y-71752380D01*
X69202380Y-71904761D01*
X69202380Y-72209523D01*
X69240476Y-72285714D01*
X69278571Y-72323809D01*
X69354761Y-72361904D01*
X69507142Y-72361904D01*
X69583333Y-72323809D01*
X69621428Y-72285714D01*
X69659523Y-72209523D01*
X69659523Y-72019047D01*
X69621428Y-71942857D01*
X69583333Y-71904761D01*
X69507142Y-71866666D01*
X69354761Y-71866666D01*
X69278571Y-71904761D01*
X69240476Y-71942857D01*
X69202380Y-72019047D01*
X68135714Y-68161904D02*
X67869047Y-67780952D01*
X67678571Y-68161904D02*
X67678571Y-67361904D01*
X67983333Y-67361904D01*
X68059523Y-67400000D01*
X68097619Y-67438095D01*
X68135714Y-67514285D01*
X68135714Y-67628571D01*
X68097619Y-67704761D01*
X68059523Y-67742857D01*
X67983333Y-67780952D01*
X67678571Y-67780952D01*
X68440476Y-67438095D02*
X68478571Y-67400000D01*
X68554761Y-67361904D01*
X68745238Y-67361904D01*
X68821428Y-67400000D01*
X68859523Y-67438095D01*
X68897619Y-67514285D01*
X68897619Y-67590476D01*
X68859523Y-67704761D01*
X68402380Y-68161904D01*
X68897619Y-68161904D01*
X69621428Y-67361904D02*
X69240476Y-67361904D01*
X69202380Y-67742857D01*
X69240476Y-67704761D01*
X69316666Y-67666666D01*
X69507142Y-67666666D01*
X69583333Y-67704761D01*
X69621428Y-67742857D01*
X69659523Y-67819047D01*
X69659523Y-68009523D01*
X69621428Y-68085714D01*
X69583333Y-68123809D01*
X69507142Y-68161904D01*
X69316666Y-68161904D01*
X69240476Y-68123809D01*
X69202380Y-68085714D01*
X63935714Y-76361904D02*
X63669047Y-75980952D01*
X63478571Y-76361904D02*
X63478571Y-75561904D01*
X63783333Y-75561904D01*
X63859523Y-75600000D01*
X63897619Y-75638095D01*
X63935714Y-75714285D01*
X63935714Y-75828571D01*
X63897619Y-75904761D01*
X63859523Y-75942857D01*
X63783333Y-75980952D01*
X63478571Y-75980952D01*
X64240476Y-75638095D02*
X64278571Y-75600000D01*
X64354761Y-75561904D01*
X64545238Y-75561904D01*
X64621428Y-75600000D01*
X64659523Y-75638095D01*
X64697619Y-75714285D01*
X64697619Y-75790476D01*
X64659523Y-75904761D01*
X64202380Y-76361904D01*
X64697619Y-76361904D01*
X65383333Y-75828571D02*
X65383333Y-76361904D01*
X65192857Y-75523809D02*
X65002380Y-76095238D01*
X65497619Y-76095238D01*
X63935714Y-72361904D02*
X63669047Y-71980952D01*
X63478571Y-72361904D02*
X63478571Y-71561904D01*
X63783333Y-71561904D01*
X63859523Y-71600000D01*
X63897619Y-71638095D01*
X63935714Y-71714285D01*
X63935714Y-71828571D01*
X63897619Y-71904761D01*
X63859523Y-71942857D01*
X63783333Y-71980952D01*
X63478571Y-71980952D01*
X64240476Y-71638095D02*
X64278571Y-71600000D01*
X64354761Y-71561904D01*
X64545238Y-71561904D01*
X64621428Y-71600000D01*
X64659523Y-71638095D01*
X64697619Y-71714285D01*
X64697619Y-71790476D01*
X64659523Y-71904761D01*
X64202380Y-72361904D01*
X64697619Y-72361904D01*
X64964285Y-71561904D02*
X65459523Y-71561904D01*
X65192857Y-71866666D01*
X65307142Y-71866666D01*
X65383333Y-71904761D01*
X65421428Y-71942857D01*
X65459523Y-72019047D01*
X65459523Y-72209523D01*
X65421428Y-72285714D01*
X65383333Y-72323809D01*
X65307142Y-72361904D01*
X65078571Y-72361904D01*
X65002380Y-72323809D01*
X64964285Y-72285714D01*
X63935714Y-68161904D02*
X63669047Y-67780952D01*
X63478571Y-68161904D02*
X63478571Y-67361904D01*
X63783333Y-67361904D01*
X63859523Y-67400000D01*
X63897619Y-67438095D01*
X63935714Y-67514285D01*
X63935714Y-67628571D01*
X63897619Y-67704761D01*
X63859523Y-67742857D01*
X63783333Y-67780952D01*
X63478571Y-67780952D01*
X64240476Y-67438095D02*
X64278571Y-67400000D01*
X64354761Y-67361904D01*
X64545238Y-67361904D01*
X64621428Y-67400000D01*
X64659523Y-67438095D01*
X64697619Y-67514285D01*
X64697619Y-67590476D01*
X64659523Y-67704761D01*
X64202380Y-68161904D01*
X64697619Y-68161904D01*
X65002380Y-67438095D02*
X65040476Y-67400000D01*
X65116666Y-67361904D01*
X65307142Y-67361904D01*
X65383333Y-67400000D01*
X65421428Y-67438095D01*
X65459523Y-67514285D01*
X65459523Y-67590476D01*
X65421428Y-67704761D01*
X64964285Y-68161904D01*
X65459523Y-68161904D01*
X59735714Y-76361904D02*
X59469047Y-75980952D01*
X59278571Y-76361904D02*
X59278571Y-75561904D01*
X59583333Y-75561904D01*
X59659523Y-75600000D01*
X59697619Y-75638095D01*
X59735714Y-75714285D01*
X59735714Y-75828571D01*
X59697619Y-75904761D01*
X59659523Y-75942857D01*
X59583333Y-75980952D01*
X59278571Y-75980952D01*
X60040476Y-75638095D02*
X60078571Y-75600000D01*
X60154761Y-75561904D01*
X60345238Y-75561904D01*
X60421428Y-75600000D01*
X60459523Y-75638095D01*
X60497619Y-75714285D01*
X60497619Y-75790476D01*
X60459523Y-75904761D01*
X60002380Y-76361904D01*
X60497619Y-76361904D01*
X61259523Y-76361904D02*
X60802380Y-76361904D01*
X61030952Y-76361904D02*
X61030952Y-75561904D01*
X60954761Y-75676190D01*
X60878571Y-75752380D01*
X60802380Y-75790476D01*
X59735714Y-72361904D02*
X59469047Y-71980952D01*
X59278571Y-72361904D02*
X59278571Y-71561904D01*
X59583333Y-71561904D01*
X59659523Y-71600000D01*
X59697619Y-71638095D01*
X59735714Y-71714285D01*
X59735714Y-71828571D01*
X59697619Y-71904761D01*
X59659523Y-71942857D01*
X59583333Y-71980952D01*
X59278571Y-71980952D01*
X60040476Y-71638095D02*
X60078571Y-71600000D01*
X60154761Y-71561904D01*
X60345238Y-71561904D01*
X60421428Y-71600000D01*
X60459523Y-71638095D01*
X60497619Y-71714285D01*
X60497619Y-71790476D01*
X60459523Y-71904761D01*
X60002380Y-72361904D01*
X60497619Y-72361904D01*
X60992857Y-71561904D02*
X61069047Y-71561904D01*
X61145238Y-71600000D01*
X61183333Y-71638095D01*
X61221428Y-71714285D01*
X61259523Y-71866666D01*
X61259523Y-72057142D01*
X61221428Y-72209523D01*
X61183333Y-72285714D01*
X61145238Y-72323809D01*
X61069047Y-72361904D01*
X60992857Y-72361904D01*
X60916666Y-72323809D01*
X60878571Y-72285714D01*
X60840476Y-72209523D01*
X60802380Y-72057142D01*
X60802380Y-71866666D01*
X60840476Y-71714285D01*
X60878571Y-71638095D01*
X60916666Y-71600000D01*
X60992857Y-71561904D01*
X59735714Y-68161904D02*
X59469047Y-67780952D01*
X59278571Y-68161904D02*
X59278571Y-67361904D01*
X59583333Y-67361904D01*
X59659523Y-67400000D01*
X59697619Y-67438095D01*
X59735714Y-67514285D01*
X59735714Y-67628571D01*
X59697619Y-67704761D01*
X59659523Y-67742857D01*
X59583333Y-67780952D01*
X59278571Y-67780952D01*
X60497619Y-68161904D02*
X60040476Y-68161904D01*
X60269047Y-68161904D02*
X60269047Y-67361904D01*
X60192857Y-67476190D01*
X60116666Y-67552380D01*
X60040476Y-67590476D01*
X60878571Y-68161904D02*
X61030952Y-68161904D01*
X61107142Y-68123809D01*
X61145238Y-68085714D01*
X61221428Y-67971428D01*
X61259523Y-67819047D01*
X61259523Y-67514285D01*
X61221428Y-67438095D01*
X61183333Y-67400000D01*
X61107142Y-67361904D01*
X60954761Y-67361904D01*
X60878571Y-67400000D01*
X60840476Y-67438095D01*
X60802380Y-67514285D01*
X60802380Y-67704761D01*
X60840476Y-67780952D01*
X60878571Y-67819047D01*
X60954761Y-67857142D01*
X61107142Y-67857142D01*
X61183333Y-67819047D01*
X61221428Y-67780952D01*
X61259523Y-67704761D01*
X55535714Y-76361904D02*
X55269047Y-75980952D01*
X55078571Y-76361904D02*
X55078571Y-75561904D01*
X55383333Y-75561904D01*
X55459523Y-75600000D01*
X55497619Y-75638095D01*
X55535714Y-75714285D01*
X55535714Y-75828571D01*
X55497619Y-75904761D01*
X55459523Y-75942857D01*
X55383333Y-75980952D01*
X55078571Y-75980952D01*
X56297619Y-76361904D02*
X55840476Y-76361904D01*
X56069047Y-76361904D02*
X56069047Y-75561904D01*
X55992857Y-75676190D01*
X55916666Y-75752380D01*
X55840476Y-75790476D01*
X56754761Y-75904761D02*
X56678571Y-75866666D01*
X56640476Y-75828571D01*
X56602380Y-75752380D01*
X56602380Y-75714285D01*
X56640476Y-75638095D01*
X56678571Y-75600000D01*
X56754761Y-75561904D01*
X56907142Y-75561904D01*
X56983333Y-75600000D01*
X57021428Y-75638095D01*
X57059523Y-75714285D01*
X57059523Y-75752380D01*
X57021428Y-75828571D01*
X56983333Y-75866666D01*
X56907142Y-75904761D01*
X56754761Y-75904761D01*
X56678571Y-75942857D01*
X56640476Y-75980952D01*
X56602380Y-76057142D01*
X56602380Y-76209523D01*
X56640476Y-76285714D01*
X56678571Y-76323809D01*
X56754761Y-76361904D01*
X56907142Y-76361904D01*
X56983333Y-76323809D01*
X57021428Y-76285714D01*
X57059523Y-76209523D01*
X57059523Y-76057142D01*
X57021428Y-75980952D01*
X56983333Y-75942857D01*
X56907142Y-75904761D01*
X55535714Y-72361904D02*
X55269047Y-71980952D01*
X55078571Y-72361904D02*
X55078571Y-71561904D01*
X55383333Y-71561904D01*
X55459523Y-71600000D01*
X55497619Y-71638095D01*
X55535714Y-71714285D01*
X55535714Y-71828571D01*
X55497619Y-71904761D01*
X55459523Y-71942857D01*
X55383333Y-71980952D01*
X55078571Y-71980952D01*
X56297619Y-72361904D02*
X55840476Y-72361904D01*
X56069047Y-72361904D02*
X56069047Y-71561904D01*
X55992857Y-71676190D01*
X55916666Y-71752380D01*
X55840476Y-71790476D01*
X56564285Y-71561904D02*
X57097619Y-71561904D01*
X56754761Y-72361904D01*
X55535714Y-68161904D02*
X55269047Y-67780952D01*
X55078571Y-68161904D02*
X55078571Y-67361904D01*
X55383333Y-67361904D01*
X55459523Y-67400000D01*
X55497619Y-67438095D01*
X55535714Y-67514285D01*
X55535714Y-67628571D01*
X55497619Y-67704761D01*
X55459523Y-67742857D01*
X55383333Y-67780952D01*
X55078571Y-67780952D01*
X56297619Y-68161904D02*
X55840476Y-68161904D01*
X56069047Y-68161904D02*
X56069047Y-67361904D01*
X55992857Y-67476190D01*
X55916666Y-67552380D01*
X55840476Y-67590476D01*
X56983333Y-67361904D02*
X56830952Y-67361904D01*
X56754761Y-67400000D01*
X56716666Y-67438095D01*
X56640476Y-67552380D01*
X56602380Y-67704761D01*
X56602380Y-68009523D01*
X56640476Y-68085714D01*
X56678571Y-68123809D01*
X56754761Y-68161904D01*
X56907142Y-68161904D01*
X56983333Y-68123809D01*
X57021428Y-68085714D01*
X57059523Y-68009523D01*
X57059523Y-67819047D01*
X57021428Y-67742857D01*
X56983333Y-67704761D01*
X56907142Y-67666666D01*
X56754761Y-67666666D01*
X56678571Y-67704761D01*
X56640476Y-67742857D01*
X56602380Y-67819047D01*
X51335714Y-76361904D02*
X51069047Y-75980952D01*
X50878571Y-76361904D02*
X50878571Y-75561904D01*
X51183333Y-75561904D01*
X51259523Y-75600000D01*
X51297619Y-75638095D01*
X51335714Y-75714285D01*
X51335714Y-75828571D01*
X51297619Y-75904761D01*
X51259523Y-75942857D01*
X51183333Y-75980952D01*
X50878571Y-75980952D01*
X52097619Y-76361904D02*
X51640476Y-76361904D01*
X51869047Y-76361904D02*
X51869047Y-75561904D01*
X51792857Y-75676190D01*
X51716666Y-75752380D01*
X51640476Y-75790476D01*
X52821428Y-75561904D02*
X52440476Y-75561904D01*
X52402380Y-75942857D01*
X52440476Y-75904761D01*
X52516666Y-75866666D01*
X52707142Y-75866666D01*
X52783333Y-75904761D01*
X52821428Y-75942857D01*
X52859523Y-76019047D01*
X52859523Y-76209523D01*
X52821428Y-76285714D01*
X52783333Y-76323809D01*
X52707142Y-76361904D01*
X52516666Y-76361904D01*
X52440476Y-76323809D01*
X52402380Y-76285714D01*
X51335714Y-72361904D02*
X51069047Y-71980952D01*
X50878571Y-72361904D02*
X50878571Y-71561904D01*
X51183333Y-71561904D01*
X51259523Y-71600000D01*
X51297619Y-71638095D01*
X51335714Y-71714285D01*
X51335714Y-71828571D01*
X51297619Y-71904761D01*
X51259523Y-71942857D01*
X51183333Y-71980952D01*
X50878571Y-71980952D01*
X52097619Y-72361904D02*
X51640476Y-72361904D01*
X51869047Y-72361904D02*
X51869047Y-71561904D01*
X51792857Y-71676190D01*
X51716666Y-71752380D01*
X51640476Y-71790476D01*
X52783333Y-71828571D02*
X52783333Y-72361904D01*
X52592857Y-71523809D02*
X52402380Y-72095238D01*
X52897619Y-72095238D01*
X51335714Y-68161904D02*
X51069047Y-67780952D01*
X50878571Y-68161904D02*
X50878571Y-67361904D01*
X51183333Y-67361904D01*
X51259523Y-67400000D01*
X51297619Y-67438095D01*
X51335714Y-67514285D01*
X51335714Y-67628571D01*
X51297619Y-67704761D01*
X51259523Y-67742857D01*
X51183333Y-67780952D01*
X50878571Y-67780952D01*
X52097619Y-68161904D02*
X51640476Y-68161904D01*
X51869047Y-68161904D02*
X51869047Y-67361904D01*
X51792857Y-67476190D01*
X51716666Y-67552380D01*
X51640476Y-67590476D01*
X52364285Y-67361904D02*
X52859523Y-67361904D01*
X52592857Y-67666666D01*
X52707142Y-67666666D01*
X52783333Y-67704761D01*
X52821428Y-67742857D01*
X52859523Y-67819047D01*
X52859523Y-68009523D01*
X52821428Y-68085714D01*
X52783333Y-68123809D01*
X52707142Y-68161904D01*
X52478571Y-68161904D01*
X52402380Y-68123809D01*
X52364285Y-68085714D01*
X108561904Y-71414285D02*
X108180952Y-71680952D01*
X108561904Y-71871428D02*
X107761904Y-71871428D01*
X107761904Y-71566666D01*
X107800000Y-71490476D01*
X107838095Y-71452380D01*
X107914285Y-71414285D01*
X108028571Y-71414285D01*
X108104761Y-71452380D01*
X108142857Y-71490476D01*
X108180952Y-71566666D01*
X108180952Y-71871428D01*
X108561904Y-70652380D02*
X108561904Y-71109523D01*
X108561904Y-70880952D02*
X107761904Y-70880952D01*
X107876190Y-70957142D01*
X107952380Y-71033333D01*
X107990476Y-71109523D01*
X107838095Y-70347619D02*
X107800000Y-70309523D01*
X107761904Y-70233333D01*
X107761904Y-70042857D01*
X107800000Y-69966666D01*
X107838095Y-69928571D01*
X107914285Y-69890476D01*
X107990476Y-69890476D01*
X108104761Y-69928571D01*
X108561904Y-70385714D01*
X108561904Y-69890476D01*
X110861904Y-71414285D02*
X110480952Y-71680952D01*
X110861904Y-71871428D02*
X110061904Y-71871428D01*
X110061904Y-71566666D01*
X110100000Y-71490476D01*
X110138095Y-71452380D01*
X110214285Y-71414285D01*
X110328571Y-71414285D01*
X110404761Y-71452380D01*
X110442857Y-71490476D01*
X110480952Y-71566666D01*
X110480952Y-71871428D01*
X110861904Y-70652380D02*
X110861904Y-71109523D01*
X110861904Y-70880952D02*
X110061904Y-70880952D01*
X110176190Y-70957142D01*
X110252380Y-71033333D01*
X110290476Y-71109523D01*
X110861904Y-69890476D02*
X110861904Y-70347619D01*
X110861904Y-70119047D02*
X110061904Y-70119047D01*
X110176190Y-70195238D01*
X110252380Y-70271428D01*
X110290476Y-70347619D01*
X94861904Y-71614285D02*
X94480952Y-71880952D01*
X94861904Y-72071428D02*
X94061904Y-72071428D01*
X94061904Y-71766666D01*
X94100000Y-71690476D01*
X94138095Y-71652380D01*
X94214285Y-71614285D01*
X94328571Y-71614285D01*
X94404761Y-71652380D01*
X94442857Y-71690476D01*
X94480952Y-71766666D01*
X94480952Y-72071428D01*
X94861904Y-70852380D02*
X94861904Y-71309523D01*
X94861904Y-71080952D02*
X94061904Y-71080952D01*
X94176190Y-71157142D01*
X94252380Y-71233333D01*
X94290476Y-71309523D01*
X94061904Y-70357142D02*
X94061904Y-70280952D01*
X94100000Y-70204761D01*
X94138095Y-70166666D01*
X94214285Y-70128571D01*
X94366666Y-70090476D01*
X94557142Y-70090476D01*
X94709523Y-70128571D01*
X94785714Y-70166666D01*
X94823809Y-70204761D01*
X94861904Y-70280952D01*
X94861904Y-70357142D01*
X94823809Y-70433333D01*
X94785714Y-70471428D01*
X94709523Y-70509523D01*
X94557142Y-70547619D01*
X94366666Y-70547619D01*
X94214285Y-70509523D01*
X94138095Y-70471428D01*
X94100000Y-70433333D01*
X94061904Y-70357142D01*
X101561904Y-71633333D02*
X101180952Y-71900000D01*
X101561904Y-72090476D02*
X100761904Y-72090476D01*
X100761904Y-71785714D01*
X100800000Y-71709523D01*
X100838095Y-71671428D01*
X100914285Y-71633333D01*
X101028571Y-71633333D01*
X101104761Y-71671428D01*
X101142857Y-71709523D01*
X101180952Y-71785714D01*
X101180952Y-72090476D01*
X101561904Y-71252380D02*
X101561904Y-71100000D01*
X101523809Y-71023809D01*
X101485714Y-70985714D01*
X101371428Y-70909523D01*
X101219047Y-70871428D01*
X100914285Y-70871428D01*
X100838095Y-70909523D01*
X100800000Y-70947619D01*
X100761904Y-71023809D01*
X100761904Y-71176190D01*
X100800000Y-71252380D01*
X100838095Y-71290476D01*
X100914285Y-71328571D01*
X101104761Y-71328571D01*
X101180952Y-71290476D01*
X101219047Y-71252380D01*
X101257142Y-71176190D01*
X101257142Y-71023809D01*
X101219047Y-70947619D01*
X101180952Y-70909523D01*
X101104761Y-70871428D01*
X82961904Y-71633333D02*
X82580952Y-71900000D01*
X82961904Y-72090476D02*
X82161904Y-72090476D01*
X82161904Y-71785714D01*
X82200000Y-71709523D01*
X82238095Y-71671428D01*
X82314285Y-71633333D01*
X82428571Y-71633333D01*
X82504761Y-71671428D01*
X82542857Y-71709523D01*
X82580952Y-71785714D01*
X82580952Y-72090476D01*
X82504761Y-71176190D02*
X82466666Y-71252380D01*
X82428571Y-71290476D01*
X82352380Y-71328571D01*
X82314285Y-71328571D01*
X82238095Y-71290476D01*
X82200000Y-71252380D01*
X82161904Y-71176190D01*
X82161904Y-71023809D01*
X82200000Y-70947619D01*
X82238095Y-70909523D01*
X82314285Y-70871428D01*
X82352380Y-70871428D01*
X82428571Y-70909523D01*
X82466666Y-70947619D01*
X82504761Y-71023809D01*
X82504761Y-71176190D01*
X82542857Y-71252380D01*
X82580952Y-71290476D01*
X82657142Y-71328571D01*
X82809523Y-71328571D01*
X82885714Y-71290476D01*
X82923809Y-71252380D01*
X82961904Y-71176190D01*
X82961904Y-71023809D01*
X82923809Y-70947619D01*
X82885714Y-70909523D01*
X82809523Y-70871428D01*
X82657142Y-70871428D01*
X82580952Y-70909523D01*
X82542857Y-70947619D01*
X82504761Y-71023809D01*
X89961904Y-71633333D02*
X89580952Y-71900000D01*
X89961904Y-72090476D02*
X89161904Y-72090476D01*
X89161904Y-71785714D01*
X89200000Y-71709523D01*
X89238095Y-71671428D01*
X89314285Y-71633333D01*
X89428571Y-71633333D01*
X89504761Y-71671428D01*
X89542857Y-71709523D01*
X89580952Y-71785714D01*
X89580952Y-72090476D01*
X89161904Y-71366666D02*
X89161904Y-70833333D01*
X89961904Y-71176190D01*
X106461904Y-71533333D02*
X106080952Y-71800000D01*
X106461904Y-71990476D02*
X105661904Y-71990476D01*
X105661904Y-71685714D01*
X105700000Y-71609523D01*
X105738095Y-71571428D01*
X105814285Y-71533333D01*
X105928571Y-71533333D01*
X106004761Y-71571428D01*
X106042857Y-71609523D01*
X106080952Y-71685714D01*
X106080952Y-71990476D01*
X105661904Y-70847619D02*
X105661904Y-71000000D01*
X105700000Y-71076190D01*
X105738095Y-71114285D01*
X105852380Y-71190476D01*
X106004761Y-71228571D01*
X106309523Y-71228571D01*
X106385714Y-71190476D01*
X106423809Y-71152380D01*
X106461904Y-71076190D01*
X106461904Y-70923809D01*
X106423809Y-70847619D01*
X106385714Y-70809523D01*
X106309523Y-70771428D01*
X106119047Y-70771428D01*
X106042857Y-70809523D01*
X106004761Y-70847619D01*
X105966666Y-70923809D01*
X105966666Y-71076190D01*
X106004761Y-71152380D01*
X106042857Y-71190476D01*
X106119047Y-71228571D01*
X113061904Y-71433333D02*
X112680952Y-71700000D01*
X113061904Y-71890476D02*
X112261904Y-71890476D01*
X112261904Y-71585714D01*
X112300000Y-71509523D01*
X112338095Y-71471428D01*
X112414285Y-71433333D01*
X112528571Y-71433333D01*
X112604761Y-71471428D01*
X112642857Y-71509523D01*
X112680952Y-71585714D01*
X112680952Y-71890476D01*
X112261904Y-70709523D02*
X112261904Y-71090476D01*
X112642857Y-71128571D01*
X112604761Y-71090476D01*
X112566666Y-71014285D01*
X112566666Y-70823809D01*
X112604761Y-70747619D01*
X112642857Y-70709523D01*
X112719047Y-70671428D01*
X112909523Y-70671428D01*
X112985714Y-70709523D01*
X113023809Y-70747619D01*
X113061904Y-70823809D01*
X113061904Y-71014285D01*
X113023809Y-71090476D01*
X112985714Y-71128571D01*
X96961904Y-71633333D02*
X96580952Y-71900000D01*
X96961904Y-72090476D02*
X96161904Y-72090476D01*
X96161904Y-71785714D01*
X96200000Y-71709523D01*
X96238095Y-71671428D01*
X96314285Y-71633333D01*
X96428571Y-71633333D01*
X96504761Y-71671428D01*
X96542857Y-71709523D01*
X96580952Y-71785714D01*
X96580952Y-72090476D01*
X96428571Y-70947619D02*
X96961904Y-70947619D01*
X96123809Y-71138095D02*
X96695238Y-71328571D01*
X96695238Y-70833333D01*
X99361904Y-71633333D02*
X98980952Y-71900000D01*
X99361904Y-72090476D02*
X98561904Y-72090476D01*
X98561904Y-71785714D01*
X98600000Y-71709523D01*
X98638095Y-71671428D01*
X98714285Y-71633333D01*
X98828571Y-71633333D01*
X98904761Y-71671428D01*
X98942857Y-71709523D01*
X98980952Y-71785714D01*
X98980952Y-72090476D01*
X98561904Y-71366666D02*
X98561904Y-70871428D01*
X98866666Y-71138095D01*
X98866666Y-71023809D01*
X98904761Y-70947619D01*
X98942857Y-70909523D01*
X99019047Y-70871428D01*
X99209523Y-70871428D01*
X99285714Y-70909523D01*
X99323809Y-70947619D01*
X99361904Y-71023809D01*
X99361904Y-71252380D01*
X99323809Y-71328571D01*
X99285714Y-71366666D01*
X85161904Y-71633333D02*
X84780952Y-71900000D01*
X85161904Y-72090476D02*
X84361904Y-72090476D01*
X84361904Y-71785714D01*
X84400000Y-71709523D01*
X84438095Y-71671428D01*
X84514285Y-71633333D01*
X84628571Y-71633333D01*
X84704761Y-71671428D01*
X84742857Y-71709523D01*
X84780952Y-71785714D01*
X84780952Y-72090476D01*
X84438095Y-71328571D02*
X84400000Y-71290476D01*
X84361904Y-71214285D01*
X84361904Y-71023809D01*
X84400000Y-70947619D01*
X84438095Y-70909523D01*
X84514285Y-70871428D01*
X84590476Y-70871428D01*
X84704761Y-70909523D01*
X85161904Y-71366666D01*
X85161904Y-70871428D01*
X87561904Y-71633333D02*
X87180952Y-71900000D01*
X87561904Y-72090476D02*
X86761904Y-72090476D01*
X86761904Y-71785714D01*
X86800000Y-71709523D01*
X86838095Y-71671428D01*
X86914285Y-71633333D01*
X87028571Y-71633333D01*
X87104761Y-71671428D01*
X87142857Y-71709523D01*
X87180952Y-71785714D01*
X87180952Y-72090476D01*
X87561904Y-70871428D02*
X87561904Y-71328571D01*
X87561904Y-71100000D02*
X86761904Y-71100000D01*
X86876190Y-71176190D01*
X86952380Y-71252380D01*
X86990476Y-71328571D01*
X74428571Y-114161904D02*
X74428571Y-113361904D01*
X74733333Y-113361904D01*
X74809523Y-113400000D01*
X74847619Y-113438095D01*
X74885714Y-113514285D01*
X74885714Y-113628571D01*
X74847619Y-113704761D01*
X74809523Y-113742857D01*
X74733333Y-113780952D01*
X74428571Y-113780952D01*
X75190476Y-114123809D02*
X75304761Y-114161904D01*
X75495238Y-114161904D01*
X75571428Y-114123809D01*
X75609523Y-114085714D01*
X75647619Y-114009523D01*
X75647619Y-113933333D01*
X75609523Y-113857142D01*
X75571428Y-113819047D01*
X75495238Y-113780952D01*
X75342857Y-113742857D01*
X75266666Y-113704761D01*
X75228571Y-113666666D01*
X75190476Y-113590476D01*
X75190476Y-113514285D01*
X75228571Y-113438095D01*
X75266666Y-113400000D01*
X75342857Y-113361904D01*
X75533333Y-113361904D01*
X75647619Y-113400000D01*
X76409523Y-114161904D02*
X75952380Y-114161904D01*
X76180952Y-114161904D02*
X76180952Y-113361904D01*
X76104761Y-113476190D01*
X76028571Y-113552380D01*
X75952380Y-113590476D01*
X58566666Y-117511904D02*
X58185714Y-117511904D01*
X58185714Y-116711904D01*
X59252380Y-117511904D02*
X58795238Y-117511904D01*
X59023809Y-117511904D02*
X59023809Y-116711904D01*
X58947619Y-116826190D01*
X58871428Y-116902380D01*
X58795238Y-116940476D01*
X104633333Y-59061904D02*
X104633333Y-59633333D01*
X104595238Y-59747619D01*
X104519047Y-59823809D01*
X104404761Y-59861904D01*
X104328571Y-59861904D01*
X105357142Y-59328571D02*
X105357142Y-59861904D01*
X105166666Y-59023809D02*
X104976190Y-59595238D01*
X105471428Y-59595238D01*
X93033333Y-59261904D02*
X93033333Y-59833333D01*
X92995238Y-59947619D01*
X92919047Y-60023809D01*
X92804761Y-60061904D01*
X92728571Y-60061904D01*
X93338095Y-59261904D02*
X93833333Y-59261904D01*
X93566666Y-59566666D01*
X93680952Y-59566666D01*
X93757142Y-59604761D01*
X93795238Y-59642857D01*
X93833333Y-59719047D01*
X93833333Y-59909523D01*
X93795238Y-59985714D01*
X93757142Y-60023809D01*
X93680952Y-60061904D01*
X93452380Y-60061904D01*
X93376190Y-60023809D01*
X93338095Y-59985714D01*
X81533333Y-59161904D02*
X81533333Y-59733333D01*
X81495238Y-59847619D01*
X81419047Y-59923809D01*
X81304761Y-59961904D01*
X81228571Y-59961904D01*
X81876190Y-59238095D02*
X81914285Y-59200000D01*
X81990476Y-59161904D01*
X82180952Y-59161904D01*
X82257142Y-59200000D01*
X82295238Y-59238095D01*
X82333333Y-59314285D01*
X82333333Y-59390476D01*
X82295238Y-59504761D01*
X81838095Y-59961904D01*
X82333333Y-59961904D01*
X60058333Y-99162857D02*
X59791666Y-99162857D01*
X59791666Y-99581904D02*
X59791666Y-98781904D01*
X60172619Y-98781904D01*
X60820238Y-99048571D02*
X60820238Y-99581904D01*
X60629761Y-98743809D02*
X60439285Y-99315238D01*
X60934523Y-99315238D01*
X60170833Y-103962857D02*
X59904166Y-103962857D01*
X59904166Y-104381904D02*
X59904166Y-103581904D01*
X60285119Y-103581904D01*
X60513690Y-103581904D02*
X61008928Y-103581904D01*
X60742261Y-103886666D01*
X60856547Y-103886666D01*
X60932738Y-103924761D01*
X60970833Y-103962857D01*
X61008928Y-104039047D01*
X61008928Y-104229523D01*
X60970833Y-104305714D01*
X60932738Y-104343809D01*
X60856547Y-104381904D01*
X60627976Y-104381904D01*
X60551785Y-104343809D01*
X60513690Y-104305714D01*
X60258333Y-108762857D02*
X59991666Y-108762857D01*
X59991666Y-109181904D02*
X59991666Y-108381904D01*
X60372619Y-108381904D01*
X60639285Y-108458095D02*
X60677380Y-108420000D01*
X60753571Y-108381904D01*
X60944047Y-108381904D01*
X61020238Y-108420000D01*
X61058333Y-108458095D01*
X61096428Y-108534285D01*
X61096428Y-108610476D01*
X61058333Y-108724761D01*
X60601190Y-109181904D01*
X61096428Y-109181904D01*
X60258333Y-113562857D02*
X59991666Y-113562857D01*
X59991666Y-113981904D02*
X59991666Y-113181904D01*
X60372619Y-113181904D01*
X61096428Y-113981904D02*
X60639285Y-113981904D01*
X60867857Y-113981904D02*
X60867857Y-113181904D01*
X60791666Y-113296190D01*
X60715476Y-113372380D01*
X60639285Y-113410476D01*
X80785714Y-92385714D02*
X80747619Y-92423809D01*
X80633333Y-92461904D01*
X80557142Y-92461904D01*
X80442857Y-92423809D01*
X80366666Y-92347619D01*
X80328571Y-92271428D01*
X80290476Y-92119047D01*
X80290476Y-92004761D01*
X80328571Y-91852380D01*
X80366666Y-91776190D01*
X80442857Y-91700000D01*
X80557142Y-91661904D01*
X80633333Y-91661904D01*
X80747619Y-91700000D01*
X80785714Y-91738095D01*
X81090476Y-91738095D02*
X81128571Y-91700000D01*
X81204761Y-91661904D01*
X81395238Y-91661904D01*
X81471428Y-91700000D01*
X81509523Y-91738095D01*
X81547619Y-91814285D01*
X81547619Y-91890476D01*
X81509523Y-92004761D01*
X81052380Y-92461904D01*
X81547619Y-92461904D01*
X82309523Y-92461904D02*
X81852380Y-92461904D01*
X82080952Y-92461904D02*
X82080952Y-91661904D01*
X82004761Y-91776190D01*
X81928571Y-91852380D01*
X81852380Y-91890476D01*
X107785714Y-88885714D02*
X107747619Y-88923809D01*
X107633333Y-88961904D01*
X107557142Y-88961904D01*
X107442857Y-88923809D01*
X107366666Y-88847619D01*
X107328571Y-88771428D01*
X107290476Y-88619047D01*
X107290476Y-88504761D01*
X107328571Y-88352380D01*
X107366666Y-88276190D01*
X107442857Y-88200000D01*
X107557142Y-88161904D01*
X107633333Y-88161904D01*
X107747619Y-88200000D01*
X107785714Y-88238095D01*
X108090476Y-88238095D02*
X108128571Y-88200000D01*
X108204761Y-88161904D01*
X108395238Y-88161904D01*
X108471428Y-88200000D01*
X108509523Y-88238095D01*
X108547619Y-88314285D01*
X108547619Y-88390476D01*
X108509523Y-88504761D01*
X108052380Y-88961904D01*
X108547619Y-88961904D01*
X109042857Y-88161904D02*
X109119047Y-88161904D01*
X109195238Y-88200000D01*
X109233333Y-88238095D01*
X109271428Y-88314285D01*
X109309523Y-88466666D01*
X109309523Y-88657142D01*
X109271428Y-88809523D01*
X109233333Y-88885714D01*
X109195238Y-88923809D01*
X109119047Y-88961904D01*
X109042857Y-88961904D01*
X108966666Y-88923809D01*
X108928571Y-88885714D01*
X108890476Y-88809523D01*
X108852380Y-88657142D01*
X108852380Y-88466666D01*
X108890476Y-88314285D01*
X108928571Y-88238095D01*
X108966666Y-88200000D01*
X109042857Y-88161904D01*
X80785714Y-90185714D02*
X80747619Y-90223809D01*
X80633333Y-90261904D01*
X80557142Y-90261904D01*
X80442857Y-90223809D01*
X80366666Y-90147619D01*
X80328571Y-90071428D01*
X80290476Y-89919047D01*
X80290476Y-89804761D01*
X80328571Y-89652380D01*
X80366666Y-89576190D01*
X80442857Y-89500000D01*
X80557142Y-89461904D01*
X80633333Y-89461904D01*
X80747619Y-89500000D01*
X80785714Y-89538095D01*
X81547619Y-90261904D02*
X81090476Y-90261904D01*
X81319047Y-90261904D02*
X81319047Y-89461904D01*
X81242857Y-89576190D01*
X81166666Y-89652380D01*
X81090476Y-89690476D01*
X81928571Y-90261904D02*
X82080952Y-90261904D01*
X82157142Y-90223809D01*
X82195238Y-90185714D01*
X82271428Y-90071428D01*
X82309523Y-89919047D01*
X82309523Y-89614285D01*
X82271428Y-89538095D01*
X82233333Y-89500000D01*
X82157142Y-89461904D01*
X82004761Y-89461904D01*
X81928571Y-89500000D01*
X81890476Y-89538095D01*
X81852380Y-89614285D01*
X81852380Y-89804761D01*
X81890476Y-89880952D01*
X81928571Y-89919047D01*
X82004761Y-89957142D01*
X82157142Y-89957142D01*
X82233333Y-89919047D01*
X82271428Y-89880952D01*
X82309523Y-89804761D01*
X107785714Y-90885714D02*
X107747619Y-90923809D01*
X107633333Y-90961904D01*
X107557142Y-90961904D01*
X107442857Y-90923809D01*
X107366666Y-90847619D01*
X107328571Y-90771428D01*
X107290476Y-90619047D01*
X107290476Y-90504761D01*
X107328571Y-90352380D01*
X107366666Y-90276190D01*
X107442857Y-90200000D01*
X107557142Y-90161904D01*
X107633333Y-90161904D01*
X107747619Y-90200000D01*
X107785714Y-90238095D01*
X108547619Y-90961904D02*
X108090476Y-90961904D01*
X108319047Y-90961904D02*
X108319047Y-90161904D01*
X108242857Y-90276190D01*
X108166666Y-90352380D01*
X108090476Y-90390476D01*
X109004761Y-90504761D02*
X108928571Y-90466666D01*
X108890476Y-90428571D01*
X108852380Y-90352380D01*
X108852380Y-90314285D01*
X108890476Y-90238095D01*
X108928571Y-90200000D01*
X109004761Y-90161904D01*
X109157142Y-90161904D01*
X109233333Y-90200000D01*
X109271428Y-90238095D01*
X109309523Y-90314285D01*
X109309523Y-90352380D01*
X109271428Y-90428571D01*
X109233333Y-90466666D01*
X109157142Y-90504761D01*
X109004761Y-90504761D01*
X108928571Y-90542857D01*
X108890476Y-90580952D01*
X108852380Y-90657142D01*
X108852380Y-90809523D01*
X108890476Y-90885714D01*
X108928571Y-90923809D01*
X109004761Y-90961904D01*
X109157142Y-90961904D01*
X109233333Y-90923809D01*
X109271428Y-90885714D01*
X109309523Y-90809523D01*
X109309523Y-90657142D01*
X109271428Y-90580952D01*
X109233333Y-90542857D01*
X109157142Y-90504761D01*
X97685714Y-83414285D02*
X97723809Y-83452380D01*
X97761904Y-83566666D01*
X97761904Y-83642857D01*
X97723809Y-83757142D01*
X97647619Y-83833333D01*
X97571428Y-83871428D01*
X97419047Y-83909523D01*
X97304761Y-83909523D01*
X97152380Y-83871428D01*
X97076190Y-83833333D01*
X97000000Y-83757142D01*
X96961904Y-83642857D01*
X96961904Y-83566666D01*
X97000000Y-83452380D01*
X97038095Y-83414285D01*
X97761904Y-82652380D02*
X97761904Y-83109523D01*
X97761904Y-82880952D02*
X96961904Y-82880952D01*
X97076190Y-82957142D01*
X97152380Y-83033333D01*
X97190476Y-83109523D01*
X96961904Y-82385714D02*
X96961904Y-81852380D01*
X97761904Y-82195238D01*
X92255714Y-83489285D02*
X92293809Y-83527380D01*
X92331904Y-83641666D01*
X92331904Y-83717857D01*
X92293809Y-83832142D01*
X92217619Y-83908333D01*
X92141428Y-83946428D01*
X91989047Y-83984523D01*
X91874761Y-83984523D01*
X91722380Y-83946428D01*
X91646190Y-83908333D01*
X91570000Y-83832142D01*
X91531904Y-83717857D01*
X91531904Y-83641666D01*
X91570000Y-83527380D01*
X91608095Y-83489285D01*
X92331904Y-82727380D02*
X92331904Y-83184523D01*
X92331904Y-82955952D02*
X91531904Y-82955952D01*
X91646190Y-83032142D01*
X91722380Y-83108333D01*
X91760476Y-83184523D01*
X91531904Y-82041666D02*
X91531904Y-82194047D01*
X91570000Y-82270238D01*
X91608095Y-82308333D01*
X91722380Y-82384523D01*
X91874761Y-82422619D01*
X92179523Y-82422619D01*
X92255714Y-82384523D01*
X92293809Y-82346428D01*
X92331904Y-82270238D01*
X92331904Y-82117857D01*
X92293809Y-82041666D01*
X92255714Y-82003571D01*
X92179523Y-81965476D01*
X91989047Y-81965476D01*
X91912857Y-82003571D01*
X91874761Y-82041666D01*
X91836666Y-82117857D01*
X91836666Y-82270238D01*
X91874761Y-82346428D01*
X91912857Y-82384523D01*
X91989047Y-82422619D01*
X80785714Y-95085714D02*
X80747619Y-95123809D01*
X80633333Y-95161904D01*
X80557142Y-95161904D01*
X80442857Y-95123809D01*
X80366666Y-95047619D01*
X80328571Y-94971428D01*
X80290476Y-94819047D01*
X80290476Y-94704761D01*
X80328571Y-94552380D01*
X80366666Y-94476190D01*
X80442857Y-94400000D01*
X80557142Y-94361904D01*
X80633333Y-94361904D01*
X80747619Y-94400000D01*
X80785714Y-94438095D01*
X81547619Y-95161904D02*
X81090476Y-95161904D01*
X81319047Y-95161904D02*
X81319047Y-94361904D01*
X81242857Y-94476190D01*
X81166666Y-94552380D01*
X81090476Y-94590476D01*
X82271428Y-94361904D02*
X81890476Y-94361904D01*
X81852380Y-94742857D01*
X81890476Y-94704761D01*
X81966666Y-94666666D01*
X82157142Y-94666666D01*
X82233333Y-94704761D01*
X82271428Y-94742857D01*
X82309523Y-94819047D01*
X82309523Y-95009523D01*
X82271428Y-95085714D01*
X82233333Y-95123809D01*
X82157142Y-95161904D01*
X81966666Y-95161904D01*
X81890476Y-95123809D01*
X81852380Y-95085714D01*
X91085714Y-100014285D02*
X91123809Y-100052380D01*
X91161904Y-100166666D01*
X91161904Y-100242857D01*
X91123809Y-100357142D01*
X91047619Y-100433333D01*
X90971428Y-100471428D01*
X90819047Y-100509523D01*
X90704761Y-100509523D01*
X90552380Y-100471428D01*
X90476190Y-100433333D01*
X90400000Y-100357142D01*
X90361904Y-100242857D01*
X90361904Y-100166666D01*
X90400000Y-100052380D01*
X90438095Y-100014285D01*
X91161904Y-99252380D02*
X91161904Y-99709523D01*
X91161904Y-99480952D02*
X90361904Y-99480952D01*
X90476190Y-99557142D01*
X90552380Y-99633333D01*
X90590476Y-99709523D01*
X90628571Y-98566666D02*
X91161904Y-98566666D01*
X90323809Y-98757142D02*
X90895238Y-98947619D01*
X90895238Y-98452380D01*
X93185714Y-100014285D02*
X93223809Y-100052380D01*
X93261904Y-100166666D01*
X93261904Y-100242857D01*
X93223809Y-100357142D01*
X93147619Y-100433333D01*
X93071428Y-100471428D01*
X92919047Y-100509523D01*
X92804761Y-100509523D01*
X92652380Y-100471428D01*
X92576190Y-100433333D01*
X92500000Y-100357142D01*
X92461904Y-100242857D01*
X92461904Y-100166666D01*
X92500000Y-100052380D01*
X92538095Y-100014285D01*
X93261904Y-99252380D02*
X93261904Y-99709523D01*
X93261904Y-99480952D02*
X92461904Y-99480952D01*
X92576190Y-99557142D01*
X92652380Y-99633333D01*
X92690476Y-99709523D01*
X92461904Y-98985714D02*
X92461904Y-98490476D01*
X92766666Y-98757142D01*
X92766666Y-98642857D01*
X92804761Y-98566666D01*
X92842857Y-98528571D01*
X92919047Y-98490476D01*
X93109523Y-98490476D01*
X93185714Y-98528571D01*
X93223809Y-98566666D01*
X93261904Y-98642857D01*
X93261904Y-98871428D01*
X93223809Y-98947619D01*
X93185714Y-98985714D01*
X75485714Y-79885714D02*
X75447619Y-79923809D01*
X75333333Y-79961904D01*
X75257142Y-79961904D01*
X75142857Y-79923809D01*
X75066666Y-79847619D01*
X75028571Y-79771428D01*
X74990476Y-79619047D01*
X74990476Y-79504761D01*
X75028571Y-79352380D01*
X75066666Y-79276190D01*
X75142857Y-79200000D01*
X75257142Y-79161904D01*
X75333333Y-79161904D01*
X75447619Y-79200000D01*
X75485714Y-79238095D01*
X76247619Y-79961904D02*
X75790476Y-79961904D01*
X76019047Y-79961904D02*
X76019047Y-79161904D01*
X75942857Y-79276190D01*
X75866666Y-79352380D01*
X75790476Y-79390476D01*
X76552380Y-79238095D02*
X76590476Y-79200000D01*
X76666666Y-79161904D01*
X76857142Y-79161904D01*
X76933333Y-79200000D01*
X76971428Y-79238095D01*
X77009523Y-79314285D01*
X77009523Y-79390476D01*
X76971428Y-79504761D01*
X76514285Y-79961904D01*
X77009523Y-79961904D01*
X75385714Y-76085714D02*
X75347619Y-76123809D01*
X75233333Y-76161904D01*
X75157142Y-76161904D01*
X75042857Y-76123809D01*
X74966666Y-76047619D01*
X74928571Y-75971428D01*
X74890476Y-75819047D01*
X74890476Y-75704761D01*
X74928571Y-75552380D01*
X74966666Y-75476190D01*
X75042857Y-75400000D01*
X75157142Y-75361904D01*
X75233333Y-75361904D01*
X75347619Y-75400000D01*
X75385714Y-75438095D01*
X76147619Y-76161904D02*
X75690476Y-76161904D01*
X75919047Y-76161904D02*
X75919047Y-75361904D01*
X75842857Y-75476190D01*
X75766666Y-75552380D01*
X75690476Y-75590476D01*
X76909523Y-76161904D02*
X76452380Y-76161904D01*
X76680952Y-76161904D02*
X76680952Y-75361904D01*
X76604761Y-75476190D01*
X76528571Y-75552380D01*
X76452380Y-75590476D01*
X108135714Y-132314285D02*
X108173809Y-132352380D01*
X108211904Y-132466666D01*
X108211904Y-132542857D01*
X108173809Y-132657142D01*
X108097619Y-132733333D01*
X108021428Y-132771428D01*
X107869047Y-132809523D01*
X107754761Y-132809523D01*
X107602380Y-132771428D01*
X107526190Y-132733333D01*
X107450000Y-132657142D01*
X107411904Y-132542857D01*
X107411904Y-132466666D01*
X107450000Y-132352380D01*
X107488095Y-132314285D01*
X108211904Y-131552380D02*
X108211904Y-132009523D01*
X108211904Y-131780952D02*
X107411904Y-131780952D01*
X107526190Y-131857142D01*
X107602380Y-131933333D01*
X107640476Y-132009523D01*
X107411904Y-131057142D02*
X107411904Y-130980952D01*
X107450000Y-130904761D01*
X107488095Y-130866666D01*
X107564285Y-130828571D01*
X107716666Y-130790476D01*
X107907142Y-130790476D01*
X108059523Y-130828571D01*
X108135714Y-130866666D01*
X108173809Y-130904761D01*
X108211904Y-130980952D01*
X108211904Y-131057142D01*
X108173809Y-131133333D01*
X108135714Y-131171428D01*
X108059523Y-131209523D01*
X107907142Y-131247619D01*
X107716666Y-131247619D01*
X107564285Y-131209523D01*
X107488095Y-131171428D01*
X107450000Y-131133333D01*
X107411904Y-131057142D01*
X95185714Y-99933333D02*
X95223809Y-99971428D01*
X95261904Y-100085714D01*
X95261904Y-100161904D01*
X95223809Y-100276190D01*
X95147619Y-100352380D01*
X95071428Y-100390476D01*
X94919047Y-100428571D01*
X94804761Y-100428571D01*
X94652380Y-100390476D01*
X94576190Y-100352380D01*
X94500000Y-100276190D01*
X94461904Y-100161904D01*
X94461904Y-100085714D01*
X94500000Y-99971428D01*
X94538095Y-99933333D01*
X95261904Y-99552380D02*
X95261904Y-99400000D01*
X95223809Y-99323809D01*
X95185714Y-99285714D01*
X95071428Y-99209523D01*
X94919047Y-99171428D01*
X94614285Y-99171428D01*
X94538095Y-99209523D01*
X94500000Y-99247619D01*
X94461904Y-99323809D01*
X94461904Y-99476190D01*
X94500000Y-99552380D01*
X94538095Y-99590476D01*
X94614285Y-99628571D01*
X94804761Y-99628571D01*
X94880952Y-99590476D01*
X94919047Y-99552380D01*
X94957142Y-99476190D01*
X94957142Y-99323809D01*
X94919047Y-99247619D01*
X94880952Y-99209523D01*
X94804761Y-99171428D01*
X75366666Y-71885714D02*
X75328571Y-71923809D01*
X75214285Y-71961904D01*
X75138095Y-71961904D01*
X75023809Y-71923809D01*
X74947619Y-71847619D01*
X74909523Y-71771428D01*
X74871428Y-71619047D01*
X74871428Y-71504761D01*
X74909523Y-71352380D01*
X74947619Y-71276190D01*
X75023809Y-71200000D01*
X75138095Y-71161904D01*
X75214285Y-71161904D01*
X75328571Y-71200000D01*
X75366666Y-71238095D01*
X75823809Y-71504761D02*
X75747619Y-71466666D01*
X75709523Y-71428571D01*
X75671428Y-71352380D01*
X75671428Y-71314285D01*
X75709523Y-71238095D01*
X75747619Y-71200000D01*
X75823809Y-71161904D01*
X75976190Y-71161904D01*
X76052380Y-71200000D01*
X76090476Y-71238095D01*
X76128571Y-71314285D01*
X76128571Y-71352380D01*
X76090476Y-71428571D01*
X76052380Y-71466666D01*
X75976190Y-71504761D01*
X75823809Y-71504761D01*
X75747619Y-71542857D01*
X75709523Y-71580952D01*
X75671428Y-71657142D01*
X75671428Y-71809523D01*
X75709523Y-71885714D01*
X75747619Y-71923809D01*
X75823809Y-71961904D01*
X75976190Y-71961904D01*
X76052380Y-71923809D01*
X76090476Y-71885714D01*
X76128571Y-71809523D01*
X76128571Y-71657142D01*
X76090476Y-71580952D01*
X76052380Y-71542857D01*
X75976190Y-71504761D01*
X66235714Y-123533333D02*
X66273809Y-123571428D01*
X66311904Y-123685714D01*
X66311904Y-123761904D01*
X66273809Y-123876190D01*
X66197619Y-123952380D01*
X66121428Y-123990476D01*
X65969047Y-124028571D01*
X65854761Y-124028571D01*
X65702380Y-123990476D01*
X65626190Y-123952380D01*
X65550000Y-123876190D01*
X65511904Y-123761904D01*
X65511904Y-123685714D01*
X65550000Y-123571428D01*
X65588095Y-123533333D01*
X65511904Y-123266666D02*
X65511904Y-122733333D01*
X66311904Y-123076190D01*
X107740714Y-77533333D02*
X107778809Y-77571428D01*
X107816904Y-77685714D01*
X107816904Y-77761904D01*
X107778809Y-77876190D01*
X107702619Y-77952380D01*
X107626428Y-77990476D01*
X107474047Y-78028571D01*
X107359761Y-78028571D01*
X107207380Y-77990476D01*
X107131190Y-77952380D01*
X107055000Y-77876190D01*
X107016904Y-77761904D01*
X107016904Y-77685714D01*
X107055000Y-77571428D01*
X107093095Y-77533333D01*
X107016904Y-76847619D02*
X107016904Y-77000000D01*
X107055000Y-77076190D01*
X107093095Y-77114285D01*
X107207380Y-77190476D01*
X107359761Y-77228571D01*
X107664523Y-77228571D01*
X107740714Y-77190476D01*
X107778809Y-77152380D01*
X107816904Y-77076190D01*
X107816904Y-76923809D01*
X107778809Y-76847619D01*
X107740714Y-76809523D01*
X107664523Y-76771428D01*
X107474047Y-76771428D01*
X107397857Y-76809523D01*
X107359761Y-76847619D01*
X107321666Y-76923809D01*
X107321666Y-77076190D01*
X107359761Y-77152380D01*
X107397857Y-77190476D01*
X107474047Y-77228571D01*
X111580714Y-77533333D02*
X111618809Y-77571428D01*
X111656904Y-77685714D01*
X111656904Y-77761904D01*
X111618809Y-77876190D01*
X111542619Y-77952380D01*
X111466428Y-77990476D01*
X111314047Y-78028571D01*
X111199761Y-78028571D01*
X111047380Y-77990476D01*
X110971190Y-77952380D01*
X110895000Y-77876190D01*
X110856904Y-77761904D01*
X110856904Y-77685714D01*
X110895000Y-77571428D01*
X110933095Y-77533333D01*
X110856904Y-76809523D02*
X110856904Y-77190476D01*
X111237857Y-77228571D01*
X111199761Y-77190476D01*
X111161666Y-77114285D01*
X111161666Y-76923809D01*
X111199761Y-76847619D01*
X111237857Y-76809523D01*
X111314047Y-76771428D01*
X111504523Y-76771428D01*
X111580714Y-76809523D01*
X111618809Y-76847619D01*
X111656904Y-76923809D01*
X111656904Y-77114285D01*
X111618809Y-77190476D01*
X111580714Y-77228571D01*
X96140714Y-77733333D02*
X96178809Y-77771428D01*
X96216904Y-77885714D01*
X96216904Y-77961904D01*
X96178809Y-78076190D01*
X96102619Y-78152380D01*
X96026428Y-78190476D01*
X95874047Y-78228571D01*
X95759761Y-78228571D01*
X95607380Y-78190476D01*
X95531190Y-78152380D01*
X95455000Y-78076190D01*
X95416904Y-77961904D01*
X95416904Y-77885714D01*
X95455000Y-77771428D01*
X95493095Y-77733333D01*
X95683571Y-77047619D02*
X96216904Y-77047619D01*
X95378809Y-77238095D02*
X95950238Y-77428571D01*
X95950238Y-76933333D01*
X99980714Y-77733333D02*
X100018809Y-77771428D01*
X100056904Y-77885714D01*
X100056904Y-77961904D01*
X100018809Y-78076190D01*
X99942619Y-78152380D01*
X99866428Y-78190476D01*
X99714047Y-78228571D01*
X99599761Y-78228571D01*
X99447380Y-78190476D01*
X99371190Y-78152380D01*
X99295000Y-78076190D01*
X99256904Y-77961904D01*
X99256904Y-77885714D01*
X99295000Y-77771428D01*
X99333095Y-77733333D01*
X99256904Y-77466666D02*
X99256904Y-76971428D01*
X99561666Y-77238095D01*
X99561666Y-77123809D01*
X99599761Y-77047619D01*
X99637857Y-77009523D01*
X99714047Y-76971428D01*
X99904523Y-76971428D01*
X99980714Y-77009523D01*
X100018809Y-77047619D01*
X100056904Y-77123809D01*
X100056904Y-77352380D01*
X100018809Y-77428571D01*
X99980714Y-77466666D01*
X84185714Y-77833333D02*
X84223809Y-77871428D01*
X84261904Y-77985714D01*
X84261904Y-78061904D01*
X84223809Y-78176190D01*
X84147619Y-78252380D01*
X84071428Y-78290476D01*
X83919047Y-78328571D01*
X83804761Y-78328571D01*
X83652380Y-78290476D01*
X83576190Y-78252380D01*
X83500000Y-78176190D01*
X83461904Y-78061904D01*
X83461904Y-77985714D01*
X83500000Y-77871428D01*
X83538095Y-77833333D01*
X83538095Y-77528571D02*
X83500000Y-77490476D01*
X83461904Y-77414285D01*
X83461904Y-77223809D01*
X83500000Y-77147619D01*
X83538095Y-77109523D01*
X83614285Y-77071428D01*
X83690476Y-77071428D01*
X83804761Y-77109523D01*
X84261904Y-77566666D01*
X84261904Y-77071428D01*
X88380714Y-77733333D02*
X88418809Y-77771428D01*
X88456904Y-77885714D01*
X88456904Y-77961904D01*
X88418809Y-78076190D01*
X88342619Y-78152380D01*
X88266428Y-78190476D01*
X88114047Y-78228571D01*
X87999761Y-78228571D01*
X87847380Y-78190476D01*
X87771190Y-78152380D01*
X87695000Y-78076190D01*
X87656904Y-77961904D01*
X87656904Y-77885714D01*
X87695000Y-77771428D01*
X87733095Y-77733333D01*
X88456904Y-76971428D02*
X88456904Y-77428571D01*
X88456904Y-77200000D02*
X87656904Y-77200000D01*
X87771190Y-77276190D01*
X87847380Y-77352380D01*
X87885476Y-77428571D01*
%LPC*%
D13*
X130650000Y-109835000D03*
X128110000Y-109835000D03*
X125570000Y-109835000D03*
X123030000Y-109835000D03*
X120490000Y-109835000D03*
X117950000Y-109835000D03*
X115410000Y-109835000D03*
X112870000Y-109835000D03*
X112870000Y-86975000D03*
X115410000Y-86975000D03*
X117950000Y-86975000D03*
X120490000Y-86975000D03*
X123030000Y-86975000D03*
X125570000Y-86975000D03*
D14*
X130650000Y-86975000D03*
D13*
X128110000Y-86975000D03*
D15*
X49925000Y-98600000D03*
X49925000Y-103600000D03*
X49925000Y-108600000D03*
D16*
X49925000Y-113600000D03*
D17*
X129650000Y-123670000D03*
X116950000Y-116050000D03*
X127110000Y-123670000D03*
X119490000Y-116050000D03*
X124570000Y-123670000D03*
X122030000Y-116050000D03*
X122030000Y-123670000D03*
X124570000Y-116050000D03*
X119490000Y-123670000D03*
X127110000Y-116050000D03*
X116950000Y-123670000D03*
D18*
X129650000Y-116050000D03*
D19*
X72925000Y-107000000D03*
X71125000Y-112000000D03*
D20*
X122725000Y-76705000D03*
X120185000Y-76705000D03*
X122725000Y-74165000D03*
X120185000Y-74165000D03*
X122725000Y-71625000D03*
X120185000Y-71625000D03*
X122725000Y-69085000D03*
X120185000Y-69085000D03*
X122725000Y-66545000D03*
X120185000Y-66545000D03*
X122725000Y-64005000D03*
D21*
X120185000Y-64005000D03*
D20*
X66125000Y-98780000D03*
X66125000Y-101320000D03*
X66125000Y-103860000D03*
D21*
X66125000Y-106400000D03*
D22*
X97175000Y-101475000D03*
X98825000Y-102725000D03*
X98825000Y-101475000D03*
X97175000Y-102725000D03*
D23*
X92630000Y-88095000D03*
X93130000Y-88095000D03*
X93630000Y-88095000D03*
X94130000Y-88095000D03*
X94630000Y-88095000D03*
X95130000Y-88095000D03*
X95630000Y-88095000D03*
X96130000Y-88095000D03*
X96630000Y-88095000D03*
X97130000Y-88095000D03*
X97630000Y-88095000D03*
X98130000Y-88095000D03*
D24*
X99730000Y-89695000D03*
X99730000Y-90195000D03*
X99730000Y-90695000D03*
X99730000Y-91195000D03*
X99730000Y-91695000D03*
X99730000Y-92195000D03*
X99730000Y-92695000D03*
X99730000Y-93195000D03*
X99730000Y-93695000D03*
X99730000Y-94195000D03*
X99730000Y-94695000D03*
X99730000Y-95195000D03*
D23*
X98130000Y-96795000D03*
X97630000Y-96795000D03*
X97130000Y-96795000D03*
X96630000Y-96795000D03*
X96130000Y-96795000D03*
X95630000Y-96795000D03*
X95130000Y-96795000D03*
X94630000Y-96795000D03*
X94130000Y-96795000D03*
X93630000Y-96795000D03*
X93130000Y-96795000D03*
X92630000Y-96795000D03*
D24*
X91030000Y-95195000D03*
X91030000Y-94695000D03*
X91030000Y-94195000D03*
X91030000Y-93695000D03*
X91030000Y-93195000D03*
X91030000Y-92695000D03*
X91030000Y-92195000D03*
X91030000Y-91695000D03*
X91030000Y-91195000D03*
X91030000Y-90695000D03*
X91030000Y-90195000D03*
X91030000Y-89695000D03*
D19*
X72925000Y-83600000D03*
X71125000Y-88600000D03*
X72925000Y-91400000D03*
X71125000Y-96400000D03*
X72925000Y-99200000D03*
X71125000Y-104200000D03*
G36*
G01*
X91150001Y-105100000D02*
X90249999Y-105100000D01*
G75*
G02*
X90000000Y-104850001I0J249999D01*
G01*
X90000000Y-104149999D01*
G75*
G02*
X90249999Y-103900000I249999J0D01*
G01*
X91150001Y-103900000D01*
G75*
G02*
X91400000Y-104149999I0J-249999D01*
G01*
X91400000Y-104850001D01*
G75*
G02*
X91150001Y-105100000I-249999J0D01*
G01*
G37*
G36*
G01*
X91150001Y-107100000D02*
X90249999Y-107100000D01*
G75*
G02*
X90000000Y-106850001I0J249999D01*
G01*
X90000000Y-106149999D01*
G75*
G02*
X90249999Y-105900000I249999J0D01*
G01*
X91150001Y-105900000D01*
G75*
G02*
X91400000Y-106149999I0J-249999D01*
G01*
X91400000Y-106850001D01*
G75*
G02*
X91150001Y-107100000I-249999J0D01*
G01*
G37*
G36*
G01*
X93250001Y-105100000D02*
X92349999Y-105100000D01*
G75*
G02*
X92100000Y-104850001I0J249999D01*
G01*
X92100000Y-104149999D01*
G75*
G02*
X92349999Y-103900000I249999J0D01*
G01*
X93250001Y-103900000D01*
G75*
G02*
X93500000Y-104149999I0J-249999D01*
G01*
X93500000Y-104850001D01*
G75*
G02*
X93250001Y-105100000I-249999J0D01*
G01*
G37*
G36*
G01*
X93250001Y-107100000D02*
X92349999Y-107100000D01*
G75*
G02*
X92100000Y-106850001I0J249999D01*
G01*
X92100000Y-106149999D01*
G75*
G02*
X92349999Y-105900000I249999J0D01*
G01*
X93250001Y-105900000D01*
G75*
G02*
X93500000Y-106149999I0J-249999D01*
G01*
X93500000Y-106850001D01*
G75*
G02*
X93250001Y-107100000I-249999J0D01*
G01*
G37*
G36*
G01*
X95350001Y-105100000D02*
X94449999Y-105100000D01*
G75*
G02*
X94200000Y-104850001I0J249999D01*
G01*
X94200000Y-104149999D01*
G75*
G02*
X94449999Y-103900000I249999J0D01*
G01*
X95350001Y-103900000D01*
G75*
G02*
X95600000Y-104149999I0J-249999D01*
G01*
X95600000Y-104850001D01*
G75*
G02*
X95350001Y-105100000I-249999J0D01*
G01*
G37*
G36*
G01*
X95350001Y-107100000D02*
X94449999Y-107100000D01*
G75*
G02*
X94200000Y-106850001I0J249999D01*
G01*
X94200000Y-106149999D01*
G75*
G02*
X94449999Y-105900000I249999J0D01*
G01*
X95350001Y-105900000D01*
G75*
G02*
X95600000Y-106149999I0J-249999D01*
G01*
X95600000Y-106850001D01*
G75*
G02*
X95350001Y-107100000I-249999J0D01*
G01*
G37*
G36*
G01*
X73250000Y-78100001D02*
X73250000Y-77199999D01*
G75*
G02*
X73499999Y-76950000I249999J0D01*
G01*
X74200001Y-76950000D01*
G75*
G02*
X74450000Y-77199999I0J-249999D01*
G01*
X74450000Y-78100001D01*
G75*
G02*
X74200001Y-78350000I-249999J0D01*
G01*
X73499999Y-78350000D01*
G75*
G02*
X73250000Y-78100001I0J249999D01*
G01*
G37*
G36*
G01*
X71250000Y-78100001D02*
X71250000Y-77199999D01*
G75*
G02*
X71499999Y-76950000I249999J0D01*
G01*
X72200001Y-76950000D01*
G75*
G02*
X72450000Y-77199999I0J-249999D01*
G01*
X72450000Y-78100001D01*
G75*
G02*
X72200001Y-78350000I-249999J0D01*
G01*
X71499999Y-78350000D01*
G75*
G02*
X71250000Y-78100001I0J249999D01*
G01*
G37*
G36*
G01*
X73250000Y-74100001D02*
X73250000Y-73199999D01*
G75*
G02*
X73499999Y-72950000I249999J0D01*
G01*
X74200001Y-72950000D01*
G75*
G02*
X74450000Y-73199999I0J-249999D01*
G01*
X74450000Y-74100001D01*
G75*
G02*
X74200001Y-74350000I-249999J0D01*
G01*
X73499999Y-74350000D01*
G75*
G02*
X73250000Y-74100001I0J249999D01*
G01*
G37*
G36*
G01*
X71250000Y-74100001D02*
X71250000Y-73199999D01*
G75*
G02*
X71499999Y-72950000I249999J0D01*
G01*
X72200001Y-72950000D01*
G75*
G02*
X72450000Y-73199999I0J-249999D01*
G01*
X72450000Y-74100001D01*
G75*
G02*
X72200001Y-74350000I-249999J0D01*
G01*
X71499999Y-74350000D01*
G75*
G02*
X71250000Y-74100001I0J249999D01*
G01*
G37*
G36*
G01*
X73250000Y-69900001D02*
X73250000Y-68999999D01*
G75*
G02*
X73499999Y-68750000I249999J0D01*
G01*
X74200001Y-68750000D01*
G75*
G02*
X74450000Y-68999999I0J-249999D01*
G01*
X74450000Y-69900001D01*
G75*
G02*
X74200001Y-70150000I-249999J0D01*
G01*
X73499999Y-70150000D01*
G75*
G02*
X73250000Y-69900001I0J249999D01*
G01*
G37*
G36*
G01*
X71250000Y-69900001D02*
X71250000Y-68999999D01*
G75*
G02*
X71499999Y-68750000I249999J0D01*
G01*
X72200001Y-68750000D01*
G75*
G02*
X72450000Y-68999999I0J-249999D01*
G01*
X72450000Y-69900001D01*
G75*
G02*
X72200001Y-70150000I-249999J0D01*
G01*
X71499999Y-70150000D01*
G75*
G02*
X71250000Y-69900001I0J249999D01*
G01*
G37*
G36*
G01*
X69050000Y-78100001D02*
X69050000Y-77199999D01*
G75*
G02*
X69299999Y-76950000I249999J0D01*
G01*
X70000001Y-76950000D01*
G75*
G02*
X70250000Y-77199999I0J-249999D01*
G01*
X70250000Y-78100001D01*
G75*
G02*
X70000001Y-78350000I-249999J0D01*
G01*
X69299999Y-78350000D01*
G75*
G02*
X69050000Y-78100001I0J249999D01*
G01*
G37*
G36*
G01*
X67050000Y-78100001D02*
X67050000Y-77199999D01*
G75*
G02*
X67299999Y-76950000I249999J0D01*
G01*
X68000001Y-76950000D01*
G75*
G02*
X68250000Y-77199999I0J-249999D01*
G01*
X68250000Y-78100001D01*
G75*
G02*
X68000001Y-78350000I-249999J0D01*
G01*
X67299999Y-78350000D01*
G75*
G02*
X67050000Y-78100001I0J249999D01*
G01*
G37*
G36*
G01*
X69050000Y-74100001D02*
X69050000Y-73199999D01*
G75*
G02*
X69299999Y-72950000I249999J0D01*
G01*
X70000001Y-72950000D01*
G75*
G02*
X70250000Y-73199999I0J-249999D01*
G01*
X70250000Y-74100001D01*
G75*
G02*
X70000001Y-74350000I-249999J0D01*
G01*
X69299999Y-74350000D01*
G75*
G02*
X69050000Y-74100001I0J249999D01*
G01*
G37*
G36*
G01*
X67050000Y-74100001D02*
X67050000Y-73199999D01*
G75*
G02*
X67299999Y-72950000I249999J0D01*
G01*
X68000001Y-72950000D01*
G75*
G02*
X68250000Y-73199999I0J-249999D01*
G01*
X68250000Y-74100001D01*
G75*
G02*
X68000001Y-74350000I-249999J0D01*
G01*
X67299999Y-74350000D01*
G75*
G02*
X67050000Y-74100001I0J249999D01*
G01*
G37*
G36*
G01*
X69050000Y-69900001D02*
X69050000Y-68999999D01*
G75*
G02*
X69299999Y-68750000I249999J0D01*
G01*
X70000001Y-68750000D01*
G75*
G02*
X70250000Y-68999999I0J-249999D01*
G01*
X70250000Y-69900001D01*
G75*
G02*
X70000001Y-70150000I-249999J0D01*
G01*
X69299999Y-70150000D01*
G75*
G02*
X69050000Y-69900001I0J249999D01*
G01*
G37*
G36*
G01*
X67050000Y-69900001D02*
X67050000Y-68999999D01*
G75*
G02*
X67299999Y-68750000I249999J0D01*
G01*
X68000001Y-68750000D01*
G75*
G02*
X68250000Y-68999999I0J-249999D01*
G01*
X68250000Y-69900001D01*
G75*
G02*
X68000001Y-70150000I-249999J0D01*
G01*
X67299999Y-70150000D01*
G75*
G02*
X67050000Y-69900001I0J249999D01*
G01*
G37*
G36*
G01*
X64850000Y-78100001D02*
X64850000Y-77199999D01*
G75*
G02*
X65099999Y-76950000I249999J0D01*
G01*
X65800001Y-76950000D01*
G75*
G02*
X66050000Y-77199999I0J-249999D01*
G01*
X66050000Y-78100001D01*
G75*
G02*
X65800001Y-78350000I-249999J0D01*
G01*
X65099999Y-78350000D01*
G75*
G02*
X64850000Y-78100001I0J249999D01*
G01*
G37*
G36*
G01*
X62850000Y-78100001D02*
X62850000Y-77199999D01*
G75*
G02*
X63099999Y-76950000I249999J0D01*
G01*
X63800001Y-76950000D01*
G75*
G02*
X64050000Y-77199999I0J-249999D01*
G01*
X64050000Y-78100001D01*
G75*
G02*
X63800001Y-78350000I-249999J0D01*
G01*
X63099999Y-78350000D01*
G75*
G02*
X62850000Y-78100001I0J249999D01*
G01*
G37*
G36*
G01*
X64850000Y-74100001D02*
X64850000Y-73199999D01*
G75*
G02*
X65099999Y-72950000I249999J0D01*
G01*
X65800001Y-72950000D01*
G75*
G02*
X66050000Y-73199999I0J-249999D01*
G01*
X66050000Y-74100001D01*
G75*
G02*
X65800001Y-74350000I-249999J0D01*
G01*
X65099999Y-74350000D01*
G75*
G02*
X64850000Y-74100001I0J249999D01*
G01*
G37*
G36*
G01*
X62850000Y-74100001D02*
X62850000Y-73199999D01*
G75*
G02*
X63099999Y-72950000I249999J0D01*
G01*
X63800001Y-72950000D01*
G75*
G02*
X64050000Y-73199999I0J-249999D01*
G01*
X64050000Y-74100001D01*
G75*
G02*
X63800001Y-74350000I-249999J0D01*
G01*
X63099999Y-74350000D01*
G75*
G02*
X62850000Y-74100001I0J249999D01*
G01*
G37*
G36*
G01*
X64850000Y-69900001D02*
X64850000Y-68999999D01*
G75*
G02*
X65099999Y-68750000I249999J0D01*
G01*
X65800001Y-68750000D01*
G75*
G02*
X66050000Y-68999999I0J-249999D01*
G01*
X66050000Y-69900001D01*
G75*
G02*
X65800001Y-70150000I-249999J0D01*
G01*
X65099999Y-70150000D01*
G75*
G02*
X64850000Y-69900001I0J249999D01*
G01*
G37*
G36*
G01*
X62850000Y-69900001D02*
X62850000Y-68999999D01*
G75*
G02*
X63099999Y-68750000I249999J0D01*
G01*
X63800001Y-68750000D01*
G75*
G02*
X64050000Y-68999999I0J-249999D01*
G01*
X64050000Y-69900001D01*
G75*
G02*
X63800001Y-70150000I-249999J0D01*
G01*
X63099999Y-70150000D01*
G75*
G02*
X62850000Y-69900001I0J249999D01*
G01*
G37*
G36*
G01*
X60650000Y-78100001D02*
X60650000Y-77199999D01*
G75*
G02*
X60899999Y-76950000I249999J0D01*
G01*
X61600001Y-76950000D01*
G75*
G02*
X61850000Y-77199999I0J-249999D01*
G01*
X61850000Y-78100001D01*
G75*
G02*
X61600001Y-78350000I-249999J0D01*
G01*
X60899999Y-78350000D01*
G75*
G02*
X60650000Y-78100001I0J249999D01*
G01*
G37*
G36*
G01*
X58650000Y-78100001D02*
X58650000Y-77199999D01*
G75*
G02*
X58899999Y-76950000I249999J0D01*
G01*
X59600001Y-76950000D01*
G75*
G02*
X59850000Y-77199999I0J-249999D01*
G01*
X59850000Y-78100001D01*
G75*
G02*
X59600001Y-78350000I-249999J0D01*
G01*
X58899999Y-78350000D01*
G75*
G02*
X58650000Y-78100001I0J249999D01*
G01*
G37*
G36*
G01*
X60650000Y-74100001D02*
X60650000Y-73199999D01*
G75*
G02*
X60899999Y-72950000I249999J0D01*
G01*
X61600001Y-72950000D01*
G75*
G02*
X61850000Y-73199999I0J-249999D01*
G01*
X61850000Y-74100001D01*
G75*
G02*
X61600001Y-74350000I-249999J0D01*
G01*
X60899999Y-74350000D01*
G75*
G02*
X60650000Y-74100001I0J249999D01*
G01*
G37*
G36*
G01*
X58650000Y-74100001D02*
X58650000Y-73199999D01*
G75*
G02*
X58899999Y-72950000I249999J0D01*
G01*
X59600001Y-72950000D01*
G75*
G02*
X59850000Y-73199999I0J-249999D01*
G01*
X59850000Y-74100001D01*
G75*
G02*
X59600001Y-74350000I-249999J0D01*
G01*
X58899999Y-74350000D01*
G75*
G02*
X58650000Y-74100001I0J249999D01*
G01*
G37*
G36*
G01*
X60650000Y-69900001D02*
X60650000Y-68999999D01*
G75*
G02*
X60899999Y-68750000I249999J0D01*
G01*
X61600001Y-68750000D01*
G75*
G02*
X61850000Y-68999999I0J-249999D01*
G01*
X61850000Y-69900001D01*
G75*
G02*
X61600001Y-70150000I-249999J0D01*
G01*
X60899999Y-70150000D01*
G75*
G02*
X60650000Y-69900001I0J249999D01*
G01*
G37*
G36*
G01*
X58650000Y-69900001D02*
X58650000Y-68999999D01*
G75*
G02*
X58899999Y-68750000I249999J0D01*
G01*
X59600001Y-68750000D01*
G75*
G02*
X59850000Y-68999999I0J-249999D01*
G01*
X59850000Y-69900001D01*
G75*
G02*
X59600001Y-70150000I-249999J0D01*
G01*
X58899999Y-70150000D01*
G75*
G02*
X58650000Y-69900001I0J249999D01*
G01*
G37*
G36*
G01*
X56450000Y-78100001D02*
X56450000Y-77199999D01*
G75*
G02*
X56699999Y-76950000I249999J0D01*
G01*
X57400001Y-76950000D01*
G75*
G02*
X57650000Y-77199999I0J-249999D01*
G01*
X57650000Y-78100001D01*
G75*
G02*
X57400001Y-78350000I-249999J0D01*
G01*
X56699999Y-78350000D01*
G75*
G02*
X56450000Y-78100001I0J249999D01*
G01*
G37*
G36*
G01*
X54450000Y-78100001D02*
X54450000Y-77199999D01*
G75*
G02*
X54699999Y-76950000I249999J0D01*
G01*
X55400001Y-76950000D01*
G75*
G02*
X55650000Y-77199999I0J-249999D01*
G01*
X55650000Y-78100001D01*
G75*
G02*
X55400001Y-78350000I-249999J0D01*
G01*
X54699999Y-78350000D01*
G75*
G02*
X54450000Y-78100001I0J249999D01*
G01*
G37*
G36*
G01*
X56450000Y-74100001D02*
X56450000Y-73199999D01*
G75*
G02*
X56699999Y-72950000I249999J0D01*
G01*
X57400001Y-72950000D01*
G75*
G02*
X57650000Y-73199999I0J-249999D01*
G01*
X57650000Y-74100001D01*
G75*
G02*
X57400001Y-74350000I-249999J0D01*
G01*
X56699999Y-74350000D01*
G75*
G02*
X56450000Y-74100001I0J249999D01*
G01*
G37*
G36*
G01*
X54450000Y-74100001D02*
X54450000Y-73199999D01*
G75*
G02*
X54699999Y-72950000I249999J0D01*
G01*
X55400001Y-72950000D01*
G75*
G02*
X55650000Y-73199999I0J-249999D01*
G01*
X55650000Y-74100001D01*
G75*
G02*
X55400001Y-74350000I-249999J0D01*
G01*
X54699999Y-74350000D01*
G75*
G02*
X54450000Y-74100001I0J249999D01*
G01*
G37*
G36*
G01*
X56450000Y-69900001D02*
X56450000Y-68999999D01*
G75*
G02*
X56699999Y-68750000I249999J0D01*
G01*
X57400001Y-68750000D01*
G75*
G02*
X57650000Y-68999999I0J-249999D01*
G01*
X57650000Y-69900001D01*
G75*
G02*
X57400001Y-70150000I-249999J0D01*
G01*
X56699999Y-70150000D01*
G75*
G02*
X56450000Y-69900001I0J249999D01*
G01*
G37*
G36*
G01*
X54450000Y-69900001D02*
X54450000Y-68999999D01*
G75*
G02*
X54699999Y-68750000I249999J0D01*
G01*
X55400001Y-68750000D01*
G75*
G02*
X55650000Y-68999999I0J-249999D01*
G01*
X55650000Y-69900001D01*
G75*
G02*
X55400001Y-70150000I-249999J0D01*
G01*
X54699999Y-70150000D01*
G75*
G02*
X54450000Y-69900001I0J249999D01*
G01*
G37*
G36*
G01*
X52250000Y-78100001D02*
X52250000Y-77199999D01*
G75*
G02*
X52499999Y-76950000I249999J0D01*
G01*
X53200001Y-76950000D01*
G75*
G02*
X53450000Y-77199999I0J-249999D01*
G01*
X53450000Y-78100001D01*
G75*
G02*
X53200001Y-78350000I-249999J0D01*
G01*
X52499999Y-78350000D01*
G75*
G02*
X52250000Y-78100001I0J249999D01*
G01*
G37*
G36*
G01*
X50250000Y-78100001D02*
X50250000Y-77199999D01*
G75*
G02*
X50499999Y-76950000I249999J0D01*
G01*
X51200001Y-76950000D01*
G75*
G02*
X51450000Y-77199999I0J-249999D01*
G01*
X51450000Y-78100001D01*
G75*
G02*
X51200001Y-78350000I-249999J0D01*
G01*
X50499999Y-78350000D01*
G75*
G02*
X50250000Y-78100001I0J249999D01*
G01*
G37*
G36*
G01*
X52250000Y-74100001D02*
X52250000Y-73199999D01*
G75*
G02*
X52499999Y-72950000I249999J0D01*
G01*
X53200001Y-72950000D01*
G75*
G02*
X53450000Y-73199999I0J-249999D01*
G01*
X53450000Y-74100001D01*
G75*
G02*
X53200001Y-74350000I-249999J0D01*
G01*
X52499999Y-74350000D01*
G75*
G02*
X52250000Y-74100001I0J249999D01*
G01*
G37*
G36*
G01*
X50250000Y-74100001D02*
X50250000Y-73199999D01*
G75*
G02*
X50499999Y-72950000I249999J0D01*
G01*
X51200001Y-72950000D01*
G75*
G02*
X51450000Y-73199999I0J-249999D01*
G01*
X51450000Y-74100001D01*
G75*
G02*
X51200001Y-74350000I-249999J0D01*
G01*
X50499999Y-74350000D01*
G75*
G02*
X50250000Y-74100001I0J249999D01*
G01*
G37*
G36*
G01*
X52250000Y-69900001D02*
X52250000Y-68999999D01*
G75*
G02*
X52499999Y-68750000I249999J0D01*
G01*
X53200001Y-68750000D01*
G75*
G02*
X53450000Y-68999999I0J-249999D01*
G01*
X53450000Y-69900001D01*
G75*
G02*
X53200001Y-70150000I-249999J0D01*
G01*
X52499999Y-70150000D01*
G75*
G02*
X52250000Y-69900001I0J249999D01*
G01*
G37*
G36*
G01*
X50250000Y-69900001D02*
X50250000Y-68999999D01*
G75*
G02*
X50499999Y-68750000I249999J0D01*
G01*
X51200001Y-68750000D01*
G75*
G02*
X51450000Y-68999999I0J-249999D01*
G01*
X51450000Y-69900001D01*
G75*
G02*
X51200001Y-70150000I-249999J0D01*
G01*
X50499999Y-70150000D01*
G75*
G02*
X50250000Y-69900001I0J249999D01*
G01*
G37*
G36*
G01*
X105649999Y-74200000D02*
X106550001Y-74200000D01*
G75*
G02*
X106800000Y-74449999I0J-249999D01*
G01*
X106800000Y-75150001D01*
G75*
G02*
X106550001Y-75400000I-249999J0D01*
G01*
X105649999Y-75400000D01*
G75*
G02*
X105400000Y-75150001I0J249999D01*
G01*
X105400000Y-74449999D01*
G75*
G02*
X105649999Y-74200000I249999J0D01*
G01*
G37*
G36*
G01*
X105649999Y-72200000D02*
X106550001Y-72200000D01*
G75*
G02*
X106800000Y-72449999I0J-249999D01*
G01*
X106800000Y-73150001D01*
G75*
G02*
X106550001Y-73400000I-249999J0D01*
G01*
X105649999Y-73400000D01*
G75*
G02*
X105400000Y-73150001I0J249999D01*
G01*
X105400000Y-72449999D01*
G75*
G02*
X105649999Y-72200000I249999J0D01*
G01*
G37*
G36*
G01*
X113175001Y-73400000D02*
X112274999Y-73400000D01*
G75*
G02*
X112025000Y-73150001I0J249999D01*
G01*
X112025000Y-72449999D01*
G75*
G02*
X112274999Y-72200000I249999J0D01*
G01*
X113175001Y-72200000D01*
G75*
G02*
X113425000Y-72449999I0J-249999D01*
G01*
X113425000Y-73150001D01*
G75*
G02*
X113175001Y-73400000I-249999J0D01*
G01*
G37*
G36*
G01*
X113175001Y-75400000D02*
X112274999Y-75400000D01*
G75*
G02*
X112025000Y-75150001I0J249999D01*
G01*
X112025000Y-74449999D01*
G75*
G02*
X112274999Y-74200000I249999J0D01*
G01*
X113175001Y-74200000D01*
G75*
G02*
X113425000Y-74449999I0J-249999D01*
G01*
X113425000Y-75150001D01*
G75*
G02*
X113175001Y-75400000I-249999J0D01*
G01*
G37*
G36*
G01*
X93974999Y-74400000D02*
X94875001Y-74400000D01*
G75*
G02*
X95125000Y-74649999I0J-249999D01*
G01*
X95125000Y-75350001D01*
G75*
G02*
X94875001Y-75600000I-249999J0D01*
G01*
X93974999Y-75600000D01*
G75*
G02*
X93725000Y-75350001I0J249999D01*
G01*
X93725000Y-74649999D01*
G75*
G02*
X93974999Y-74400000I249999J0D01*
G01*
G37*
G36*
G01*
X93974999Y-72400000D02*
X94875001Y-72400000D01*
G75*
G02*
X95125000Y-72649999I0J-249999D01*
G01*
X95125000Y-73350001D01*
G75*
G02*
X94875001Y-73600000I-249999J0D01*
G01*
X93974999Y-73600000D01*
G75*
G02*
X93725000Y-73350001I0J249999D01*
G01*
X93725000Y-72649999D01*
G75*
G02*
X93974999Y-72400000I249999J0D01*
G01*
G37*
G36*
G01*
X101575001Y-73600000D02*
X100674999Y-73600000D01*
G75*
G02*
X100425000Y-73350001I0J249999D01*
G01*
X100425000Y-72649999D01*
G75*
G02*
X100674999Y-72400000I249999J0D01*
G01*
X101575001Y-72400000D01*
G75*
G02*
X101825000Y-72649999I0J-249999D01*
G01*
X101825000Y-73350001D01*
G75*
G02*
X101575001Y-73600000I-249999J0D01*
G01*
G37*
G36*
G01*
X101575001Y-75600000D02*
X100674999Y-75600000D01*
G75*
G02*
X100425000Y-75350001I0J249999D01*
G01*
X100425000Y-74649999D01*
G75*
G02*
X100674999Y-74400000I249999J0D01*
G01*
X101575001Y-74400000D01*
G75*
G02*
X101825000Y-74649999I0J-249999D01*
G01*
X101825000Y-75350001D01*
G75*
G02*
X101575001Y-75600000I-249999J0D01*
G01*
G37*
G36*
G01*
X82074999Y-74400000D02*
X82975001Y-74400000D01*
G75*
G02*
X83225000Y-74649999I0J-249999D01*
G01*
X83225000Y-75350001D01*
G75*
G02*
X82975001Y-75600000I-249999J0D01*
G01*
X82074999Y-75600000D01*
G75*
G02*
X81825000Y-75350001I0J249999D01*
G01*
X81825000Y-74649999D01*
G75*
G02*
X82074999Y-74400000I249999J0D01*
G01*
G37*
G36*
G01*
X82074999Y-72400000D02*
X82975001Y-72400000D01*
G75*
G02*
X83225000Y-72649999I0J-249999D01*
G01*
X83225000Y-73350001D01*
G75*
G02*
X82975001Y-73600000I-249999J0D01*
G01*
X82074999Y-73600000D01*
G75*
G02*
X81825000Y-73350001I0J249999D01*
G01*
X81825000Y-72649999D01*
G75*
G02*
X82074999Y-72400000I249999J0D01*
G01*
G37*
G36*
G01*
X89975001Y-73600000D02*
X89074999Y-73600000D01*
G75*
G02*
X88825000Y-73350001I0J249999D01*
G01*
X88825000Y-72649999D01*
G75*
G02*
X89074999Y-72400000I249999J0D01*
G01*
X89975001Y-72400000D01*
G75*
G02*
X90225000Y-72649999I0J-249999D01*
G01*
X90225000Y-73350001D01*
G75*
G02*
X89975001Y-73600000I-249999J0D01*
G01*
G37*
G36*
G01*
X89975001Y-75600000D02*
X89074999Y-75600000D01*
G75*
G02*
X88825000Y-75350001I0J249999D01*
G01*
X88825000Y-74649999D01*
G75*
G02*
X89074999Y-74400000I249999J0D01*
G01*
X89975001Y-74400000D01*
G75*
G02*
X90225000Y-74649999I0J-249999D01*
G01*
X90225000Y-75350001D01*
G75*
G02*
X89975001Y-75600000I-249999J0D01*
G01*
G37*
G36*
G01*
X108675001Y-73400000D02*
X107774999Y-73400000D01*
G75*
G02*
X107525000Y-73150001I0J249999D01*
G01*
X107525000Y-72449999D01*
G75*
G02*
X107774999Y-72200000I249999J0D01*
G01*
X108675001Y-72200000D01*
G75*
G02*
X108925000Y-72449999I0J-249999D01*
G01*
X108925000Y-73150001D01*
G75*
G02*
X108675001Y-73400000I-249999J0D01*
G01*
G37*
G36*
G01*
X108675001Y-75400000D02*
X107774999Y-75400000D01*
G75*
G02*
X107525000Y-75150001I0J249999D01*
G01*
X107525000Y-74449999D01*
G75*
G02*
X107774999Y-74200000I249999J0D01*
G01*
X108675001Y-74200000D01*
G75*
G02*
X108925000Y-74449999I0J-249999D01*
G01*
X108925000Y-75150001D01*
G75*
G02*
X108675001Y-75400000I-249999J0D01*
G01*
G37*
G36*
G01*
X110074999Y-74200000D02*
X110975001Y-74200000D01*
G75*
G02*
X111225000Y-74449999I0J-249999D01*
G01*
X111225000Y-75150001D01*
G75*
G02*
X110975001Y-75400000I-249999J0D01*
G01*
X110074999Y-75400000D01*
G75*
G02*
X109825000Y-75150001I0J249999D01*
G01*
X109825000Y-74449999D01*
G75*
G02*
X110074999Y-74200000I249999J0D01*
G01*
G37*
G36*
G01*
X110074999Y-72200000D02*
X110975001Y-72200000D01*
G75*
G02*
X111225000Y-72449999I0J-249999D01*
G01*
X111225000Y-73150001D01*
G75*
G02*
X110975001Y-73400000I-249999J0D01*
G01*
X110074999Y-73400000D01*
G75*
G02*
X109825000Y-73150001I0J249999D01*
G01*
X109825000Y-72449999D01*
G75*
G02*
X110074999Y-72200000I249999J0D01*
G01*
G37*
G36*
G01*
X97075001Y-73600000D02*
X96174999Y-73600000D01*
G75*
G02*
X95925000Y-73350001I0J249999D01*
G01*
X95925000Y-72649999D01*
G75*
G02*
X96174999Y-72400000I249999J0D01*
G01*
X97075001Y-72400000D01*
G75*
G02*
X97325000Y-72649999I0J-249999D01*
G01*
X97325000Y-73350001D01*
G75*
G02*
X97075001Y-73600000I-249999J0D01*
G01*
G37*
G36*
G01*
X97075001Y-75600000D02*
X96174999Y-75600000D01*
G75*
G02*
X95925000Y-75350001I0J249999D01*
G01*
X95925000Y-74649999D01*
G75*
G02*
X96174999Y-74400000I249999J0D01*
G01*
X97075001Y-74400000D01*
G75*
G02*
X97325000Y-74649999I0J-249999D01*
G01*
X97325000Y-75350001D01*
G75*
G02*
X97075001Y-75600000I-249999J0D01*
G01*
G37*
G36*
G01*
X98474999Y-74400000D02*
X99375001Y-74400000D01*
G75*
G02*
X99625000Y-74649999I0J-249999D01*
G01*
X99625000Y-75350001D01*
G75*
G02*
X99375001Y-75600000I-249999J0D01*
G01*
X98474999Y-75600000D01*
G75*
G02*
X98225000Y-75350001I0J249999D01*
G01*
X98225000Y-74649999D01*
G75*
G02*
X98474999Y-74400000I249999J0D01*
G01*
G37*
G36*
G01*
X98474999Y-72400000D02*
X99375001Y-72400000D01*
G75*
G02*
X99625000Y-72649999I0J-249999D01*
G01*
X99625000Y-73350001D01*
G75*
G02*
X99375001Y-73600000I-249999J0D01*
G01*
X98474999Y-73600000D01*
G75*
G02*
X98225000Y-73350001I0J249999D01*
G01*
X98225000Y-72649999D01*
G75*
G02*
X98474999Y-72400000I249999J0D01*
G01*
G37*
G36*
G01*
X85175001Y-73600000D02*
X84274999Y-73600000D01*
G75*
G02*
X84025000Y-73350001I0J249999D01*
G01*
X84025000Y-72649999D01*
G75*
G02*
X84274999Y-72400000I249999J0D01*
G01*
X85175001Y-72400000D01*
G75*
G02*
X85425000Y-72649999I0J-249999D01*
G01*
X85425000Y-73350001D01*
G75*
G02*
X85175001Y-73600000I-249999J0D01*
G01*
G37*
G36*
G01*
X85175001Y-75600000D02*
X84274999Y-75600000D01*
G75*
G02*
X84025000Y-75350001I0J249999D01*
G01*
X84025000Y-74649999D01*
G75*
G02*
X84274999Y-74400000I249999J0D01*
G01*
X85175001Y-74400000D01*
G75*
G02*
X85425000Y-74649999I0J-249999D01*
G01*
X85425000Y-75350001D01*
G75*
G02*
X85175001Y-75600000I-249999J0D01*
G01*
G37*
G36*
G01*
X86674999Y-74400000D02*
X87575001Y-74400000D01*
G75*
G02*
X87825000Y-74649999I0J-249999D01*
G01*
X87825000Y-75350001D01*
G75*
G02*
X87575001Y-75600000I-249999J0D01*
G01*
X86674999Y-75600000D01*
G75*
G02*
X86425000Y-75350001I0J249999D01*
G01*
X86425000Y-74649999D01*
G75*
G02*
X86674999Y-74400000I249999J0D01*
G01*
G37*
G36*
G01*
X86674999Y-72400000D02*
X87575001Y-72400000D01*
G75*
G02*
X87825000Y-72649999I0J-249999D01*
G01*
X87825000Y-73350001D01*
G75*
G02*
X87575001Y-73600000I-249999J0D01*
G01*
X86674999Y-73600000D01*
G75*
G02*
X86425000Y-73350001I0J249999D01*
G01*
X86425000Y-72649999D01*
G75*
G02*
X86674999Y-72400000I249999J0D01*
G01*
G37*
D25*
X104200000Y-126200000D03*
X76200000Y-133800000D03*
D26*
X76200000Y-118600000D03*
D25*
X104200000Y-118600000D03*
D15*
X61200000Y-124400000D03*
X56200000Y-124400000D03*
D27*
X109525000Y-65500000D03*
X109525000Y-58500000D03*
D28*
X105825000Y-66800000D03*
D29*
X105825000Y-57400000D03*
X113225000Y-59400000D03*
D27*
X97955000Y-65520000D03*
X97955000Y-58520000D03*
D28*
X94255000Y-66820000D03*
D29*
X94255000Y-57420000D03*
X101655000Y-59420000D03*
D27*
X86405000Y-65520000D03*
X86405000Y-58520000D03*
D28*
X82705000Y-66820000D03*
D29*
X82705000Y-57420000D03*
X90105000Y-59420000D03*
G36*
G01*
X59550000Y-96775000D02*
X59550000Y-98025000D01*
G75*
G02*
X59300000Y-98275000I-250000J0D01*
G01*
X58375000Y-98275000D01*
G75*
G02*
X58125000Y-98025000I0J250000D01*
G01*
X58125000Y-96775000D01*
G75*
G02*
X58375000Y-96525000I250000J0D01*
G01*
X59300000Y-96525000D01*
G75*
G02*
X59550000Y-96775000I0J-250000D01*
G01*
G37*
G36*
G01*
X62525000Y-96775000D02*
X62525000Y-98025000D01*
G75*
G02*
X62275000Y-98275000I-250000J0D01*
G01*
X61350000Y-98275000D01*
G75*
G02*
X61100000Y-98025000I0J250000D01*
G01*
X61100000Y-96775000D01*
G75*
G02*
X61350000Y-96525000I250000J0D01*
G01*
X62275000Y-96525000D01*
G75*
G02*
X62525000Y-96775000I0J-250000D01*
G01*
G37*
G36*
G01*
X59662500Y-101575000D02*
X59662500Y-102825000D01*
G75*
G02*
X59412500Y-103075000I-250000J0D01*
G01*
X58487500Y-103075000D01*
G75*
G02*
X58237500Y-102825000I0J250000D01*
G01*
X58237500Y-101575000D01*
G75*
G02*
X58487500Y-101325000I250000J0D01*
G01*
X59412500Y-101325000D01*
G75*
G02*
X59662500Y-101575000I0J-250000D01*
G01*
G37*
G36*
G01*
X62637500Y-101575000D02*
X62637500Y-102825000D01*
G75*
G02*
X62387500Y-103075000I-250000J0D01*
G01*
X61462500Y-103075000D01*
G75*
G02*
X61212500Y-102825000I0J250000D01*
G01*
X61212500Y-101575000D01*
G75*
G02*
X61462500Y-101325000I250000J0D01*
G01*
X62387500Y-101325000D01*
G75*
G02*
X62637500Y-101575000I0J-250000D01*
G01*
G37*
G36*
G01*
X59750000Y-106375000D02*
X59750000Y-107625000D01*
G75*
G02*
X59500000Y-107875000I-250000J0D01*
G01*
X58575000Y-107875000D01*
G75*
G02*
X58325000Y-107625000I0J250000D01*
G01*
X58325000Y-106375000D01*
G75*
G02*
X58575000Y-106125000I250000J0D01*
G01*
X59500000Y-106125000D01*
G75*
G02*
X59750000Y-106375000I0J-250000D01*
G01*
G37*
G36*
G01*
X62725000Y-106375000D02*
X62725000Y-107625000D01*
G75*
G02*
X62475000Y-107875000I-250000J0D01*
G01*
X61550000Y-107875000D01*
G75*
G02*
X61300000Y-107625000I0J250000D01*
G01*
X61300000Y-106375000D01*
G75*
G02*
X61550000Y-106125000I250000J0D01*
G01*
X62475000Y-106125000D01*
G75*
G02*
X62725000Y-106375000I0J-250000D01*
G01*
G37*
G36*
G01*
X59750000Y-111175000D02*
X59750000Y-112425000D01*
G75*
G02*
X59500000Y-112675000I-250000J0D01*
G01*
X58575000Y-112675000D01*
G75*
G02*
X58325000Y-112425000I0J250000D01*
G01*
X58325000Y-111175000D01*
G75*
G02*
X58575000Y-110925000I250000J0D01*
G01*
X59500000Y-110925000D01*
G75*
G02*
X59750000Y-111175000I0J-250000D01*
G01*
G37*
G36*
G01*
X62725000Y-111175000D02*
X62725000Y-112425000D01*
G75*
G02*
X62475000Y-112675000I-250000J0D01*
G01*
X61550000Y-112675000D01*
G75*
G02*
X61300000Y-112425000I0J250000D01*
G01*
X61300000Y-111175000D01*
G75*
G02*
X61550000Y-110925000I250000J0D01*
G01*
X62475000Y-110925000D01*
G75*
G02*
X62725000Y-111175000I0J-250000D01*
G01*
G37*
G36*
G01*
X85200000Y-91825000D02*
X85200000Y-92775000D01*
G75*
G02*
X84950000Y-93025000I-250000J0D01*
G01*
X84450000Y-93025000D01*
G75*
G02*
X84200000Y-92775000I0J250000D01*
G01*
X84200000Y-91825000D01*
G75*
G02*
X84450000Y-91575000I250000J0D01*
G01*
X84950000Y-91575000D01*
G75*
G02*
X85200000Y-91825000I0J-250000D01*
G01*
G37*
G36*
G01*
X87100000Y-91825000D02*
X87100000Y-92775000D01*
G75*
G02*
X86850000Y-93025000I-250000J0D01*
G01*
X86350000Y-93025000D01*
G75*
G02*
X86100000Y-92775000I0J250000D01*
G01*
X86100000Y-91825000D01*
G75*
G02*
X86350000Y-91575000I250000J0D01*
G01*
X86850000Y-91575000D01*
G75*
G02*
X87100000Y-91825000I0J-250000D01*
G01*
G37*
G36*
G01*
X105300000Y-89050000D02*
X105300000Y-88100000D01*
G75*
G02*
X105550000Y-87850000I250000J0D01*
G01*
X106050000Y-87850000D01*
G75*
G02*
X106300000Y-88100000I0J-250000D01*
G01*
X106300000Y-89050000D01*
G75*
G02*
X106050000Y-89300000I-250000J0D01*
G01*
X105550000Y-89300000D01*
G75*
G02*
X105300000Y-89050000I0J250000D01*
G01*
G37*
G36*
G01*
X103400000Y-89050000D02*
X103400000Y-88100000D01*
G75*
G02*
X103650000Y-87850000I250000J0D01*
G01*
X104150000Y-87850000D01*
G75*
G02*
X104400000Y-88100000I0J-250000D01*
G01*
X104400000Y-89050000D01*
G75*
G02*
X104150000Y-89300000I-250000J0D01*
G01*
X103650000Y-89300000D01*
G75*
G02*
X103400000Y-89050000I0J250000D01*
G01*
G37*
G36*
G01*
X85525000Y-89725000D02*
X85525000Y-90225000D01*
G75*
G02*
X85300000Y-90450000I-225000J0D01*
G01*
X84850000Y-90450000D01*
G75*
G02*
X84625000Y-90225000I0J225000D01*
G01*
X84625000Y-89725000D01*
G75*
G02*
X84850000Y-89500000I225000J0D01*
G01*
X85300000Y-89500000D01*
G75*
G02*
X85525000Y-89725000I0J-225000D01*
G01*
G37*
G36*
G01*
X87075000Y-89725000D02*
X87075000Y-90225000D01*
G75*
G02*
X86850000Y-90450000I-225000J0D01*
G01*
X86400000Y-90450000D01*
G75*
G02*
X86175000Y-90225000I0J225000D01*
G01*
X86175000Y-89725000D01*
G75*
G02*
X86400000Y-89500000I225000J0D01*
G01*
X86850000Y-89500000D01*
G75*
G02*
X87075000Y-89725000I0J-225000D01*
G01*
G37*
G36*
G01*
X104975000Y-90825000D02*
X104975000Y-90325000D01*
G75*
G02*
X105200000Y-90100000I225000J0D01*
G01*
X105650000Y-90100000D01*
G75*
G02*
X105875000Y-90325000I0J-225000D01*
G01*
X105875000Y-90825000D01*
G75*
G02*
X105650000Y-91050000I-225000J0D01*
G01*
X105200000Y-91050000D01*
G75*
G02*
X104975000Y-90825000I0J225000D01*
G01*
G37*
G36*
G01*
X103425000Y-90825000D02*
X103425000Y-90325000D01*
G75*
G02*
X103650000Y-90100000I225000J0D01*
G01*
X104100000Y-90100000D01*
G75*
G02*
X104325000Y-90325000I0J-225000D01*
G01*
X104325000Y-90825000D01*
G75*
G02*
X104100000Y-91050000I-225000J0D01*
G01*
X103650000Y-91050000D01*
G75*
G02*
X103425000Y-90825000I0J225000D01*
G01*
G37*
G36*
G01*
X96325000Y-82525000D02*
X95375000Y-82525000D01*
G75*
G02*
X95125000Y-82275000I0J250000D01*
G01*
X95125000Y-81775000D01*
G75*
G02*
X95375000Y-81525000I250000J0D01*
G01*
X96325000Y-81525000D01*
G75*
G02*
X96575000Y-81775000I0J-250000D01*
G01*
X96575000Y-82275000D01*
G75*
G02*
X96325000Y-82525000I-250000J0D01*
G01*
G37*
G36*
G01*
X96325000Y-84425000D02*
X95375000Y-84425000D01*
G75*
G02*
X95125000Y-84175000I0J250000D01*
G01*
X95125000Y-83675000D01*
G75*
G02*
X95375000Y-83425000I250000J0D01*
G01*
X96325000Y-83425000D01*
G75*
G02*
X96575000Y-83675000I0J-250000D01*
G01*
X96575000Y-84175000D01*
G75*
G02*
X96325000Y-84425000I-250000J0D01*
G01*
G37*
G36*
G01*
X94125000Y-82525000D02*
X93175000Y-82525000D01*
G75*
G02*
X92925000Y-82275000I0J250000D01*
G01*
X92925000Y-81775000D01*
G75*
G02*
X93175000Y-81525000I250000J0D01*
G01*
X94125000Y-81525000D01*
G75*
G02*
X94375000Y-81775000I0J-250000D01*
G01*
X94375000Y-82275000D01*
G75*
G02*
X94125000Y-82525000I-250000J0D01*
G01*
G37*
G36*
G01*
X94125000Y-84425000D02*
X93175000Y-84425000D01*
G75*
G02*
X92925000Y-84175000I0J250000D01*
G01*
X92925000Y-83675000D01*
G75*
G02*
X93175000Y-83425000I250000J0D01*
G01*
X94125000Y-83425000D01*
G75*
G02*
X94375000Y-83675000I0J-250000D01*
G01*
X94375000Y-84175000D01*
G75*
G02*
X94125000Y-84425000I-250000J0D01*
G01*
G37*
G36*
G01*
X85200000Y-94300000D02*
X85200000Y-95250000D01*
G75*
G02*
X84950000Y-95500000I-250000J0D01*
G01*
X84450000Y-95500000D01*
G75*
G02*
X84200000Y-95250000I0J250000D01*
G01*
X84200000Y-94300000D01*
G75*
G02*
X84450000Y-94050000I250000J0D01*
G01*
X84950000Y-94050000D01*
G75*
G02*
X85200000Y-94300000I0J-250000D01*
G01*
G37*
G36*
G01*
X87100000Y-94300000D02*
X87100000Y-95250000D01*
G75*
G02*
X86850000Y-95500000I-250000J0D01*
G01*
X86350000Y-95500000D01*
G75*
G02*
X86100000Y-95250000I0J250000D01*
G01*
X86100000Y-94300000D01*
G75*
G02*
X86350000Y-94050000I250000J0D01*
G01*
X86850000Y-94050000D01*
G75*
G02*
X87100000Y-94300000I0J-250000D01*
G01*
G37*
G36*
G01*
X90950000Y-101675000D02*
X90450000Y-101675000D01*
G75*
G02*
X90225000Y-101450000I0J225000D01*
G01*
X90225000Y-101000000D01*
G75*
G02*
X90450000Y-100775000I225000J0D01*
G01*
X90950000Y-100775000D01*
G75*
G02*
X91175000Y-101000000I0J-225000D01*
G01*
X91175000Y-101450000D01*
G75*
G02*
X90950000Y-101675000I-225000J0D01*
G01*
G37*
G36*
G01*
X90950000Y-103225000D02*
X90450000Y-103225000D01*
G75*
G02*
X90225000Y-103000000I0J225000D01*
G01*
X90225000Y-102550000D01*
G75*
G02*
X90450000Y-102325000I225000J0D01*
G01*
X90950000Y-102325000D01*
G75*
G02*
X91175000Y-102550000I0J-225000D01*
G01*
X91175000Y-103000000D01*
G75*
G02*
X90950000Y-103225000I-225000J0D01*
G01*
G37*
G36*
G01*
X93100000Y-101675000D02*
X92600000Y-101675000D01*
G75*
G02*
X92375000Y-101450000I0J225000D01*
G01*
X92375000Y-101000000D01*
G75*
G02*
X92600000Y-100775000I225000J0D01*
G01*
X93100000Y-100775000D01*
G75*
G02*
X93325000Y-101000000I0J-225000D01*
G01*
X93325000Y-101450000D01*
G75*
G02*
X93100000Y-101675000I-225000J0D01*
G01*
G37*
G36*
G01*
X93100000Y-103225000D02*
X92600000Y-103225000D01*
G75*
G02*
X92375000Y-103000000I0J225000D01*
G01*
X92375000Y-102550000D01*
G75*
G02*
X92600000Y-102325000I225000J0D01*
G01*
X93100000Y-102325000D01*
G75*
G02*
X93325000Y-102550000I0J-225000D01*
G01*
X93325000Y-103000000D01*
G75*
G02*
X93100000Y-103225000I-225000J0D01*
G01*
G37*
G36*
G01*
X72475000Y-79350000D02*
X72475000Y-79850000D01*
G75*
G02*
X72250000Y-80075000I-225000J0D01*
G01*
X71800000Y-80075000D01*
G75*
G02*
X71575000Y-79850000I0J225000D01*
G01*
X71575000Y-79350000D01*
G75*
G02*
X71800000Y-79125000I225000J0D01*
G01*
X72250000Y-79125000D01*
G75*
G02*
X72475000Y-79350000I0J-225000D01*
G01*
G37*
G36*
G01*
X74025000Y-79350000D02*
X74025000Y-79850000D01*
G75*
G02*
X73800000Y-80075000I-225000J0D01*
G01*
X73350000Y-80075000D01*
G75*
G02*
X73125000Y-79850000I0J225000D01*
G01*
X73125000Y-79350000D01*
G75*
G02*
X73350000Y-79125000I225000J0D01*
G01*
X73800000Y-79125000D01*
G75*
G02*
X74025000Y-79350000I0J-225000D01*
G01*
G37*
G36*
G01*
X72475000Y-75400000D02*
X72475000Y-75900000D01*
G75*
G02*
X72250000Y-76125000I-225000J0D01*
G01*
X71800000Y-76125000D01*
G75*
G02*
X71575000Y-75900000I0J225000D01*
G01*
X71575000Y-75400000D01*
G75*
G02*
X71800000Y-75175000I225000J0D01*
G01*
X72250000Y-75175000D01*
G75*
G02*
X72475000Y-75400000I0J-225000D01*
G01*
G37*
G36*
G01*
X74025000Y-75400000D02*
X74025000Y-75900000D01*
G75*
G02*
X73800000Y-76125000I-225000J0D01*
G01*
X73350000Y-76125000D01*
G75*
G02*
X73125000Y-75900000I0J225000D01*
G01*
X73125000Y-75400000D01*
G75*
G02*
X73350000Y-75175000I225000J0D01*
G01*
X73800000Y-75175000D01*
G75*
G02*
X74025000Y-75400000I0J-225000D01*
G01*
G37*
D30*
X114100000Y-129300000D03*
D14*
X114100000Y-134300000D03*
G36*
G01*
X95150000Y-101650000D02*
X94650000Y-101650000D01*
G75*
G02*
X94425000Y-101425000I0J225000D01*
G01*
X94425000Y-100975000D01*
G75*
G02*
X94650000Y-100750000I225000J0D01*
G01*
X95150000Y-100750000D01*
G75*
G02*
X95375000Y-100975000I0J-225000D01*
G01*
X95375000Y-101425000D01*
G75*
G02*
X95150000Y-101650000I-225000J0D01*
G01*
G37*
G36*
G01*
X95150000Y-103200000D02*
X94650000Y-103200000D01*
G75*
G02*
X94425000Y-102975000I0J225000D01*
G01*
X94425000Y-102525000D01*
G75*
G02*
X94650000Y-102300000I225000J0D01*
G01*
X95150000Y-102300000D01*
G75*
G02*
X95375000Y-102525000I0J-225000D01*
G01*
X95375000Y-102975000D01*
G75*
G02*
X95150000Y-103200000I-225000J0D01*
G01*
G37*
G36*
G01*
X72525000Y-71200000D02*
X72525000Y-71700000D01*
G75*
G02*
X72300000Y-71925000I-225000J0D01*
G01*
X71850000Y-71925000D01*
G75*
G02*
X71625000Y-71700000I0J225000D01*
G01*
X71625000Y-71200000D01*
G75*
G02*
X71850000Y-70975000I225000J0D01*
G01*
X72300000Y-70975000D01*
G75*
G02*
X72525000Y-71200000I0J-225000D01*
G01*
G37*
G36*
G01*
X74075000Y-71200000D02*
X74075000Y-71700000D01*
G75*
G02*
X73850000Y-71925000I-225000J0D01*
G01*
X73400000Y-71925000D01*
G75*
G02*
X73175000Y-71700000I0J225000D01*
G01*
X73175000Y-71200000D01*
G75*
G02*
X73400000Y-70975000I225000J0D01*
G01*
X73850000Y-70975000D01*
G75*
G02*
X74075000Y-71200000I0J-225000D01*
G01*
G37*
D30*
X69200000Y-118400000D03*
X69200000Y-128400000D03*
G36*
G01*
X105775000Y-77725000D02*
X106275000Y-77725000D01*
G75*
G02*
X106500000Y-77950000I0J-225000D01*
G01*
X106500000Y-78400000D01*
G75*
G02*
X106275000Y-78625000I-225000J0D01*
G01*
X105775000Y-78625000D01*
G75*
G02*
X105550000Y-78400000I0J225000D01*
G01*
X105550000Y-77950000D01*
G75*
G02*
X105775000Y-77725000I225000J0D01*
G01*
G37*
G36*
G01*
X105775000Y-76175000D02*
X106275000Y-76175000D01*
G75*
G02*
X106500000Y-76400000I0J-225000D01*
G01*
X106500000Y-76850000D01*
G75*
G02*
X106275000Y-77075000I-225000J0D01*
G01*
X105775000Y-77075000D01*
G75*
G02*
X105550000Y-76850000I0J225000D01*
G01*
X105550000Y-76400000D01*
G75*
G02*
X105775000Y-76175000I225000J0D01*
G01*
G37*
G36*
G01*
X112975000Y-77075000D02*
X112475000Y-77075000D01*
G75*
G02*
X112250000Y-76850000I0J225000D01*
G01*
X112250000Y-76400000D01*
G75*
G02*
X112475000Y-76175000I225000J0D01*
G01*
X112975000Y-76175000D01*
G75*
G02*
X113200000Y-76400000I0J-225000D01*
G01*
X113200000Y-76850000D01*
G75*
G02*
X112975000Y-77075000I-225000J0D01*
G01*
G37*
G36*
G01*
X112975000Y-78625000D02*
X112475000Y-78625000D01*
G75*
G02*
X112250000Y-78400000I0J225000D01*
G01*
X112250000Y-77950000D01*
G75*
G02*
X112475000Y-77725000I225000J0D01*
G01*
X112975000Y-77725000D01*
G75*
G02*
X113200000Y-77950000I0J-225000D01*
G01*
X113200000Y-78400000D01*
G75*
G02*
X112975000Y-78625000I-225000J0D01*
G01*
G37*
G36*
G01*
X94175000Y-77925000D02*
X94675000Y-77925000D01*
G75*
G02*
X94900000Y-78150000I0J-225000D01*
G01*
X94900000Y-78600000D01*
G75*
G02*
X94675000Y-78825000I-225000J0D01*
G01*
X94175000Y-78825000D01*
G75*
G02*
X93950000Y-78600000I0J225000D01*
G01*
X93950000Y-78150000D01*
G75*
G02*
X94175000Y-77925000I225000J0D01*
G01*
G37*
G36*
G01*
X94175000Y-76375000D02*
X94675000Y-76375000D01*
G75*
G02*
X94900000Y-76600000I0J-225000D01*
G01*
X94900000Y-77050000D01*
G75*
G02*
X94675000Y-77275000I-225000J0D01*
G01*
X94175000Y-77275000D01*
G75*
G02*
X93950000Y-77050000I0J225000D01*
G01*
X93950000Y-76600000D01*
G75*
G02*
X94175000Y-76375000I225000J0D01*
G01*
G37*
G36*
G01*
X101375000Y-77275000D02*
X100875000Y-77275000D01*
G75*
G02*
X100650000Y-77050000I0J225000D01*
G01*
X100650000Y-76600000D01*
G75*
G02*
X100875000Y-76375000I225000J0D01*
G01*
X101375000Y-76375000D01*
G75*
G02*
X101600000Y-76600000I0J-225000D01*
G01*
X101600000Y-77050000D01*
G75*
G02*
X101375000Y-77275000I-225000J0D01*
G01*
G37*
G36*
G01*
X101375000Y-78825000D02*
X100875000Y-78825000D01*
G75*
G02*
X100650000Y-78600000I0J225000D01*
G01*
X100650000Y-78150000D01*
G75*
G02*
X100875000Y-77925000I225000J0D01*
G01*
X101375000Y-77925000D01*
G75*
G02*
X101600000Y-78150000I0J-225000D01*
G01*
X101600000Y-78600000D01*
G75*
G02*
X101375000Y-78825000I-225000J0D01*
G01*
G37*
G36*
G01*
X82275000Y-77925000D02*
X82775000Y-77925000D01*
G75*
G02*
X83000000Y-78150000I0J-225000D01*
G01*
X83000000Y-78600000D01*
G75*
G02*
X82775000Y-78825000I-225000J0D01*
G01*
X82275000Y-78825000D01*
G75*
G02*
X82050000Y-78600000I0J225000D01*
G01*
X82050000Y-78150000D01*
G75*
G02*
X82275000Y-77925000I225000J0D01*
G01*
G37*
G36*
G01*
X82275000Y-76375000D02*
X82775000Y-76375000D01*
G75*
G02*
X83000000Y-76600000I0J-225000D01*
G01*
X83000000Y-77050000D01*
G75*
G02*
X82775000Y-77275000I-225000J0D01*
G01*
X82275000Y-77275000D01*
G75*
G02*
X82050000Y-77050000I0J225000D01*
G01*
X82050000Y-76600000D01*
G75*
G02*
X82275000Y-76375000I225000J0D01*
G01*
G37*
G36*
G01*
X89775000Y-77275000D02*
X89275000Y-77275000D01*
G75*
G02*
X89050000Y-77050000I0J225000D01*
G01*
X89050000Y-76600000D01*
G75*
G02*
X89275000Y-76375000I225000J0D01*
G01*
X89775000Y-76375000D01*
G75*
G02*
X90000000Y-76600000I0J-225000D01*
G01*
X90000000Y-77050000D01*
G75*
G02*
X89775000Y-77275000I-225000J0D01*
G01*
G37*
G36*
G01*
X89775000Y-78825000D02*
X89275000Y-78825000D01*
G75*
G02*
X89050000Y-78600000I0J225000D01*
G01*
X89050000Y-78150000D01*
G75*
G02*
X89275000Y-77925000I225000J0D01*
G01*
X89775000Y-77925000D01*
G75*
G02*
X90000000Y-78150000I0J-225000D01*
G01*
X90000000Y-78600000D01*
G75*
G02*
X89775000Y-78825000I-225000J0D01*
G01*
G37*
M02*
